<svg width="273" height="326" viewBox="0 0 273 326" fill="none" xmlns="http://www.w3.org/2000/svg">
<rect width="272.86" height="325.571" rx="10" fill="#FA6E5A"/>
<path d="M28.224 256.184H34.29C35.49 256.184 36.468 256.454 37.224 256.994C37.992 257.522 38.376 258.326 38.376 259.406C38.376 260.006 38.22 260.54 37.908 261.008C37.596 261.464 37.17 261.812 36.63 262.052C38.19 262.496 38.97 263.54 38.97 265.184C38.97 266.396 38.562 267.338 37.746 268.01C36.93 268.67 35.892 269 34.632 269H28.224V256.184ZM30.96 258.362V261.368H33.516C34.932 261.368 35.64 260.87 35.64 259.874C35.64 259.286 35.448 258.89 35.064 258.686C34.68 258.47 34.164 258.362 33.516 258.362H30.96ZM30.96 263.276V266.768H33.786C34.518 266.768 35.094 266.648 35.514 266.408C35.946 266.168 36.162 265.706 36.162 265.022C36.162 264.326 35.934 263.864 35.478 263.636C35.034 263.396 34.422 263.276 33.642 263.276H30.96ZM49.3758 266.12C49.0878 267.116 48.5538 267.89 47.7738 268.442C47.0058 268.994 46.0878 269.27 45.0198 269.27C43.5918 269.27 42.4398 268.826 41.5638 267.938C40.6998 267.05 40.2678 265.874 40.2678 264.41C40.2678 262.97 40.7058 261.782 41.5818 260.846C42.4578 259.91 43.5738 259.442 44.9298 259.442C46.3338 259.442 47.4498 259.922 48.2778 260.882C49.1058 261.83 49.5198 263.12 49.5198 264.752V265.004H42.8598C42.8718 265.808 43.0638 266.42 43.4358 266.84C43.8198 267.26 44.3538 267.47 45.0378 267.47C45.9378 267.47 46.5678 267.02 46.9278 266.12H49.3758ZM46.9278 263.384C46.8678 262.772 46.6698 262.274 46.3338 261.89C45.9978 261.494 45.5298 261.296 44.9298 261.296C44.3658 261.296 43.8978 261.482 43.5258 261.854C43.1538 262.226 42.9318 262.736 42.8598 263.384H46.9278ZM53.3938 259.712V260.864C54.0658 259.928 55.0258 259.46 56.2738 259.46C57.5218 259.46 58.5238 259.91 59.2798 260.81C60.0358 261.71 60.4138 262.91 60.4138 264.41C60.4138 265.862 60.0418 267.032 59.2978 267.92C58.5658 268.796 57.5938 269.234 56.3818 269.234C55.1338 269.234 54.1798 268.772 53.5198 267.848V272.294H50.9818V259.712H53.3938ZM55.6438 261.512C54.9478 261.512 54.4018 261.764 54.0058 262.268C53.6218 262.772 53.4298 263.474 53.4298 264.374C53.4298 265.274 53.6278 265.976 54.0238 266.48C54.4198 266.984 54.9658 267.236 55.6618 267.236C56.3458 267.236 56.8798 266.984 57.2638 266.48C57.6598 265.976 57.8578 265.286 57.8578 264.41C57.8578 263.51 57.6598 262.802 57.2638 262.286C56.8678 261.77 56.3278 261.512 55.6438 261.512ZM70.8417 265.418C70.6857 266.618 70.2117 267.554 69.4197 268.226C68.6397 268.898 67.6317 269.234 66.3957 269.234C64.9677 269.234 63.8217 268.796 62.9577 267.92C62.0937 267.044 61.6617 265.88 61.6617 264.428C61.6617 262.928 62.0937 261.722 62.9577 260.81C63.8337 259.898 64.9917 259.442 66.4317 259.442C67.6677 259.442 68.6757 259.76 69.4557 260.396C70.2357 261.02 70.6797 261.872 70.7877 262.952H68.2857C68.0937 261.884 67.4817 261.35 66.4497 261.35C65.7537 261.35 65.2077 261.62 64.8117 262.16C64.4277 262.688 64.2357 263.426 64.2357 264.374C64.2357 265.298 64.4217 266.018 64.7937 266.534C65.1777 267.038 65.7117 267.29 66.3957 267.29C67.5117 267.29 68.1717 266.666 68.3757 265.418H70.8417ZM79.8712 261.674H76.8112V269H74.2732V261.674H71.2132V259.712H79.8712V261.674ZM89.3288 269H86.7368C86.6528 268.76 86.5928 268.46 86.5568 268.1C85.7768 268.88 84.7748 269.27 83.5508 269.27C82.5188 269.27 81.7088 269.024 81.1208 268.532C80.5328 268.028 80.2388 267.338 80.2388 266.462C80.2388 266.066 80.2868 265.718 80.3828 265.418C80.4908 265.118 80.6588 264.866 80.8868 264.662C81.1268 264.458 81.3488 264.29 81.5528 264.158C81.7688 264.026 82.0628 263.918 82.4348 263.834C82.8068 263.75 83.1068 263.69 83.3348 263.654C83.5628 263.606 83.8808 263.558 84.2888 263.51C85.1888 263.39 85.7888 263.264 86.0888 263.132C86.4008 263 86.5568 262.754 86.5568 262.394C86.5568 261.566 85.9988 261.152 84.8828 261.152C84.2948 261.152 83.8628 261.26 83.5868 261.476C83.3108 261.68 83.1308 262.046 83.0468 262.574H80.6528C80.7968 260.486 82.2308 259.442 84.9548 259.442C87.6548 259.442 89.0048 260.45 89.0048 262.466V266.48C89.0048 267.656 89.1128 268.496 89.3288 269ZM86.5388 264.482C86.2388 264.662 85.6388 264.824 84.7388 264.968C83.9828 265.088 83.4908 265.238 83.2628 265.418C82.9988 265.646 82.8668 265.958 82.8668 266.354C82.8668 266.738 82.9868 267.044 83.2268 267.272C83.4788 267.488 83.8268 267.596 84.2708 267.596C84.9548 267.596 85.5008 267.416 85.9088 267.056C86.3288 266.684 86.5388 266.174 86.5388 265.526V264.482ZM99.7547 266.12C99.4667 267.116 98.9327 267.89 98.1527 268.442C97.3847 268.994 96.4667 269.27 95.3987 269.27C93.9707 269.27 92.8187 268.826 91.9427 267.938C91.0787 267.05 90.6467 265.874 90.6467 264.41C90.6467 262.97 91.0847 261.782 91.9607 260.846C92.8367 259.91 93.9527 259.442 95.3087 259.442C96.7127 259.442 97.8287 259.922 98.6567 260.882C99.4847 261.83 99.8987 263.12 99.8987 264.752V265.004H93.2387C93.2507 265.808 93.4427 266.42 93.8147 266.84C94.1987 267.26 94.7327 267.47 95.4167 267.47C96.3167 267.47 96.9467 267.02 97.3067 266.12H99.7547ZM97.3067 263.384C97.2467 262.772 97.0487 262.274 96.7127 261.89C96.3767 261.494 95.9087 261.296 95.3087 261.296C94.7447 261.296 94.2767 261.482 93.9047 261.854C93.5327 262.226 93.3107 262.736 93.2387 263.384H97.3067ZM112.377 269H109.965V261.944H109.911L108.093 269H105.681L103.863 261.944H103.809V269H101.397V259.712H105.105L106.851 266.462H106.923L108.669 259.712H112.377V269ZM33.804 287.564V283.712H36.342V293H33.804V289.346C32.7 289.622 31.71 289.76 30.834 289.76C29.826 289.76 29.052 289.478 28.512 288.914C27.984 288.338 27.72 287.546 27.72 286.538V283.712H30.258V286.016C30.258 286.7 30.354 287.174 30.546 287.438C30.75 287.702 31.128 287.834 31.68 287.834C32.436 287.834 33.144 287.744 33.804 287.564ZM46.7499 283.712L43.3299 292.964C43.1619 293.432 43.0359 293.756 42.9519 293.936C42.8799 294.128 42.7599 294.392 42.5919 294.728C42.4359 295.064 42.2859 295.298 42.1419 295.43C42.0099 295.562 41.8239 295.712 41.5839 295.88C41.3559 296.048 41.0919 296.162 40.7919 296.222C40.5039 296.282 40.1679 296.312 39.7839 296.312C39.4719 296.312 38.9019 296.306 38.0739 296.294V294.188H39.3159C39.7359 294.188 40.0539 294.08 40.2699 293.864C40.4979 293.648 40.6119 293.342 40.6119 292.946C40.6119 292.85 40.5879 292.73 40.5399 292.586L37.1739 283.712H39.9279L42.0519 290.03L44.1039 283.712H46.7499ZM57.493 295.736H55.099V293H48.979V295.736H46.585V291.038H47.701C48.001 290.462 48.271 289.622 48.511 288.518C48.751 287.414 48.871 286.352 48.871 285.332V283.712H56.287V291.038H57.493V295.736ZM53.749 291.038V285.602H51.247V285.836C51.247 286.736 51.133 287.69 50.905 288.698C50.689 289.694 50.455 290.474 50.203 291.038H53.749ZM67.4637 290.12C67.1757 291.116 66.6417 291.89 65.8617 292.442C65.0937 292.994 64.1757 293.27 63.1077 293.27C61.6797 293.27 60.5277 292.826 59.6517 291.938C58.7877 291.05 58.3557 289.874 58.3557 288.41C58.3557 286.97 58.7937 285.782 59.6697 284.846C60.5457 283.91 61.6617 283.442 63.0177 283.442C64.4217 283.442 65.5377 283.922 66.3657 284.882C67.1937 285.83 67.6077 287.12 67.6077 288.752V289.004H60.9477C60.9597 289.808 61.1517 290.42 61.5237 290.84C61.9077 291.26 62.4417 291.47 63.1257 291.47C64.0257 291.47 64.6557 291.02 65.0157 290.12H67.4637ZM65.0157 287.384C64.9557 286.772 64.7577 286.274 64.4217 285.89C64.0857 285.494 63.6177 285.296 63.0177 285.296C62.4537 285.296 61.9857 285.482 61.6137 285.854C61.2417 286.226 61.0197 286.736 60.9477 287.384H65.0157ZM77.9257 289.418C77.7697 290.618 77.2957 291.554 76.5037 292.226C75.7237 292.898 74.7157 293.234 73.4797 293.234C72.0517 293.234 70.9057 292.796 70.0417 291.92C69.1777 291.044 68.7457 289.88 68.7457 288.428C68.7457 286.928 69.1777 285.722 70.0417 284.81C70.9177 283.898 72.0757 283.442 73.5157 283.442C74.7517 283.442 75.7597 283.76 76.5397 284.396C77.3197 285.02 77.7637 285.872 77.8717 286.952H75.3697C75.1777 285.884 74.5657 285.35 73.5337 285.35C72.8377 285.35 72.2917 285.62 71.8957 286.16C71.5117 286.688 71.3197 287.426 71.3197 288.374C71.3197 289.298 71.5057 290.018 71.8777 290.534C72.2617 291.038 72.7957 291.29 73.4797 291.29C74.5957 291.29 75.2557 290.666 75.4597 289.418H77.9257ZM88.0996 293H85.5616V289.094H81.9796V293H79.4416V283.712H81.9796V287.078H85.5616V283.712H88.0996V293ZM99.0575 283.712H101.596V293H99.0575V283.712ZM97.8875 289.94C97.8875 290.936 97.5635 291.698 96.9155 292.226C96.2795 292.742 95.4335 293 94.3775 293H89.9495V283.712H92.4695V286.898H94.4855C95.4695 286.898 96.2795 287.162 96.9155 287.69C97.5635 288.218 97.8875 288.968 97.8875 289.94ZM92.4695 288.626V291.236H93.7655C94.7975 291.236 95.3135 290.804 95.3135 289.94C95.3135 289.508 95.1695 289.184 94.8815 288.968C94.5935 288.74 94.2155 288.626 93.7475 288.626H92.4695ZM112.147 290.12C111.859 291.116 111.325 291.89 110.545 292.442C109.777 292.994 108.859 293.27 107.791 293.27C106.363 293.27 105.211 292.826 104.335 291.938C103.471 291.05 103.039 289.874 103.039 288.41C103.039 286.97 103.477 285.782 104.353 284.846C105.229 283.91 106.345 283.442 107.701 283.442C109.105 283.442 110.221 283.922 111.049 284.882C111.877 285.83 112.291 287.12 112.291 288.752V289.004H105.631C105.643 289.808 105.835 290.42 106.207 290.84C106.591 291.26 107.125 291.47 107.809 291.47C108.709 291.47 109.339 291.02 109.699 290.12H112.147ZM109.699 287.384C109.639 286.772 109.441 286.274 109.105 285.89C108.769 285.494 108.301 285.296 107.701 285.296C107.137 285.296 106.669 285.482 106.297 285.854C105.925 286.226 105.703 286.736 105.631 287.384H109.699ZM127.619 289.418C127.463 290.618 126.989 291.554 126.197 292.226C125.417 292.898 124.409 293.234 123.173 293.234C121.745 293.234 120.599 292.796 119.735 291.92C118.871 291.044 118.439 289.88 118.439 288.428C118.439 286.928 118.871 285.722 119.735 284.81C120.611 283.898 121.769 283.442 123.209 283.442C124.445 283.442 125.453 283.76 126.233 284.396C127.013 285.02 127.457 285.872 127.565 286.952H125.063C124.871 285.884 124.259 285.35 123.227 285.35C122.531 285.35 121.985 285.62 121.589 286.16C121.205 286.688 121.013 287.426 121.013 288.374C121.013 289.298 121.199 290.018 121.571 290.534C121.955 291.038 122.489 291.29 123.173 291.29C124.289 291.29 124.949 290.666 125.153 289.418H127.619ZM137.739 293H135.147C135.063 292.76 135.003 292.46 134.967 292.1C134.187 292.88 133.185 293.27 131.961 293.27C130.929 293.27 130.119 293.024 129.531 292.532C128.943 292.028 128.649 291.338 128.649 290.462C128.649 290.066 128.697 289.718 128.793 289.418C128.901 289.118 129.069 288.866 129.297 288.662C129.537 288.458 129.759 288.29 129.963 288.158C130.179 288.026 130.473 287.918 130.845 287.834C131.217 287.75 131.517 287.69 131.745 287.654C131.973 287.606 132.291 287.558 132.699 287.51C133.599 287.39 134.199 287.264 134.499 287.132C134.811 287 134.967 286.754 134.967 286.394C134.967 285.566 134.409 285.152 133.293 285.152C132.705 285.152 132.273 285.26 131.997 285.476C131.721 285.68 131.541 286.046 131.457 286.574H129.063C129.207 284.486 130.641 283.442 133.365 283.442C136.065 283.442 137.415 284.45 137.415 286.466V290.48C137.415 291.656 137.523 292.496 137.739 293ZM134.949 288.482C134.649 288.662 134.049 288.824 133.149 288.968C132.393 289.088 131.901 289.238 131.673 289.418C131.409 289.646 131.277 289.958 131.277 290.354C131.277 290.738 131.397 291.044 131.637 291.272C131.889 291.488 132.237 291.596 132.681 291.596C133.365 291.596 133.911 291.416 134.319 291.056C134.739 290.684 134.949 290.174 134.949 289.526V288.482ZM145.717 280.184H146.725C146.725 281.912 145.747 282.776 143.791 282.776C141.835 282.776 140.857 281.912 140.857 280.184H141.865C142.021 280.976 142.663 281.372 143.791 281.372C144.919 281.372 145.561 280.976 145.717 280.184ZM148.129 293H145.681V286.718L142.369 293H139.471V283.712H141.919V289.994L145.231 283.712H148.129V293ZM157.971 285.674H154.911V293H152.373V285.674H149.313V283.712H157.971V285.674ZM168.087 283.712H170.625V293H168.087V283.712ZM166.917 289.94C166.917 290.936 166.593 291.698 165.945 292.226C165.309 292.742 164.463 293 163.407 293H158.979V283.712H161.499V286.898H163.515C164.499 286.898 165.309 287.162 165.945 287.69C166.593 288.218 166.917 288.968 166.917 289.94ZM161.499 288.626V291.236H162.795C163.827 291.236 164.343 290.804 164.343 289.94C164.343 289.508 164.199 289.184 163.911 288.968C163.623 288.74 163.245 288.626 162.777 288.626H161.499Z" fill="#FEF9F3"/>
<path d="M75.3807 178.168C75.3807 178.95 70.7957 179.581 65.1428 179.581C59.4899 179.581 54.9048 178.95 54.9048 178.168C54.9048 177.385 59.4899 176.754 65.1428 176.754C70.7957 176.754 75.3807 177.385 75.3807 178.168Z" fill="#FDF9E7"/>
<path d="M98.3063 192.242C118.344 192.242 134.589 189.996 134.589 187.225C134.589 184.454 118.344 182.208 98.3063 182.208C78.2681 182.208 62.0239 184.454 62.0239 187.225C62.0239 189.996 78.2681 192.242 98.3063 192.242Z" fill="#F05D48"/>
<path d="M192.192 190.525C216.042 190.525 235.376 187.853 235.376 184.556C235.376 181.259 216.042 178.586 192.192 178.586C168.342 178.586 149.008 181.259 149.008 184.556C149.008 187.853 168.342 190.525 192.192 190.525Z" fill="#F05D48"/>
<path d="M136.797 180.467C163.392 180.467 184.952 177.487 184.952 173.812C184.952 170.136 163.392 167.157 136.797 167.157C110.201 167.157 88.6416 170.136 88.6416 173.812C88.6416 177.487 110.201 180.467 136.797 180.467Z" fill="#F05D48"/>
<path d="M246.488 172.344C246.488 174.042 236.516 175.426 224.209 175.426C211.907 175.426 201.929 174.049 201.929 172.344C201.929 170.645 211.901 169.262 224.209 169.262C236.51 169.262 246.488 170.639 246.488 172.344Z" fill="#F05D48"/>
<path d="M54.1389 163.026C42.6702 160.393 31.9134 151.396 26.2424 140.889C20.5774 130.381 18.3814 117.708 21.7418 106.242C25.0961 94.7765 34.4593 84.9122 46.0849 82.4309C60.2323 79.4098 74.5003 87.2478 85.3054 96.9119C89.7215 100.861 93.8843 105.205 98.9942 108.19C104.11 111.168 110.511 112.637 115.965 110.343C122.511 107.589 125.871 100.467 129.057 94.097C136.899 78.4088 147.192 63.7155 160.754 52.6561C174.316 41.5906 191.347 34.3471 208.807 34.4078C219.684 34.4442 231.038 37.6049 238.616 45.449C248.22 55.3921 249.897 70.9105 247.032 84.4693C244.166 98.0282 237.463 110.398 232.136 123.18C226.809 135.963 222.767 150.031 225.621 163.59L54.1389 163.026Z" fill="#F05D48"/>
<path d="M126.885 79.3975C130.203 73.9194 133.08 68.0773 134.353 61.7983C136.018 53.5842 134.595 44.915 128.936 38.5087C120.96 29.4877 104.544 25.2107 93.2989 29.7121C88.6655 31.5685 84.6415 35.4632 83.5797 40.359C81.7759 48.646 88.0622 55.8167 91.9596 62.4293C94.053 65.9843 95.6155 70.1217 95.7664 74.2894C95.9051 78.2691 93.4256 81.9455 94.0289 85.9616C94.3667 88.2184 95.7181 90.2385 97.4677 91.7006C101.293 94.8977 106.698 96.0625 111.494 94.8309C118.909 92.9321 123.168 85.5369 126.885 79.3975Z" fill="#F05D48"/>
<path d="M109.896 54.6034H27.5757C27.4189 54.6034 27.2861 54.7308 27.2861 54.8946V119.874C27.2861 120.032 27.4128 120.165 27.5757 120.165H109.896C110.053 120.165 110.185 120.038 110.185 119.874V54.8946C110.185 54.7369 110.053 54.6034 109.896 54.6034ZM84.9373 87.0961H77.2694V79.6038H84.9373V87.0961ZM85.5165 79.6038H93.1844V87.0961H85.5165V79.6038ZM68.4492 87.6785V95.1707H60.7813V87.6785H68.4492ZM60.7813 87.0961V79.6038H68.4492V87.0961H60.7813ZM69.0284 87.6785H76.6963V95.1707H69.0284V87.6785ZM69.0284 87.0961V79.6038H76.6963V87.0961H69.0284ZM77.2694 79.0275V71.5353H84.9373V79.0275H77.2694ZM76.6963 79.0275H69.0284V71.5353H76.6963V79.0275ZM68.4492 79.0275H60.7813V71.5353H68.4492V79.0275ZM60.2021 79.0275H52.5342V71.5353H60.2021V79.0275ZM60.2021 79.6038V87.0961H52.5342V79.6038H60.2021ZM51.961 87.0961H44.2931V79.6038H51.961V87.0961ZM43.714 87.0961H36.046V79.6038H43.714V87.0961ZM43.714 87.6785V95.1707H36.046V87.6785H43.714ZM44.2931 87.6785H51.961V95.1707H44.2931V87.6785ZM52.5342 87.6785H60.2021V95.1707H52.5342V87.6785ZM60.2021 95.747V103.239H52.5342V95.747H60.2021ZM60.7813 95.747H68.4492V103.239H60.7813V95.747ZM69.0284 95.747H76.6963V103.239H69.0284V95.747ZM77.2694 95.747H84.9373V103.239H77.2694V95.747ZM77.2694 95.1647V87.6785H84.9373V95.1707H77.2694V95.1647ZM85.5165 87.6785H93.1844V95.1707H85.5165V87.6785ZM93.7576 87.6785H101.425V95.1707H93.7576V87.6785ZM93.7576 87.0961V79.6038H101.425V87.0961H93.7576ZM93.7576 79.0275V71.5353H101.425V79.0275H93.7576ZM93.1844 79.0275H85.5165V71.5353H93.1844V79.0275ZM85.5165 70.9529V63.4667H93.1844V70.9589H85.5165V70.9529ZM84.9373 70.9529H77.2694V63.4667H84.9373V70.9529ZM76.6963 70.9529H69.0284V63.4667H76.6963V70.9529ZM68.4492 70.9529H60.7813V63.4667H68.4492V70.9529ZM60.2021 70.9529H52.5342V63.4667H60.2021V70.9529ZM51.961 70.9529H44.2931V63.4667H51.961V70.9529ZM51.961 71.5353V79.0275H44.2931V71.5353H51.961ZM43.714 79.0275H36.046V71.5353H43.714V79.0275ZM35.4669 79.0275H27.8653V71.5353H35.4669V79.0275ZM35.4669 79.6038V87.0961H27.8653V79.6038H35.4669ZM35.4669 87.6785V95.1707H27.8653V87.6785H35.4669ZM35.4669 95.747V103.239H27.8653V95.747H35.4669ZM36.046 95.747H43.714V103.239H36.046V95.747ZM44.2931 95.747H51.961V103.239H44.2931V95.747ZM51.961 103.816V111.308H44.2931V103.816H51.961ZM52.5342 103.816H60.2021V111.308H52.5342V103.816ZM60.7813 103.816H68.4492V111.308H60.7813V103.816ZM69.0284 103.816H76.6963V111.308H69.0284V103.816ZM77.2694 103.816H84.9373V111.308H77.2694V103.816ZM85.5165 103.816H93.1844V111.308H85.5165V103.816ZM85.5165 103.239V95.747H93.1844V103.239H85.5165ZM93.7576 95.747H101.425V103.239H93.7576V95.747ZM102.005 95.747H109.606V103.239H102.005V95.747ZM102.005 95.1647V87.6785H109.606V95.1707H102.005V95.1647ZM102.005 87.0961V79.6038H109.606V87.0961H102.005ZM102.005 79.0275V71.5353H109.606V79.0275H102.005ZM102.005 70.9529V63.4667H109.606V70.9589H102.005V70.9529ZM101.425 70.9529H93.7576V63.4667H101.425V70.9529ZM93.7576 62.8843V55.1858H101.425V62.8843H93.7576ZM93.1844 62.8843H85.5165V55.1858H93.1844V62.8843ZM84.9373 62.8843H77.2694V55.1858H84.9373V62.8843ZM76.6963 62.8843H69.0284V55.1858H76.6963V62.8843ZM68.4492 62.8843H60.7813V55.1858H68.4492V62.8843ZM60.2021 62.8843H52.5342V55.1858H60.2021V62.8843ZM51.961 62.8843H44.2931V55.1858H51.961V62.8843ZM43.714 62.8843H36.046V55.1858H43.714V62.8843ZM43.714 63.4667V70.9589H36.046V63.4667H43.714ZM35.4669 70.9529H27.8653V63.4667H35.4669V70.9529ZM27.8653 103.816H35.4669V111.308H27.8653V103.816ZM36.046 103.816H43.714V111.308H36.046V103.816ZM43.714 111.89V119.589H36.046V111.89H43.714ZM44.2931 111.89H51.961V119.589H44.2931V111.89ZM52.5342 111.89H60.2021V119.589H52.5342V111.89ZM60.7813 111.89H68.4492V119.589H60.7813V111.89ZM69.0284 111.89H76.6963V119.589H69.0284V111.89ZM77.2694 111.89H84.9373V119.589H77.2694V111.89ZM85.5165 111.89H93.1844V119.589H85.5165V111.89ZM93.7576 111.89H101.425V119.589H93.7576V111.89ZM93.7576 111.308V103.816H101.425V111.308H93.7576ZM102.005 103.816H109.606V111.308H102.005V103.816ZM109.606 62.8843H102.005V55.1858H109.606V62.8843ZM35.4669 55.1858V62.8843H27.8653V55.1858H35.4669ZM27.8653 111.89H35.4669V119.589H27.8653V111.89ZM102.005 119.589V111.89H109.606V119.589H102.005Z" fill="#E7DFC2"/>
<path d="M61.2397 73.1855C61.2397 73.1855 63.0798 89.7048 72.2077 92.5804L89.0035 87.8424C89.0035 87.8424 78.9767 83.2014 77.9511 73.1855H61.2397Z" fill="#FEDEA6"/>
<path d="M52.5346 88.4552C52.5346 88.4552 51.135 107.262 44.185 110.532L31.395 105.138C31.395 105.138 39.0328 99.8604 39.811 88.4552H52.5346Z" fill="#F7F4E3"/>
<path d="M95.7256 60.0375L84.5396 63.3082L88.4103 76.6943L99.5964 73.4236L95.7256 60.0375Z" fill="#F7F4E3"/>
<path d="M95.144 61.3637L85.7422 64.1128L88.2419 72.7573L97.6437 70.0082L95.144 61.3637Z" fill="#FDFDFD"/>
<path d="M63.9391 100.644L55.334 98.2727L52.5292 108.564L61.1344 110.935L63.9391 100.644Z" fill="#D2CDB8"/>
<path d="M63.0343 101.275L55.8022 99.2816L53.9893 105.934L61.2213 107.927L63.0343 101.275Z" fill="#E7DFC2"/>
<path d="M199.009 95.4495C197.784 95.4495 196.553 95.4434 195.329 95.4434C194.725 95.4434 194.146 95.9773 194.176 96.6021C194.207 97.2331 194.683 97.7609 195.329 97.7609C196.553 97.7609 197.784 97.7669 199.009 97.7669C199.612 97.7669 200.191 97.2331 200.161 96.6082C200.131 95.9833 199.654 95.4556 199.009 95.4495Z" fill="#CCC6AD"/>
<path d="M235.031 126.238C223.738 116.143 212.444 106.054 201.15 95.9594C199.491 94.4791 197.036 96.93 198.707 98.4163L232.588 128.695C234.241 130.181 236.697 127.73 235.031 126.238Z" fill="#CCC6AD"/>
<path d="M240.112 169.074H236.854C233.868 168.212 229.101 167.66 223.726 167.66C218.351 167.66 213.591 168.218 210.598 169.074H207.34C207.19 169.953 207.34 171.185 207.34 171.185C207.34 173.132 214.677 174.71 223.72 174.71C232.77 174.71 240.1 173.132 240.1 171.185C240.407 169.881 240.112 169.074 240.112 169.074Z" fill="#CCC6AD"/>
<path d="M240.112 169.074C240.112 171.022 232.782 172.605 223.738 172.605C214.689 172.605 207.359 171.022 207.359 169.074C207.359 167.133 214.695 165.55 223.738 165.55C224.396 165.55 225.042 165.556 225.675 165.574C226.26 165.592 226.833 165.61 227.4 165.641C234.682 165.992 240.112 167.406 240.112 169.074Z" fill="#E7DFC2"/>
<path d="M227.4 165.634L225.705 168.571L225.675 168.619V165.574C226.254 165.592 226.833 165.604 227.4 165.634Z" fill="#E7DFC2"/>
<path d="M232.571 127.014L222.339 167.691C221.79 169.863 225.126 170.791 225.675 168.613C229.084 155.054 232.499 141.495 235.907 127.936C236.456 125.765 233.12 124.843 232.571 127.014Z" fill="#E7DFC2"/>
<path d="M235.792 125.473C224.498 115.378 213.204 105.29 201.91 95.1948C200.251 93.7146 197.796 96.1655 199.467 97.6578L233.348 127.936C235.001 129.416 237.457 126.966 235.792 125.473Z" fill="#E7DFC2"/>
<path d="M166.926 95.4437C166.926 95.4437 176.808 79.2641 189.598 86.9747C202.388 94.6854 192.856 111.071 192.856 111.071L166.926 95.4437Z" fill="#E7DFC2"/>
<path d="M192.855 111.078C192.143 112.273 187.613 110.908 182.044 107.984C180.844 107.353 179.595 106.649 178.328 105.884C177.061 105.12 175.854 104.344 174.738 103.579C169.55 100.018 166.22 96.6451 166.932 95.45C167.595 94.3398 171.571 95.4439 176.621 97.9676C178.153 98.732 179.794 99.6298 181.465 100.643C183.136 101.65 184.693 102.675 186.092 103.682C190.665 106.958 193.513 109.961 192.855 111.078Z" fill="#C1B894"/>
<path d="M186.08 103.67C185.615 105.739 184.059 107.395 182.043 107.977C181.531 108.129 180.982 108.208 180.415 108.208C177.615 108.208 175.281 106.218 174.732 103.567C174.653 103.179 174.611 102.772 174.611 102.36C174.611 100.594 175.383 99.023 176.614 97.9553C178.146 98.7197 179.787 99.6176 181.458 100.631C183.123 101.644 184.68 102.669 186.08 103.67Z" fill="#FAC978"/>
<path d="M199.998 93.6114C196.288 93.6114 196.282 99.4111 199.998 99.4111C203.708 99.4111 203.714 93.6114 199.998 93.6114Z" fill="#E7DFC2"/>
<path d="M199.998 95.316C198.472 95.316 198.466 97.7063 199.998 97.7063C201.53 97.7063 201.53 95.316 199.998 95.316Z" fill="#E7DFC2"/>
<path d="M233.922 123.556C229.15 123.556 229.144 131.012 233.922 131.012C238.694 131.012 238.7 123.556 233.922 123.556Z" fill="#E7DFC2"/>
<path d="M233.921 125.777C231.991 125.777 231.985 128.798 233.921 128.798C235.852 128.798 235.858 125.777 233.921 125.777Z" fill="#E7DFC2"/>
<path d="M75.3691 161.176H54.9173C54.9173 161.176 54.3623 173.466 60.4978 177.822C61.0046 178.18 61.6381 178.368 62.2836 178.368H65.1432H68.0029C68.6484 178.368 69.2819 178.18 69.7886 177.822C75.9242 173.473 75.3691 161.176 75.3691 161.176Z" fill="#536969"/>
<path d="M75.3812 161.181C75.3812 161.545 72.039 161.861 67.5383 161.94C66.7722 161.958 65.9637 161.964 65.1372 161.964C64.4314 161.964 63.7496 161.958 63.08 161.946C58.4165 161.879 54.9053 161.557 54.9053 161.181C54.9053 160.836 57.8795 160.538 61.988 160.435C62.9774 160.411 64.0392 160.399 65.1433 160.399C66.012 160.399 66.8566 160.405 67.659 160.423C72.0933 160.508 75.3812 160.817 75.3812 161.181Z" fill="#405050"/>
<path d="M78.301 164.779C77.2151 163.462 75.4535 163.226 73.8547 163.28C72.3767 163.329 72.3706 165.646 73.8547 165.598C75.0191 165.561 76.2679 165.592 76.8652 166.757C77.4202 167.824 77.3237 169.214 76.7807 170.269C75.4836 172.817 72.5215 173.521 69.8911 173.163C69.2757 173.078 68.7388 173.757 68.7388 174.322C68.7388 175.019 69.2697 175.395 69.8911 175.48C72.7266 175.862 75.8456 175.08 77.7882 172.853C79.7067 170.651 80.2557 167.151 78.301 164.779Z" fill="#536969"/>
<path opacity="0.5" d="M70.9104 154.247C69.36 155.813 67.6888 157.602 67.6406 159.816C67.6345 160.065 67.6526 160.314 67.6647 160.569C67.6948 161.097 67.725 161.624 67.5501 162.085C66.7839 162.104 65.9754 162.11 65.1489 162.11C64.4431 162.11 63.7613 162.104 63.0917 162.091C62.6513 161.685 62.2772 161.151 61.9937 160.581C61.6981 160.035 61.4809 159.459 61.3481 158.943C61.0948 157.966 61.0767 156.923 61.33 155.946C61.9876 153.392 64.2802 151.305 64.2319 148.672C64.2017 146.967 63.1761 145.451 62.0359 144.195C60.8896 142.945 59.5684 141.823 58.7117 140.355C57.2457 137.855 57.4146 134.464 59.1944 132.183C60.9681 129.902 64.2802 128.938 66.9588 129.993C69.6435 131.055 71.4293 134.1 70.9587 136.958C70.651 138.82 69.5108 140.725 70.2347 142.472C70.6329 143.425 71.5017 144.074 72.2317 144.808C73.2452 145.839 74.0295 147.192 74.0597 148.642C74.1079 150.85 72.4609 152.682 70.9104 154.247Z" fill="#54C1BB"/>
<path d="M85.5827 163.863C85.5827 163.863 72.5696 112.006 78.4035 105.739C84.2374 99.472 132.743 96.5721 138.058 101.425C143.373 106.279 142.944 163.796 142.944 163.796L85.5827 163.863Z" fill="#54C1BB"/>
<path d="M138.063 101.425C137.9 101.28 137.695 101.134 137.454 101.001C121.358 99.9998 92.5927 102.809 88.1826 107.547C83.0063 113.116 92.6832 154.623 94.9154 163.851L142.944 163.796C142.944 163.796 143.378 106.279 138.063 101.425Z" fill="#8DD1CD"/>
<path d="M152.754 120.699C152.754 120.699 162.763 150.935 165.453 151.687C168.144 152.439 195.715 157.662 195.715 157.662L194.369 164.427C194.369 164.427 160.778 165.482 152.754 159.768C144.724 154.053 152.754 120.699 152.754 120.699Z" fill="#DDBB8F"/>
<path d="M152.754 120.699C152.754 120.699 144.724 154.053 152.754 159.768C155.831 161.958 162.654 163.153 169.906 163.796L171.848 154.053L171.571 153.883L171.366 152.943C168.379 152.342 166.135 151.869 165.459 151.681C162.763 150.935 152.754 120.699 152.754 120.699Z" fill="#405050"/>
<path d="M174.702 153.61C173.405 154.987 172.53 156.698 172.042 158.488C171.553 160.277 171.432 162.14 171.523 163.984C171.535 164.184 171.33 164.403 171.125 164.451C170.919 164.5 170.702 164.457 170.491 164.427C170.28 164.397 170.051 164.384 169.87 164.494C169.689 164.603 169.586 164.815 169.393 164.894C169.146 164.991 168.88 164.852 168.633 164.761C168.096 164.56 167.499 164.603 166.926 164.56C166.353 164.524 165.725 164.372 165.393 163.923C165.152 163.602 165.116 163.183 165.086 162.789C164.947 160.957 164.826 159.015 165.689 157.371C166.238 156.328 167.143 155.473 167.613 154.399C167.843 153.877 167.957 153.313 168.271 152.834C168.579 152.354 169.164 151.966 169.743 152.094C170.226 152.203 170.564 152.633 171.034 152.767C171.462 152.882 171.909 152.737 172.349 152.688C173.278 152.585 174.111 152.906 174.702 153.61Z" fill="#536969"/>
<path d="M102.854 163.862H153.749C152.325 153.925 151.004 142.927 151.155 137.224C151.281 132.553 152.747 120.771 152.747 120.771C152.186 120.104 139.62 110.319 129.388 110.622C112.031 111.144 103.21 123.471 103.21 123.471C103.21 123.471 103.796 132.613 104.224 137.363C104.737 143.018 103.79 153.962 102.854 163.862Z" fill="#F7F4E3"/>
<path d="M151.149 138.298C151.149 137.897 151.149 137.515 151.161 137.151C151.281 132.662 152.639 121.627 152.747 120.759C152.216 120.153 143.173 113.097 134.226 111.125L134.305 119.758C134.305 119.758 137.635 140.3 139.107 163.79H153.743C152.409 154.465 151.167 144.219 151.149 138.298Z" fill="#405050"/>
<path d="M135.397 109.888L143.433 119.503L137.472 117.702L134.299 119.758L130.685 110.683L135.397 109.888Z" fill="#536969"/>
<path d="M102.854 163.796H126.166C123.777 142.781 122.999 122.853 122.999 122.853L120.38 111.981C108.99 115.342 103.21 123.405 103.21 123.405C103.21 123.405 103.796 132.547 104.224 137.297C104.737 142.951 103.79 153.889 102.854 163.796Z" fill="#405050"/>
<path d="M150.745 88.1696C154.709 85.3911 157.623 80.8654 158.684 75.8241C159.022 74.2286 159.179 72.5602 158.865 70.9526C158.558 69.3449 157.731 67.804 156.452 66.9486C155.173 66.0932 153.412 66.0508 152.247 67.0578C151.451 65.6565 149.75 65.0255 148.278 65.2925C146.805 65.5594 145.502 66.4633 144.278 67.3915C139.457 65.2621 133.648 66.4936 129.889 70.3581C126.698 70.9101 123.826 73.3853 122.541 76.6309C121.256 79.8766 121.238 83.6136 121.962 87.0837C122.48 89.5588 123.422 92.0401 125.171 93.7084C127.277 95.7104 130.227 96.2382 132.996 96.1957C139.451 96.0926 145.327 91.9673 150.745 88.1696Z" fill="#405050"/>
<path d="M125.479 84.184C124.303 95.5467 121.371 115.658 121.371 115.658C123.929 120.207 133.575 119.631 133.352 118.108C133.225 117.247 133.431 115.749 133.931 114.402C134.317 113.358 134.884 112.4 135.608 111.89C135.91 111.678 136.447 111.611 137.141 111.605C137.255 111.611 137.316 111.605 137.316 111.605C140.507 111.629 146.691 112.855 149.388 108.972C152.742 104.143 153.11 90.6995 152.748 84.2204C152.537 80.5137 149.37 75.3147 142.993 74.1863C135.198 72.8031 126.662 72.7485 125.479 84.184Z" fill="#FDBCA0"/>
<path d="M126.588 108.438C126.588 108.438 129.002 111.938 133.931 114.395C134.317 113.352 134.884 112.393 135.608 111.884C135.909 111.672 136.446 111.605 137.14 111.599C136.187 111.574 131.445 111.283 126.588 108.438Z" fill="#F0A38B"/>
<path d="M144.869 96.8997C145.303 96.8936 145.755 96.9057 146.117 97.1787C146.401 97.391 146.534 97.7429 146.51 98.0948C146.443 98.8956 145.725 99.3445 145.013 99.5144C144.784 99.5689 144.676 99.2171 144.905 99.1625C145.448 99.0351 146.057 98.7378 146.142 98.119C146.178 97.8703 146.093 97.6155 145.888 97.4638C145.605 97.2576 145.225 97.2697 144.887 97.2697C144.645 97.2758 144.633 96.9057 144.869 96.8997Z" fill="#3F4553"/>
<path d="M140.333 92.4833C140.308 93.1627 140.737 93.7269 141.292 93.7451C141.847 93.7633 142.311 93.2294 142.335 92.55C142.36 91.8705 141.931 91.3063 141.376 91.2881C140.821 91.2699 140.357 91.8038 140.333 92.4833Z" fill="#3F4553"/>
<path d="M147.017 93.1321C146.992 93.8115 147.421 94.3757 147.976 94.3939C148.531 94.4121 148.995 93.8783 149.02 93.1988C149.044 92.5193 148.615 91.9551 148.06 91.9369C147.511 91.9187 147.041 92.4526 147.017 93.1321Z" fill="#3F4553"/>
<path d="M138.624 86.7319C139.819 85.9857 141.333 85.8401 142.636 86.4165C142.817 86.4953 142.926 86.7016 142.853 86.8957C142.787 87.0777 142.564 87.193 142.377 87.1141C141.333 86.6531 140.066 86.7016 139.089 87.3143C138.92 87.4174 138.709 87.4296 138.57 87.2597C138.455 87.1141 138.455 86.8411 138.624 86.7319Z" fill="#3F4553"/>
<path d="M151.348 87.9271C150.395 86.8836 148.977 86.3376 147.572 86.5378C147.372 86.5682 147.222 86.732 147.24 86.9382C147.258 87.1323 147.439 87.3022 147.638 87.2719C148.766 87.1081 149.973 87.5024 150.751 88.3517C150.884 88.4973 151.089 88.564 151.264 88.4366C151.409 88.3396 151.481 88.0787 151.348 87.9271Z" fill="#3F4553"/>
<path d="M137.195 95.1647C137.153 95.6864 137.913 96.1778 138.89 96.2628C139.874 96.3477 140.706 95.9958 140.748 95.4741C140.791 94.9524 140.031 94.461 139.053 94.376C138.07 94.2911 137.237 94.643 137.195 95.1647Z" fill="#FBAD8B"/>
<path d="M148.024 96.129C147.981 96.6507 148.742 97.1421 149.719 97.227C150.702 97.312 151.535 96.9601 151.577 96.4384C151.619 95.9166 150.859 95.4252 149.882 95.3403C148.898 95.2554 148.066 95.6072 148.024 96.129Z" fill="#FBAD8B"/>
<path d="M146.709 103.16C146.594 103.803 146.238 104.385 145.749 104.816C145.659 104.901 145.574 104.968 145.478 105.035C144.856 105.483 144.084 105.702 143.318 105.726C142.196 105.769 141.05 105.38 140.241 104.598C139.927 104.294 139.668 103.937 139.487 103.542C139.185 102.917 139.065 102.208 139.185 101.528C139.252 101.146 139.439 100.739 139.801 100.642C140.036 100.582 140.265 100.661 140.482 100.788C140.597 100.855 140.706 100.934 140.808 101.006C141.647 101.631 142.552 102.201 143.565 102.444C144.277 102.614 145.055 102.602 145.743 102.341C145.973 102.25 146.316 101.947 146.57 102.104C146.576 102.11 146.576 102.11 146.582 102.11C146.847 102.317 146.763 102.887 146.709 103.16Z" fill="#4E5567"/>
<path d="M146.563 102.116C146.515 102.292 146.424 102.468 146.31 102.614C146.056 102.929 145.676 103.136 145.29 103.263C143.987 103.694 142.509 103.354 141.381 102.571C141.019 102.317 140.675 102.007 140.512 101.589C140.416 101.34 140.397 101.055 140.476 100.8C140.59 100.867 140.699 100.946 140.802 101.018C141.64 101.643 142.545 102.213 143.559 102.456C144.271 102.626 145.049 102.614 145.737 102.353C145.966 102.262 146.31 101.959 146.563 102.116Z" fill="white"/>
<path d="M145.75 104.822C145.66 104.907 145.575 104.974 145.479 105.041C144.857 105.49 144.085 105.708 143.319 105.732C142.197 105.775 141.05 105.387 140.242 104.604C139.928 104.301 139.669 103.943 139.488 103.548C140.357 103.457 141.243 103.445 142.118 103.512C143.162 103.591 144.224 103.791 145.117 104.331C145.334 104.477 145.551 104.634 145.75 104.822Z" fill="#3F4553"/>
<path d="M146.455 81.7085C143.716 82.2727 140.694 81.0654 139.089 78.7601C138.89 79.4578 138.311 80.0341 137.611 80.2343C136.917 80.4345 136.121 80.2464 135.584 79.755C135.475 81.9997 134.89 84.2625 133.605 86.0946C132.32 87.9328 130.281 89.2978 128.055 89.4737C126.812 89.5708 125.491 89.2735 124.562 88.4303C123.699 87.6416 123.271 86.4829 123.011 85.3424C122.39 82.5942 122.577 79.6337 123.705 77.0493C124.827 74.465 126.908 72.281 129.497 71.189C131.97 70.1395 134.745 70.1152 137.43 70.2062C140.193 70.3033 142.98 70.5217 145.605 71.4013C147.734 72.1111 149.755 73.288 151.246 74.9928C151.535 75.3264 152.042 75.7935 152.036 76.2607C152.03 76.7157 151.71 77.3102 151.511 77.7106C151.046 78.6509 150.383 79.482 149.586 80.1554C148.694 80.9259 147.608 81.4719 146.455 81.7085Z" fill="#405050"/>
<path d="M126.637 89.6194C125.702 88.5152 124.345 87.6781 122.861 87.7994C121.395 87.9207 120.242 88.9217 119.868 90.3474C119.621 91.3059 119.699 92.319 119.88 93.2957C120.067 94.321 120.357 95.3341 120.846 96.2501C121.769 97.9791 123.693 99.5564 125.762 98.8709C128.52 97.9549 128.707 94.5394 128.019 92.1552C127.753 91.2695 127.271 90.3716 126.637 89.6194Z" fill="#FDBCA0"/>
<path d="M122.993 90.2683C122.74 90.1348 122.523 90.517 122.77 90.6505C124.532 91.5666 125.515 93.5382 125.159 95.5098C125.111 95.7889 125.533 95.9042 125.581 95.6251C125.974 93.4715 124.942 91.2814 122.993 90.2683Z" fill="#F0A38B"/>
<path d="M125.008 92.5556C124.26 92.2462 123.434 92.1795 122.649 92.3433C122.535 92.3676 122.468 92.5071 122.498 92.6163C122.535 92.7376 122.649 92.7922 122.77 92.768C123.482 92.6224 124.224 92.7012 124.9 92.9803C125.008 93.0228 125.141 92.9318 125.171 92.8286C125.195 92.7012 125.117 92.6042 125.008 92.5556Z" fill="#F0A38B"/>
<path d="M122.305 109.888L117.394 111.975L113.021 124.448L120.477 120.413L123.005 122.852L122.305 109.888Z" fill="#536969"/>
<path d="M103.217 123.407C103.217 123.407 83.8632 157.665 88.0501 163.531C92.237 169.398 129.623 175.113 129.623 175.113L131.162 167.505C131.162 167.505 103.941 160.031 103.38 157.89L104.068 149.305C104.062 149.305 106.306 126.471 103.217 123.407Z" fill="#FDBCA0"/>
<path d="M103.374 157.887L104.062 149.303C104.062 149.303 106.306 126.468 103.217 123.398C103.217 123.398 83.8632 157.656 88.0501 163.523C89.4015 165.415 94.2279 167.296 100.134 168.977L101.962 168.34L105.558 159.306C104.273 158.73 103.464 158.239 103.374 157.887Z" fill="#405050"/>
<path d="M109.932 160.307C106.933 162.983 104.942 166.78 104.436 170.778C103.645 170.79 102.915 170.463 102.264 170.014C101.498 170.535 100.484 170.42 99.5731 170.281C99.2111 170.226 98.8069 170.147 98.5958 169.85C98.457 169.656 98.4329 169.407 98.4087 169.17C98.3182 168.236 98.2277 167.284 98.451 166.374C98.6681 165.488 99.1689 164.699 99.6636 163.929C100.52 162.6 101.377 161.266 102.234 159.937C102.529 159.482 102.825 159.015 103.253 158.687C103.682 158.354 104.261 158.172 104.767 158.354C105.081 158.469 105.335 158.706 105.63 158.863C106.125 159.124 106.704 159.142 107.259 159.124C107.814 159.106 108.381 159.051 108.918 159.197C109.455 159.343 109.817 159.755 109.932 160.307Z" fill="#536969"/>
<path d="M104.128 129.071C104.05 136.49 103.766 143.91 103.271 151.317C103.133 153.422 102.97 155.527 102.795 157.632C102.747 158.196 103.627 158.178 103.676 157.614C104.291 150.219 104.695 142.806 104.894 135.386C104.949 133.275 104.985 131.164 105.009 129.059C105.015 128.482 104.134 128.5 104.128 129.071Z" fill="#A1B8B8"/>
<path d="M129.618 175.104C129.618 175.104 144.495 181.195 145.171 179.951C145.846 178.714 138.794 176.36 138.794 176.36C138.794 176.36 148.682 178.374 148.941 177.355C149.201 176.342 139.687 173.806 139.687 173.806C139.687 173.806 151.047 175.893 151.186 174.704C151.324 173.515 141.165 171.282 141.165 171.282C141.165 171.282 150.709 171.828 150.775 170.961C150.89 169.401 131.156 167.497 131.156 167.497L129.618 175.104Z" fill="#FDBCA0"/>
<path d="M132.574 167.648C132.574 167.648 140.163 164.882 140.929 165.482C141.696 166.083 137.581 169.11 137.581 169.11L132.574 167.648Z" fill="#FDBCA0"/>
<path d="M110.185 159.513H70.8983C70.4821 159.513 70.2347 159.853 70.3493 160.271L77.1847 185.247C77.2993 185.666 77.7277 186.006 78.144 186.006H117.431C117.847 186.006 118.094 185.666 117.98 185.247L111.144 160.271C111.036 159.853 110.601 159.513 110.185 159.513Z" fill="#E7DFC2"/>
<path d="M115.029 185.703L109.226 164.506C109.129 164.148 108.761 163.863 108.411 163.863H75.0728C74.7169 163.863 74.5118 164.148 74.6083 164.506L80.412 185.703C80.406 185.69 80.4482 185.842 80.4965 186H115.12L115.029 185.703Z" fill="#F7F4E3"/>
<path d="M73.7514 161.388C73.7514 161.903 73.3351 162.316 72.8283 162.316C72.3155 162.316 71.9053 161.897 71.9053 161.388C71.9053 160.878 72.3215 160.459 72.8283 160.459C73.3351 160.459 73.7514 160.878 73.7514 161.388Z" fill="#405050"/>
<path d="M73.2576 161.388C73.2576 161.624 73.0645 161.818 72.8292 161.818C72.5939 161.818 72.4009 161.624 72.4009 161.388C72.4009 161.151 72.5939 160.957 72.8292 160.957C73.0645 160.957 73.2576 161.151 73.2576 161.388Z" fill="#576E6E"/>
<path d="M107.676 164.154H74.3375C73.9815 164.154 73.7764 164.439 73.8729 164.797L79.6767 185.994C79.6706 185.969 79.8577 186.637 79.8577 186.637H114.475L114.3 185.994L108.496 164.797C108.394 164.439 108.032 164.154 107.676 164.154Z" fill="#EBB254"/>
<path d="M114.294 185.994L110.559 172.344H75.936L79.6705 185.994C79.6644 185.969 79.8514 186.637 79.8514 186.637H114.469L114.294 185.994Z" fill="#FEDEA6"/>
<path d="M107.742 189.919H73.1426L79.8694 186.637H114.469L107.742 189.919Z" fill="#EBB254"/>
<path d="M151.861 123.793L222.393 112.005C223.545 111.811 224.595 112.721 224.589 113.91L224.287 158.912C224.281 159.822 223.654 160.599 222.779 160.781L153.973 175.098C152.283 175.498 150.274 174.418 150.274 171.925V125.685C150.28 124.751 150.95 123.95 151.861 123.793Z" fill="#FEDEA6"/>
<path d="M155.053 123.665L222.393 112.436C223.545 112.242 224.595 113.146 224.589 114.323L224.299 158.985C224.293 159.883 223.666 160.653 222.791 160.835L155.741 174.685C154.57 174.928 153.472 174.03 153.472 172.823V125.546C153.478 124.605 154.142 123.817 155.053 123.665Z" fill="#FAC978"/>
<path d="M185.489 147.082L181.585 169.334L202.797 164.954L185.489 147.082Z" fill="#EBB254"/>
<path d="M184.608 187.807L175.299 184.628C173.809 184.119 173.899 181.971 175.425 181.589L191.208 177.615C191.485 177.549 191.769 177.555 192.04 177.634L201.204 180.388C202.719 180.843 202.701 183.002 201.18 183.433L185.543 187.831C185.235 187.916 184.909 187.91 184.608 187.807Z" fill="#EBB254"/>
<path d="M198.533 144.959C198.352 144.122 197.549 143.582 196.711 143.733L186.78 145.541C186.038 145.675 185.495 146.324 185.483 147.082L185.067 187.965L206.424 181.953L198.533 144.959ZM195.993 176.748C193 177.057 190.219 173.8 189.779 169.468C189.338 165.143 191.408 161.381 194.4 161.078C197.392 160.768 200.173 164.026 200.614 168.358C201.054 172.683 198.985 176.439 195.993 176.748Z" fill="#FEDEA6"/>
<path d="M192.946 71.5534C182.841 71.5534 174.618 63.2846 174.618 53.123C174.618 42.9615 182.841 34.6927 192.946 34.6927C203.051 34.6927 211.274 42.9615 211.274 53.123C211.274 63.2846 203.051 71.5534 192.946 71.5534ZM192.946 39.9161C185.7 39.9161 179.806 45.8431 179.806 53.1291C179.806 60.4151 185.7 66.3421 192.946 66.3421C200.192 66.3421 206.086 60.4151 206.086 53.1291C206.086 45.8431 200.192 39.9161 192.946 39.9161Z" fill="#F5E2D5"/>
<path d="M186.08 57.7759L185.266 56.241L192.21 52.5343L195.142 41.4992L196.813 41.9481L193.688 53.7173L186.08 57.7759Z" fill="#F5E2D5"/>
<rect x="197" y="252" width="55" height="55" rx="27.5" fill="#E6E7F2"/>
<path d="M215.151 278.5L230.427 278.5L224.016 271.911L225.391 270.5L233.622 278.933C233.925 279.244 233.925 279.744 233.622 280.056L225.391 288.5L224.016 287.089L230.427 280.5L215.151 280.5L215.151 279.5L215.151 278.5Z" fill="#3F414E"/>
</svg>
