
<svg  width="274" height="326" viewBox="0 0 274 326" fill="none" xmlns="http://www.w3.org/2000/svg">

<rect width="273.534" height="325.571" rx="10" fill="#FFCF86"/>
<path d="M22.26 261.184H27.786C29.226 261.184 30.366 261.532 31.206 262.228C32.058 262.912 32.484 263.938 32.484 265.306C32.484 266.65 32.064 267.67 31.224 268.366C30.384 269.05 29.286 269.392 27.93 269.392H25.05V274H22.26V261.184ZM25.05 263.488V267.178H27.552C29.016 267.178 29.748 266.566 29.748 265.342C29.748 264.106 29.022 263.488 27.57 263.488H25.05ZM42.7079 271.12C42.4199 272.116 41.8859 272.89 41.1059 273.442C40.3379 273.994 39.4199 274.27 38.3519 274.27C36.9239 274.27 35.7719 273.826 34.8959 272.938C34.0319 272.05 33.5999 270.874 33.5999 269.41C33.5999 267.97 34.0379 266.782 34.9139 265.846C35.7899 264.91 36.9059 264.442 38.2619 264.442C39.6659 264.442 40.7819 264.922 41.6099 265.882C42.4379 266.83 42.8519 268.12 42.8519 269.752V270.004H36.1919C36.2039 270.808 36.3959 271.42 36.7679 271.84C37.1519 272.26 37.6859 272.47 38.3699 272.47C39.2699 272.47 39.8999 272.02 40.2599 271.12H42.7079ZM40.2599 268.384C40.1999 267.772 40.0019 267.274 39.6659 266.89C39.3299 266.494 38.8619 266.296 38.2619 266.296C37.6979 266.296 37.2299 266.482 36.8579 266.854C36.4859 267.226 36.2639 267.736 36.1919 268.384H40.2599ZM57.5078 274H44.3498V264.712H46.8878V272.038H49.6598V264.712H52.1978V272.038H54.9698V264.712H57.5078V274ZM68.1237 274H65.5317C65.4477 273.76 65.3877 273.46 65.3517 273.1C64.5717 273.88 63.5697 274.27 62.3457 274.27C61.3137 274.27 60.5037 274.024 59.9157 273.532C59.3277 273.028 59.0337 272.338 59.0337 271.462C59.0337 271.066 59.0817 270.718 59.1777 270.418C59.2857 270.118 59.4537 269.866 59.6817 269.662C59.9217 269.458 60.1437 269.29 60.3477 269.158C60.5637 269.026 60.8577 268.918 61.2297 268.834C61.6017 268.75 61.9017 268.69 62.1297 268.654C62.3577 268.606 62.6757 268.558 63.0837 268.51C63.9837 268.39 64.5837 268.264 64.8837 268.132C65.1957 268 65.3517 267.754 65.3517 267.394C65.3517 266.566 64.7937 266.152 63.6777 266.152C63.0897 266.152 62.6577 266.26 62.3817 266.476C62.1057 266.68 61.9257 267.046 61.8417 267.574H59.4477C59.5917 265.486 61.0257 264.442 63.7497 264.442C66.4497 264.442 67.7997 265.45 67.7997 267.466V271.48C67.7997 272.656 67.9077 273.496 68.1237 274ZM65.3337 269.482C65.0337 269.662 64.4337 269.824 63.5337 269.968C62.7777 270.088 62.2857 270.238 62.0577 270.418C61.7937 270.646 61.6617 270.958 61.6617 271.354C61.6617 271.738 61.7817 272.044 62.0217 272.272C62.2737 272.488 62.6217 272.596 63.0657 272.596C63.7497 272.596 64.2957 272.416 64.7037 272.056C65.1237 271.684 65.3337 271.174 65.3337 270.526V269.482ZM78.5497 271.12C78.2617 272.116 77.7277 272.89 76.9477 273.442C76.1797 273.994 75.2617 274.27 74.1937 274.27C72.7657 274.27 71.6137 273.826 70.7377 272.938C69.8737 272.05 69.4417 270.874 69.4417 269.41C69.4417 267.97 69.8797 266.782 70.7557 265.846C71.6317 264.91 72.7477 264.442 74.1037 264.442C75.5077 264.442 76.6237 264.922 77.4517 265.882C78.2797 266.83 78.6937 268.12 78.6937 269.752V270.004H72.0337C72.0457 270.808 72.2377 271.42 72.6097 271.84C72.9937 272.26 73.5277 272.47 74.2117 272.47C75.1117 272.47 75.7417 272.02 76.1017 271.12H78.5497ZM76.1017 268.384C76.0417 267.772 75.8437 267.274 75.5077 266.89C75.1717 266.494 74.7037 266.296 74.1037 266.296C73.5397 266.296 73.0717 266.482 72.6997 266.854C72.3277 267.226 72.1057 267.736 72.0337 268.384H76.1017ZM91.1716 274H88.7596V266.944H88.7056L86.8876 274H84.4756L82.6576 266.944H82.6036V274H80.1916V264.712H83.8996L85.6456 271.462H85.7176L87.4636 264.712H91.1716V274ZM106.85 274H104.312V266.674H100.73V274H98.1916V264.712H106.85V274ZM111.238 264.712V265.864C111.91 264.928 112.87 264.46 114.118 264.46C115.366 264.46 116.368 264.91 117.124 265.81C117.88 266.71 118.258 267.91 118.258 269.41C118.258 270.862 117.886 272.032 117.142 272.92C116.41 273.796 115.438 274.234 114.226 274.234C112.978 274.234 112.024 273.772 111.364 272.848V277.294H108.826V264.712H111.238ZM113.488 266.512C112.792 266.512 112.246 266.764 111.85 267.268C111.466 267.772 111.274 268.474 111.274 269.374C111.274 270.274 111.472 270.976 111.868 271.48C112.264 271.984 112.81 272.236 113.506 272.236C114.19 272.236 114.724 271.984 115.108 271.48C115.504 270.976 115.702 270.286 115.702 269.41C115.702 268.51 115.504 267.802 115.108 267.286C114.712 266.77 114.172 266.512 113.488 266.512ZM129.153 269.356C129.153 270.844 128.715 272.038 127.839 272.938C126.975 273.838 125.817 274.288 124.365 274.288C122.913 274.288 121.749 273.838 120.873 272.938C119.997 272.038 119.559 270.844 119.559 269.356C119.559 267.88 120.003 266.692 120.891 265.792C121.779 264.892 122.949 264.442 124.401 264.442C125.829 264.442 126.975 264.892 127.839 265.792C128.715 266.692 129.153 267.88 129.153 269.356ZM126.597 269.338C126.597 268.414 126.393 267.694 125.985 267.178C125.589 266.65 125.037 266.386 124.329 266.386C123.645 266.386 123.105 266.65 122.709 267.178C122.313 267.706 122.115 268.432 122.115 269.356C122.115 270.304 122.313 271.042 122.709 271.57C123.105 272.098 123.657 272.362 124.365 272.362C125.073 272.362 125.619 272.098 126.003 271.57C126.399 271.03 126.597 270.286 126.597 269.338ZM140.121 269.464C140.121 270.928 139.683 272.098 138.807 272.974C137.943 273.838 136.767 274.27 135.279 274.27C134.475 274.27 133.773 274.108 133.173 273.784C132.573 273.448 132.105 272.998 131.769 272.434C131.433 271.87 131.181 271.264 131.013 270.616C130.857 269.968 130.779 269.284 130.779 268.564C130.779 267.916 130.797 267.346 130.833 266.854C130.881 266.35 130.977 265.792 131.121 265.18C131.265 264.556 131.463 264.022 131.715 263.578C131.979 263.134 132.351 262.72 132.831 262.336C133.311 261.952 133.875 261.676 134.523 261.508C134.775 261.436 135.135 261.376 135.603 261.328C136.083 261.28 136.461 261.22 136.737 261.148C137.025 261.064 137.205 260.944 137.277 260.788H139.707C139.647 261.244 139.521 261.64 139.329 261.976C139.137 262.3 138.921 262.558 138.681 262.75C138.441 262.93 138.123 263.086 137.727 263.218C137.331 263.35 136.971 263.44 136.647 263.488C136.323 263.536 135.903 263.584 135.387 263.632C133.467 263.812 132.381 265.048 132.129 267.34H132.183C132.447 266.608 132.879 265.99 133.479 265.486C134.091 264.97 134.883 264.712 135.855 264.712C137.067 264.712 138.081 265.15 138.897 266.026C139.713 266.902 140.121 268.048 140.121 269.464ZM137.565 269.446C137.565 268.546 137.373 267.85 136.989 267.358C136.617 266.854 136.095 266.602 135.423 266.602C134.787 266.602 134.277 266.854 133.893 267.358C133.521 267.862 133.335 268.564 133.335 269.464C133.335 270.388 133.521 271.102 133.893 271.606C134.277 272.098 134.799 272.344 135.459 272.344C136.119 272.344 136.635 272.092 137.007 271.588C137.379 271.084 137.565 270.37 137.565 269.446ZM150.161 274H147.623V266.674H145.175L145.067 269.95C145.055 270.31 145.043 270.598 145.031 270.814C145.019 271.018 144.983 271.294 144.923 271.642C144.875 271.99 144.815 272.272 144.743 272.488C144.671 272.692 144.557 272.926 144.401 273.19C144.257 273.442 144.083 273.64 143.879 273.784C143.687 273.916 143.435 274.03 143.123 274.126C142.811 274.234 142.463 274.288 142.079 274.288C141.455 274.288 140.993 274.228 140.693 274.108V272.074C140.993 272.134 141.233 272.164 141.413 272.164C142.145 272.164 142.529 271.522 142.565 270.238L142.709 264.712H150.161V274ZM160.921 271.12C160.633 272.116 160.099 272.89 159.319 273.442C158.551 273.994 157.633 274.27 156.565 274.27C155.137 274.27 153.985 273.826 153.109 272.938C152.245 272.05 151.813 270.874 151.813 269.41C151.813 267.97 152.251 266.782 153.127 265.846C154.003 264.91 155.119 264.442 156.475 264.442C157.879 264.442 158.995 264.922 159.823 265.882C160.651 266.83 161.065 268.12 161.065 269.752V270.004H154.405C154.417 270.808 154.609 271.42 154.981 271.84C155.365 272.26 155.899 272.47 156.583 272.47C157.483 272.47 158.113 272.02 158.473 271.12H160.921ZM158.473 268.384C158.413 267.772 158.215 267.274 157.879 266.89C157.543 266.494 157.075 266.296 156.475 266.296C155.911 266.296 155.443 266.482 155.071 266.854C154.699 267.226 154.477 267.736 154.405 268.384H158.473ZM173.543 274H171.131V266.944H171.077L169.259 274H166.847L165.029 266.944H164.975V274H162.563V264.712H166.271L168.017 271.462H168.089L169.835 264.712H173.543V274ZM184.499 264.712H187.037V274H184.499V264.712ZM183.329 270.94C183.329 271.936 183.005 272.698 182.357 273.226C181.721 273.742 180.875 274 179.819 274H175.391V264.712H177.911V267.898H179.927C180.911 267.898 181.721 268.162 182.357 268.69C183.005 269.218 183.329 269.968 183.329 270.94ZM177.911 269.626V272.236H179.207C180.239 272.236 180.755 271.804 180.755 270.94C180.755 270.508 180.611 270.184 180.323 269.968C180.035 269.74 179.657 269.626 179.189 269.626H177.911ZM30.828 289.418C30.672 290.618 30.198 291.554 29.406 292.226C28.626 292.898 27.618 293.234 26.382 293.234C24.954 293.234 23.808 292.796 22.944 291.92C22.08 291.044 21.648 289.88 21.648 288.428C21.648 286.928 22.08 285.722 22.944 284.81C23.82 283.898 24.978 283.442 26.418 283.442C27.654 283.442 28.662 283.76 29.442 284.396C30.222 285.02 30.666 285.872 30.774 286.952H28.272C28.08 285.884 27.468 285.35 26.436 285.35C25.74 285.35 25.194 285.62 24.798 286.16C24.414 286.688 24.222 287.426 24.222 288.374C24.222 289.298 24.408 290.018 24.78 290.534C25.164 291.038 25.698 291.29 26.382 291.29C27.498 291.29 28.158 290.666 28.362 289.418H30.828ZM46.0117 293H43.4737V285.674H39.8917V293H37.3537V283.712H46.0117V293ZM50.3996 283.712V284.864C51.0716 283.928 52.0316 283.46 53.2796 283.46C54.5276 283.46 55.5296 283.91 56.2856 284.81C57.0416 285.71 57.4196 286.91 57.4196 288.41C57.4196 289.862 57.0476 291.032 56.3036 291.92C55.5716 292.796 54.5996 293.234 53.3876 293.234C52.1396 293.234 51.1856 292.772 50.5256 291.848V296.294H47.9876V283.712H50.3996ZM52.6496 285.512C51.9536 285.512 51.4076 285.764 51.0116 286.268C50.6276 286.772 50.4356 287.474 50.4356 288.374C50.4356 289.274 50.6336 289.976 51.0296 290.48C51.4256 290.984 51.9716 291.236 52.6676 291.236C53.3516 291.236 53.8856 290.984 54.2696 290.48C54.6656 289.976 54.8636 289.286 54.8636 288.41C54.8636 287.51 54.6656 286.802 54.2696 286.286C53.8736 285.77 53.3336 285.512 52.6496 285.512ZM68.3155 288.356C68.3155 289.844 67.8775 291.038 67.0015 291.938C66.1375 292.838 64.9795 293.288 63.5275 293.288C62.0755 293.288 60.9115 292.838 60.0355 291.938C59.1595 291.038 58.7215 289.844 58.7215 288.356C58.7215 286.88 59.1655 285.692 60.0535 284.792C60.9415 283.892 62.1115 283.442 63.5635 283.442C64.9915 283.442 66.1375 283.892 67.0015 284.792C67.8775 285.692 68.3155 286.88 68.3155 288.356ZM65.7595 288.338C65.7595 287.414 65.5555 286.694 65.1475 286.178C64.7515 285.65 64.1995 285.386 63.4915 285.386C62.8075 285.386 62.2675 285.65 61.8715 286.178C61.4755 286.706 61.2775 287.432 61.2775 288.356C61.2775 289.304 61.4755 290.042 61.8715 290.57C62.2675 291.098 62.8195 291.362 63.5275 291.362C64.2355 291.362 64.7815 291.098 65.1655 290.57C65.5615 290.03 65.7595 289.286 65.7595 288.338ZM78.7254 290.12C78.4374 291.116 77.9034 291.89 77.1234 292.442C76.3554 292.994 75.4374 293.27 74.3694 293.27C72.9414 293.27 71.7894 292.826 70.9134 291.938C70.0494 291.05 69.6174 289.874 69.6174 288.41C69.6174 286.97 70.0554 285.782 70.9314 284.846C71.8074 283.91 72.9234 283.442 74.2794 283.442C75.6834 283.442 76.7994 283.922 77.6274 284.882C78.4554 285.83 78.8694 287.12 78.8694 288.752V289.004H72.2094C72.2214 289.808 72.4134 290.42 72.7854 290.84C73.1694 291.26 73.7034 291.47 74.3874 291.47C75.2874 291.47 75.9174 291.02 76.2774 290.12H78.7254ZM76.2774 287.384C76.2174 286.772 76.0194 286.274 75.6834 285.89C75.3474 285.494 74.8794 285.296 74.2794 285.296C73.7154 285.296 73.2474 285.482 72.8754 285.854C72.5034 286.226 72.2814 286.736 72.2094 287.384H76.2774ZM89.8174 293H86.7214L84.0394 289.004L82.9054 290.156V293H80.4034V283.712H82.9054V287.384L86.3074 283.712H89.3134L85.7134 287.312L89.8174 293ZM98.5333 285.674H95.4733V293H92.9353V285.674H89.8753V283.712H98.5333V285.674ZM107.991 293H105.399C105.315 292.76 105.255 292.46 105.219 292.1C104.439 292.88 103.437 293.27 102.213 293.27C101.181 293.27 100.371 293.024 99.7829 292.532C99.1949 292.028 98.9009 291.338 98.9009 290.462C98.9009 290.066 98.9489 289.718 99.0449 289.418C99.1529 289.118 99.3209 288.866 99.5489 288.662C99.7889 288.458 100.011 288.29 100.215 288.158C100.431 288.026 100.725 287.918 101.097 287.834C101.469 287.75 101.769 287.69 101.997 287.654C102.225 287.606 102.543 287.558 102.951 287.51C103.851 287.39 104.451 287.264 104.751 287.132C105.063 287 105.219 286.754 105.219 286.394C105.219 285.566 104.661 285.152 103.545 285.152C102.957 285.152 102.525 285.26 102.249 285.476C101.973 285.68 101.793 286.046 101.709 286.574H99.3149C99.4589 284.486 100.893 283.442 103.617 283.442C106.317 283.442 107.667 284.45 107.667 286.466V290.48C107.667 291.656 107.775 292.496 107.991 293ZM105.201 288.482C104.901 288.662 104.301 288.824 103.401 288.968C102.645 289.088 102.153 289.238 101.925 289.418C101.661 289.646 101.529 289.958 101.529 290.354C101.529 290.738 101.649 291.044 101.889 291.272C102.141 291.488 102.489 291.596 102.933 291.596C103.617 291.596 104.163 291.416 104.571 291.056C104.991 290.684 105.201 290.174 105.201 289.526V288.482ZM120.703 293H118.291V285.944H118.237L116.419 293H114.007L112.189 285.944H112.135V293H109.723V283.712H113.431L115.177 290.462H115.249L116.995 283.712H120.703V293ZM131.371 293H128.923V286.718L125.611 293H122.713V283.712H125.161V289.994L128.473 283.712H131.371V293Z" fill="#3F414E"/>
<path fill-rule="evenodd" clip-rule="evenodd" d="M98.0637 71.0481C101.217 78.396 107.633 80.97 113.167 79.7106C117.516 78.7207 123.176 69.5939 122.976 65.3788C122.379 52.7354 108.478 28.6491 100.914 27.0493C94.8019 31.7622 93.07 59.4064 98.0637 71.0481Z" fill="#FEDEA6"/>
<path d="M110.452 80.3363C108.421 80.3363 106.4 79.8464 104.571 78.8919C101.624 77.3531 99.271 74.6847 97.7648 71.1741C95.4313 65.733 94.3705 56.252 94.9999 46.4285C95.4947 38.6851 97.2562 29.4599 100.714 26.7915L100.833 26.699L100.979 26.7305C108.718 28.3677 122.693 52.5564 123.299 65.3611C123.509 69.7927 117.727 79.0002 113.239 80.0235C112.322 80.234 111.386 80.3363 110.452 80.3363ZM100.995 27.3976C98.3032 29.635 96.2606 36.9081 95.649 46.4699C95.0276 56.1989 96.0667 65.5677 98.3626 70.9202C101.031 77.1386 106.012 79.681 110.513 79.681C111.4 79.681 112.267 79.5827 113.096 79.3937C117.262 78.4452 122.85 69.5231 122.654 65.3906C122.381 59.5953 119.17 50.7224 114.278 42.2311C109.48 33.9052 104.411 28.2516 100.995 27.3976Z" fill="#F5C371"/>
<path d="M101.124 26.9414L100.491 27.0869L112.749 79.7495L113.381 79.6041L101.124 26.9414Z" fill="#F9CF88"/>
<path d="M105.733 47.257L105.209 46.8752C105.249 46.8221 109.171 41.4893 111.81 37.9688L112.33 38.3545C109.694 41.873 105.773 47.2039 105.733 47.257Z" fill="#F9CF88"/>
<path d="M113.571 40.7455L105.891 49.7155L106.385 50.1339L114.065 41.1639L113.571 40.7455Z" fill="#F9CF88"/>
<path d="M95.2215 53.5068L94.9038 54.0697L108.666 61.7482L108.984 61.1853L95.2215 53.5068Z" fill="#F9CF88"/>
<path d="M121.651 59.2119L110.698 70.3055L111.161 70.7576L122.114 59.664L121.651 59.2119Z" fill="#F9CF88"/>
<path d="M95.901 62.3766L95.6733 62.9811L110.255 68.4103L110.483 67.8058L95.901 62.3766Z" fill="#F9CF88"/>
<path d="M104.009 41.9536C102.881 40.9303 99.9083 38.2187 96.6841 35.1193L97.1353 34.6549C100.354 37.7464 103.322 40.4541 104.449 41.4754L104.009 41.9536Z" fill="#F9CF88"/>
<path fill-rule="evenodd" clip-rule="evenodd" d="M98.8182 64.0722C97.6287 62.8738 96.3343 61.6714 94.9587 60.4789C82.1926 49.4118 62.5012 39.2204 55.2513 41.5188C51.4452 50.6496 66.9723 82.8237 79.9996 92.6609C88.2233 98.8695 97.0349 97.6809 102.407 92.7731C103.307 91.9505 104.111 91.0217 104.799 90.0083C108.218 84.9706 108.786 77.7821 104.182 70.5661C102.852 68.4762 101.013 66.2821 98.8182 64.0722Z" fill="#FEDEA6"/>
<path d="M91.7086 97.2184C87.6433 97.2184 83.5403 95.7386 79.8035 92.9187C73.7451 88.3435 66.5466 78.4 61.0206 66.9649C56.6781 57.9817 52.8028 46.5486 54.9503 41.3948L55.0077 41.2571L55.1522 41.2118C58.6336 40.1078 65.0365 41.7018 73.179 45.6985C80.8268 49.4531 88.8427 54.7525 95.1703 60.2368C96.5677 61.449 97.872 62.6632 99.0476 63.8459C101.336 66.1482 103.155 68.3502 104.457 70.3909C108.718 77.0717 108.946 84.4708 105.068 90.1873C104.37 91.2185 103.546 92.1689 102.626 93.0092C99.8077 95.5831 96.1362 97.0748 92.2826 97.2086C92.0926 97.2145 91.9006 97.2184 91.7086 97.2184ZM55.4946 41.7825C53.8736 46.0015 56.2031 55.5101 61.6045 66.6854C67.0889 78.032 74.2142 87.8869 80.1954 92.4031C88.5676 98.7238 97.2723 97.0236 102.187 92.535C103.071 91.7262 103.859 90.8151 104.53 89.8272C108.259 84.331 108.025 77.1957 103.909 70.7372C102.632 68.7359 100.841 66.5693 98.5865 64.3004C97.4227 63.1296 96.1303 61.9252 94.7448 60.7249C82.5666 50.1655 62.8692 39.6651 55.4946 41.7825Z" fill="#F5C371"/>
<path d="M55.4908 41.3005L55.0117 41.7361L102.171 92.9927L102.65 92.557L55.4908 41.3005Z" fill="#F5C371"/>
<path d="M58.9305 61.819L58.9067 61.1736C64.5753 60.9591 73.1117 60.7131 73.1968 60.7111L73.2146 61.3566C73.1295 61.3605 64.597 61.6065 58.9305 61.819Z" fill="#F5C371"/>
<path d="M75.7339 63.4997L60.5884 65.0529L60.655 65.695L75.8005 64.1418L75.7339 63.4997Z" fill="#F5C371"/>
<path d="M87.6301 54.944L85.7847 75.0237L86.4312 75.0825L88.2766 55.0027L87.6301 54.944Z" fill="#F5C371"/>
<path d="M94.1639 83.5604L74.3721 87.0125L74.4843 87.6483L94.276 84.1962L94.1639 83.5604Z" fill="#F5C371"/>
<path d="M96.5698 62.1265L91.7354 81.4324L92.3653 81.5884L97.1998 62.2824L96.5698 62.1265Z" fill="#F5C371"/>
<path d="M68.0944 55.8722C67.8272 53.9398 67.1028 48.8352 66.1567 43.2053L66.798 43.099C67.7461 48.7369 68.4724 53.8493 68.7396 55.7856L68.0944 55.8722Z" fill="#F5C371"/>
<path fill-rule="evenodd" clip-rule="evenodd" d="M203.104 168.811C195.223 167.249 189.465 171.064 187.387 176.317C185.754 180.443 190.136 190.241 193.748 192.457C204.581 199.104 232.424 201.294 238.024 195.987C237.561 188.312 215.589 171.285 203.104 168.811Z" fill="#FEDEA6"/>
<path d="M223.902 199.281C213.436 199.281 200.307 196.863 193.578 192.732C189.782 190.402 185.4 180.459 187.086 176.199C188.183 173.428 190.255 171.127 192.919 169.724C195.86 168.174 199.403 167.751 203.169 168.496C209.004 169.652 217.473 174.136 225.273 180.197C231.423 184.975 238.087 191.628 238.35 195.973L238.36 196.123L238.251 196.227C236.033 198.321 230.495 199.281 223.902 199.281ZM199.65 168.784C193.509 168.784 189.297 172.369 187.688 176.435C186.124 180.39 190.376 190.011 193.916 192.183C198.882 195.23 208.06 197.605 217.873 198.384C227.496 199.147 235.051 198.179 237.687 195.857C237.349 192.384 232.464 186.603 224.872 180.703C217.147 174.701 208.781 170.266 203.041 169.128C201.855 168.892 200.723 168.784 199.65 168.784Z" fill="#F5C371"/>
<path d="M187.599 175.956L187.363 176.557L237.999 196.232L238.235 195.631L187.599 175.956Z" fill="#F5C371"/>
<path d="M222.192 198.974C220.761 194.824 218.548 188.598 218.526 188.535L219.138 188.32C219.16 188.383 221.373 194.612 222.805 198.766L222.192 198.974Z" fill="#F5C371"/>
<path d="M216.391 187.269L215.764 187.439L218.875 198.804L219.501 198.635L216.391 187.269Z" fill="#F5C371"/>
<path d="M218.982 175.809L204.838 182.767L205.126 183.346L219.27 176.388L218.982 175.809Z" fill="#F5C371"/>
<path d="M196.59 179.6L195.953 179.725L198.98 194.977L199.616 194.852L196.59 179.6Z" fill="#F5C371"/>
<path d="M211.156 171.396L198.418 180.299L198.791 180.827L211.53 171.924L211.156 171.396Z" fill="#F5C371"/>
<path d="M224.05 190.741L223.902 190.113C225.392 189.763 229.331 188.854 233.711 187.958L233.842 188.59C229.471 189.483 225.539 190.392 224.05 190.741Z" fill="#F5C371"/>
<path fill-rule="evenodd" clip-rule="evenodd" d="M201.72 159.305C194.938 163.589 193.425 170.301 195.573 175.527C197.261 179.632 207.237 183.708 211.387 182.828C223.838 180.193 245.489 162.65 245.852 154.967C240.183 149.735 212.466 152.517 201.72 159.305Z" fill="#FEDEA6"/>
<path d="M210.071 183.273C205.253 183.273 196.852 179.485 195.274 175.649C194.142 172.893 194.041 169.807 194.991 166.961C196.04 163.821 198.306 161.08 201.548 159.033C206.57 155.861 215.809 153.285 225.659 152.309C233.426 151.54 242.867 151.772 246.075 154.731L246.186 154.834L246.178 154.983C245.806 162.841 224.066 180.475 211.456 183.143C211.041 183.232 210.576 183.273 210.071 183.273ZM233.097 152.563C230.831 152.563 228.353 152.691 225.723 152.95C215.967 153.917 206.837 156.457 201.897 159.578C195.027 163.917 193.922 170.655 195.876 175.405C197.493 179.339 207.253 183.373 211.322 182.511C217.028 181.303 225.315 176.716 232.951 170.539C240.438 164.482 245.228 158.592 245.521 155.103C243.589 153.45 239.087 152.563 233.097 152.563Z" fill="#F5C371"/>
<path d="M245.74 154.555L195.463 175.117L195.71 175.713L245.987 155.152L245.74 154.555Z" fill="#F5C371"/>
<path d="M236.482 168C232.563 165.983 226.637 163.002 226.578 162.971L226.871 162.394C226.93 162.424 232.858 165.407 236.779 167.426L236.482 168Z" fill="#F5C371"/>
<path d="M224.16 163.531L223.825 164.084L233.972 170.166L234.307 169.613L224.16 163.531Z" fill="#F5C371"/>
<path d="M218.052 153.445L212.66 168.19L213.27 168.411L218.662 153.666L218.052 153.445Z" fill="#F5C371"/>
<path d="M204.501 171.578L204.127 172.106L216.913 181.054L217.287 180.526L204.501 171.578Z" fill="#F5C371"/>
<path d="M209.335 155.655L206.31 170.84L206.947 170.965L209.972 155.78L209.335 155.655Z" fill="#F5C371"/>
<path d="M232.104 160.771L231.56 160.418C232.393 159.143 234.608 155.78 237.155 152.122L237.689 152.49C235.148 156.142 232.937 159.498 232.104 160.771Z" fill="#F5C371"/>
<path fill-rule="evenodd" clip-rule="evenodd" d="M121.6 89.9198C65.7877 69.7654 37.8216 82.2123 31.3186 123.192C24.8157 164.173 63.9989 203.595 121.6 211.622C167.74 218.051 214.62 189.142 222.372 120.927C230.124 52.7118 177.412 110.074 121.6 89.9198Z" fill="#F5C371"/>
<path fill-rule="evenodd" clip-rule="evenodd" d="M114.581 89.5039C114.07 89.5924 113.561 89.6908 113.053 89.7931C111.748 90.0529 110.448 90.3363 109.154 90.6393C107.339 91.0644 105.534 91.5288 103.742 92.0404C101.7 92.6229 99.673 93.2664 97.678 93.9964C95.5443 94.7777 93.4206 95.6632 91.4077 96.7179C91.3662 96.7396 91.3167 96.7239 91.2949 96.6825C91.2731 96.6412 91.289 96.592 91.3305 96.5704C93.3494 95.5097 95.479 94.6222 97.6206 93.839C99.6176 93.1089 101.65 92.4635 103.695 91.879C105.488 91.3674 107.297 90.901 109.114 90.476C110.41 90.1729 111.713 89.8876 113.019 89.6298C113.528 89.5294 114.038 89.4291 114.551 89.3405C114.596 89.3327 114.64 89.3622 114.648 89.4074C114.658 89.4527 114.626 89.496 114.581 89.5039Z" fill="white"/>
<path d="M91.3688 96.7698C91.3233 96.7698 91.2798 96.7462 91.256 96.7029C91.2402 96.6734 91.2362 96.6399 91.2461 96.6065C91.256 96.575 91.2778 96.5474 91.3075 96.5317C93.1284 95.5753 95.1868 94.6819 97.6034 93.7984C99.4916 93.1077 101.481 92.4661 103.682 91.8384C105.419 91.3425 107.244 90.8702 109.103 90.4353C110.435 90.1244 111.749 89.8391 113.01 89.5892C113.471 89.4967 114.009 89.3924 114.542 89.2999C114.575 89.294 114.609 89.3019 114.637 89.3215C114.664 89.3412 114.682 89.3707 114.688 89.4022C114.694 89.4357 114.686 89.4691 114.666 89.4967C114.647 89.5242 114.617 89.5419 114.585 89.5478C114.061 89.6384 113.522 89.7446 113.059 89.8351C111.8 90.0851 110.49 90.3684 109.162 90.6813C107.31 91.1142 105.489 91.5865 103.753 92.0824C101.556 92.7102 99.5747 93.3497 97.6925 94.0365C95.2877 94.9161 93.2392 95.8056 91.4282 96.756C91.4104 96.7639 91.3886 96.7698 91.3688 96.7698ZM114.565 89.3806C114.563 89.3806 114.561 89.3806 114.558 89.3806C114.025 89.4731 113.489 89.5774 113.028 89.6698C111.769 89.9198 110.457 90.2051 109.125 90.516C107.268 90.9509 105.445 91.4232 103.707 91.9191C101.508 92.5468 99.5213 93.1883 97.6351 93.8771C95.2224 94.7606 93.166 95.6521 91.349 96.6065C91.3391 96.6104 91.3332 96.6203 91.3292 96.6301C91.3253 96.6399 91.3273 96.6517 91.3312 96.6616C91.3411 96.6813 91.3669 96.6891 91.3866 96.6773C93.2016 95.7249 95.2541 94.8335 97.6628 93.9519C99.547 93.2631 101.53 92.6236 103.729 91.9958C105.467 91.4999 107.288 91.0277 109.142 90.5947C110.472 90.2838 111.785 89.9985 113.043 89.7486C113.507 89.6561 114.045 89.5518 114.571 89.4593C114.581 89.4573 114.591 89.4514 114.597 89.4435C114.603 89.4357 114.605 89.4239 114.603 89.414C114.601 89.4042 114.595 89.3943 114.587 89.3884C114.581 89.3825 114.573 89.3806 114.565 89.3806Z" fill="white"/>
<path fill-rule="evenodd" clip-rule="evenodd" d="M164.818 71.2705C169.194 63.7081 172.143 55.7797 173.052 53.1999C173.345 50.2501 168.383 40.8399 168.383 40.8399C164.04 41.0681 148.955 41.747 142.423 40.5978C142.423 40.5978 138.35 38.2502 135.163 40.891C131.977 43.5319 137.465 47.1704 137.465 47.1704L114.565 89.4199C127.549 104.442 138.645 96.2266 138.645 96.2266L141.95 86.3677C149.517 89.5773 156.349 83.8292 161.695 76.1921C162.639 74.7024 163.724 72.9687 164.818 71.2705Z" fill="#FDBCA0"/>
<path fill-rule="evenodd" clip-rule="evenodd" d="M149.121 195.583L142.894 204.023L170.987 204.141C164.733 199.095 149.121 195.583 149.121 195.583Z" fill="#FDBCA0"/>
<path fill-rule="evenodd" clip-rule="evenodd" d="M164.818 71.2705C163.846 72.951 162.803 74.6119 161.697 76.194C158.503 81.2435 157.533 84.6675 157.533 86.0765C157.533 87.4855 158.247 92.041 158.247 92.041L166.621 91.8639C166.621 91.8639 166.621 87.3674 167.328 85.1378C168.037 82.9083 172.521 63.7789 171.104 63.5428C170.776 63.4877 170.265 63.8694 169.634 64.5483C169.656 64.5621 169.123 65.1348 168.808 65.5165C167.641 66.9826 166.22 69.098 164.818 71.2705Z" fill="#FDBCA0"/>
<path fill-rule="evenodd" clip-rule="evenodd" d="M136.521 26.4569C121.176 35.141 91.3687 96.6418 91.3687 96.6418C100.493 91.8521 114.565 89.4199 114.565 89.4199L137.465 47.1704C137.465 47.1704 131.977 43.5319 135.163 40.891C138.35 38.2502 142.423 40.5978 142.423 40.5978C148.955 41.747 164.04 41.0662 168.383 40.8399C168.383 40.8399 173.345 50.2501 173.052 53.1999C172.141 55.7797 169.194 63.7101 164.818 71.2705C167.431 67.2187 170.109 63.3775 171.106 63.5428C172.523 63.777 168.036 82.9083 167.33 85.1379C166.621 87.3674 166.623 91.8639 166.623 91.8639L168.393 91.8265C168.393 91.8265 169.263 99.8671 170.307 111.365C170.795 116.741 171.32 122.875 171.813 129.294C173.495 127.132 177.182 122.021 177.364 118.585C177.6 114.126 181.849 77.5086 179.961 52.6292C178.071 27.7479 167.33 29.5091 167.33 29.5091C167.33 29.5091 151.866 17.7729 136.521 26.4569Z" fill="#3F4553"/>
<path fill-rule="evenodd" clip-rule="evenodd" d="M161.697 76.194C156.351 83.8312 149.518 89.5793 141.952 86.3697L138.646 96.2286C138.646 96.2286 152.238 101.219 155.3 107.79C156.359 98.2987 157.297 92.0627 157.297 92.0627L158.249 92.043C158.249 92.043 157.534 87.4855 157.534 86.0785C157.532 84.6675 158.5 81.2435 161.697 76.194Z" fill="#3F4553"/>
<path fill-rule="evenodd" clip-rule="evenodd" d="M85.7021 173.791C83.3468 173.582 80.9302 173.413 78.4561 173.285C80.0336 171.587 82.2662 167.258 84.6373 161.968C84.952 165.561 85.4409 170.934 85.7021 173.791ZM87.1806 99.3378C79.1528 105.91 42.7962 162.244 55.5445 189.941C55.5445 189.941 65.4605 199.8 142.894 204.025L149.121 195.585L150.686 193.463C150.686 193.463 145.459 189.825 135.419 185.62C135.419 185.62 137.978 180.031 140.958 173.332C140.958 173.332 151.632 192.995 161.311 198.393C148.454 185.956 152.347 134.239 155.3 107.792C152.24 101.221 138.647 96.2306 138.647 96.2306C138.647 96.2306 127.551 104.446 114.567 89.4238C114.567 89.4238 100.495 91.8561 91.3707 96.6458C89.7912 97.4703 88.3622 98.3696 87.1806 99.3378Z" fill="#63A6DC"/>
<path fill-rule="evenodd" clip-rule="evenodd" d="M155.298 107.79C152.345 134.237 148.452 185.954 161.309 198.391C161.309 198.391 170.987 206.37 173.348 182.9C174.514 171.307 173.319 148.955 171.811 129.296C171.318 122.877 170.793 116.743 170.304 111.367C169.261 99.8691 168.39 91.8285 168.39 91.8285L166.621 91.8659L158.247 92.043L157.295 92.0627C157.295 92.0627 156.357 98.2988 155.298 107.79Z" fill="#63A6DC"/>
<path fill-rule="evenodd" clip-rule="evenodd" d="M143.211 124.196C143.614 125.601 144.014 127.006 144.412 128.413C145.277 131.473 146.132 134.537 146.965 137.607C147.733 140.427 148.489 143.254 149.188 146.092C149.441 147.125 149.691 148.166 149.907 149.209C149.98 149.567 150.051 149.927 150.106 150.287C150.14 150.508 150.178 150.754 150.178 150.978C150.178 151.216 150.085 151.547 150.021 151.777C149.895 152.23 149.74 152.678 149.584 153.121C149.103 154.481 148.563 155.829 148.02 157.165C147.296 158.946 146.55 160.717 145.794 162.484C144.945 164.472 144.082 166.453 143.215 168.431C142.492 170.078 141.764 171.723 141.032 173.366C141.014 173.408 140.964 173.427 140.921 173.409C140.879 173.392 140.859 173.343 140.877 173.299C141.608 171.656 142.336 170.011 143.058 168.364C143.927 166.386 144.788 164.405 145.637 162.417C146.391 160.65 147.14 158.881 147.862 157.1C148.404 155.766 148.943 154.42 149.424 153.064C149.58 152.625 149.732 152.179 149.857 151.732C149.916 151.521 150.007 151.199 150.007 150.978C150.007 150.764 149.972 150.526 149.938 150.313C149.883 149.955 149.812 149.597 149.738 149.242C149.525 148.201 149.275 147.164 149.022 146.131C148.325 143.296 147.567 140.468 146.801 137.65C145.966 134.582 145.113 131.518 144.248 128.458C143.85 127.051 143.452 125.646 143.046 124.241C143.035 124.198 143.06 124.151 143.104 124.139C143.153 124.127 143.199 124.153 143.211 124.196Z" fill="#A7D1F3"/>
<path d="M140.956 173.456C140.938 173.456 140.923 173.452 140.905 173.445C140.841 173.417 140.812 173.342 140.839 173.277C141.615 171.536 142.328 169.922 143.021 168.342C143.983 166.148 144.828 164.204 145.6 162.397C146.488 160.317 147.197 158.627 147.824 157.082C148.319 155.864 148.889 154.447 149.384 153.048C149.532 152.627 149.689 152.174 149.817 151.718C149.877 151.505 149.966 151.188 149.966 150.976C149.966 150.761 149.928 150.515 149.896 150.317C149.837 149.937 149.764 149.563 149.699 149.248C149.481 148.197 149.225 147.133 148.982 146.139C148.277 143.272 147.498 140.367 146.761 137.657C145.997 134.845 145.162 131.839 144.208 128.466C143.832 127.135 143.426 125.703 143.007 124.251C142.997 124.219 143.001 124.184 143.019 124.154C143.034 124.125 143.062 124.103 143.094 124.093C143.125 124.083 143.161 124.087 143.191 124.105C143.221 124.121 143.242 124.148 143.252 124.18C143.68 125.662 144.099 127.143 144.454 128.397C145.406 131.766 146.241 134.773 147.007 137.591C147.745 140.302 148.525 143.209 149.229 146.078C149.475 147.074 149.73 148.142 149.948 149.195C150.013 149.514 150.088 149.892 150.148 150.275C150.177 150.47 150.219 150.738 150.219 150.972C150.219 151.218 150.124 151.556 150.061 151.781C149.93 152.245 149.774 152.702 149.623 153.127C149.127 154.532 148.555 155.952 148.06 157.173C147.432 158.719 146.724 160.41 145.833 162.492C145.057 164.304 144.214 166.25 143.252 168.44C142.559 170.017 141.847 171.632 141.069 173.376C141.051 173.429 141.006 173.456 140.956 173.456ZM143.131 124.178C143.127 124.178 143.124 124.178 143.12 124.18C143.11 124.184 143.1 124.19 143.096 124.199C143.09 124.209 143.09 124.219 143.092 124.229C143.511 125.683 143.917 127.114 144.293 128.446C145.247 131.819 146.082 134.826 146.846 137.638C147.583 140.348 148.363 143.252 149.067 146.121C149.311 147.115 149.568 148.18 149.784 149.232C149.849 149.549 149.924 149.923 149.984 150.305C150.015 150.506 150.053 150.753 150.053 150.976C150.053 151.2 149.962 151.523 149.902 151.737C149.772 152.2 149.615 152.654 149.467 153.077C148.97 154.479 148.4 155.897 147.905 157.115C147.278 158.662 146.569 160.351 145.681 162.433C144.907 164.241 144.064 166.185 143.102 168.379C142.409 169.96 141.695 171.573 140.921 173.315C140.911 173.334 140.921 173.358 140.94 173.368C140.96 173.376 140.984 173.368 140.994 173.348C141.77 171.605 142.484 169.989 143.175 168.413C144.135 166.225 144.98 164.278 145.754 162.466C146.645 160.384 147.351 158.694 147.981 157.147C148.475 155.927 149.047 154.508 149.544 153.105C149.695 152.682 149.851 152.225 149.982 151.765C150.043 151.545 150.136 151.214 150.136 150.978C150.136 150.75 150.094 150.486 150.065 150.295C150.005 149.913 149.93 149.535 149.865 149.219C149.647 148.166 149.392 147.099 149.146 146.103C148.442 143.234 147.662 140.33 146.924 137.618C146.158 134.802 145.322 131.795 144.37 128.426C144.016 127.173 143.597 125.691 143.169 124.209C143.167 124.199 143.159 124.192 143.149 124.186C143.145 124.18 143.137 124.178 143.131 124.178Z" fill="#A7D1F3"/>
<path fill-rule="evenodd" clip-rule="evenodd" d="M78.638 173.21C87.503 173.669 96.3403 174.716 105.049 176.42C113.528 178.079 121.916 180.366 130.015 183.366C133.025 184.482 136.002 185.698 138.924 187.027C141.109 188.02 143.266 189.079 145.38 190.216C146.718 190.937 148.042 191.688 149.334 192.487C149.803 192.779 150.28 193.078 150.734 193.393C150.753 193.406 150.765 193.424 150.767 193.448C150.771 193.471 150.765 193.491 150.751 193.511L142.961 204.074C142.933 204.111 142.882 204.119 142.844 204.092C142.807 204.064 142.799 204.013 142.827 203.976L150.567 193.481C150.138 193.186 149.689 192.903 149.245 192.629C147.957 191.832 146.635 191.08 145.301 190.362C143.191 189.227 141.035 188.17 138.854 187.178C135.937 185.85 132.964 184.636 129.958 183.522C121.866 180.525 113.486 178.242 105.017 176.583C96.2631 174.869 87.3803 173.82 78.4678 173.368C78.4579 173.37 78.448 173.368 78.4381 173.366C75.9225 173.238 73.4069 173.157 70.8893 173.124C70.8438 173.124 70.8062 173.085 70.8062 173.039C70.8062 172.994 70.8457 172.957 70.8913 172.957C73.4029 172.99 75.9126 173.071 78.4223 173.199C78.7686 172.821 79.0813 172.394 79.3703 171.973C79.7622 171.398 80.1264 170.8 80.4747 170.198C81.3753 168.637 82.1907 167.01 82.9686 165.386C83.9186 163.403 84.8191 161.394 85.692 159.375C86.644 157.175 87.5663 154.961 88.4689 152.739C90.5332 147.66 92.5045 142.538 94.4184 137.4C95.2972 135.036 96.172 132.669 97.0172 130.294C97.033 130.251 97.0805 130.227 97.1241 130.243C97.1676 130.258 97.1914 130.306 97.1755 130.349C96.3304 132.724 95.4575 135.093 94.5768 137.457C92.6629 142.597 90.6915 147.719 88.6272 152.802C87.7247 155.024 86.8023 157.239 85.8484 159.44C84.9735 161.459 84.073 163.47 83.1229 165.455C82.3431 167.083 81.5257 168.714 80.6232 170.278C80.2728 170.884 79.9087 171.487 79.5128 172.065C79.2417 172.457 78.9527 172.852 78.638 173.21Z" fill="#A7D1F3"/>
<path fill-rule="evenodd" clip-rule="evenodd" d="M142.406 40.6807C142.398 40.6788 142.39 40.6768 142.382 40.6709C142.168 40.5469 141.921 40.4387 141.695 40.3442C141.141 40.114 140.555 39.9389 139.965 39.8326C138.243 39.5217 136.587 39.8247 135.219 40.9582C134.643 41.4364 134.241 42.0405 134.251 42.808C134.261 43.5794 134.685 44.3291 135.146 44.9254C135.587 45.498 136.128 46.0195 136.686 46.478C136.947 46.6945 137.23 46.9149 137.513 47.1018C137.551 47.1274 137.563 47.1785 137.537 47.2179C137.511 47.2553 137.46 47.2671 137.42 47.2415C137.131 47.0506 136.844 46.8263 136.579 46.6059C136.011 46.1376 135.463 45.6082 135.013 45.0257C133.929 43.6227 133.592 42.0897 135.112 40.8283C136.517 39.6634 138.226 39.3485 139.995 39.6673C140.597 39.7755 141.194 39.9546 141.76 40.1888C141.99 40.2832 142.237 40.3934 142.455 40.5174C143.263 40.6591 144.08 40.7555 144.896 40.8323C145.869 40.9248 146.847 40.9877 147.823 41.035C150.034 41.1412 152.252 41.1707 154.465 41.1648C157.913 41.157 161.367 41.0645 164.813 40.9228C165.996 40.8736 167.182 40.8224 168.365 40.7595C168.377 40.7575 168.387 40.7555 168.399 40.7575C168.791 40.7358 169.181 40.7142 169.571 40.6906C169.616 40.6886 169.656 40.7221 169.66 40.7693C169.662 40.8146 169.628 40.8539 169.581 40.8579C169.228 40.8795 168.874 40.8992 168.522 40.9189C168.838 41.523 169.143 42.135 169.444 42.747C170.139 44.1619 170.804 45.5944 171.413 47.0467C171.89 48.1841 172.348 49.355 172.7 50.5357C172.882 51.1477 173.106 51.9722 173.147 52.6885C173.191 52.5625 173.234 52.4346 173.276 52.3087C173.29 52.2654 173.337 52.2418 173.381 52.2556C173.424 52.2693 173.448 52.3166 173.434 52.3599C173.339 52.6491 173.238 52.9384 173.135 53.2257C173.135 53.2277 173.135 53.2277 173.133 53.2296C173.127 53.2454 173.116 53.2592 173.102 53.269C173.086 53.2788 173.068 53.2847 173.048 53.2828C173.04 53.2828 173.032 53.2808 173.026 53.2769C173.011 53.271 172.997 53.2592 172.987 53.2454C172.977 53.2296 172.971 53.2119 172.973 53.1923C173.009 52.8262 172.961 52.4209 172.9 52.0588C172.815 51.5629 172.684 51.067 172.54 50.5849C172.187 49.4101 171.734 48.2431 171.259 47.1116C170.651 45.6613 169.986 44.2307 169.294 42.8198C168.983 42.1861 168.666 41.5525 168.34 40.9287C167.168 40.9917 165.992 41.0428 164.821 41.0901C161.373 41.2317 157.917 41.3242 154.467 41.3321C152.252 41.338 150.03 41.3085 147.817 41.2022C146.837 41.155 145.857 41.092 144.882 40.9995C144.056 40.9208 143.229 40.8244 142.414 40.6807C142.408 40.6807 142.408 40.6807 142.406 40.6807Z" fill="white"/>
<path d="M173.052 53.3258C173.048 53.3258 173.044 53.3258 173.038 53.3258C173.026 53.3239 173.014 53.3219 173.004 53.318C172.98 53.3081 172.959 53.2924 172.945 53.2688C172.929 53.2452 172.921 53.2156 172.925 53.1881C172.955 52.887 172.931 52.5289 172.852 52.0664C172.777 51.6335 172.664 51.1671 172.494 50.5984C172.193 49.5909 171.799 48.5223 171.215 47.1311C170.657 45.8028 170.016 44.3997 169.252 42.8412C168.998 42.3256 168.664 41.6507 168.309 40.9757C167.3 41.0288 166.221 41.078 164.818 41.137C161.018 41.2925 157.63 41.3712 154.463 41.3791C151.888 41.385 149.774 41.3437 147.811 41.2492C146.722 41.1961 145.762 41.1311 144.873 41.0465C143.909 40.956 143.124 40.8537 142.401 40.7277H142.395C142.383 40.7258 142.37 40.7199 142.36 40.714C142.128 40.5801 141.859 40.464 141.677 40.3893C141.113 40.1551 140.533 39.9839 139.955 39.8796C138.148 39.5529 136.519 39.9386 135.244 40.9954C134.603 41.5267 134.282 42.1367 134.292 42.8117C134.3 43.4512 134.599 44.1537 135.177 44.9035C135.575 45.4191 136.092 45.9386 136.711 46.4502C137.03 46.7119 137.291 46.9107 137.534 47.072C137.562 47.0898 137.582 47.1193 137.588 47.1527C137.594 47.1862 137.588 47.2196 137.57 47.2472C137.53 47.3042 137.451 47.32 137.394 47.2826C137.142 47.1153 136.873 46.9127 136.549 46.645C135.913 46.1216 135.385 45.5883 134.975 45.057C133.691 43.3942 133.726 41.9222 135.08 40.8005C136.414 39.6946 138.114 39.2912 139.999 39.6297C140.594 39.7379 141.192 39.9131 141.772 40.1551C142.061 40.2751 142.283 40.3794 142.465 40.4837C143.173 40.6077 143.947 40.7081 144.895 40.7966C145.776 40.8793 146.734 40.9462 147.82 40.9973C149.778 41.0918 151.888 41.1311 154.459 41.1272C157.622 41.1193 161.006 41.0406 164.804 40.8852C166.229 40.8261 167.324 40.7769 168.357 40.7218C168.365 40.7179 168.383 40.7179 168.399 40.7199C168.781 40.6982 169.17 40.6766 169.562 40.653C169.596 40.651 169.63 40.6628 169.653 40.6844C169.679 40.7061 169.695 40.7376 169.697 40.771C169.701 40.8399 169.647 40.9009 169.578 40.9048C169.248 40.9245 168.917 40.9442 168.585 40.9619C168.848 41.4657 169.125 42.0167 169.475 42.733C170.241 44.2935 170.884 45.7005 171.445 47.0366C172.032 48.4377 172.43 49.5161 172.733 50.5295C172.889 51.051 173.095 51.7988 173.165 52.4836C173.184 52.4226 173.206 52.3616 173.226 52.3006C173.236 52.2691 173.26 52.2435 173.289 52.2278C173.319 52.212 173.355 52.2101 173.386 52.2199C173.418 52.2297 173.444 52.2534 173.459 52.2829C173.475 52.3124 173.477 52.3478 173.467 52.3793C173.37 52.6725 173.267 52.9677 173.169 53.2451C173.157 53.2747 173.141 53.2943 173.117 53.3101C173.101 53.318 173.077 53.3258 173.052 53.3258ZM168.361 40.8832L168.375 40.9088C168.735 41.5936 169.073 42.2804 169.331 42.8018C170.095 44.3604 170.738 45.7654 171.296 47.0957C171.882 48.4909 172.276 49.5633 172.579 50.5728C172.749 51.1455 172.864 51.6158 172.939 52.0526C173.02 52.5249 173.044 52.887 173.014 53.1979C173.014 53.2078 173.016 53.2156 173.02 53.2235C173.024 53.2314 173.032 53.2353 173.04 53.2392L173.052 53.2412C173.064 53.2412 173.072 53.2392 173.077 53.2353C173.085 53.2314 173.089 53.2235 173.093 53.2156C173.192 52.9362 173.295 52.643 173.392 52.3478C173.396 52.338 173.394 52.3262 173.39 52.3163C173.386 52.3065 173.376 52.2986 173.366 52.2967C173.357 52.2927 173.345 52.2947 173.335 52.2986C173.325 52.3026 173.317 52.3124 173.315 52.3222C173.273 52.4501 173.23 52.5761 173.186 52.704L173.115 52.9106L173.103 52.6922C173.062 51.9641 172.828 51.1199 172.658 50.5492C172.355 49.5377 171.959 48.4633 171.373 47.0642C170.813 45.73 170.17 44.3249 169.406 42.7664C169.042 42.0226 168.757 41.4578 168.486 40.9383L168.454 40.8793L168.521 40.8753C168.874 40.8556 169.228 40.836 169.58 40.8143C169.602 40.8124 169.62 40.7946 169.618 40.771C169.618 40.7612 169.612 40.7514 169.604 40.7435C169.596 40.7356 169.586 40.7317 169.574 40.7336C169.184 40.7573 168.792 40.7789 168.403 40.8005C168.389 40.7986 168.383 40.7986 168.379 40.8005C167.338 40.8576 166.243 40.9068 164.816 40.9658C161.016 41.1213 157.632 41.2 154.467 41.2079C151.894 41.2138 149.782 41.1725 147.822 41.078C146.734 41.0249 145.776 40.9599 144.893 40.8753C143.939 40.7848 143.163 40.6844 142.449 40.5605L142.435 40.5546C142.255 40.4522 142.035 40.3479 141.746 40.2279C141.17 39.9898 140.58 39.8147 139.991 39.7084C138.132 39.3719 136.456 39.7714 135.143 40.8596C133.487 42.2331 134.18 43.8664 135.05 44.996C135.456 45.5214 135.981 46.0507 136.61 46.5702C136.933 46.8359 137.2 47.0386 137.447 47.2019C137.465 47.2137 137.491 47.2098 137.503 47.1901C137.509 47.1803 137.511 47.1704 137.509 47.1606C137.507 47.1508 137.501 47.1409 137.491 47.135C137.245 46.9717 136.98 46.7729 136.66 46.5073C136.034 45.9917 135.514 45.4663 135.112 44.9468C134.52 44.1813 134.217 43.4611 134.209 42.8038C134.199 42.1033 134.532 41.4696 135.193 40.9206C136.487 39.8481 138.14 39.4565 139.975 39.7871C140.559 39.8914 141.144 40.0665 141.715 40.3027C141.899 40.3794 142.172 40.4955 142.407 40.6333C142.411 40.6352 142.415 40.6372 142.419 40.6372C143.142 40.7651 143.923 40.8655 144.885 40.956C145.772 41.0387 146.732 41.1056 147.818 41.1587C149.78 41.2532 151.894 41.2945 154.467 41.2886C157.634 41.2807 161.02 41.202 164.818 41.0465C166.233 40.9895 167.318 40.9383 168.335 40.8852L168.361 40.8832Z" fill="#F0A38B"/>
<path fill-rule="evenodd" clip-rule="evenodd" d="M155.242 107.484C155.641 103.926 156.075 100.373 156.548 96.8245C156.76 95.2326 156.975 93.6386 157.215 92.0506C157.221 92.0092 157.255 91.9797 157.296 91.9797L158.151 91.962C157.991 90.9387 157.844 89.9095 157.712 88.8823C157.644 88.351 157.579 87.8177 157.528 87.2864C157.488 86.8909 157.449 86.4757 157.449 86.0782C157.449 85.6039 157.544 85.0903 157.652 84.6318C157.825 83.8998 158.068 83.1756 158.337 82.4731C158.711 81.5049 159.149 80.5584 159.622 79.6355C160.233 78.4449 160.908 77.2839 161.625 76.1524C161.648 76.113 161.702 76.1012 161.74 76.1268C161.779 76.1504 161.791 76.2036 161.765 76.241C161.053 77.3685 160.38 78.5236 159.77 79.7103C159.299 80.6292 158.864 81.5699 158.492 82.5321C158.224 83.2268 157.983 83.945 157.813 84.6692C157.708 85.1159 157.613 85.6177 157.613 86.0782C157.613 86.4698 157.652 86.8791 157.69 87.2687C157.741 87.8 157.807 88.3313 157.874 88.8607C158.007 89.8938 158.153 90.9289 158.315 91.9581L168.386 91.7455C168.429 91.7455 168.467 91.777 168.471 91.8203C168.669 93.6484 168.855 95.4785 169.039 97.3086C169.512 101.99 169.959 106.676 170.385 111.361C170.927 117.333 171.432 123.312 171.891 129.29C171.895 129.335 171.859 129.377 171.814 129.378C171.768 129.382 171.727 129.347 171.725 129.302C171.266 123.323 170.761 117.347 170.219 111.375C169.793 106.689 169.346 102.004 168.873 97.3224C168.691 95.5179 168.507 93.7134 168.313 91.9108L157.363 92.143C157.128 93.7075 156.916 95.2778 156.708 96.8442C156.225 100.479 155.782 104.119 155.374 107.764C155.382 107.787 155.378 107.811 155.366 107.831C155.317 108.268 155.269 108.706 155.222 109.143C154.591 114.909 154.044 120.687 153.599 126.47C153.09 133.078 152.714 139.702 152.528 146.327C152.376 151.798 152.354 157.28 152.544 162.751C152.635 165.349 152.776 167.948 152.983 170.54C153.179 172.972 153.433 175.4 153.773 177.815C154.084 180.025 154.468 182.229 154.961 184.405C155.398 186.339 155.925 188.266 156.592 190.137C157.623 193.034 159.121 196.163 161.363 198.333C161.397 198.365 161.397 198.418 161.365 198.452C161.334 198.485 161.28 198.485 161.247 198.453C158.984 196.265 157.474 193.117 156.433 190.194C155.764 188.317 155.236 186.385 154.796 184.442C154.304 182.26 153.92 180.052 153.607 177.838C153.266 175.42 153.011 172.988 152.817 170.553C152.609 167.96 152.469 165.358 152.378 162.759C152.186 157.286 152.21 151.8 152.362 146.325C152.546 139.698 152.924 133.072 153.433 126.46C153.878 120.675 154.422 114.895 155.056 109.127C155.105 108.683 155.155 108.238 155.204 107.793C154.011 105.261 151.317 103.092 149.027 101.567C146.83 100.103 144.443 98.8435 142.042 97.7455C141.233 97.3755 140.413 97.0213 139.588 96.6868C139.265 96.5569 138.941 96.427 138.614 96.307C138.571 96.2912 138.549 96.244 138.565 96.2007L141.854 86.3891C141.563 86.0428 141.286 85.663 141.025 85.2969C140.31 84.2953 139.655 83.2425 139.055 82.1661C137.108 78.6693 135.713 74.832 135.02 70.8924C135.012 70.8471 135.042 70.8038 135.087 70.7959C135.133 70.7881 135.176 70.8176 135.184 70.8629C135.875 74.7828 137.264 78.6043 139.202 82.0835C139.798 83.152 140.449 84.2009 141.161 85.1985C141.429 85.5724 141.714 85.964 142.012 86.3143C142.022 86.3261 142.028 86.3379 142.03 86.3517C142.032 86.3655 142.032 86.3793 142.028 86.395L138.749 96.1771C139.052 96.2893 139.352 96.4093 139.651 96.5313C140.479 96.8659 141.3 97.222 142.113 97.592C144.524 98.694 146.919 99.9573 149.122 101.425C151.37 102.925 153.983 105.023 155.242 107.484Z" fill="#F0A38B"/>
<path d="M161.309 198.517C161.275 198.517 161.243 198.505 161.22 198.481C159.294 196.618 157.716 193.912 156.396 190.207C155.779 188.471 155.242 186.588 154.759 184.451C154.298 182.41 153.908 180.247 153.57 177.843C153.247 175.552 152.988 173.169 152.778 170.554C152.578 168.072 152.436 165.522 152.339 162.757C152.161 157.682 152.155 152.306 152.323 146.322C152.497 140.058 152.847 133.56 153.394 126.455C153.825 120.842 154.371 115.01 155.017 109.122C155.064 108.681 155.114 108.24 155.163 107.8C154.201 105.769 152.131 103.685 149.008 101.601C146.993 100.257 144.709 99.0092 142.029 97.7832C141.2 97.4034 140.374 97.0473 139.577 96.7265C139.284 96.6084 138.941 96.4707 138.605 96.3467C138.54 96.3231 138.506 96.2503 138.53 96.1853L141.811 86.3953C141.524 86.0529 141.249 85.6751 140.994 85.3189C140.311 84.3626 139.648 83.3078 139.023 82.1842C137.029 78.6067 135.672 74.8087 134.983 70.8967C134.977 70.8632 134.985 70.8298 135.005 70.8022C135.024 70.7747 135.054 70.757 135.086 70.751C135.155 70.7392 135.22 70.7845 135.232 70.8534C135.915 74.7359 137.265 78.5083 139.244 82.0602C139.866 83.176 140.523 84.2209 141.202 85.1714C141.467 85.5433 141.754 85.9349 142.051 86.2851C142.065 86.3009 142.074 86.3206 142.078 86.3422C142.082 86.3639 142.082 86.3875 142.074 86.4072L138.809 96.1499C139.082 96.2522 139.353 96.3605 139.674 96.4884C140.473 96.8111 141.303 97.1693 142.136 97.551C144.828 98.7809 147.124 100.036 149.15 101.388C152.133 103.376 154.174 105.375 155.217 107.335C155.62 103.746 156.056 100.208 156.507 96.817C156.699 95.3726 156.925 93.696 157.174 92.043C157.184 91.982 157.235 91.9368 157.297 91.9348L158.102 91.9171C157.946 90.9174 157.801 89.8981 157.671 88.8847C157.588 88.2451 157.532 87.7532 157.487 87.2868C157.451 86.9306 157.408 86.4859 157.408 86.0746C157.408 85.6732 157.473 85.2107 157.611 84.6184C157.766 83.9592 157.991 83.2527 158.298 82.4538C158.647 81.5505 159.068 80.6198 159.585 79.6122C160.165 78.4787 160.822 77.3394 161.59 76.1252C161.608 76.0977 161.635 76.078 161.669 76.0701C161.703 76.0622 161.736 76.0681 161.764 76.0859C161.794 76.1036 161.813 76.1311 161.819 76.1646C161.827 76.198 161.821 76.2315 161.803 76.259C161.04 77.4653 160.388 78.5988 159.81 79.7264C159.298 80.728 158.88 81.6489 158.534 82.5443C158.231 83.3314 158.009 84.028 157.857 84.6755C157.722 85.2501 157.659 85.6948 157.659 86.0746C157.659 86.4741 157.701 86.8932 157.736 87.2612C157.782 87.7217 157.839 88.2117 157.92 88.8512C158.051 89.8725 158.197 90.9017 158.356 91.9112L168.388 91.6987C168.454 91.6967 168.511 91.7459 168.517 91.8108C168.723 93.7196 168.919 95.6442 169.085 97.2991C169.544 101.853 169.998 106.581 170.431 111.353C170.991 117.53 171.498 123.562 171.937 129.284C171.939 129.318 171.929 129.351 171.907 129.377C171.886 129.402 171.854 129.418 171.82 129.42C171.787 129.422 171.753 129.412 171.727 129.391C171.702 129.369 171.686 129.337 171.684 129.304C171.244 123.58 170.738 117.548 170.178 111.377C169.744 106.601 169.291 101.874 168.832 97.3267C168.669 95.7091 168.477 93.8279 168.276 91.9565L157.404 92.1867C157.162 93.8003 156.941 95.4395 156.754 96.8524C156.287 100.363 155.838 104.033 155.42 107.762C155.426 107.79 155.424 107.819 155.411 107.845C155.361 108.28 155.314 108.715 155.266 109.149C154.621 115.037 154.075 120.866 153.643 126.474C153.097 133.576 152.748 140.07 152.574 146.33C152.408 152.308 152.414 157.68 152.59 162.749C152.687 165.51 152.83 168.059 153.03 170.536C153.239 173.145 153.497 175.525 153.819 177.809C154.158 180.206 154.546 182.361 155.005 184.396C155.486 186.523 156.02 188.396 156.634 190.122C157.922 193.739 159.523 196.49 161.396 198.3C161.42 198.324 161.433 198.355 161.433 198.389C161.433 198.422 161.422 198.454 161.398 198.479C161.376 198.503 161.344 198.517 161.309 198.517C161.311 198.517 161.311 198.517 161.309 198.517ZM135.104 70.8376C135.102 70.8376 135.1 70.8376 135.096 70.8376C135.086 70.8396 135.076 70.8455 135.07 70.8534C135.064 70.8632 135.062 70.8731 135.064 70.8829C135.751 74.7851 137.107 78.5732 139.096 82.1429C139.719 83.2626 140.382 84.3154 141.063 85.2698C141.32 85.6318 141.599 86.0136 141.89 86.3599L141.906 86.3776L141.898 86.4013L138.609 96.2129C138.601 96.2345 138.613 96.2562 138.633 96.2641C138.971 96.388 139.313 96.5258 139.606 96.6438C140.404 96.9666 141.231 97.3228 142.063 97.7025C144.748 98.9285 147.034 100.18 149.055 101.526C152.198 103.622 154.28 105.721 155.246 107.77L155.252 107.782L155.25 107.794C155.201 108.238 155.151 108.683 155.102 109.128C154.457 115.016 153.91 120.846 153.479 126.459C152.933 133.562 152.582 140.06 152.408 146.322C152.242 152.304 152.248 157.678 152.424 162.751C152.521 165.516 152.665 168.065 152.863 170.546C153.073 173.157 153.33 175.54 153.653 177.829C153.991 180.232 154.379 182.39 154.843 184.429C155.325 186.562 155.86 188.443 156.477 190.175C157.792 193.867 159.363 196.563 161.279 198.416C161.287 198.424 161.295 198.432 161.309 198.428C161.319 198.428 161.33 198.424 161.336 198.416C161.344 198.409 161.348 198.399 161.348 198.387C161.348 198.377 161.344 198.365 161.336 198.359C159.428 196.514 157.865 193.827 156.555 190.148C155.939 188.418 155.405 186.541 154.922 184.411C154.461 182.375 154.073 180.218 153.734 177.817C153.412 175.531 153.154 173.149 152.944 170.538C152.747 168.059 152.602 165.51 152.505 162.747C152.327 157.676 152.321 152.302 152.489 146.322C152.663 140.062 153.014 133.566 153.56 126.462C153.991 120.852 154.538 115.023 155.183 109.134C155.23 108.697 155.28 108.258 155.327 107.821L155.333 107.803C155.339 107.794 155.341 107.782 155.337 107.772L155.335 107.764L155.337 107.754C155.755 104.021 156.204 100.347 156.671 96.8347C156.861 95.412 157.083 93.757 157.326 92.1316L157.332 92.0962H157.368L168.357 91.864L168.361 91.9033C168.565 93.7905 168.757 95.6855 168.921 97.3149C169.38 101.863 169.833 106.591 170.267 111.367C170.827 117.538 171.334 123.572 171.773 129.296C171.773 129.306 171.779 129.316 171.787 129.324C171.795 129.332 171.805 129.334 171.816 129.334C171.826 129.334 171.836 129.328 171.844 129.32C171.852 129.312 171.854 129.302 171.854 129.29C171.415 123.57 170.908 117.536 170.348 111.361C169.914 106.589 169.461 101.863 169.002 97.309C168.836 95.654 168.64 93.7295 168.434 91.8207C168.432 91.799 168.414 91.7872 168.392 91.7853L158.282 91.9998L158.276 91.9624C158.116 90.9411 157.968 89.8981 157.835 88.863C157.752 88.2235 157.697 87.7315 157.651 87.271C157.615 86.8991 157.574 86.478 157.574 86.0746C157.574 85.6869 157.637 85.2363 157.774 84.6558C157.926 84.0044 158.15 83.3039 158.455 82.5128C158.801 81.6155 159.221 80.6906 159.735 79.687C160.313 78.5594 160.966 77.422 161.732 76.2138C161.738 76.2039 161.74 76.1941 161.738 76.1842C161.736 76.1744 161.73 76.1646 161.72 76.1587C161.71 76.1528 161.701 76.1508 161.691 76.1528C161.681 76.1547 161.671 76.1606 161.665 76.1705C160.899 77.3827 160.244 78.5201 159.664 79.6496C159.147 80.6552 158.728 81.582 158.381 82.4833C158.075 83.2763 157.851 83.9808 157.697 84.6361C157.558 85.2225 157.495 85.6791 157.495 86.0726C157.495 86.48 157.538 86.9208 157.574 87.2769C157.619 87.7414 157.677 88.2333 157.758 88.8729C157.891 89.902 158.037 90.9371 158.195 91.9525L158.203 92.0017L157.299 92.0214C157.279 92.0214 157.263 92.0352 157.259 92.0548C157.01 93.7078 156.784 95.3844 156.592 96.8288C156.135 100.263 155.696 103.848 155.286 107.487L155.27 107.63L155.205 107.502C154.187 105.517 152.135 103.484 149.101 101.463C147.078 100.113 144.786 98.8616 142.098 97.6337C141.265 97.2539 140.438 96.8957 139.638 96.573C139.304 96.4372 139.023 96.3251 138.737 96.2208L138.698 96.207L138.712 96.1676L141.989 86.3816C141.991 86.3757 141.991 86.3678 141.991 86.3619C141.989 86.356 141.987 86.3501 141.983 86.3442C141.685 85.9919 141.396 85.5984 141.13 85.2245C140.452 84.2721 139.79 83.2232 139.169 82.1055C137.186 78.5437 135.832 74.7635 135.147 70.8711C135.141 70.8514 135.123 70.8376 135.104 70.8376Z" fill="#A7D1F3"/>
<path fill-rule="evenodd" clip-rule="evenodd" d="M165.343 52.1884C165.459 52.4954 165.6 52.8044 165.739 53.1015C166.039 53.743 166.382 54.3826 166.778 54.9729C167.013 55.3251 167.272 55.6695 167.567 55.9745C167.599 56.008 167.597 56.0611 167.565 56.0926C167.532 56.1241 167.478 56.1241 167.447 56.0906C167.146 55.7777 166.879 55.4255 166.639 55.0654C166.239 54.4672 165.893 53.8217 165.588 53.1723C165.448 52.8713 165.307 52.5584 165.186 52.2475C165.17 52.2042 165.192 52.1569 165.234 52.1392C165.277 52.1235 165.325 52.1451 165.343 52.1884Z" fill="#3F4553"/>
<path d="M167.506 56.2757C167.504 56.2757 167.502 56.2757 167.5 56.2757C167.435 56.2737 167.373 56.2481 167.328 56.2009C167.051 55.9116 166.78 55.5712 166.503 55.154C166.131 54.5971 165.782 53.9713 165.44 53.2393C165.262 52.8614 165.137 52.5722 165.034 52.3026C165.01 52.2416 165.012 52.1747 165.04 52.1156C165.068 52.0566 165.115 52.0113 165.177 51.9877C165.238 51.9641 165.305 51.9661 165.365 51.9936C165.424 52.0212 165.469 52.0684 165.493 52.1294C165.592 52.3872 165.713 52.6666 165.885 53.0326C166.218 53.743 166.554 54.3472 166.912 54.8824C167.176 55.274 167.427 55.5948 167.684 55.8624C167.777 55.9608 167.775 56.1163 167.676 56.2087C167.631 56.252 167.571 56.2757 167.506 56.2757Z" fill="#3F4553"/>
<path fill-rule="evenodd" clip-rule="evenodd" d="M154.892 48.733C155.189 48.794 155.488 48.8491 155.787 48.9022C156.434 49.0183 157.087 49.1226 157.739 49.2053C158.164 49.2584 158.594 49.3037 159.023 49.3293C159.36 49.3489 159.724 49.3588 160.058 49.3194C160.104 49.3135 160.145 49.347 160.151 49.3922C160.157 49.4375 160.124 49.4788 160.078 49.4847C159.734 49.526 159.36 49.5142 159.013 49.4946C158.58 49.4709 158.146 49.4237 157.717 49.3706C157.062 49.2879 156.407 49.1836 155.755 49.0675C155.456 49.0144 155.156 48.9593 154.857 48.8983C154.811 48.8885 154.782 48.8452 154.791 48.7999C154.803 48.7527 154.849 48.7232 154.892 48.733Z" fill="#3F4553"/>
<path d="M159.549 49.6736C159.361 49.6736 159.175 49.6657 159.007 49.6559C158.619 49.6342 158.204 49.5929 157.699 49.5299C157.095 49.4532 156.452 49.3548 155.729 49.2249C155.48 49.1796 155.154 49.1206 154.827 49.0537C154.694 49.0262 154.609 48.8963 154.635 48.7644C154.649 48.6995 154.686 48.6444 154.742 48.609C154.797 48.5735 154.863 48.5617 154.926 48.5736C155.235 48.6365 155.549 48.6936 155.817 48.7428C156.529 48.8707 157.164 48.9691 157.76 49.0439C158.255 49.1068 158.659 49.1462 159.035 49.1659C159.347 49.1836 159.712 49.1974 160.042 49.158C160.108 49.1501 160.171 49.1678 160.224 49.2092C160.276 49.2505 160.309 49.3076 160.317 49.3725C160.333 49.5063 160.236 49.6283 160.102 49.6441C159.918 49.6657 159.731 49.6736 159.549 49.6736Z" fill="#3F4553"/>
<path fill-rule="evenodd" clip-rule="evenodd" d="M164.166 60.6068C164.172 60.8429 164.198 61.0908 164.228 61.323C164.291 61.8229 164.398 62.3325 164.57 62.8068C164.721 63.2181 164.938 63.649 165.261 63.9521C165.295 63.9836 165.297 64.0367 165.265 64.0701C165.233 64.1036 165.18 64.1056 165.146 64.0741C164.802 63.7514 164.572 63.3027 164.412 62.8639C164.236 62.3798 164.127 61.8563 164.061 61.3447C164.03 61.1066 164.004 60.8527 163.998 60.6107C163.996 60.5654 164.034 60.5261 164.079 60.5261C164.127 60.5241 164.164 60.5615 164.166 60.6068Z" fill="#3F4553"/>
<path d="M165.204 64.2571C165.142 64.2571 165.083 64.2355 165.035 64.1902C164.721 63.895 164.459 63.466 164.26 62.919C164.095 62.4684 163.975 61.9449 163.899 61.3664C163.862 61.0692 163.84 60.8311 163.836 60.6166C163.834 60.5517 163.858 60.4887 163.903 60.4415C163.949 60.3942 164.01 60.3667 164.076 60.3667C164.141 60.3628 164.204 60.3883 164.252 60.4336C164.299 60.4789 164.327 60.5399 164.329 60.6048C164.333 60.8016 164.353 61.024 164.388 61.3054C164.458 61.8505 164.57 62.3365 164.723 62.7537C164.895 63.2299 165.115 63.594 165.372 63.836C165.471 63.9285 165.475 64.0839 165.382 64.1823C165.334 64.2315 165.269 64.2571 165.204 64.2571Z" fill="#3F4553"/>
<path fill-rule="evenodd" clip-rule="evenodd" d="M150.56 54.9099C150.722 55.0319 150.906 55.148 151.08 55.2543C151.528 55.5258 152.001 55.7659 152.484 55.9686C153.936 56.5826 155.532 56.8895 157.111 56.7124C157.157 56.7065 157.198 56.74 157.204 56.7853C157.21 56.8305 157.176 56.8718 157.131 56.8777C155.524 57.0588 153.901 56.7479 152.42 56.1221C151.929 55.9155 151.45 55.6715 150.995 55.396C150.817 55.2877 150.627 55.1677 150.461 55.0418C150.423 55.0142 150.417 54.9611 150.445 54.9257C150.471 54.8883 150.522 54.8824 150.56 54.9099Z" fill="#3F4553"/>
<path d="M156.218 57.0883C154.952 57.0883 153.634 56.8109 152.355 56.2697C151.848 56.0552 151.363 55.8073 150.91 55.5318C150.74 55.4275 150.54 55.3035 150.362 55.1697C150.253 55.0871 150.233 54.9336 150.314 54.8273C150.354 54.7762 150.411 54.7427 150.477 54.7329C150.542 54.723 150.607 54.7407 150.659 54.7801C150.819 54.9021 151.005 55.0182 151.165 55.1146C151.597 55.3763 152.062 55.6144 152.547 55.8191C154.065 56.4606 155.637 56.7145 157.091 56.5511C157.157 56.5433 157.22 56.5629 157.271 56.6023C157.323 56.6436 157.354 56.7007 157.362 56.7656C157.378 56.8994 157.281 57.0214 157.147 57.0372C156.842 57.0726 156.531 57.0883 156.218 57.0883Z" fill="#3F4553"/>
<path fill-rule="evenodd" clip-rule="evenodd" d="M148.42 73.8543C148.767 74.0156 149.17 74.3974 149.414 74.6788C150.18 75.5624 150.613 76.7136 150.827 77.847C150.835 77.8923 150.805 77.9356 150.76 77.9435C150.714 77.9513 150.671 77.9218 150.663 77.8765C150.453 76.7726 150.033 75.647 149.287 74.787C149.093 74.5627 148.871 74.3521 148.63 74.179C148.547 74.1199 148.444 74.0491 148.351 74.0058C148.309 73.9861 148.292 73.9369 148.311 73.8956C148.327 73.8523 148.379 73.8346 148.42 73.8543Z" fill="#3F4553"/>
<path d="M150.746 78.1048C150.629 78.1048 150.526 78.0221 150.504 77.906C150.271 76.6761 149.808 75.6331 149.164 74.8913C148.962 74.6591 148.751 74.4623 148.535 74.3068C148.468 74.2576 148.367 74.1887 148.282 74.1494C148.222 74.1218 148.177 74.0726 148.155 74.0116C148.133 73.9506 148.135 73.8837 148.163 73.8247C148.191 73.7657 148.24 73.7204 148.301 73.6987C148.363 73.6771 148.43 73.6791 148.489 73.7066C148.858 73.8778 149.271 74.2655 149.536 74.5705C150.245 75.3891 150.734 76.4793 150.987 77.8135C150.999 77.8784 150.985 77.9434 150.95 77.9965C150.912 78.0496 150.857 78.087 150.791 78.0988C150.775 78.1048 150.76 78.1048 150.746 78.1048ZM148.416 73.8581C148.416 73.8581 148.418 73.8581 148.416 73.8581C148.418 73.8581 148.416 73.8581 148.416 73.8581Z" fill="#3F4553"/>
<path fill-rule="evenodd" clip-rule="evenodd" d="M160.503 63.9186C160.107 65.1859 159.692 66.4532 159.256 67.7087C158.965 68.549 158.662 69.3991 158.322 70.2197C158.205 70.5011 158.081 70.7923 157.934 71.058C157.875 71.1662 157.74 71.4122 157.6 71.4279C157.2 71.4712 156.79 71.3118 156.456 71.1072C155.81 70.7136 155.246 70.0583 154.809 69.4561C154.781 69.4188 154.791 69.3676 154.827 69.34C154.864 69.3125 154.916 69.3223 154.944 69.3578C155.367 69.9402 155.919 70.5837 156.543 70.9635C156.846 71.1465 157.22 71.3 157.58 71.2607C157.639 71.241 157.776 70.997 157.805 70.9419C157.948 70.6782 158.069 70.3928 158.184 70.1154C158.518 69.3086 158.813 68.4742 159.1 67.6497C159.535 66.3962 159.949 65.1308 160.345 63.8655C160.359 63.8222 160.406 63.7966 160.45 63.8104C160.493 63.8281 160.517 63.8754 160.503 63.9186Z" fill="#3F4553"/>
<path d="M157.467 71.5991C157.127 71.5991 156.751 71.4791 156.371 71.2488C155.814 70.9104 155.26 70.3554 154.676 69.5545C154.639 69.5014 154.623 69.4365 154.633 69.3735C154.643 69.3085 154.678 69.2515 154.732 69.2141C154.843 69.1354 154.995 69.159 155.076 69.2692C155.612 70.0052 156.135 70.5306 156.628 70.8317C156.855 70.9694 157.19 71.1268 157.513 71.1091C157.548 71.0639 157.612 70.9655 157.661 70.871C157.803 70.6073 157.926 70.3141 158.033 70.0603C158.377 69.2259 158.684 68.3541 158.945 67.6044C159.369 66.3824 159.789 65.1111 160.188 63.8242C160.208 63.7612 160.25 63.71 160.309 63.6805C160.367 63.649 160.434 63.6431 160.497 63.6628C160.559 63.6825 160.61 63.7238 160.642 63.7829C160.673 63.8399 160.679 63.9068 160.66 63.9698C160.258 65.2607 159.836 66.5378 159.411 67.7638C159.143 68.5372 158.827 69.4325 158.472 70.2846C158.356 70.564 158.229 70.8612 158.077 71.1386C157.952 71.363 157.813 71.5696 157.619 71.5912C157.568 71.5952 157.518 71.5991 157.467 71.5991Z" fill="#3F4553"/>
<rect x="198" y="251" width="55" height="55" rx="27.5" fill="#E6E7F2"/>
<path d="M216.151 277.5L231.427 277.5L225.016 270.911L226.391 269.5L234.622 277.933C234.925 278.244 234.925 278.744 234.622 279.056L226.391 287.5L225.016 286.089L231.427 279.5L216.151 279.5L216.151 278.5L216.151 277.5Z" fill="#3F414E"/>
</svg>
