<svg width="274" height="326" viewBox="0 0 274 326" fill="none" xmlns="http://www.w3.org/2000/svg">
<rect width="273.534" height="325.571" rx="10" fill="#8E97FD"/>
<mask id="mask0" mask-type="alpha" maskUnits="userSpaceOnUse" x="0" y="0" width="274" height="326">
<rect width="273.534" height="325.571" rx="10" fill="#FA6E5A"/>
</mask>
<g mask="url(#mask0)">
<path d="M19.8027 54.9554C-19.7309 61.7457 -29.8081 38.5454 -36.7847 25.2478V-57.9336H99.6452V93.9997H75.6149C62.6954 77.5897 59.3364 48.1651 19.8027 54.9554Z" fill="#808AFF"/>
<path d="M179.487 54.9554C219.021 61.7457 229.098 38.5454 236.075 25.2477V-57.9336H99.6449V93.9996H123.675C136.595 77.5897 139.954 48.165 179.487 54.9554Z" fill="#808AFF"/>
<g clip-path="url(#clip0)">
<path d="M242.452 37.7343H237.202V64.09H242.452V37.7343Z" fill="#9BA3FF"/>
<path d="M250.679 46.5933H245.43V64.0896H250.679V46.5933Z" fill="#9BA3FF"/>
<path d="M258.918 54.943H253.668V64.09H258.918V54.943Z" fill="#9BA3FF"/>
</g>
<g clip-path="url(#clip1)">
<path d="M141.856 200.52C171.396 200.52 195.343 196.355 195.343 191.218C195.343 186.08 171.396 181.916 141.856 181.916C112.316 181.916 88.3696 186.08 88.3696 191.218C88.3696 196.355 112.316 200.52 141.856 200.52Z" fill="#808AFF"/>
</g>
<path d="M132.836 70.5333C132.836 70.5333 130.741 93.6962 139.42 93.3473C148.73 92.968 146.226 70.5333 146.226 70.5333C145.009 66.9173 144.524 64.7729 145.07 60.9799H133.765C134.31 64.7729 134.048 66.9173 132.836 70.5333Z" fill="#FDBCA0"/>
<path d="M133.992 65.4605C135.275 65.8449 136.567 66.1989 137.905 66.3101C139.172 66.4164 140.475 66.3354 141.737 66.1989C142.788 66.0826 143.908 65.8954 144.959 65.5465C144.792 64.1709 144.817 62.7548 145.075 60.9746H133.77C134.017 62.7194 134.093 64.1152 133.992 65.4605Z" fill="#F0A38B"/>
<path d="M139.42 64.1408C142.646 64.1408 145.751 62.8663 148.023 60.5702C150.729 57.8392 152.85 54.7947 153.471 51.2191C154.269 46.627 152.719 42.0399 149.336 38.348H129.498C126.115 42.0348 124.565 46.627 125.363 51.2191C125.984 54.7947 128.11 57.8392 130.811 60.5702C133.088 62.8612 136.193 64.1408 139.42 64.1408Z" fill="#FDBCA0"/>
<path d="M140.404 73.2341C139.995 73.6842 139.612 74.1748 139.248 74.6654C138.809 74.3619 138.461 73.9927 138.077 73.6134C138.042 73.578 137.971 73.6134 137.986 73.664C138.203 74.2608 138.658 74.7463 139.122 75.161C139.223 75.247 139.364 75.2571 139.465 75.161C139.955 74.6806 140.435 74.1192 140.813 73.5426C140.975 73.3049 140.601 73.0167 140.404 73.2341Z" fill="#DF8370"/>
<path d="M151.321 72.349C148.306 72.607 145.332 73.0975 142.399 73.846C142.222 73.8915 142.298 74.1596 142.475 74.1191C145.393 73.4718 148.342 73.0318 151.321 72.8295C151.634 72.8093 151.629 72.3238 151.321 72.349Z" fill="#DF8370"/>
<path d="M127.514 72.349C130.528 72.607 133.502 73.0975 136.436 73.846C136.613 73.8915 136.537 74.1596 136.36 74.1191C133.442 73.4718 130.493 73.0318 127.514 72.8295C127.206 72.8093 127.206 72.3238 127.514 72.349Z" fill="#DF8370"/>
<path d="M128.034 30.7115C123.818 33.1289 120.849 36.9371 120.799 42.0552C120.748 47.8257 127.766 57.015 127.67 56.7874C125.338 51.1737 124.727 43.446 130.548 39.5771C131.129 39.1927 131.856 38.9702 132.376 38.5201C132.361 35.4705 130.68 32.5169 128.034 30.7115Z" fill="#3F4553"/>
<path d="M150.391 30.7115C154.607 33.1289 157.575 36.9371 157.626 42.0552C157.676 47.8257 154.228 52.959 150.795 57.3185C151.668 55.4169 153.693 43.4409 147.871 39.5771C147.291 39.1927 146.564 38.9702 146.043 38.5201C146.064 35.4705 147.75 32.5169 150.391 30.7115Z" fill="#424495"/>
<path d="M210.924 27.6569C207.703 26.0537 203.942 25.7097 200.438 26.4228C198.741 26.7667 197.136 27.3686 195.606 28.1828C194.591 28.7189 193.561 29.4876 192.379 29.5787C190.945 29.6849 189.688 28.7492 188.623 27.9198C185.311 25.3406 181.943 23.0799 177.682 22.4578C175.622 22.1544 173.319 22.3769 171.724 23.6413C170.088 21.4767 167.649 19.9342 164.963 19.3678C161.409 18.6193 158.031 19.6864 155.239 21.8307C153.663 21.0569 150.907 19.9443 150.558 19.8482C140.056 16.9554 125.717 24.2937 127.575 36.6691C129.17 47.3049 142.616 52.2207 151.932 50.0359C153.941 53.8441 158.758 54.7291 162.469 52.7466C162.752 52.9641 163.034 53.1816 163.322 53.394C169.245 57.7433 176.137 60.5704 183.579 59.2859C186.406 58.7953 189.052 57.7737 191.486 56.307C193.798 58.0468 196.843 58.598 199.645 57.2528C201.73 56.2565 203.129 54.4156 203.629 52.3319C203.664 52.3319 203.699 52.3319 203.735 52.3319C209.925 52.2561 216.488 49.1761 218.069 42.6773C219.508 36.7703 216.307 30.3322 210.924 27.6569Z" fill="#4E5567"/>
<path d="M182.781 25.73C184.816 27.3939 186.022 29.6748 184.755 32.1884C183.725 34.2366 181.872 35.7285 180.524 37.5441C178.944 39.6683 178.671 42.3942 181.261 43.9468C183.811 45.4742 187.007 43.5726 189.133 42.1312C191.758 40.346 194.575 35.1823 196.837 32.9672C206.885 23.1305 216.862 33.6449 216.902 33.6803C215.6 31.1212 213.519 28.9516 210.924 27.6569C207.703 26.0537 203.941 25.7098 200.437 26.4229C198.741 26.7668 197.135 27.3686 195.605 28.1829C194.591 28.719 193.561 29.4877 192.379 29.5787C190.945 29.6849 189.688 28.7493 188.623 27.9199C185.311 25.3406 181.943 23.08 177.681 22.4579C175.667 22.1646 173.42 22.377 171.83 23.5705C175.298 22.2202 179.999 23.4492 182.781 25.73Z" fill="#3F4553"/>
<path d="M209.54 50.6631C207.081 50.9514 204.779 50.8149 202.517 49.8084C201.543 52.3422 199.548 54.9012 196.731 55.3008C194.837 55.5688 192.601 54.9771 192.212 52.9693C178.903 63.8225 163.983 51.7151 162.544 49.4443C158.394 52.1551 153.163 48.8475 151.613 44.6145C148.452 45.8434 144.807 45.4641 141.737 44.1441C136.016 41.6913 132.845 34.9296 134.845 28.9618C136.511 24.0005 140.949 20.607 145.867 19.2263C136.279 19.1707 125.984 26.069 127.574 36.6693C129.17 47.305 142.61 52.2208 151.931 50.036C153.94 53.8442 158.757 54.7293 162.468 52.7468C162.751 52.9643 163.034 53.1817 163.321 53.3941C169.244 57.7435 176.136 60.5706 183.578 59.286C186.406 58.7954 189.051 57.7739 191.485 56.3072C193.797 58.047 196.842 58.5982 199.644 57.2529C201.729 56.2566 203.128 54.4157 203.628 52.3321C203.663 52.3321 203.699 52.3321 203.734 52.3321C206.688 52.2967 209.722 51.5735 212.267 50.1271C211.373 50.3951 210.444 50.5569 209.54 50.6631Z" fill="#3F4553"/>
<path d="M135.875 53.9301C134.108 54.2235 131.235 54.3195 129.604 52.5697C129.281 52.2207 128.842 52.6152 129.246 52.9642C129.311 53.0198 129.377 53.0704 129.443 53.1209C129.251 53.1766 129.049 53.2019 128.837 53.1867C128.832 53.1867 128.832 53.1917 128.837 53.1968C129.094 53.2828 129.357 53.3081 129.614 53.2575C129.619 53.2625 129.624 53.2676 129.629 53.2676C129.407 53.4143 129.14 53.475 128.877 53.5609C128.872 53.5609 128.872 53.566 128.877 53.571C129.2 53.6014 129.539 53.5609 129.806 53.389C129.837 53.4092 129.867 53.4193 129.897 53.4396C129.695 53.5963 129.468 53.7127 129.21 53.7733C129.185 53.7784 129.19 53.8189 129.215 53.8189C129.544 53.834 129.857 53.7531 130.119 53.571C130.175 53.6014 130.235 53.6267 130.291 53.657C130.104 53.7936 129.912 53.915 129.695 54.0161C129.675 54.0262 129.685 54.0616 129.705 54.0616C129.993 54.0717 130.245 53.9251 130.473 53.7531C130.543 53.7885 130.614 53.8138 130.69 53.8441C130.594 53.9402 130.483 54.0313 130.377 54.1223C130.362 54.1375 130.377 54.1577 130.397 54.1577C130.579 54.1122 130.745 54.0363 130.887 53.9301C132.507 54.5977 134.406 54.6179 136.032 54.0313C136.203 53.9605 136.072 53.8998 135.875 53.9301Z" fill="#3F4553"/>
<path d="M143.131 53.9301C144.898 54.2235 147.771 54.3195 149.402 52.5697C149.725 52.2207 150.164 52.6152 149.76 52.9642C149.695 53.0198 149.629 53.0704 149.563 53.1209C149.76 53.1766 149.957 53.2019 150.169 53.1867C150.174 53.1867 150.174 53.1917 150.169 53.1968C149.912 53.2828 149.649 53.3081 149.392 53.2575C149.387 53.2625 149.381 53.2676 149.376 53.2676C149.599 53.4143 149.866 53.475 150.129 53.5609C150.134 53.5609 150.134 53.566 150.129 53.571C149.806 53.6014 149.467 53.5609 149.2 53.389C149.169 53.4092 149.139 53.4193 149.109 53.4396C149.311 53.5963 149.538 53.7127 149.796 53.7733C149.821 53.7784 149.816 53.8189 149.79 53.8189C149.462 53.834 149.149 53.7531 148.887 53.571C148.831 53.6014 148.771 53.6267 148.715 53.657C148.902 53.7936 149.094 53.915 149.311 54.0161C149.331 54.0262 149.321 54.0616 149.301 54.0616C149.013 54.0717 148.76 53.9251 148.533 53.7531C148.463 53.7885 148.392 53.8138 148.321 53.8441C148.417 53.9402 148.528 54.0313 148.634 54.1223C148.649 54.1375 148.634 54.1577 148.614 54.1577C148.432 54.1122 148.266 54.0363 148.124 53.9301C146.504 54.5977 144.605 54.6179 142.974 54.0313C142.808 53.9605 142.934 53.8998 143.131 53.9301Z" fill="#3F4553"/>
<path d="M140.616 57.6171C139.788 58.047 138.965 58.2189 138.112 57.7031C138.051 57.6677 137.981 57.7536 138.036 57.8042C138.768 58.4566 140.071 58.6235 140.803 57.8598C140.924 57.7284 140.773 57.5362 140.616 57.6171Z" fill="#3F4553"/>
<path d="M142.509 60.6006C141.474 60.9091 140.455 61.0255 139.445 60.9799C138.435 61.0255 137.415 60.9091 136.38 60.6006C136.355 60.5905 136.335 60.636 136.36 60.6462C137.354 61.071 138.4 61.2986 139.445 61.3238C140.49 61.2986 141.535 61.071 142.53 60.6462C142.555 60.636 142.535 60.5956 142.509 60.6006Z" fill="#3F4553"/>
<path d="M134.698 56.4083C134.613 56.3678 134.522 56.3324 134.431 56.3071C133.275 56.0087 131.906 55.4423 130.7 55.6497C129.846 55.7963 129.649 56.8331 130.134 57.445C130.654 58.1025 131.674 58.2896 132.462 58.3503C133.254 58.411 134.497 58.497 135.087 57.8749C135.622 57.3136 135.259 56.6814 134.698 56.4083Z" fill="#FBAD8B"/>
<path d="M144.15 56.4083C144.236 56.3678 144.327 56.3324 144.418 56.3071C145.574 56.0087 146.942 55.4423 148.149 55.6497C149.002 55.7963 149.199 56.8331 148.714 57.445C148.194 58.1025 147.174 58.2896 146.387 58.3503C145.594 58.411 144.352 58.497 143.761 57.8749C143.226 57.3136 143.595 56.6814 144.15 56.4083Z" fill="#FBAD8B"/>
<path d="M124.172 48.8372C122.975 48.6602 121.693 49.1558 121.91 50.5769C122.082 51.7098 123.298 52.8376 125.156 52.4987C124.652 51.3254 124.303 50.0914 124.172 48.8372Z" fill="#F9CDB9"/>
<path d="M123.016 49.95C123.344 49.6769 123.854 49.5555 124.293 49.6263C124.268 49.4898 124.253 49.3481 124.233 49.2116C123.632 49.156 122.925 49.4038 122.582 49.8387C122.046 50.5215 122.45 51.2801 123.041 51.7454C123.127 51.8162 123.248 51.7049 123.167 51.6189C122.738 51.1638 122.44 50.4304 123.016 49.95Z" fill="#F8C4AB"/>
<path d="M124.53 50.7084C124.217 50.4252 123.808 50.2684 123.339 50.2886C123.233 50.2937 123.192 50.4707 123.314 50.4859C123.743 50.5466 124.111 50.7691 124.339 51.113C124.076 51.2546 123.884 51.5631 124.152 51.816C124.364 52.0183 124.677 52.0638 124.975 52.0335C124.808 51.5985 124.652 51.1585 124.53 50.7084Z" fill="#F8C4AB"/>
<path d="M124.066 52.17C124.061 52.165 124.051 52.17 124.056 52.1751C124.248 52.6505 124.521 53.7631 123.864 53.9907C123.425 54.1424 123.385 53.576 123.45 53.2776C123.511 53.0045 123.662 52.7213 123.789 52.4785C123.789 52.4785 123.486 52.4128 123.208 52.2712C122.829 52.5949 122.693 53.0753 122.759 53.5811C122.819 54.0413 123.112 54.547 123.632 54.5622C124.097 54.5774 124.43 54.1778 124.5 53.753C124.581 53.2017 124.359 52.6201 124.066 52.17Z" fill="#FDCA27"/>
<path d="M220.684 139.269C217.846 135.885 211.707 135.612 207.678 135.192C195.565 133.928 183.144 134.242 171.027 135.223C164.993 135.713 158.99 136.447 153.012 137.413C148.685 138.116 143.853 138.606 139.531 139.992C135.209 138.606 130.377 138.11 126.05 137.413C120.077 136.442 114.069 135.708 108.035 135.223C95.9173 134.242 83.4916 133.928 71.384 135.192C67.3599 135.612 61.2152 135.885 58.3777 139.269C55.6361 142.536 59.0189 146.496 61.6242 148.574C65.2242 151.447 69.7936 152.863 74.1559 154.102C79.6341 155.65 85.2385 156.702 90.8733 157.501C116.093 161.061 129.786 158.436 142.969 158.274C143.474 158.917 143.949 159.584 144.383 160.277C157.748 160.363 174.914 159.296 188.183 157.501C193.823 156.737 199.422 155.655 204.901 154.102C209.268 152.868 213.832 151.452 217.432 148.574C220.038 146.496 223.42 142.536 220.684 139.269Z" fill="#93BFA8"/>
<path d="M202.79 141.61C203.209 141.074 205.749 140.412 206.748 139.967C202.038 140.346 197.307 140.912 192.606 141.398C183.664 142.318 174.712 144.69 166.24 147.659C162.186 149.08 158.141 150.572 154.112 152.069C150.921 153.253 147.766 154.547 144.771 156.161C145.231 156.019 145.69 155.877 146.15 155.741C150.926 154.335 170.39 143.79 206.43 142.49C205.597 142.308 202.628 141.818 202.79 141.61Z" fill="#66A986"/>
<path d="M76.8017 140.867C76.3826 140.331 73.843 139.668 72.8433 139.223C77.554 139.602 82.285 140.169 86.9856 140.654C95.9274 141.575 104.879 143.947 113.352 146.915C117.406 148.337 121.45 149.828 125.479 151.325C128.67 152.509 131.826 153.804 134.82 155.417C134.361 155.275 133.901 155.134 133.442 154.997C128.665 153.591 109.201 143.046 73.1614 141.747C73.9894 141.565 76.9582 141.074 76.8017 140.867Z" fill="#66A986"/>
<path d="M151.714 152.049C149.684 151.235 147.538 151.214 145.564 152.059C142.192 153.51 138.056 151.285 134.552 151.685C131.326 152.054 129.362 155.731 131.831 158.077C132.427 158.644 138.415 160.818 147.902 156.388C148.942 155.903 149.957 155.624 151.133 155.64C151.406 155.645 151.664 155.903 151.951 155.872C152.567 155.796 153.072 155.685 153.416 155.088C154.223 153.682 152.875 152.514 151.714 152.049Z" fill="#FDB597"/>
<path d="M128.034 159.509C129.746 158.148 131.801 157.511 133.926 157.759C137.572 158.183 140.899 154.866 144.373 154.244C147.569 153.672 150.502 156.631 148.806 159.595C148.397 160.308 143.277 164.106 132.921 162.578C131.785 162.411 130.735 162.437 129.614 162.786C129.357 162.867 129.18 163.19 128.892 163.241C128.281 163.347 127.766 163.382 127.266 162.912C126.095 161.794 127.054 160.287 128.034 159.509Z" fill="#FDBCA0"/>
<path d="M196.842 76.4253C195.675 77.0271 194.448 77.7048 193.302 78.337C193.908 77.8413 197.271 74.4124 198.579 73.5678C198.72 73.4768 198.387 72.086 194.948 74.8372C193.923 75.6565 192.712 76.4859 191.747 77.3811C192.974 75.0496 193.999 72.6878 195.605 70.5536C195.67 70.4676 195.65 70.3715 195.595 70.3058C195.266 70.0479 194.443 70.3412 194.075 70.7357C193.418 71.4336 190.924 74.1343 189.712 76.9816C189.733 76.0055 189.647 74.4225 188.955 74.0989C188.521 73.8915 187.799 74.1646 187.334 74.2C186.421 74.2657 185.224 74.3972 184.371 74.0331C184.244 73.9825 183.926 73.9421 184.042 74.3618C184.431 75.7374 186.35 75.9094 187.541 76.2128C187.945 77.194 186.809 78.8022 186.092 79.2877C184.926 80.0818 183.224 79.3029 183.517 77.7452C183.775 76.3747 184.593 75.7526 183.871 74.4074C183.633 73.9623 182.614 73.5577 182.841 74.2759C183.426 76.1117 181.745 77.6542 181.528 79.4294C181.356 80.8353 182.099 82.0845 182.846 83.2123C182.8 83.3286 182.765 83.4449 182.725 83.5562C181.71 85.3162 180.922 87.1722 180.352 89.1143C181.654 89.5442 185.481 89.2711 185.466 89.2407C185.481 89.2711 185.926 86.5502 186.946 85.4021C188.061 84.1428 189.465 83.1718 190.808 82.1806C193.63 80.0919 196.498 78.0639 199.407 76.0915C199.573 75.9853 199.437 75.085 196.842 76.4253Z" fill="#FDBCA0"/>
<path d="M82.5271 76.4253C83.6934 77.0271 84.9203 77.7048 86.0665 78.337C85.4606 77.8414 82.0979 74.4124 80.7902 73.5679C80.6489 73.4768 80.9821 72.086 84.4205 74.8373C85.4454 75.6566 86.6572 76.486 87.6216 77.3811C86.3947 75.0497 85.3697 72.6879 83.7641 70.5536C83.6985 70.4677 83.7187 70.3716 83.7742 70.3058C84.1024 70.0479 84.9254 70.3412 85.294 70.7357C85.9503 71.4336 88.4446 74.1343 89.6563 76.9816C89.6361 76.0055 89.722 74.4226 90.4137 74.0989C90.8479 73.8915 91.5699 74.1646 92.0344 74.2C92.9483 74.2658 94.1449 74.3973 94.9982 74.0331C95.1244 73.9826 95.4425 73.9421 95.3264 74.3619C94.9376 75.7375 93.019 75.9094 91.8274 76.2129C91.4235 77.194 92.5595 78.8023 93.2765 79.2878C94.4428 80.0818 96.1443 79.3029 95.8515 77.7453C95.594 76.3747 94.776 75.7527 95.4981 74.4074C95.7354 73.9623 96.7553 73.5577 96.5281 74.2759C95.9424 76.1117 97.6237 77.6542 97.8408 79.4294C98.0125 80.8353 97.2703 82.0845 96.523 83.2123C96.5685 83.3286 96.6038 83.445 96.6442 83.5562C97.659 85.3162 98.4467 87.1723 99.0172 89.1143C97.7146 89.5442 93.8874 89.2711 93.9026 89.2407C93.8874 89.2711 93.4431 86.5502 92.4232 85.4022C91.3074 84.1429 89.9037 83.1719 88.5607 82.1806C85.7383 80.0919 82.8704 78.0639 79.9622 76.0915C79.7956 75.9853 79.9319 75.0851 82.5271 76.4253Z" fill="#FDBCA0"/>
<path d="M178.989 87.3241C177.096 92.2146 170.673 110.27 167.992 117.926C166.397 113.83 162.085 96.043 158.455 75.3936C157.324 68.9758 150.099 69.8912 146.231 70.5335C145.953 74.8424 141.778 86.788 139.536 86.8133C137.294 86.788 132.851 75.687 132.841 70.5335C128.978 69.8912 121.748 68.9758 120.617 75.3936C116.982 96.043 112.675 113.835 111.08 117.926C108.394 110.27 101.976 92.2146 100.083 87.3241C97.6542 88.4721 94.9681 89.1043 92.2871 89.261C94.3623 94.7888 101.214 133.933 111.312 133.933C115.689 133.933 118.461 129.275 122.925 112.019C123.147 114.902 123.223 120.44 123.111 126.261C123.031 130.454 120.138 135.299 116.265 134.363C115.482 134.176 114.462 134.768 115.432 135.82C115.694 136.108 116.033 136.32 116.381 136.482C122.566 139.415 122.809 143.8 126.459 146.354C128.665 147.897 131.382 148.382 133.972 148.908C136.779 149.475 139.672 149.899 142.53 149.469C147.281 148.756 150.972 145.575 154.905 143.087C157.102 141.696 159.333 140.584 161.913 140.204C168.553 139.228 168.113 134.535 166.725 134.631C162.075 134.95 155.95 129.012 155.915 122.478C155.89 118.129 155.976 114.27 156.147 112.019C160.611 129.275 163.383 133.933 167.76 133.933C177.858 133.933 184.71 94.7888 186.785 89.261C184.104 89.1043 181.418 88.467 178.989 87.3241Z" fill="#F2EDE4"/>
<path d="M152.275 104.418C152.224 104.453 152.184 104.489 152.143 104.524C151.32 105.328 150.679 106.294 149.871 107.114C149.064 107.928 148.018 108.611 146.872 108.605C144.121 108.59 142.742 105.283 141.086 103.599C138.541 101.019 136.072 106.896 134.179 108.049C132.235 109.233 130.917 108.52 129.483 107.119C128.605 106.259 127.858 105.293 127.045 104.372C126.833 104.13 126.348 104.388 126.479 104.701C127.428 106.987 129.574 110.78 132.407 110.841C134.144 110.876 135.567 109.88 136.709 108.656C137.269 108.054 138.814 104.823 139.819 105.247C140.006 105.328 140.137 105.495 140.263 105.657C140.763 106.314 141.227 107.007 141.763 107.634C142.04 107.958 142.843 108.494 142.843 108.939C143.979 110.097 145.539 111.008 147.15 110.811C148.796 110.608 150.099 109.319 151.053 107.958C151.729 106.992 152.3 105.95 152.749 104.858C152.815 104.701 152.871 104.504 152.754 104.378C152.628 104.246 152.436 104.307 152.275 104.418Z" fill="#D9C9AC"/>
<g clip-path="url(#clip2)">
<path d="M244.937 130.685L262.217 124.894L253.555 99.4684L236.276 105.26C235.599 105.486 235.232 106.214 235.466 106.885L243.299 129.876C243.526 130.547 244.26 130.911 244.937 130.685Z" fill="#3F4553"/>
<path d="M244.95 130.183L262.659 124.247L254.314 99.7571L236.604 105.693C236.168 105.837 235.934 106.308 236.079 106.747L243.887 129.662C244.039 130.095 244.513 130.328 244.95 130.183Z" fill="#DDDDE3"/>
<path d="M245.323 130.058L263.033 124.122L254.688 99.6318L236.978 105.568C236.541 105.712 236.307 106.183 236.453 106.622L244.26 129.537C244.412 129.97 244.887 130.209 245.323 130.058Z" fill="#E2E5FF"/>
<path d="M246.279 130.233L263.558 124.442L254.896 99.0229L237.617 104.814C236.94 105.04 236.573 105.768 236.807 106.44L244.64 129.43C244.868 130.102 245.602 130.459 246.279 130.233Z" fill="#4E5567"/>
<path d="M253.927 99.3477L253.556 99.4723L262.218 124.898L262.59 124.773L253.927 99.3477Z" fill="#3F4553"/>
<path d="M256.396 119.209L256.782 118.393L257.592 118.807L251.265 100.24C251.151 99.9139 250.866 99.939 250.537 100.052C250.208 100.165 249.961 100.316 250.075 100.642L256.396 119.209Z" fill="#93BFA8"/>
<path d="M217.572 106.089L229.201 92.4145L226.851 90.4484L215.221 104.123L217.572 106.089Z" fill="#3F4553"/>
<path d="M215.219 104.118L217.566 106.082L214.175 107.933C214.061 107.996 213.909 107.864 213.947 107.745L215.219 104.118Z" fill="#F2EDE4"/>
<path d="M214.181 107.939L215.099 107.437L214.302 106.766L213.96 107.745C213.916 107.864 214.068 107.996 214.181 107.939Z" fill="#3F4553"/>
<path d="M216.793 105.438L228.422 91.7631L227.624 91.0956L215.995 104.77L216.793 105.438Z" fill="#4E5567"/>
</g>
<g clip-path="url(#clip3)">
<path d="M89.1489 -25.8297C74.1583 -25.8297 62.0137 -13.685 62.0137 1.30555C62.0137 16.2876 74.1583 28.4408 89.1489 28.4408C104.131 28.4408 116.284 16.2962 116.284 1.30555C116.276 -13.685 104.131 -25.8297 89.1489 -25.8297ZM89.1489 23.8513C76.6966 23.8513 66.6032 13.7578 66.6032 1.30555C66.6032 -11.1467 76.6966 -21.2402 89.1489 -21.2402C101.601 -21.2402 111.695 -11.1467 111.695 1.30555C111.695 13.7578 101.601 23.8513 89.1489 23.8513Z" fill="#808AFF"/>
<path d="M109.951 9.99821C114.755 -1.48969 109.337 -14.6968 97.8488 -19.5006C86.3609 -24.3045 73.1538 -18.886 68.35 -7.39807C63.5461 4.08983 68.9646 17.2969 80.4525 22.1008C91.9404 26.9046 105.148 21.4861 109.951 9.99821Z" fill="#AEB4FC"/>
<path d="M109.668 1.34715C109.668 -0.233959 107.207 -0.242505 107.207 1.34715C107.207 2.93681 109.668 2.93681 109.668 1.34715Z" fill="#808AFF"/>
<path d="M89.0963 21.8252C90.6774 21.8252 90.6859 19.3638 89.0963 19.3638C87.5152 19.3638 87.5066 21.8252 89.0963 21.8252Z" fill="#808AFF"/>
<path d="M68.6206 1.25443C68.6206 2.83554 71.082 2.84409 71.082 1.25443C71.082 -0.32667 68.6206 -0.335216 68.6206 1.25443Z" fill="#808AFF"/>
<path d="M98.8411 7.89485C98.6958 7.89485 98.5505 7.86066 98.4223 7.7752L88.722 2.0063C88.4741 1.86101 88.3203 1.58752 88.3203 1.29694V-14.2065C88.3203 -14.6594 88.6878 -15.0269 89.1408 -15.0269C89.5937 -15.0269 89.9612 -14.6594 89.9612 -14.2065V0.835425L99.2599 6.36502C99.653 6.59578 99.7812 7.10003 99.5419 7.49317C99.3966 7.74956 99.1231 7.89485 98.8411 7.89485Z" fill="#808AFF"/>
</g>
<path d="M35.0699 56.9686L34.5285 53.8973L31.3888 54.4324C30.8908 52.9984 30.0788 51.7357 29.0286 50.7084L30.8691 48.1294L28.2923 46.3423L26.4626 48.9106C25.1418 48.2685 23.6693 47.9153 22.1319 47.926L21.5798 44.812L18.4725 45.347L19.0138 48.4504C17.563 48.9427 16.2855 49.7452 15.2461 50.7833L12.6369 48.9641L10.8288 51.511L13.4272 53.3195C12.7776 54.625 12.4203 56.0804 12.4312 57.6L9.30225 58.135L9.84358 61.2063L12.9833 60.6712C13.4814 62.1052 14.2934 63.3679 15.3436 64.3952L13.503 66.9742L16.0798 68.7613L17.9095 66.193C19.2304 66.8351 20.7028 67.1883 22.2402 67.1776L22.7924 70.2916L25.8996 69.7566L25.3583 66.6532C26.8091 66.1609 28.0866 65.3583 29.126 64.3203L31.7353 66.1395L33.5433 63.5926L30.9449 61.7841C31.5945 60.4786 31.9518 59.0232 31.941 57.5036L35.0699 56.9686ZM22.6841 60.4037C21.0926 60.6819 19.5768 59.6225 19.2953 58.0494C19.0138 56.4763 20.0857 54.9782 21.6772 54.6999C23.2687 54.4217 24.7845 55.4811 25.066 57.0542C25.3475 58.6273 24.2865 60.1254 22.6841 60.4037Z" fill="#9BA3FF"/>
<path d="M64.6924 50.7724V46.9092H60.7407C60.4483 45.0472 59.7229 43.335 58.6619 41.8582L61.466 39.0866L58.7052 36.3578L55.9119 39.1187C54.4287 38.0593 52.7072 37.3209 50.8234 37.0106V33.0832H46.9149V36.9892C45.0311 37.2781 43.288 37.9951 41.8047 39.0438L39.0006 36.2722L36.2397 39.001L39.033 41.7619C37.9612 43.228 37.2141 44.9295 36.9002 46.7915H32.9268V50.6546H36.8785C37.1708 52.5167 37.8962 54.2289 38.9573 55.7056L36.1531 58.4772L38.9139 61.2061L41.7072 58.4451C43.1905 59.5046 44.912 60.2429 46.7958 60.5533V64.4806H50.7043V60.5747C52.5881 60.2858 54.3204 59.5688 55.8145 58.5201L58.6186 61.2917L61.3794 58.5629L58.5861 55.8019C59.658 54.3359 60.405 52.6344 60.719 50.7724H64.6924ZM48.8096 52.3775C46.8066 52.3775 45.1718 50.7724 45.1718 48.7819C45.1718 46.8022 46.7958 45.1863 48.8096 45.1863C50.8125 45.1863 52.4474 46.7915 52.4474 48.7819C52.4365 50.7617 50.8125 52.3775 48.8096 52.3775Z" fill="#AEB4FC"/>
<g opacity="0.3">
<path d="M248.046 22.0713L219.01 15.5453C218.725 15.4832 218.544 15.1988 218.612 14.9144L222.268 -1.36451C222.33 -1.64893 222.614 -1.82992 222.899 -1.7627L251.935 4.76852C252.219 4.83058 252.4 5.11499 252.333 5.39941L248.672 21.6783C248.61 21.9576 248.331 22.1386 248.046 22.0713Z" fill="#ECECEC"/>
<path d="M219.093 15.1626C219.015 15.1471 218.969 15.0695 218.989 14.9971L222.65 -1.2818C222.666 -1.35937 222.744 -1.40591 222.816 -1.38522L251.852 5.146C251.93 5.16151 251.976 5.23908 251.956 5.31148L248.294 21.5904C248.279 21.668 248.201 21.7145 248.129 21.6938L219.093 15.1626Z" fill="#F5F4F5"/>
<path d="M247.848 3.84475L226.992 -0.84552L226.907 -0.467144L247.763 4.22313L247.848 3.84475Z" fill="#706F6E"/>
<path d="M224.962 1.49506L224 1.27787C223.881 1.25201 223.804 1.13307 223.83 1.00897L223.98 0.331539C224.006 0.212602 224.124 0.135035 224.249 0.160891L225.21 0.37808C225.329 0.403936 225.407 0.522874 225.381 0.646982L225.231 1.32441C225.2 1.44335 225.081 1.52091 224.962 1.49506Z" fill="#585857"/>
<path d="M224.041 1.08658C224.026 1.08141 224.015 1.06589 224.02 1.05038L224.17 0.372952C224.176 0.357438 224.191 0.347096 224.207 0.352267L225.168 0.569458C225.184 0.574629 225.194 0.590143 225.189 0.605656L225.039 1.28308C225.034 1.29859 225.018 1.30894 225.003 1.30377L224.041 1.08658Z" fill="#5E5E5D"/>
<path d="M226.725 1.88822L225.763 1.67103C225.644 1.64517 225.567 1.52623 225.592 1.40212L225.742 0.724699C225.768 0.605762 225.887 0.528193 226.011 0.554049L226.973 0.77124C227.092 0.797096 227.17 0.916034 227.144 1.04014L226.994 1.71757C226.963 1.84168 226.844 1.91407 226.725 1.88822Z" fill="#585857"/>
<path d="M225.805 1.48459C225.789 1.47942 225.779 1.4639 225.784 1.44839L225.934 0.770962C225.939 0.755449 225.955 0.745106 225.97 0.750277L226.932 0.967468C226.948 0.972639 226.958 0.988153 226.953 1.00367L226.803 1.68109C226.798 1.69661 226.782 1.70695 226.767 1.70178L225.805 1.48459Z" fill="#5E5E5D"/>
<path d="M228.489 2.28623L227.527 2.06904C227.408 2.04318 227.33 1.92424 227.356 1.80013L227.506 1.12271C227.532 1.00377 227.651 0.926203 227.775 0.952059L228.737 1.16925C228.856 1.19511 228.933 1.31404 228.907 1.43815L228.757 2.11558C228.726 2.23452 228.607 2.31208 228.489 2.28623Z" fill="#585857"/>
<path d="M227.568 1.87775C227.553 1.87257 227.543 1.85706 227.548 1.84155L227.698 1.16412C227.703 1.14861 227.718 1.13826 227.734 1.14343L228.696 1.36063C228.711 1.3658 228.722 1.38131 228.716 1.39682L228.566 2.07425C228.561 2.08977 228.546 2.10011 228.53 2.09493L227.568 1.87775Z" fill="#5E5E5D"/>
<path d="M230.252 2.67905L229.29 2.46186C229.171 2.436 229.094 2.31707 229.12 2.19296L229.27 1.51553C229.296 1.39659 229.414 1.31903 229.539 1.34488L230.5 1.56207C230.619 1.58793 230.697 1.70686 230.671 1.83097L230.521 2.5084C230.49 2.63251 230.371 2.71008 230.252 2.67905Z" fill="#585857"/>
<path d="M229.332 2.27576C229.316 2.27058 229.306 2.25507 229.311 2.23956L229.461 1.56213C229.466 1.54662 229.482 1.53627 229.497 1.54145L230.459 1.75864C230.474 1.76381 230.485 1.77932 230.48 1.79483L230.33 2.47226C230.324 2.48778 230.309 2.49812 230.293 2.49295L229.332 2.27576Z" fill="#5E5E5D"/>
<path d="M232.011 3.07739L231.049 2.86021C230.93 2.83435 230.852 2.71541 230.878 2.5913L231.028 1.91388C231.054 1.79494 231.173 1.71737 231.297 1.74323L232.259 1.96042C232.378 1.98627 232.455 2.10521 232.429 2.22932L232.279 2.90675C232.254 3.03085 232.135 3.10325 232.011 3.07739Z" fill="#585857"/>
<path d="M231.095 2.67413C231.08 2.66896 231.069 2.65345 231.075 2.63793L231.225 1.96051C231.23 1.94499 231.245 1.93465 231.261 1.93982L232.223 2.15701C232.238 2.16218 232.248 2.1777 232.243 2.19321L232.093 2.87064C232.088 2.88615 232.073 2.89649 232.057 2.89132L231.095 2.67413Z" fill="#5E5E5D"/>
<path d="M233.774 3.47541L232.812 3.25822C232.693 3.23236 232.615 3.11342 232.641 2.98932L232.791 2.31189C232.817 2.19295 232.936 2.11538 233.06 2.14124L234.022 2.35843C234.141 2.38428 234.218 2.50322 234.193 2.62733L234.043 3.30476C234.017 3.42369 233.898 3.50126 233.774 3.47541Z" fill="#585857"/>
<path d="M232.858 3.06695C232.843 3.06178 232.833 3.04627 232.838 3.03075L232.988 2.35333C232.993 2.33781 233.008 2.32747 233.024 2.33264L233.986 2.54983C234.001 2.555 234.012 2.57052 234.006 2.58603L233.856 3.26346C233.851 3.27897 233.836 3.28932 233.82 3.28414L232.858 3.06695Z" fill="#5E5E5D"/>
<path d="M235.537 3.86856L234.576 3.65137C234.457 3.62552 234.379 3.50658 234.405 3.38247L234.555 2.70504C234.581 2.58611 234.7 2.50854 234.824 2.5344L235.786 2.75158C235.905 2.77744 235.982 2.89638 235.956 3.02049L235.806 3.69791C235.78 3.82202 235.656 3.89959 235.537 3.86856Z" fill="#585857"/>
<path d="M234.622 3.4653C234.606 3.46013 234.596 3.44461 234.601 3.4291L234.751 2.75167C234.756 2.73616 234.772 2.72582 234.787 2.73099L235.749 2.94818C235.764 2.95335 235.775 2.96886 235.77 2.98438L235.62 3.6618C235.615 3.67732 235.599 3.68766 235.583 3.68249L234.622 3.4653Z" fill="#5E5E5D"/>
<path d="M237.301 4.26691L236.339 4.04972C236.22 4.02386 236.143 3.90493 236.169 3.78082L236.319 3.10339C236.344 2.98445 236.463 2.90689 236.587 2.93274L237.549 3.14993C237.668 3.17579 237.746 3.29472 237.72 3.41883L237.57 4.09626C237.539 4.22037 237.42 4.29276 237.301 4.26691Z" fill="#585857"/>
<path d="M236.385 3.86331C236.37 3.85814 236.359 3.84263 236.365 3.82711L236.515 3.14969C236.52 3.13417 236.535 3.12383 236.551 3.129L237.513 3.34619C237.528 3.35136 237.538 3.36688 237.533 3.38239L237.383 4.05982C237.378 4.07533 237.363 4.08567 237.347 4.0805L236.385 3.86331Z" fill="#5E5E5D"/>
<path d="M239.065 4.66492L238.103 4.44773C237.984 4.42187 237.906 4.30294 237.932 4.17883L238.082 3.5014C238.108 3.38246 238.227 3.3049 238.351 3.33075L239.313 3.54794C239.432 3.5738 239.509 3.69273 239.484 3.81684L239.334 4.49427C239.303 4.61321 239.184 4.69077 239.065 4.66492Z" fill="#585857"/>
<path d="M238.144 4.25647C238.128 4.2513 238.118 4.23578 238.123 4.22027L238.273 3.54284C238.278 3.52733 238.294 3.51699 238.309 3.52216L239.271 3.73935C239.286 3.74452 239.297 3.76003 239.292 3.77555L239.142 4.45297C239.136 4.46849 239.121 4.47883 239.105 4.47366L238.144 4.25647Z" fill="#5E5E5D"/>
<path d="M240.827 5.05811L239.866 4.84092C239.747 4.81506 239.669 4.69612 239.695 4.57202L239.845 3.89459C239.871 3.77565 239.99 3.69808 240.114 3.72394L241.076 3.94113C241.195 3.96699 241.272 4.08592 241.246 4.21003L241.096 4.88746C241.065 5.01157 240.946 5.08914 240.827 5.05811Z" fill="#585857"/>
<path d="M239.907 4.65481C239.891 4.64964 239.881 4.63413 239.886 4.61861L240.036 3.94119C240.041 3.92568 240.057 3.91533 240.072 3.9205L241.034 4.13769C241.05 4.14286 241.06 4.15838 241.055 4.17389L240.905 4.85132C240.9 4.86683 240.884 4.87718 240.869 4.872L239.907 4.65481Z" fill="#5E5E5D"/>
<path d="M242.591 5.45612L241.629 5.23893C241.51 5.21307 241.432 5.09413 241.458 4.97003L241.608 4.2926C241.634 4.17366 241.753 4.09609 241.877 4.12195L242.839 4.33914C242.958 4.365 243.035 4.48393 243.009 4.60804L242.859 5.28547C242.828 5.40958 242.71 5.48197 242.591 5.45612Z" fill="#585857"/>
<path d="M241.669 5.05282C241.654 5.04765 241.644 5.03214 241.649 5.01662L241.799 4.3392C241.804 4.32368 241.819 4.31334 241.835 4.31851L242.797 4.5357C242.812 4.54087 242.823 4.55639 242.817 4.5719L242.668 5.24933C242.662 5.26484 242.647 5.27519 242.631 5.27001L241.669 5.05282Z" fill="#5E5E5D"/>
<path d="M244.354 5.85446L243.392 5.63727C243.273 5.61142 243.195 5.49248 243.221 5.36837L243.371 4.69094C243.397 4.57201 243.516 4.49444 243.64 4.5203L244.602 4.73749C244.721 4.76334 244.798 4.88228 244.773 5.00639L244.623 5.68382C244.592 5.80275 244.473 5.88032 244.354 5.85446Z" fill="#585857"/>
<path d="M243.433 5.44565C243.418 5.44048 243.407 5.42496 243.412 5.40945L243.562 4.73202C243.568 4.71651 243.583 4.70617 243.599 4.71134L244.56 4.92853C244.576 4.9337 244.586 4.94921 244.581 4.96473L244.431 5.64215C244.426 5.65766 244.411 5.66801 244.395 5.66284L243.433 5.44565Z" fill="#5E5E5D"/>
<path d="M246.117 6.24729L245.156 6.0301C245.037 6.00424 244.959 5.8853 244.985 5.76119L245.135 5.08377C245.161 4.96483 245.28 4.88726 245.404 4.91312L246.366 5.13031C246.485 5.15617 246.562 5.2751 246.536 5.39921L246.386 6.07664C246.355 6.20075 246.236 6.27831 246.117 6.24729Z" fill="#585857"/>
<path d="M245.197 5.84399C245.181 5.83882 245.171 5.82331 245.176 5.80779L245.326 5.13037C245.331 5.11485 245.347 5.10451 245.362 5.10968L246.324 5.32687C246.34 5.33204 246.35 5.34756 246.345 5.36307L246.195 6.0405C246.19 6.05601 246.174 6.06635 246.159 6.06118L245.197 5.84399Z" fill="#5E5E5D"/>
<path d="M247.881 6.6453L246.919 6.42811C246.8 6.40225 246.723 6.28331 246.749 6.1592L246.899 5.48178C246.924 5.36284 247.043 5.28527 247.167 5.31113L248.129 5.52832C248.248 5.55418 248.326 5.67311 248.3 5.79722L248.15 6.47465C248.119 6.59876 248 6.67115 247.881 6.6453Z" fill="#585857"/>
<path d="M246.961 6.24237C246.945 6.2372 246.935 6.22168 246.94 6.20617L247.09 5.52874C247.095 5.51323 247.11 5.50289 247.126 5.50806L248.088 5.72525C248.103 5.73042 248.114 5.74593 248.109 5.76145L247.959 6.43887C247.953 6.45439 247.938 6.46473 247.922 6.45956L246.961 6.24237Z" fill="#5E5E5D"/>
<path d="M249.639 7.04364L248.677 6.82645C248.558 6.8006 248.481 6.68166 248.506 6.55755L248.656 5.88013C248.682 5.76119 248.801 5.68362 248.925 5.70947L249.887 5.92666C250.006 5.95252 250.084 6.07146 250.058 6.19557L249.908 6.87299C249.882 6.99193 249.763 7.0695 249.639 7.04364Z" fill="#585857"/>
<path d="M248.724 6.63519C248.708 6.63002 248.698 6.61451 248.703 6.59899L248.853 5.92157C248.858 5.90605 248.874 5.89571 248.889 5.90088L249.851 6.11807C249.867 6.12324 249.877 6.13876 249.872 6.15427L249.722 6.8317C249.717 6.84721 249.701 6.85755 249.686 6.85238L248.724 6.63519Z" fill="#5E5E5D"/>
<path d="M223.979 1.51073L225.169 1.77963C225.303 1.81066 225.391 1.94511 225.36 2.08473L225.096 3.25342C225.065 3.38787 224.931 3.47578 224.791 3.44475L223.602 3.17585C223.467 3.14482 223.38 3.01037 223.411 2.87075L223.674 1.70206C223.705 1.56761 223.84 1.4797 223.979 1.51073Z" fill="#585857"/>
<path d="M223.649 2.98413C223.618 2.97896 223.597 2.94276 223.602 2.91173L223.866 1.74304C223.871 1.71201 223.907 1.69133 223.938 1.6965L225.128 1.9654C225.159 1.97057 225.18 2.00677 225.174 2.0378L224.911 3.20649C224.905 3.23752 224.869 3.2582 224.838 3.25303L223.649 2.98413Z" fill="#5E5E5D"/>
<path d="M226.012 1.97055L227.201 2.23945C227.335 2.27048 227.423 2.40493 227.392 2.54455L227.129 3.71324C227.098 3.84769 226.963 3.9356 226.823 3.90457L225.634 3.63567C225.5 3.60465 225.412 3.4702 225.443 3.33057L225.706 2.16188C225.738 2.02226 225.872 1.93952 226.012 1.97055Z" fill="#585857"/>
<path d="M225.681 3.44439C225.65 3.43922 225.629 3.40302 225.634 3.372L225.898 2.20331C225.903 2.17228 225.939 2.1516 225.97 2.15677L227.16 2.42567C227.191 2.43084 227.211 2.46704 227.206 2.49807L226.942 3.66675C226.937 3.69778 226.901 3.71847 226.87 3.7133L225.681 3.44439Z" fill="#5E5E5D"/>
<path d="M228.045 2.42604L229.234 2.69494C229.369 2.72597 229.457 2.86042 229.426 3.00004L229.162 4.16873C229.131 4.30318 228.996 4.39109 228.857 4.36007L227.667 4.09116C227.533 4.06014 227.445 3.92569 227.476 3.78606L227.74 2.61738C227.771 2.48292 227.91 2.39501 228.045 2.42604Z" fill="#585857"/>
<path d="M227.713 3.89944C227.682 3.89427 227.662 3.85807 227.667 3.82705L227.931 2.65836C227.936 2.62733 227.972 2.60664 228.003 2.61181L229.192 2.88072C229.223 2.88589 229.244 2.92209 229.239 2.95311L228.975 4.1218C228.97 4.15283 228.934 4.17352 228.903 4.16835L227.713 3.89944Z" fill="#5E5E5D"/>
<path d="M230.077 2.88112L231.266 3.15002C231.4 3.18105 231.488 3.3155 231.457 3.45512L231.194 4.62381C231.162 4.75826 231.028 4.84617 230.888 4.81515L229.699 4.54624C229.565 4.51522 229.477 4.38077 229.508 4.24114L229.771 3.07246C229.802 2.938 229.942 2.85009 230.077 2.88112Z" fill="#585857"/>
<path d="M229.746 4.35971C229.715 4.35454 229.694 4.31834 229.699 4.28731L229.963 3.11862C229.968 3.08759 230.004 3.06691 230.035 3.07208L231.225 3.34098C231.256 3.34615 231.276 3.38235 231.271 3.41338L231.007 4.58207C231.002 4.6131 230.966 4.63378 230.935 4.62861L229.746 4.35971Z" fill="#5E5E5D"/>
<path d="M232.108 3.34128L233.298 3.61018C233.432 3.64121 233.52 3.77566 233.489 3.91528L233.225 5.08397C233.194 5.21842 233.06 5.30633 232.92 5.2753L231.731 5.0064C231.596 4.97537 231.508 4.84092 231.539 4.7013L231.803 3.53261C231.839 3.39299 231.974 3.31025 232.108 3.34128Z" fill="#585857"/>
<path d="M231.778 4.81476C231.747 4.80959 231.726 4.77339 231.731 4.74236L231.995 3.57367C232 3.54264 232.036 3.52196 232.067 3.52713L233.257 3.79603C233.288 3.8012 233.308 3.8374 233.303 3.86843L233.04 5.03712C233.034 5.06815 232.998 5.08883 232.967 5.08366L231.778 4.81476Z" fill="#5E5E5D"/>
<path d="M234.141 3.79643L235.33 4.06534C235.465 4.09636 235.553 4.23081 235.522 4.37044L235.258 5.53913C235.227 5.67358 235.092 5.76149 234.953 5.73046L233.763 5.46156C233.629 5.43053 233.541 5.29608 233.572 5.15646L233.836 3.98777C233.872 3.85332 234.007 3.76541 234.141 3.79643Z" fill="#585857"/>
<path d="M233.81 5.27017C233.779 5.265 233.758 5.2288 233.763 5.19777L234.027 4.02908C234.032 3.99806 234.068 3.97737 234.099 3.98254L235.289 4.25144C235.32 4.25662 235.34 4.29281 235.335 4.32384L235.071 5.49253C235.066 5.52356 235.03 5.54424 234.999 5.53907L233.81 5.27017Z" fill="#5E5E5D"/>
<path d="M236.174 4.25625L237.363 4.52516C237.498 4.55618 237.585 4.69063 237.554 4.83026L237.291 5.99895C237.26 6.1334 237.125 6.22131 236.986 6.19028L235.796 5.92138C235.662 5.89035 235.574 5.7559 235.605 5.61628L235.869 4.44759C235.905 4.30797 236.039 4.22523 236.174 4.25625Z" fill="#585857"/>
<path d="M235.842 5.73007C235.811 5.7249 235.791 5.6887 235.796 5.65767L236.059 4.48898C236.065 4.45796 236.101 4.43727 236.132 4.44244L237.321 4.71134C237.352 4.71652 237.373 4.75271 237.368 4.78374L237.104 5.95243C237.099 5.98346 237.063 6.00414 237.032 5.99897L235.842 5.73007Z" fill="#5E5E5D"/>
<path d="M238.211 4.71175L239.4 4.98065C239.535 5.01168 239.623 5.14613 239.592 5.28575L239.328 6.45444C239.297 6.58889 239.162 6.6768 239.023 6.64577L237.833 6.37687C237.699 6.34584 237.611 6.21139 237.642 6.07177L237.906 4.90308C237.937 4.76863 238.071 4.68072 238.211 4.71175Z" fill="#585857"/>
<path d="M237.875 6.18548C237.844 6.18031 237.823 6.14411 237.828 6.11309L238.092 4.9444C238.097 4.91337 238.134 4.89268 238.165 4.89786L239.354 5.16676C239.385 5.17193 239.406 5.20813 239.4 5.23915L239.137 6.40784C239.132 6.43887 239.095 6.45956 239.064 6.45438L237.875 6.18548Z" fill="#5E5E5D"/>
<path d="M240.243 5.16646L241.432 5.43536C241.567 5.46639 241.655 5.60084 241.624 5.74046L241.36 6.90915C241.329 7.0436 241.195 7.13151 241.055 7.10048L239.866 6.83158C239.731 6.80055 239.643 6.66611 239.674 6.52648L239.938 5.35779C239.969 5.22334 240.103 5.13543 240.243 5.16646Z" fill="#585857"/>
<path d="M239.912 6.64538C239.881 6.64021 239.86 6.60401 239.866 6.57299L240.129 5.4043C240.134 5.37327 240.171 5.35258 240.202 5.35776L241.391 5.62666C241.422 5.63183 241.443 5.66803 241.438 5.69905L241.174 6.86775C241.169 6.89877 241.132 6.91946 241.101 6.91429L239.912 6.64538Z" fill="#5E5E5D"/>
<path d="M242.275 5.62698L243.465 5.89588C243.599 5.92691 243.687 6.06136 243.656 6.20098L243.392 7.36967C243.361 7.50412 243.227 7.59204 243.087 7.56101L241.898 7.29211C241.763 7.26108 241.675 7.12663 241.706 6.98701L241.97 5.81832C242.001 5.67869 242.136 5.59595 242.275 5.62698Z" fill="#585857"/>
<path d="M241.944 7.1008C241.913 7.09562 241.893 7.05943 241.898 7.0284L242.161 5.85971C242.167 5.82868 242.203 5.808 242.234 5.81317L243.423 6.08207C243.454 6.08724 243.475 6.12344 243.47 6.15447L243.206 7.32316C243.201 7.35418 243.165 7.37487 243.134 7.3697L241.944 7.1008Z" fill="#5E5E5D"/>
<path d="M244.308 6.08177L245.497 6.35067C245.632 6.3817 245.719 6.51615 245.688 6.65578L245.425 7.82446C245.394 7.95892 245.259 8.04683 245.12 8.0158L243.935 7.7469C243.801 7.71587 243.713 7.58142 243.744 7.4418L244.008 6.27311C244.034 6.13866 244.168 6.05075 244.308 6.08177Z" fill="#585857"/>
<path d="M243.977 7.55587C243.946 7.5507 243.925 7.51451 243.93 7.48348L244.194 6.31479C244.199 6.28376 244.235 6.26308 244.266 6.26825L245.455 6.53715C245.487 6.54232 245.507 6.57852 245.502 6.60955L245.233 7.77824C245.228 7.80926 245.192 7.82995 245.161 7.82478L243.977 7.55587Z" fill="#5E5E5D"/>
<path d="M246.34 6.5423L247.529 6.8112C247.664 6.84223 247.751 6.97668 247.72 7.1163L247.457 8.28499C247.426 8.41944 247.291 8.50735 247.152 8.47632L245.962 8.20742C245.828 8.17639 245.74 8.04194 245.771 7.90232L246.035 6.73363C246.066 6.59401 246.205 6.51127 246.34 6.5423Z" fill="#585857"/>
<path d="M246.009 8.01611C245.978 8.01094 245.958 7.97474 245.963 7.94371L246.226 6.77502C246.232 6.744 246.268 6.72331 246.299 6.72848L247.488 6.99739C247.519 7.00256 247.54 7.03876 247.535 7.06978L247.271 8.23847C247.266 8.2695 247.23 8.29018 247.199 8.28501L246.009 8.01611Z" fill="#5E5E5D"/>
<path d="M248.372 6.99709L249.561 7.26599C249.696 7.29701 249.784 7.43146 249.753 7.57109L249.489 8.73978C249.458 8.87423 249.323 8.96214 249.184 8.93111L247.994 8.66221C247.86 8.63118 247.772 8.49673 247.803 8.35711L248.072 7.18842C248.098 7.05397 248.237 6.96606 248.372 6.99709Z" fill="#585857"/>
<path d="M248.041 8.47119C248.01 8.46602 247.989 8.42982 247.994 8.39879L248.258 7.2301C248.263 7.19908 248.3 7.17839 248.331 7.18356L249.52 7.45246C249.551 7.45764 249.572 7.49383 249.566 7.52486L249.303 8.69355C249.298 8.72458 249.261 8.74526 249.23 8.74009L248.041 8.47119Z" fill="#5E5E5D"/>
<path d="M223.55 3.40328L224.74 3.67218C224.874 3.7032 224.962 3.83766 224.931 3.97728L224.667 5.14597C224.636 5.28042 224.502 5.36833 224.362 5.3373L223.173 5.0684C223.038 5.03737 222.95 4.90292 222.981 4.7633L223.25 3.59461C223.281 3.46016 223.416 3.37225 223.55 3.40328Z" fill="#585857"/>
<path d="M223.219 4.87701C223.188 4.87184 223.167 4.83564 223.173 4.80461L223.436 3.63593C223.442 3.6049 223.478 3.58421 223.509 3.58938L224.698 3.85828C224.729 3.86346 224.75 3.89966 224.745 3.93068L224.481 5.09937C224.476 5.1304 224.44 5.15108 224.409 5.14591L223.219 4.87701Z" fill="#5E5E5D"/>
<path d="M225.588 3.86343L226.778 4.13233C226.912 4.16336 227 4.29781 226.969 4.43744L226.705 5.60612C226.674 5.74057 226.54 5.82848 226.4 5.79746L225.211 5.52856C225.076 5.49753 224.988 5.36308 225.019 5.22346L225.283 4.05477C225.314 3.91514 225.449 3.83241 225.588 3.86343Z" fill="#585857"/>
<path d="M225.252 5.33725C225.221 5.33207 225.2 5.29588 225.205 5.26485L225.469 4.09616C225.474 4.06513 225.51 4.04445 225.542 4.04962L226.731 4.31852C226.762 4.32369 226.783 4.35989 226.777 4.39092L226.514 5.55961C226.509 5.59063 226.472 5.61132 226.441 5.60615L225.252 5.33725Z" fill="#5E5E5D"/>
<path d="M227.62 4.31856L228.809 4.58746C228.944 4.61849 229.032 4.75294 229.001 4.89256L228.737 6.06125C228.706 6.1957 228.571 6.28361 228.432 6.25258L227.242 5.98368C227.108 5.95265 227.02 5.8182 227.051 5.67858L227.315 4.50989C227.346 4.37544 227.48 4.28753 227.62 4.31856Z" fill="#585857"/>
<path d="M227.29 5.79233C227.258 5.78716 227.238 5.75096 227.243 5.71993L227.507 4.55124C227.512 4.52021 227.548 4.49953 227.579 4.5047L228.768 4.7736C228.8 4.77877 228.82 4.81497 228.815 4.846L228.551 6.01469C228.546 6.04571 228.51 6.0664 228.479 6.06123L227.29 5.79233Z" fill="#5E5E5D"/>
<path d="M229.652 4.77364L230.841 5.04254C230.976 5.07357 231.063 5.20802 231.032 5.34764L230.769 6.51633C230.738 6.65078 230.603 6.73869 230.464 6.70766L229.274 6.43876C229.14 6.40773 229.052 6.27328 229.083 6.13366L229.347 4.96497C229.378 4.83052 229.512 4.74261 229.652 4.77364Z" fill="#585857"/>
<path d="M229.321 6.24737C229.29 6.2422 229.27 6.206 229.275 6.17498L229.538 5.00629C229.544 4.97526 229.58 4.95457 229.611 4.95975L230.8 5.22865C230.831 5.23382 230.852 5.27002 230.847 5.30104L230.583 6.46974C230.578 6.50076 230.542 6.52145 230.511 6.51628L229.321 6.24737Z" fill="#5E5E5D"/>
<path d="M231.685 5.23379L232.874 5.50269C233.009 5.53372 233.097 5.66817 233.066 5.80779L232.802 6.97649C232.771 7.11094 232.636 7.19885 232.497 7.16782L231.307 6.89892C231.173 6.86789 231.085 6.73344 231.116 6.59382L231.38 5.42513C231.411 5.2855 231.55 5.20277 231.685 5.23379Z" fill="#585857"/>
<path d="M231.353 6.70764C231.322 6.70247 231.302 6.66627 231.307 6.63524L231.571 5.46655C231.576 5.43553 231.612 5.41484 231.643 5.42001L232.832 5.68891C232.863 5.69409 232.884 5.73028 232.879 5.76131L232.615 6.93C232.61 6.96103 232.574 6.98171 232.543 6.97654L231.353 6.70764Z" fill="#5E5E5D"/>
<path d="M233.717 5.68861L234.906 5.95752C235.041 5.98854 235.128 6.123 235.097 6.26262L234.834 7.43131C234.803 7.56576 234.668 7.65367 234.529 7.62264L233.339 7.35374C233.205 7.32271 233.117 7.18826 233.148 7.04864L233.412 5.87995C233.443 5.7455 233.582 5.65759 233.717 5.68861Z" fill="#585857"/>
<path d="M233.386 7.16269C233.355 7.15752 233.334 7.12132 233.34 7.09029L233.603 5.9216C233.609 5.89057 233.645 5.86989 233.676 5.87506L234.865 6.14396C234.896 6.14913 234.917 6.18533 234.912 6.21636L234.648 7.38505C234.643 7.41608 234.607 7.43676 234.576 7.43159L233.386 7.16269Z" fill="#5E5E5D"/>
<path d="M235.749 6.14911L236.938 6.41801C237.073 6.44904 237.161 6.58349 237.13 6.72311L236.866 7.8918C236.835 8.02625 236.7 8.11416 236.561 8.08313L235.371 7.81423C235.237 7.78321 235.149 7.64875 235.18 7.50913L235.444 6.34044C235.48 6.20082 235.614 6.11808 235.749 6.14911Z" fill="#585857"/>
<path d="M235.418 7.62295C235.387 7.61778 235.367 7.58158 235.372 7.55056L235.636 6.38187C235.641 6.35084 235.677 6.33015 235.708 6.33533L236.897 6.60423C236.928 6.6094 236.949 6.6456 236.944 6.67662L236.68 7.84532C236.675 7.87634 236.639 7.89703 236.608 7.89186L235.418 7.62295Z" fill="#5E5E5D"/>
<path d="M237.782 6.60393L238.971 6.87283C239.105 6.90386 239.193 7.03831 239.162 7.17793L238.899 8.34662C238.868 8.48107 238.733 8.56898 238.593 8.53796L237.404 8.26905C237.27 8.23803 237.182 8.10358 237.213 7.96395L237.477 6.79526C237.513 6.66081 237.647 6.5729 237.782 6.60393Z" fill="#585857"/>
<path d="M237.45 8.078C237.419 8.07283 237.398 8.03663 237.404 8.0056L237.667 6.83691C237.673 6.80589 237.709 6.7852 237.74 6.79037L238.929 7.05928C238.96 7.06445 238.981 7.10064 238.976 7.13167L238.712 8.30036C238.707 8.33139 238.671 8.35207 238.64 8.3469L237.45 8.078Z" fill="#5E5E5D"/>
<path d="M239.814 7.05934L241.003 7.32824C241.138 7.35927 241.226 7.49372 241.195 7.63334L240.931 8.80203C240.9 8.93648 240.765 9.02439 240.626 8.99337L239.436 8.72447C239.302 8.69344 239.214 8.55899 239.245 8.41937L239.509 7.25068C239.545 7.11622 239.679 7.02832 239.814 7.05934Z" fill="#585857"/>
<path d="M239.482 8.53308C239.451 8.52791 239.431 8.49171 239.436 8.46068L239.7 7.29199C239.705 7.26097 239.741 7.24028 239.772 7.24545L240.961 7.51435C240.992 7.51952 241.013 7.55572 241.008 7.58675L240.744 8.75544C240.739 8.78647 240.703 8.80715 240.672 8.80198L239.482 8.53308Z" fill="#5E5E5D"/>
<path d="M241.846 7.5195L243.035 7.7884C243.17 7.81943 243.258 7.95388 243.227 8.0935L242.963 9.26219C242.932 9.39664 242.798 9.48455 242.658 9.45353L241.469 9.18462C241.334 9.1536 241.246 9.01915 241.277 8.87952L241.541 7.71083C241.577 7.57121 241.712 7.48847 241.846 7.5195Z" fill="#585857"/>
<path d="M241.515 8.99331C241.484 8.98814 241.463 8.95194 241.469 8.92092L241.732 7.75223C241.737 7.7212 241.774 7.70052 241.805 7.70569L242.994 7.97459C243.025 7.97976 243.046 8.01596 243.041 8.04699L242.777 9.21567C242.772 9.2467 242.736 9.26739 242.704 9.26222L241.515 8.99331Z" fill="#5E5E5D"/>
<path d="M243.883 7.97466L245.073 8.24356C245.207 8.27459 245.295 8.40904 245.264 8.54866L245 9.71735C244.969 9.8518 244.835 9.93971 244.695 9.90868L243.506 9.63978C243.371 9.60875 243.283 9.4743 243.314 9.33468L243.578 8.16599C243.609 8.03154 243.744 7.94363 243.883 7.97466Z" fill="#585857"/>
<path d="M243.547 9.44839C243.516 9.44322 243.496 9.40702 243.501 9.37599L243.765 8.20731C243.77 8.17628 243.806 8.15559 243.837 8.16077L245.026 8.42967C245.057 8.43484 245.078 8.47104 245.073 8.50206L244.809 9.67075C244.804 9.70178 244.768 9.72246 244.737 9.71729L243.547 9.44839Z" fill="#5E5E5D"/>
<path d="M245.916 8.43481L247.105 8.70372C247.24 8.73474 247.328 8.86919 247.297 9.00882L247.033 10.1775C247.002 10.312 246.867 10.3999 246.728 10.3688L245.538 10.0999C245.404 10.0689 245.316 9.93446 245.347 9.79484L245.611 8.62615C245.642 8.48652 245.776 8.40379 245.916 8.43481Z" fill="#585857"/>
<path d="M245.585 9.90863C245.554 9.90346 245.534 9.86726 245.539 9.83623L245.803 8.66754C245.808 8.63651 245.844 8.61583 245.875 8.621L247.064 8.8899C247.095 8.89507 247.116 8.93127 247.111 8.9623L246.847 10.131C246.842 10.162 246.806 10.1827 246.775 10.1775L245.585 9.90863Z" fill="#5E5E5D"/>
<path d="M247.949 8.88997L249.138 9.15887C249.272 9.1899 249.36 9.32435 249.329 9.46397L249.066 10.6327C249.035 10.7671 248.9 10.855 248.76 10.824L247.571 10.5551C247.437 10.5241 247.349 10.3896 247.38 10.25L247.644 9.0813C247.675 8.94685 247.809 8.85894 247.949 8.88997Z" fill="#585857"/>
<path d="M247.617 10.3637C247.586 10.3585 247.565 10.3223 247.571 10.2913L247.834 9.12262C247.84 9.09159 247.876 9.07091 247.907 9.07608L249.096 9.34498C249.127 9.35015 249.148 9.38635 249.143 9.41738L248.879 10.5861C248.874 10.6171 248.838 10.6378 248.807 10.6326L247.617 10.3637Z" fill="#5E5E5D"/>
<path d="M223.127 5.29579L224.316 5.56469C224.451 5.59572 224.539 5.73017 224.508 5.8698L224.244 7.03848C224.213 7.17294 224.078 7.26084 223.939 7.22982L222.749 6.96092C222.615 6.92989 222.527 6.79544 222.558 6.65582L222.822 5.48713C222.858 5.35267 222.992 5.26477 223.127 5.29579Z" fill="#585857"/>
<path d="M222.795 6.76953C222.764 6.76436 222.744 6.72816 222.749 6.69713L223.013 5.52844C223.018 5.49742 223.054 5.47673 223.085 5.4819L224.274 5.7508C224.305 5.75598 224.326 5.79217 224.321 5.8232L224.057 6.99189C224.052 7.02292 224.016 7.0436 223.985 7.03843L222.795 6.76953Z" fill="#5E5E5D"/>
<path d="M225.159 5.75072L226.348 6.01962C226.482 6.05065 226.57 6.1851 226.539 6.32472L226.276 7.49341C226.245 7.62786 226.11 7.71577 225.97 7.68475L224.781 7.41584C224.647 7.38482 224.559 7.25037 224.59 7.11074L224.853 5.94205C224.89 5.8076 225.024 5.72486 225.159 5.75072Z" fill="#585857"/>
<path d="M224.828 7.23013C224.797 7.22496 224.776 7.18876 224.782 7.15773L225.045 5.98904C225.05 5.95802 225.087 5.93733 225.118 5.9425L226.307 6.21141C226.338 6.21658 226.359 6.25277 226.354 6.2838L226.09 7.45249C226.085 7.48352 226.048 7.5042 226.017 7.49903L224.828 7.23013Z" fill="#5E5E5D"/>
<path d="M227.19 6.21111L228.38 6.48001C228.514 6.51104 228.602 6.64549 228.571 6.78511L228.307 7.9538C228.276 8.08825 228.142 8.17616 228.002 8.14513L226.813 7.87623C226.678 7.8452 226.59 7.71075 226.621 7.57113L226.885 6.40244C226.921 6.26799 227.056 6.18008 227.19 6.21111Z" fill="#585857"/>
<path d="M226.86 7.68484C226.829 7.67967 226.808 7.64347 226.813 7.61245L227.077 6.44375C227.082 6.41273 227.118 6.39204 227.149 6.39722L228.339 6.66612C228.37 6.67129 228.391 6.70749 228.385 6.73851L228.122 7.9072C228.116 7.93823 228.08 7.95892 228.049 7.95374L226.86 7.68484Z" fill="#5E5E5D"/>
<path d="M229.229 6.66615L230.418 6.93506C230.553 6.96608 230.641 7.10053 230.61 7.24016L230.346 8.40885C230.315 8.5433 230.18 8.63121 230.041 8.60018L228.851 8.33128C228.717 8.30025 228.629 8.1658 228.66 8.02618L228.924 6.85749C228.955 6.72304 229.089 6.63513 229.229 6.66615Z" fill="#585857"/>
<path d="M228.893 8.13992C228.862 8.13475 228.841 8.09855 228.846 8.06753L229.11 6.89883C229.115 6.86781 229.151 6.84712 229.182 6.85229L230.372 7.1212C230.403 7.12637 230.423 7.16256 230.418 7.19359L230.154 8.36228C230.149 8.39331 230.113 8.414 230.082 8.40882L228.893 8.13992Z" fill="#5E5E5D"/>
<path d="M231.261 7.12668L232.45 7.39558C232.584 7.4266 232.672 7.56106 232.641 7.70068L232.378 8.86937C232.347 9.00382 232.212 9.09173 232.072 9.0607L230.883 8.7918C230.749 8.76077 230.661 8.62632 230.692 8.4867L230.956 7.31801C230.987 7.17839 231.121 7.09565 231.261 7.12668Z" fill="#585857"/>
<path d="M230.93 8.60016C230.899 8.59499 230.878 8.55879 230.883 8.52776L231.147 7.35907C231.152 7.32804 231.188 7.30736 231.219 7.31253L232.409 7.58143C232.44 7.5866 232.46 7.6228 232.455 7.65383L232.191 8.82252C232.186 8.85355 232.15 8.87423 232.119 8.86906L230.93 8.60016Z" fill="#5E5E5D"/>
<path d="M233.293 7.58147L234.482 7.85037C234.617 7.8814 234.705 8.01585 234.674 8.15547L234.41 9.32416C234.379 9.45861 234.244 9.54652 234.105 9.51549L232.915 9.24659C232.781 9.21557 232.693 9.08111 232.724 8.94149L232.988 7.7728C233.019 7.63835 233.153 7.55044 233.293 7.58147Z" fill="#585857"/>
<path d="M232.961 9.05524C232.93 9.05006 232.91 9.01387 232.915 8.98284L233.179 7.81415C233.184 7.78312 233.22 7.76244 233.251 7.76761L234.44 8.03651C234.471 8.04168 234.492 8.07788 234.487 8.10891L234.223 9.2776C234.218 9.30862 234.182 9.32931 234.151 9.32414L232.961 9.05524Z" fill="#5E5E5D"/>
<path d="M235.326 8.0364L236.515 8.3053C236.649 8.33632 236.737 8.47078 236.706 8.6104L236.443 9.77909C236.412 9.91354 236.277 10.0014 236.137 9.97042L234.948 9.70152C234.814 9.67049 234.726 9.53604 234.757 9.39642L235.02 8.22773C235.051 8.09328 235.186 8.01054 235.326 8.0364Z" fill="#585857"/>
<path d="M234.994 9.51547C234.963 9.5103 234.942 9.4741 234.948 9.44307L235.211 8.27438C235.216 8.24336 235.253 8.22267 235.284 8.22784L236.473 8.49675C236.504 8.50192 236.525 8.53811 236.52 8.56914L236.256 9.73783C236.251 9.76886 236.215 9.78954 236.183 9.78437L234.994 9.51547Z" fill="#5E5E5D"/>
<path d="M237.358 8.4967L238.547 8.7656C238.682 8.79663 238.77 8.93108 238.738 9.07071L238.475 10.2394C238.444 10.3738 238.309 10.4618 238.17 10.4307L236.98 10.1618C236.846 10.1308 236.758 9.99635 236.789 9.85673L237.053 8.68804C237.084 8.54841 237.223 8.46568 237.358 8.4967Z" fill="#585857"/>
<path d="M237.027 9.97055C236.996 9.96538 236.975 9.92918 236.98 9.89815L237.244 8.72946C237.249 8.69843 237.285 8.67775 237.316 8.68292L238.506 8.95182C238.537 8.95699 238.557 8.99319 238.552 9.02422L238.289 10.1929C238.283 10.2239 238.247 10.2446 238.216 10.2394L237.027 9.97055Z" fill="#5E5E5D"/>
<path d="M239.39 8.95186L240.579 9.22076C240.713 9.25179 240.801 9.38624 240.77 9.52586L240.507 10.6946C240.475 10.829 240.341 10.9169 240.201 10.8859L239.012 10.617C238.878 10.586 238.79 10.4515 238.821 10.3119L239.084 9.14319C239.115 9.00874 239.255 8.92083 239.39 8.95186Z" fill="#585857"/>
<path d="M239.059 10.4256C239.028 10.4204 239.007 10.3842 239.013 10.3532L239.276 9.18451C239.281 9.15348 239.318 9.1328 239.349 9.13797L240.538 9.40687C240.569 9.41204 240.59 9.44824 240.585 9.47927L240.316 10.648C240.31 10.679 240.274 10.6997 240.243 10.6945L239.059 10.4256Z" fill="#5E5E5D"/>
<path d="M241.422 9.41202L242.612 9.68092C242.746 9.71195 242.834 9.8464 242.803 9.98602L242.539 11.1547C242.508 11.2892 242.374 11.3771 242.234 11.346L241.045 11.0771C240.91 11.0461 240.822 10.9117 240.853 10.772L241.117 9.60335C241.153 9.46373 241.288 9.38099 241.422 9.41202Z" fill="#585857"/>
<path d="M241.091 10.8859C241.06 10.8807 241.039 10.8497 241.044 10.8135L241.308 9.64478C241.313 9.61375 241.349 9.59306 241.38 9.59823L242.57 9.86714C242.601 9.87231 242.621 9.90851 242.616 9.93953L242.353 11.1082C242.347 11.1392 242.311 11.1599 242.28 11.1548L241.091 10.8859Z" fill="#5E5E5D"/>
<path d="M243.454 9.86717L244.644 10.1361C244.778 10.1671 244.866 10.3016 244.835 10.4412L244.571 11.6099C244.54 11.7443 244.406 11.8322 244.266 11.8012L243.077 11.5323C242.943 11.5013 242.855 11.3668 242.886 11.2272L243.149 10.0585C243.186 9.92406 243.32 9.83615 243.454 9.86717Z" fill="#585857"/>
<path d="M243.124 11.3409C243.092 11.3357 243.072 11.2995 243.077 11.2685L243.341 10.0998C243.346 10.0688 243.382 10.0481 243.413 10.0533L244.602 10.3222C244.633 10.3274 244.654 10.3636 244.649 10.3946L244.385 11.5633C244.38 11.5943 244.344 11.615 244.313 11.6098L243.124 11.3409Z" fill="#5E5E5D"/>
<path d="M245.487 10.3222L246.676 10.5911C246.811 10.6222 246.898 10.7566 246.867 10.8962L246.604 12.0649C246.573 12.1994 246.438 12.2873 246.299 12.2562L245.109 11.9873C244.975 11.9563 244.887 11.8219 244.918 11.6822L245.182 10.5136C245.218 10.3791 245.352 10.2912 245.487 10.3222Z" fill="#585857"/>
<path d="M245.156 11.8012C245.125 11.796 245.104 11.7598 245.109 11.7288L245.373 10.5601C245.378 10.5291 245.414 10.5084 245.445 10.5135L246.635 10.7825C246.666 10.7876 246.686 10.8238 246.681 10.8548L246.418 12.0184C246.412 12.0494 246.376 12.0701 246.345 12.0649L245.156 11.8012Z" fill="#5E5E5D"/>
<path d="M247.524 10.7824L248.713 11.0513C248.848 11.0823 248.936 11.2168 248.905 11.3564L248.641 12.5251C248.61 12.6595 248.475 12.7474 248.336 12.7164L247.146 12.4475C247.012 12.4165 246.924 12.282 246.955 12.1424L247.219 10.9737C247.25 10.8341 247.384 10.7514 247.524 10.7824Z" fill="#585857"/>
<path d="M247.187 12.2562C247.156 12.2511 247.136 12.2149 247.141 12.1838L247.405 11.0151C247.41 10.9841 247.446 10.9634 247.477 10.9686L248.666 11.2375C248.697 11.2427 248.718 11.2789 248.713 11.3099L248.449 12.4786C248.444 12.5096 248.408 12.5303 248.377 12.5251L247.187 12.2562Z" fill="#5E5E5D"/>
<path d="M222.702 7.18865L223.891 7.45755C224.026 7.48857 224.114 7.62303 224.083 7.76265L223.819 8.93134C223.788 9.06579 223.654 9.1537 223.514 9.12267L222.325 8.85377C222.19 8.82274 222.102 8.68829 222.133 8.54867L222.397 7.37998C222.428 7.24553 222.568 7.15762 222.702 7.18865Z" fill="#585857"/>
<path d="M222.372 8.66241C222.341 8.65724 222.32 8.62104 222.325 8.59001L222.589 7.42133C222.594 7.3903 222.63 7.36961 222.661 7.37478L223.851 7.64369C223.882 7.64886 223.902 7.68506 223.897 7.71608L223.633 8.88477C223.628 8.9158 223.592 8.93648 223.561 8.93131L222.372 8.66241Z" fill="#5E5E5D"/>
<path d="M224.735 7.64372L225.924 7.91262C226.059 7.94365 226.146 8.0781 226.115 8.21772L225.852 9.38641C225.821 9.52087 225.686 9.60878 225.547 9.57775L224.357 9.30885C224.223 9.27782 224.135 9.14337 224.166 9.00375L224.43 7.83506C224.461 7.70061 224.6 7.6127 224.735 7.64372Z" fill="#585857"/>
<path d="M224.404 9.11746C224.373 9.11229 224.352 9.07609 224.357 9.04506L224.621 7.87637C224.626 7.84535 224.662 7.82466 224.693 7.82983L225.883 8.09873C225.914 8.10391 225.934 8.1401 225.929 8.17113L225.666 9.33982C225.66 9.37085 225.624 9.39153 225.593 9.38636L224.404 9.11746Z" fill="#5E5E5D"/>
<path d="M226.767 8.10388L227.956 8.37278C228.091 8.40381 228.179 8.53826 228.148 8.67788L227.884 9.84657C227.853 9.98102 227.718 10.0689 227.579 10.0379L226.389 9.769C226.255 9.73798 226.167 9.60352 226.198 9.4639L226.467 8.29521C226.498 8.15559 226.633 8.07285 226.767 8.10388Z" fill="#585857"/>
<path d="M226.436 9.57736C226.405 9.57219 226.384 9.53599 226.389 9.50496L226.653 8.33627C226.658 8.30525 226.695 8.28456 226.726 8.28973L227.915 8.55863C227.946 8.5638 227.967 8.6 227.962 8.63103L227.698 9.79972C227.693 9.83075 227.656 9.85143 227.625 9.84626L226.436 9.57736Z" fill="#5E5E5D"/>
<path d="M228.799 8.55904L229.989 8.82794C230.123 8.85897 230.211 8.99342 230.18 9.13304L229.916 10.3017C229.885 10.4362 229.751 10.5241 229.611 10.4931L228.422 10.2242C228.287 10.1931 228.199 10.0587 228.23 9.91906L228.494 8.75037C228.53 8.61592 228.665 8.52801 228.799 8.55904Z" fill="#585857"/>
<path d="M228.468 10.0328C228.437 10.0276 228.417 9.99141 228.422 9.96038L228.685 8.79169C228.691 8.76066 228.727 8.73997 228.758 8.74515L229.947 9.01405C229.978 9.01922 229.999 9.05542 229.994 9.08644L229.73 10.2551C229.725 10.2862 229.689 10.3068 229.658 10.3017L228.468 10.0328Z" fill="#5E5E5D"/>
<path d="M238.117 10.6533L230.821 9.01402C230.686 8.98299 230.557 9.06573 230.526 9.20018L230.242 10.4568C230.221 10.5499 230.278 10.6429 230.371 10.6636L237.735 12.3184C237.869 12.3494 238.009 12.2615 238.04 12.1271L238.303 10.9584C238.34 10.8239 238.257 10.6843 238.117 10.6533Z" fill="#585857"/>
<path d="M230.443 10.4774L230.723 9.24147C230.728 9.21561 230.759 9.19492 230.785 9.20526L238.081 10.8445C238.112 10.8497 238.133 10.8859 238.128 10.9169L237.864 12.0856C237.859 12.1166 237.823 12.1373 237.792 12.1322L230.443 10.4774Z" fill="#5E5E5D"/>
<path d="M238.966 10.8447L240.156 11.1136C240.29 11.1446 240.378 11.2791 240.347 11.4187L240.083 12.5874C240.052 12.7219 239.918 12.8098 239.778 12.7787L238.589 12.5098C238.454 12.4788 238.366 12.3444 238.397 12.2047L238.661 11.036C238.692 10.9016 238.827 10.8137 238.966 10.8447Z" fill="#585857"/>
<path d="M238.635 12.3185C238.604 12.3133 238.583 12.2771 238.588 12.2461L238.852 11.0774C238.857 11.0464 238.893 11.0257 238.924 11.0309L240.114 11.2998C240.145 11.3049 240.165 11.3411 240.16 11.3722L239.897 12.5408C239.891 12.5719 239.855 12.5926 239.824 12.5874L238.635 12.3185Z" fill="#5E5E5D"/>
<path d="M240.998 11.3049L242.187 11.5738C242.322 11.6048 242.41 11.7393 242.379 11.8789L242.115 13.0476C242.084 13.182 241.949 13.27 241.81 13.2389L240.62 12.97C240.486 12.939 240.398 12.8045 240.429 12.6649L240.693 11.4962C240.724 11.3566 240.863 11.2739 240.998 11.3049Z" fill="#585857"/>
<path d="M240.667 12.7787C240.636 12.7735 240.616 12.7373 240.621 12.7063L240.885 11.5376C240.89 11.5066 240.926 11.4859 240.957 11.4911L242.146 11.76C242.177 11.7652 242.198 11.8014 242.193 11.8324L241.929 13.0011C241.924 13.0321 241.888 13.0528 241.857 13.0476L240.667 12.7787Z" fill="#5E5E5D"/>
<path d="M243.03 11.76L244.219 12.0289C244.353 12.06 244.441 12.1944 244.41 12.334L244.147 13.5027C244.116 13.6372 243.981 13.7251 243.842 13.6941L242.652 13.4251C242.518 13.3941 242.43 13.2597 242.461 13.1201L242.725 11.9514C242.756 11.8169 242.895 11.729 243.03 11.76Z" fill="#585857"/>
<path d="M242.699 13.2338C242.668 13.2286 242.647 13.1924 242.653 13.1614L242.916 11.9927C242.922 11.9617 242.958 11.941 242.989 11.9462L244.178 12.2151C244.209 12.2202 244.23 12.2564 244.225 12.2875L243.961 13.4562C243.956 13.4872 243.925 13.5079 243.889 13.5027L242.699 13.2338Z" fill="#5E5E5D"/>
<path d="M245.062 12.2148L246.252 12.4837C246.386 12.5147 246.474 12.6491 246.443 12.7888L246.179 13.9575C246.148 14.0919 246.014 14.1798 245.874 14.1488L244.685 13.8799C244.55 13.8489 244.463 13.7144 244.494 13.5748L244.757 12.4061C244.793 12.2717 244.928 12.1837 245.062 12.2148Z" fill="#585857"/>
<path d="M244.731 13.6888C244.7 13.6837 244.679 13.6475 244.684 13.6164L244.948 12.4478C244.953 12.4167 244.989 12.396 245.021 12.4012L246.21 12.6701C246.241 12.6753 246.262 12.7115 246.256 12.7425L245.993 13.9112C245.988 13.9422 245.951 13.9629 245.92 13.9577L244.731 13.6888Z" fill="#5E5E5D"/>
<path d="M247.095 12.6753L248.284 12.9442C248.419 12.9752 248.507 13.1096 248.476 13.2493L248.212 14.418C248.181 14.5524 248.047 14.6403 247.907 14.6093L246.718 14.3404C246.583 14.3094 246.495 14.1749 246.526 14.0353L246.79 12.8666C246.826 12.727 246.961 12.6442 247.095 12.6753Z" fill="#585857"/>
<path d="M246.765 14.1491C246.734 14.1439 246.713 14.1077 246.718 14.0767L246.982 12.908C246.987 12.877 247.023 12.8563 247.054 12.8615L248.244 13.1304C248.275 13.1356 248.295 13.1718 248.29 13.2028L248.026 14.3715C248.021 14.4025 247.985 14.4232 247.954 14.418L246.765 14.1491Z" fill="#5E5E5D"/>
<path d="M237.75 13.9524L231.783 12.6131C231.514 12.551 231.245 12.7217 231.188 12.9906L230.469 16.1812C230.407 16.4501 230.578 16.719 230.847 16.7759L236.814 18.1152C237.083 18.1773 237.352 18.0066 237.409 17.7377L238.128 14.5471C238.19 14.2782 238.019 14.0145 237.75 13.9524Z" fill="#EDEDED"/>
<path d="M237.797 13.761L231.829 12.4216C231.457 12.3389 231.084 12.5716 231.002 12.9439L230.283 16.1346C230.2 16.5069 230.433 16.8792 230.805 16.9619L236.773 18.3013C237.145 18.384 237.517 18.1513 237.6 17.779L238.319 14.5884C238.402 14.216 238.169 13.8489 237.797 13.761ZM237.414 17.7376C237.352 18.0065 237.088 18.1772 236.819 18.1151L230.852 16.7758C230.583 16.7137 230.412 16.45 230.474 16.1811L231.193 12.9905C231.255 12.7216 231.519 12.5509 231.788 12.613L237.755 13.9523C238.024 14.0144 238.195 14.2781 238.133 14.547L237.414 17.7376Z" fill="#9D9B9B"/>
<path d="M230.826 14.609L230.475 16.1811C230.413 16.45 230.583 16.7189 230.852 16.7757L236.82 18.1151C237.089 18.1771 237.358 18.0065 237.414 17.7376L237.766 16.1655L230.826 14.609Z" fill="#DFDFDE"/>
<path d="M234.27 15.3799L230.826 14.6042L230.475 16.1762C230.413 16.4451 230.583 16.714 230.852 16.7709L233.81 17.438L234.27 15.3799Z" fill="#D9D9DA"/>
<path d="M252.07 4.79427L222.77 -1.79383C222.599 -1.8352 222.48 -1.99551 222.495 -2.17133L225.562 -18.9363C225.603 -19.3966 226.038 -19.712 226.488 -19.6086L256.331 -12.8964C256.781 -12.793 257.039 -12.3224 256.879 -11.888L252.478 4.57191C252.416 4.73739 252.245 4.83564 252.07 4.79427Z" fill="#E3E1E1"/>
<path d="M223.773 -3.40222L226.602 -17.5558C226.643 -17.9902 227.052 -18.2901 227.476 -18.1918L254.826 -12.0433C255.25 -11.9502 255.493 -11.5003 255.343 -11.0918L251.848 2.90664C251.724 3.24794 251.367 3.43928 251.01 3.36171L224.337 -2.63688C223.98 -2.71445 223.742 -3.0454 223.773 -3.40222Z" fill="#C7C7C6"/>
<path d="M223.969 -3.38154L226.798 -17.5454C226.829 -17.8609 227.124 -18.0781 227.434 -18.0057L254.795 -11.852C255.1 -11.7847 255.281 -11.4589 255.172 -11.1642L251.666 2.84457C251.578 3.09279 251.32 3.23241 251.061 3.17553L224.373 -2.82822C224.119 -2.88511 223.943 -3.12298 223.969 -3.38154Z" fill="#C6E6F2"/>
<path d="M247.824 3.84266L226.974 -0.847608L226.984 -1.19925L248.005 3.52722L247.824 3.84266Z" fill="#585857"/>
</g>
<path d="M55.514 100.736C54.1235 94.8577 48.2455 91.2324 42.3991 92.6285C36.5447 94.0247 32.9342 99.9267 34.3247 105.797C35.3044 109.922 38.4962 112.936 42.3359 113.88C42.5571 114.467 42.9679 118.029 43.7027 119.172C44.0345 119.687 44.4532 119.774 45.0932 119.64C45.6067 121.472 47.7556 123.154 49.5254 122.987C50.7658 122.868 51.6664 122.012 52.0694 120.861C52.3854 119.965 52.6382 118.934 52.7962 117.934C53.6495 117.91 54.0603 117.823 54.0208 117.022C53.9497 115.634 52.4486 111.81 52.3933 111.223C55.119 108.629 56.4463 104.678 55.514 100.736Z" fill="#FDFFFC"/>
<path d="M49.8496 100.339C49.6837 99.7445 49.0991 99.3478 48.4828 99.4985C47.9061 99.6334 47.4716 100.276 47.6454 100.871C47.7481 101.236 48.0167 101.529 48.3406 101.664C48.1036 103.203 47.8034 104.718 47.677 106.273C47.5585 107.717 47.44 109.129 47.1239 110.533C45.4095 107.955 43.703 105.385 41.8148 102.933C42.3362 102.434 41.9412 101.315 41.0642 101.521C40.0292 101.767 40.4085 103.386 41.4513 103.14C41.4592 103.14 41.4671 103.132 41.475 103.124C43.4344 105.908 45.3542 108.732 46.9501 111.747C47.1239 112.072 47.598 112.001 47.7086 111.667C48.23 110.113 48.3801 108.526 48.4907 106.9C48.6171 105.147 48.9569 103.425 49.0991 101.68C49.6284 101.506 50.0076 100.903 49.8496 100.339Z" fill="#AEB4FC"/>
<path d="M36.6942 90.7567C34.49 89.662 32.2778 88.5593 30.0736 87.4567C29.6153 87.2345 29.1966 87.893 29.6549 88.1389C31.8038 89.3288 33.9607 90.5108 36.1096 91.7007C36.7417 92.0497 37.3263 91.074 36.6942 90.7567Z" fill="#808AFF"/>
<path d="M40.8425 82.3479C40.6608 81.9433 40.1394 82.2368 40.1789 82.6017C40.4475 84.8863 41.2929 87.2186 41.9565 89.4239C42.1224 89.9633 42.952 89.7809 42.8177 89.2176C42.2725 86.9489 41.7985 84.4818 40.8425 82.3479Z" fill="#808AFF"/>
<path d="M51.1135 81.6816C50.5447 82.1814 50.1971 82.9747 49.8415 83.641C49.4702 84.3391 49.1384 85.0531 48.8224 85.775C48.5696 86.362 49.5413 86.6714 49.7862 86.0685C50.0786 85.3307 50.3946 84.6168 50.758 83.9108C51.0661 83.2999 51.5165 82.705 51.6982 82.0466C51.8009 81.6896 51.3743 81.4437 51.1135 81.6816Z" fill="#808AFF"/>
</g>
<rect x="200" y="252" width="55" height="55" rx="27.5" fill="#E6E7F2"/>
<path d="M218.151 278.5L233.427 278.5L227.016 271.911L228.391 270.5L236.622 278.933C236.925 279.244 236.925 279.744 236.622 280.056L228.391 288.5L227.016 287.089L233.427 280.5L218.151 280.5L218.151 279.5L218.151 278.5Z" fill="#3F414E"/>
<path d="M34.69 273.05C34.546 274.658 33.982 275.936 32.998 276.884C32.014 277.832 30.664 278.306 28.948 278.306C27.088 278.306 25.588 277.694 24.448 276.47C23.32 275.234 22.756 273.602 22.756 271.574C22.756 269.654 23.326 268.058 24.466 266.786C25.618 265.514 27.148 264.878 29.056 264.878C30.58 264.878 31.858 265.31 32.89 266.174C33.922 267.038 34.492 268.136 34.6 269.468H31.846C31.702 268.76 31.378 268.214 30.874 267.83C30.382 267.434 29.758 267.236 29.002 267.236C28.222 267.236 27.562 267.458 27.022 267.902C26.494 268.334 26.122 268.868 25.906 269.504C25.69 270.14 25.582 270.836 25.582 271.592C25.582 272.912 25.888 273.968 26.5 274.76C27.112 275.54 27.934 275.93 28.966 275.93C30.682 275.93 31.66 274.97 31.9 273.05H34.69ZM45.6378 273.356C45.6378 274.844 45.1998 276.038 44.3238 276.938C43.4598 277.838 42.3018 278.288 40.8498 278.288C39.3978 278.288 38.2338 277.838 37.3578 276.938C36.4818 276.038 36.0438 274.844 36.0438 273.356C36.0438 271.88 36.4878 270.692 37.3758 269.792C38.2638 268.892 39.4338 268.442 40.8858 268.442C42.3138 268.442 43.4598 268.892 44.3238 269.792C45.1998 270.692 45.6378 271.88 45.6378 273.356ZM43.0818 273.338C43.0818 272.414 42.8778 271.694 42.4698 271.178C42.0738 270.65 41.5218 270.386 40.8138 270.386C40.1298 270.386 39.5898 270.65 39.1938 271.178C38.7978 271.706 38.5998 272.432 38.5998 273.356C38.5998 274.304 38.7978 275.042 39.1938 275.57C39.5898 276.098 40.1418 276.362 40.8498 276.362C41.5578 276.362 42.1038 276.098 42.4878 275.57C42.8838 275.03 43.0818 274.286 43.0818 273.338ZM55.4357 275.246C55.4357 276.23 55.0457 276.98 54.2657 277.496C53.4857 278.012 52.4297 278.27 51.0977 278.27C49.8377 278.27 48.7997 278 47.9837 277.46C47.1677 276.92 46.7537 276.092 46.7417 274.976H49.1717C49.2677 276.008 49.9277 276.524 51.1517 276.524C51.7037 276.524 52.1177 276.41 52.3937 276.182C52.6697 275.954 52.8077 275.654 52.8077 275.282C52.8077 274.418 52.2737 273.986 51.2057 273.986H50.2157V272.384H50.8817C51.4577 272.384 51.8957 272.294 52.1957 272.114C52.4957 271.934 52.6457 271.622 52.6457 271.178C52.6457 270.878 52.5197 270.632 52.2677 270.44C52.0157 270.236 51.6557 270.134 51.1877 270.134C50.6477 270.134 50.2337 270.23 49.9457 270.422C49.6697 270.614 49.4957 270.944 49.4237 271.412H47.0477C47.0837 270.404 47.4977 269.66 48.2897 269.18C49.0817 268.688 50.0657 268.442 51.2417 268.442C53.8337 268.442 55.1297 269.276 55.1297 270.944C55.1297 271.448 54.9557 271.898 54.6077 272.294C54.2597 272.69 53.8757 272.924 53.4557 272.996V273.032C54.0077 273.104 54.4757 273.308 54.8597 273.644C55.2437 273.98 55.4357 274.514 55.4357 275.246ZM67.0477 280.736H64.6537V278H58.5337V280.736H56.1397V276.038H57.2557C57.5557 275.462 57.8257 274.622 58.0657 273.518C58.3057 272.414 58.4257 271.352 58.4257 270.332V268.712H65.8417V276.038H67.0477V280.736ZM63.3037 276.038V270.602H60.8017V270.836C60.8017 271.736 60.6877 272.69 60.4597 273.698C60.2437 274.694 60.0097 275.474 59.7577 276.038H63.3037ZM76.9284 278H74.3364C74.2524 277.76 74.1924 277.46 74.1564 277.1C73.3764 277.88 72.3744 278.27 71.1504 278.27C70.1184 278.27 69.3084 278.024 68.7204 277.532C68.1324 277.028 67.8384 276.338 67.8384 275.462C67.8384 275.066 67.8864 274.718 67.9824 274.418C68.0904 274.118 68.2584 273.866 68.4864 273.662C68.7264 273.458 68.9484 273.29 69.1524 273.158C69.3684 273.026 69.6624 272.918 70.0344 272.834C70.4064 272.75 70.7064 272.69 70.9344 272.654C71.1624 272.606 71.4804 272.558 71.8884 272.51C72.7884 272.39 73.3884 272.264 73.6884 272.132C74.0004 272 74.1564 271.754 74.1564 271.394C74.1564 270.566 73.5984 270.152 72.4824 270.152C71.8944 270.152 71.4624 270.26 71.1864 270.476C70.9104 270.68 70.7304 271.046 70.6464 271.574H68.2524C68.3964 269.486 69.8304 268.442 72.5544 268.442C75.2544 268.442 76.6044 269.45 76.6044 271.466V275.48C76.6044 276.656 76.7124 277.496 76.9284 278ZM74.1384 273.482C73.8384 273.662 73.2384 273.824 72.3384 273.968C71.5824 274.088 71.0904 274.238 70.8624 274.418C70.5984 274.646 70.4664 274.958 70.4664 275.354C70.4664 275.738 70.5864 276.044 70.8264 276.272C71.0784 276.488 71.4264 276.596 71.8704 276.596C72.5544 276.596 73.1004 276.416 73.5084 276.056C73.9284 275.684 74.1384 275.174 74.1384 274.526V273.482ZM85.9143 265.184V267.272H83.5203V265.184H85.9143ZM82.1343 265.184V267.272H79.7403V265.184H82.1343ZM87.3543 275.12C87.0663 276.116 86.5323 276.89 85.7523 277.442C84.9843 277.994 84.0663 278.27 82.9983 278.27C81.5703 278.27 80.4183 277.826 79.5423 276.938C78.6783 276.05 78.2463 274.874 78.2463 273.41C78.2463 271.97 78.6843 270.782 79.5603 269.846C80.4363 268.91 81.5523 268.442 82.9083 268.442C84.3123 268.442 85.4283 268.922 86.2563 269.882C87.0843 270.83 87.4983 272.12 87.4983 273.752V274.004H80.8383C80.8503 274.808 81.0423 275.42 81.4143 275.84C81.7983 276.26 82.3323 276.47 83.0163 276.47C83.9163 276.47 84.5463 276.02 84.9063 275.12H87.3543ZM84.9063 272.384C84.8463 271.772 84.6483 271.274 84.3123 270.89C83.9763 270.494 83.5083 270.296 82.9083 270.296C82.3443 270.296 81.8763 270.482 81.5043 270.854C81.1323 271.226 80.9103 271.736 80.8383 272.384H84.9063ZM99.9763 278H97.5643V270.944H97.5103L95.6923 278H93.2803L91.4623 270.944H91.4083V278H88.9963V268.712H92.7043L94.4503 275.462H94.5223L96.2683 268.712H99.9763V278ZM116.446 278H113.35L110.668 274.004L109.534 275.156V278H107.032V268.712H109.534V272.384L112.936 268.712H115.942L112.342 272.312L116.446 278ZM119.708 268.712V269.864C120.38 268.928 121.34 268.46 122.588 268.46C123.836 268.46 124.838 268.91 125.594 269.81C126.35 270.71 126.728 271.91 126.728 273.41C126.728 274.862 126.356 276.032 125.612 276.92C124.88 277.796 123.908 278.234 122.696 278.234C121.448 278.234 120.494 277.772 119.834 276.848V281.294H117.296V268.712H119.708ZM121.958 270.512C121.262 270.512 120.716 270.764 120.32 271.268C119.936 271.772 119.744 272.474 119.744 273.374C119.744 274.274 119.942 274.976 120.338 275.48C120.734 275.984 121.28 276.236 121.976 276.236C122.66 276.236 123.194 275.984 123.578 275.48C123.974 274.976 124.172 274.286 124.172 273.41C124.172 272.51 123.974 271.802 123.578 271.286C123.182 270.77 122.642 270.512 121.958 270.512ZM137.03 275.12C136.742 276.116 136.208 276.89 135.428 277.442C134.66 277.994 133.742 278.27 132.674 278.27C131.246 278.27 130.094 277.826 129.218 276.938C128.354 276.05 127.922 274.874 127.922 273.41C127.922 271.97 128.36 270.782 129.236 269.846C130.112 268.91 131.228 268.442 132.584 268.442C133.988 268.442 135.104 268.922 135.932 269.882C136.76 270.83 137.174 272.12 137.174 273.752V274.004H130.514C130.526 274.808 130.718 275.42 131.09 275.84C131.474 276.26 132.008 276.47 132.692 276.47C133.592 276.47 134.222 276.02 134.582 275.12H137.03ZM134.582 272.384C134.522 271.772 134.324 271.274 133.988 270.89C133.652 270.494 133.184 270.296 132.584 270.296C132.02 270.296 131.552 270.482 131.18 270.854C130.808 271.226 130.586 271.736 130.514 272.384H134.582ZM147.276 278H144.684C144.6 277.76 144.54 277.46 144.504 277.1C143.724 277.88 142.722 278.27 141.498 278.27C140.466 278.27 139.656 278.024 139.068 277.532C138.48 277.028 138.186 276.338 138.186 275.462C138.186 275.066 138.234 274.718 138.33 274.418C138.438 274.118 138.606 273.866 138.834 273.662C139.074 273.458 139.296 273.29 139.5 273.158C139.716 273.026 140.01 272.918 140.382 272.834C140.754 272.75 141.054 272.69 141.282 272.654C141.51 272.606 141.828 272.558 142.236 272.51C143.136 272.39 143.736 272.264 144.036 272.132C144.348 272 144.504 271.754 144.504 271.394C144.504 270.566 143.946 270.152 142.83 270.152C142.242 270.152 141.81 270.26 141.534 270.476C141.258 270.68 141.078 271.046 140.994 271.574H138.6C138.744 269.486 140.178 268.442 142.902 268.442C145.602 268.442 146.952 269.45 146.952 271.466V275.48C146.952 276.656 147.06 277.496 147.276 278ZM144.486 273.482C144.186 273.662 143.586 273.824 142.686 273.968C141.93 274.088 141.438 274.238 141.21 274.418C140.946 274.646 140.814 274.958 140.814 275.354C140.814 275.738 140.934 276.044 141.174 276.272C141.426 276.488 141.774 276.596 142.218 276.596C142.902 276.596 143.448 276.416 143.856 276.056C144.276 275.684 144.486 275.174 144.486 274.526V273.482ZM156.838 270.674H153.778V278H151.24V270.674H148.18V268.712H156.838V270.674ZM166.666 278H164.218V271.718L160.906 278H158.008V268.712H160.456V274.994L163.768 268.712H166.666V278ZM168.606 268.712H173.952C174.828 268.712 175.542 268.91 176.094 269.306C176.646 269.69 176.922 270.272 176.922 271.052C176.922 271.94 176.502 272.576 175.662 272.96C176.79 273.284 177.354 274.04 177.354 275.228C177.354 276.104 177.054 276.788 176.454 277.28C175.866 277.76 175.116 278 174.204 278H168.606V268.712ZM171.126 272.438H172.818C173.826 272.438 174.33 272.084 174.33 271.376C174.33 270.968 174.192 270.692 173.916 270.548C173.652 270.404 173.286 270.332 172.818 270.332H171.126V272.438ZM171.126 276.344H173.016C173.544 276.344 173.958 276.26 174.258 276.092C174.558 275.924 174.708 275.6 174.708 275.12C174.708 274.628 174.546 274.298 174.222 274.13C173.898 273.962 173.46 273.878 172.908 273.878H171.126V276.344ZM187.96 268.712H190.498V278H187.96V268.712ZM186.79 274.94C186.79 275.936 186.466 276.698 185.818 277.226C185.182 277.742 184.336 278 183.28 278H178.852V268.712H181.372V271.898H183.388C184.372 271.898 185.182 272.162 185.818 272.69C186.466 273.218 186.79 273.968 186.79 274.94ZM181.372 273.626V276.236H182.668C183.7 276.236 184.216 275.804 184.216 274.94C184.216 274.508 184.072 274.184 183.784 273.968C183.496 273.74 183.118 273.626 182.65 273.626H181.372ZM31.666 297H29.218V290.718L25.906 297H23.008V287.712H25.456V293.994L28.768 287.712H31.666V297ZM52.2597 292.212C52.2597 293.664 51.9597 294.87 51.3597 295.83C50.7597 296.778 49.8177 297.252 48.5337 297.252C48.1617 297.252 47.7957 297.168 47.4357 297C47.0757 296.832 46.7997 296.628 46.6077 296.388H46.5537V300.294H44.0337V296.388H43.9797C43.7877 296.628 43.5117 296.832 43.1517 297C42.7917 297.168 42.4257 297.252 42.0537 297.252C40.7697 297.252 39.8277 296.778 39.2277 295.83C38.6277 294.87 38.3277 293.664 38.3277 292.212C38.3277 290.748 38.6517 289.59 39.2997 288.738C39.9477 287.874 40.8237 287.442 41.9277 287.442C42.4317 287.442 42.8637 287.532 43.2237 287.712C43.5837 287.892 43.8357 288.12 43.9797 288.396H44.0337V284.184H46.5537V288.396H46.6077C46.7517 288.12 47.0037 287.892 47.3637 287.712C47.7237 287.532 48.1557 287.442 48.6597 287.442C49.7637 287.442 50.6397 287.874 51.2877 288.738C51.9357 289.59 52.2597 290.748 52.2597 292.212ZM49.7397 292.266C49.7397 290.358 49.1637 289.404 48.0117 289.404C47.6997 289.404 47.4057 289.488 47.1297 289.656C46.8537 289.812 46.6617 290.058 46.5537 290.394V294.39C46.6017 294.63 46.7517 294.84 47.0037 295.02C47.2677 295.2 47.5797 295.29 47.9397 295.29C49.1397 295.29 49.7397 294.282 49.7397 292.266ZM44.0337 294.39V290.394C43.9257 290.058 43.7337 289.812 43.4577 289.656C43.1817 289.488 42.8877 289.404 42.5757 289.404C41.4237 289.404 40.8477 290.358 40.8477 292.266C40.8477 294.282 41.4477 295.29 42.6477 295.29C43.0077 295.29 43.3137 295.2 43.5657 295.02C43.8297 294.84 43.9857 294.63 44.0337 294.39ZM62.5683 297H60.1203V290.718L56.8083 297H53.9103V287.712H56.3583V293.994L59.6703 287.712H62.5683V297ZM77.7383 297H64.5803V287.712H67.1183V295.038H69.8903V287.712H72.4283V295.038H75.2003V287.712H77.7383V297ZM89.2002 297H86.1042L83.4222 293.004L82.2882 294.156V297H79.7862V287.712H82.2882V291.384L85.6902 287.712H88.6962L85.0962 291.312L89.2002 297ZM98.7441 297H96.2961V290.718L92.9841 297H90.0861V287.712H92.5341V293.994L95.8461 287.712H98.7441V297Z" fill="#F5F2EC"/>
<defs>
<clipPath id="clip0">
<rect width="21.7047" height="26.3558" fill="white" transform="translate(237.202 37.7343)"/>
</clipPath>
<clipPath id="clip1">
<rect width="106.973" height="18.6041" fill="white" transform="translate(88.3696 181.916)"/>
</clipPath>
<clipPath id="clip2">
<rect width="49.6108" height="40.3088" fill="white" transform="translate(213.947 90.4457)"/>
</clipPath>
<clipPath id="clip3">
<rect width="54.2619" height="54.2619" fill="white" transform="translate(62.0137 -25.8297)"/>
</clipPath>
</defs>
</svg>
