<svg width="274" height="326" viewBox="0 0 274 326" fill="none" xmlns="http://www.w3.org/2000/svg">
<rect width="273.534" height="325.571" rx="10" fill="#D9A5B5"/>
<path d="M25.8118 274.907V262.055H32.7418C33.8698 262.055 34.7878 262.403 35.4958 263.099C36.1678 263.771 36.5038 264.605 36.5038 265.601C36.5038 267.197 35.8258 268.271 34.4698 268.823V268.859C35.5978 269.147 36.2218 270.149 36.3418 271.865C36.3778 272.381 36.4138 272.897 36.4498 273.413C36.5218 274.109 36.6658 274.607 36.8818 274.907H34.0558C33.9238 274.583 33.8218 274.097 33.7498 273.449C33.7018 272.909 33.6538 272.369 33.6058 271.829C33.5098 271.133 33.2998 270.635 32.9758 270.335C32.6638 270.035 32.1598 269.885 31.4638 269.885H28.6378V274.907H25.8118ZM28.6378 264.251V267.869H31.7338C33.0298 267.869 33.6778 267.257 33.6778 266.033C33.6778 264.845 33.0298 264.251 31.7338 264.251H28.6378ZM47.3521 270.875H40.6381C40.7101 272.447 41.4721 273.233 42.9241 273.233C43.4161 273.233 43.8601 273.101 44.2561 272.837C44.6281 272.609 44.8561 272.339 44.9401 272.027H47.1901C46.5061 274.115 45.0541 275.159 42.8341 275.159C41.3821 275.159 40.2241 274.709 39.3601 273.809C38.5081 272.897 38.0821 271.715 38.0821 270.263C38.0821 268.847 38.5201 267.677 39.3961 266.753C40.2841 265.817 41.4301 265.349 42.8341 265.349C44.3461 265.349 45.5161 265.913 46.3441 267.041C47.1121 268.073 47.4481 269.351 47.3521 270.875ZM40.6381 269.255H44.7961C44.5561 267.935 43.8781 267.275 42.7621 267.275C42.0421 267.275 41.4901 267.515 41.1061 267.995C40.8181 268.355 40.6621 268.775 40.6381 269.255ZM55.51 274.907V273.719H55.474C54.91 274.679 53.968 275.159 52.648 275.159C51.316 275.159 50.272 274.649 49.516 273.629C48.82 272.705 48.472 271.553 48.472 270.173C48.472 268.829 48.82 267.713 49.516 266.825C50.272 265.841 51.298 265.349 52.594 265.349C53.842 265.349 54.766 265.811 55.366 266.735H55.384V262.055H57.94V274.907H55.51ZM55.474 270.227C55.474 269.375 55.318 268.691 55.006 268.175C54.622 267.575 54.046 267.275 53.278 267.275C52.498 267.275 51.916 267.581 51.532 268.193C51.196 268.709 51.028 269.393 51.028 270.245C51.028 271.061 51.208 271.739 51.568 272.279C51.964 272.915 52.534 273.233 53.278 273.233C54.742 273.233 55.474 272.231 55.474 270.227ZM68.6019 265.601V274.907H66.1719V273.611H66.1179C65.4819 274.643 64.5339 275.159 63.2739 275.159C61.9899 275.159 61.0839 274.805 60.5559 274.097C60.0999 273.509 59.8719 272.585 59.8719 271.325V265.601H62.4279V270.857C62.4279 272.381 62.9739 273.143 64.0659 273.143C64.7619 273.143 65.2659 272.933 65.5779 272.513C65.8899 272.093 66.0459 271.415 66.0459 270.479V265.601H68.6019ZM79.3798 268.877H76.8778C76.7098 267.809 76.0798 267.275 74.9878 267.275C74.2438 267.275 73.6738 267.605 73.2778 268.265C72.9658 268.817 72.8098 269.495 72.8098 270.299C72.8098 271.079 72.9658 271.733 73.2778 272.261C73.6498 272.909 74.2018 273.233 74.9338 273.233C76.1098 273.233 76.7878 272.603 76.9678 271.343H79.4338C79.2778 272.567 78.7978 273.509 77.9938 274.169C77.2018 274.829 76.1878 275.159 74.9518 275.159C73.5598 275.159 72.4258 274.715 71.5498 273.827C70.6858 272.939 70.2538 271.793 70.2538 270.389C70.2538 268.901 70.6678 267.701 71.4958 266.789C72.3598 265.829 73.5298 265.349 75.0058 265.349C76.1818 265.349 77.1658 265.637 77.9578 266.213C78.8338 266.861 79.3078 267.749 79.3798 268.877ZM89.6978 270.875H82.9838C83.0558 272.447 83.8178 273.233 85.2698 273.233C85.7618 273.233 86.2058 273.101 86.6018 272.837C86.9738 272.609 87.2018 272.339 87.2858 272.027H89.5358C88.8518 274.115 87.3998 275.159 85.1798 275.159C83.7278 275.159 82.5698 274.709 81.7058 273.809C80.8538 272.897 80.4278 271.715 80.4278 270.263C80.4278 268.847 80.8658 267.677 81.7418 266.753C82.6298 265.817 83.7758 265.349 85.1798 265.349C86.6918 265.349 87.8618 265.913 88.6898 267.041C89.4578 268.073 89.7938 269.351 89.6978 270.875ZM82.9838 269.255H87.1418C86.9018 267.935 86.2238 267.275 85.1078 267.275C84.3878 267.275 83.8358 267.515 83.4518 267.995C83.1638 268.355 83.0078 268.775 82.9838 269.255ZM95.6835 270.641H98.4195C98.4195 271.445 98.7075 272.057 99.2835 272.477C99.7755 272.837 100.435 273.017 101.263 273.017C101.911 273.017 102.451 272.915 102.883 272.711C103.471 272.435 103.765 272.003 103.765 271.415C103.765 270.683 103.105 270.131 101.785 269.759C99.5055 269.111 98.2755 268.739 98.0955 268.643C96.7755 268.007 96.1155 267.005 96.1155 265.637C96.1155 264.401 96.6255 263.423 97.6455 262.703C98.5575 262.067 99.6495 261.749 100.921 261.749C102.397 261.749 103.591 262.067 104.503 262.703C105.547 263.435 106.069 264.497 106.069 265.889H103.333C103.261 264.593 102.415 263.945 100.795 263.945C100.279 263.945 99.8415 264.053 99.4815 264.269C99.0615 264.533 98.8515 264.911 98.8515 265.403C98.8515 265.871 99.0855 266.213 99.5535 266.429C99.9135 266.597 100.957 266.903 102.685 267.347C103.693 267.599 104.443 267.887 104.935 268.211C105.979 268.883 106.501 269.843 106.501 271.091C106.501 272.315 106.045 273.299 105.133 274.043C104.173 274.823 102.847 275.213 101.155 275.213C99.6075 275.213 98.3355 274.847 97.3395 274.115C96.2235 273.287 95.6715 272.129 95.6835 270.641ZM111.153 262.811V265.601H113.025V267.311H111.153V271.919C111.153 272.351 111.225 272.639 111.369 272.783C111.513 272.927 111.801 272.999 112.233 272.999C112.521 272.999 112.785 272.975 113.025 272.927V274.925C112.665 274.985 112.167 275.015 111.531 275.015C109.575 275.015 108.597 274.277 108.597 272.801V267.311H107.049V265.601H108.597V262.811H111.153ZM123.061 270.875H116.347C116.419 272.447 117.181 273.233 118.633 273.233C119.125 273.233 119.569 273.101 119.965 272.837C120.337 272.609 120.565 272.339 120.649 272.027H122.899C122.215 274.115 120.763 275.159 118.543 275.159C117.091 275.159 115.933 274.709 115.069 273.809C114.217 272.897 113.791 271.715 113.791 270.263C113.791 268.847 114.229 267.677 115.105 266.753C115.993 265.817 117.139 265.349 118.543 265.349C120.055 265.349 121.225 265.913 122.053 267.041C122.821 268.073 123.157 269.351 123.061 270.875ZM116.347 269.255H120.505C120.265 267.935 119.587 267.275 118.471 267.275C117.751 267.275 117.199 267.515 116.815 267.995C116.527 268.355 116.371 268.775 116.347 269.255ZM124.127 271.883H126.557C126.569 272.411 126.773 272.813 127.169 273.089C127.517 273.329 127.967 273.449 128.519 273.449C128.963 273.449 129.335 273.365 129.635 273.197C130.007 272.981 130.193 272.669 130.193 272.261C130.193 271.901 129.941 271.613 129.437 271.397C129.077 271.241 128.363 271.049 127.295 270.821C126.383 270.629 125.705 270.377 125.261 270.065C124.649 269.657 124.343 269.081 124.343 268.337C124.343 266.345 125.693 265.349 128.393 265.349C130.961 265.349 132.329 266.339 132.497 268.319H130.067C130.007 267.479 129.425 267.059 128.321 267.059C127.373 267.059 126.899 267.347 126.899 267.923C126.899 268.319 127.199 268.625 127.799 268.841C127.871 268.865 128.537 269.021 129.797 269.309C130.721 269.525 131.399 269.789 131.831 270.101C132.443 270.533 132.749 271.139 132.749 271.919C132.749 273.047 132.305 273.893 131.417 274.457C130.685 274.925 129.713 275.159 128.501 275.159C127.289 275.159 126.305 274.919 125.549 274.439C124.649 273.875 124.175 273.023 124.127 271.883ZM133.795 271.883H136.225C136.237 272.411 136.441 272.813 136.837 273.089C137.185 273.329 137.635 273.449 138.187 273.449C138.631 273.449 139.003 273.365 139.303 273.197C139.675 272.981 139.861 272.669 139.861 272.261C139.861 271.901 139.609 271.613 139.105 271.397C138.745 271.241 138.031 271.049 136.963 270.821C136.051 270.629 135.373 270.377 134.929 270.065C134.317 269.657 134.011 269.081 134.011 268.337C134.011 266.345 135.361 265.349 138.061 265.349C140.629 265.349 141.997 266.339 142.165 268.319H139.735C139.675 267.479 139.093 267.059 137.989 267.059C137.041 267.059 136.567 267.347 136.567 267.923C136.567 268.319 136.867 268.625 137.467 268.841C137.539 268.865 138.205 269.021 139.465 269.309C140.389 269.525 141.067 269.789 141.499 270.101C142.111 270.533 142.417 271.139 142.417 271.919C142.417 273.047 141.973 273.893 141.085 274.457C140.353 274.925 139.381 275.159 138.169 275.159C136.957 275.159 135.973 274.919 135.217 274.439C134.317 273.875 133.843 273.023 133.795 271.883Z" fill="#D9A5B5"/>
<path d="M35.716 279.294H32.998V276H24.862V279.294H22.144V273.606H23.116C23.848 272.622 24.37 271.452 24.682 270.096C25.006 268.728 25.168 267.072 25.168 265.128V263.184H34.294V273.606H35.716V279.294ZM31.486 273.606V265.47H27.958V265.686C27.958 268.89 27.388 271.53 26.248 273.606H31.486ZM45.6758 276H43.2278V269.718L39.9158 276H37.0178V266.712H39.4658V272.994L42.7778 266.712H45.6758V276ZM55.7697 273.246C55.7697 274.23 55.3797 274.98 54.5997 275.496C53.8197 276.012 52.7637 276.27 51.4317 276.27C50.1717 276.27 49.1337 276 48.3177 275.46C47.5017 274.92 47.0877 274.092 47.0757 272.976H49.5057C49.6017 274.008 50.2617 274.524 51.4857 274.524C52.0377 274.524 52.4517 274.41 52.7277 274.182C53.0037 273.954 53.1417 273.654 53.1417 273.282C53.1417 272.418 52.6077 271.986 51.5397 271.986H50.5497V270.384H51.2157C51.7917 270.384 52.2297 270.294 52.5297 270.114C52.8297 269.934 52.9797 269.622 52.9797 269.178C52.9797 268.878 52.8537 268.632 52.6017 268.44C52.3497 268.236 51.9897 268.134 51.5217 268.134C50.9817 268.134 50.5677 268.23 50.2797 268.422C50.0037 268.614 49.8297 268.944 49.7577 269.412H47.3817C47.4177 268.404 47.8317 267.66 48.6237 267.18C49.4157 266.688 50.3997 266.442 51.5757 266.442C54.1677 266.442 55.4637 267.276 55.4637 268.944C55.4637 269.448 55.2897 269.898 54.9417 270.294C54.5937 270.69 54.2097 270.924 53.7897 270.996V271.032C54.3417 271.104 54.8097 271.308 55.1937 271.644C55.5777 271.98 55.7697 272.514 55.7697 273.246ZM65.9597 276H63.3677C63.2837 275.76 63.2237 275.46 63.1877 275.1C62.4077 275.88 61.4057 276.27 60.1817 276.27C59.1497 276.27 58.3397 276.024 57.7517 275.532C57.1637 275.028 56.8697 274.338 56.8697 273.462C56.8697 273.066 56.9177 272.718 57.0137 272.418C57.1217 272.118 57.2897 271.866 57.5177 271.662C57.7577 271.458 57.9797 271.29 58.1837 271.158C58.3997 271.026 58.6937 270.918 59.0657 270.834C59.4377 270.75 59.7377 270.69 59.9657 270.654C60.1937 270.606 60.5117 270.558 60.9197 270.51C61.8197 270.39 62.4197 270.264 62.7197 270.132C63.0317 270 63.1877 269.754 63.1877 269.394C63.1877 268.566 62.6297 268.152 61.5137 268.152C60.9257 268.152 60.4937 268.26 60.2177 268.476C59.9417 268.68 59.7617 269.046 59.6777 269.574H57.2837C57.4277 267.486 58.8617 266.442 61.5857 266.442C64.2857 266.442 65.6357 267.45 65.6357 269.466V273.48C65.6357 274.656 65.7437 275.496 65.9597 276ZM63.1697 271.482C62.8697 271.662 62.2697 271.824 61.3697 271.968C60.6137 272.088 60.1217 272.238 59.8937 272.418C59.6297 272.646 59.4977 272.958 59.4977 273.354C59.4977 273.738 59.6177 274.044 59.8577 274.272C60.1097 274.488 60.4577 274.596 60.9017 274.596C61.5857 274.596 62.1317 274.416 62.5397 274.056C62.9597 273.684 63.1697 273.174 63.1697 272.526V271.482ZM73.9376 263.184H74.9456C74.9456 264.912 73.9676 265.776 72.0116 265.776C70.0556 265.776 69.0776 264.912 69.0776 263.184H70.0856C70.2416 263.976 70.8836 264.372 72.0116 264.372C73.1396 264.372 73.7816 263.976 73.9376 263.184ZM76.3496 276H73.9016V269.718L70.5896 276H67.6916V266.712H70.1396V272.994L73.4516 266.712H76.3496V276ZM87.0195 276H84.4815V272.094H80.8995V276H78.3615V266.712H80.8995V270.078H84.4815V266.712H87.0195V276ZM97.6894 276H95.2414V269.718L91.9294 276H89.0314V266.712H91.4794V272.994L94.7914 266.712H97.6894V276ZM110.681 276H108.269V268.944H108.215L106.397 276H103.985L102.167 268.944H102.113V276H99.7014V266.712H103.409L105.155 273.462H105.227L106.973 266.712H110.681V276ZM126.521 272.418C126.365 273.618 125.891 274.554 125.099 275.226C124.319 275.898 123.311 276.234 122.075 276.234C120.647 276.234 119.501 275.796 118.637 274.92C117.773 274.044 117.341 272.88 117.341 271.428C117.341 269.928 117.773 268.722 118.637 267.81C119.513 266.898 120.671 266.442 122.111 266.442C123.347 266.442 124.355 266.76 125.135 267.396C125.915 268.02 126.359 268.872 126.467 269.952H123.965C123.773 268.884 123.161 268.35 122.129 268.35C121.433 268.35 120.887 268.62 120.491 269.16C120.107 269.688 119.915 270.426 119.915 271.374C119.915 272.298 120.101 273.018 120.473 273.534C120.857 274.038 121.391 274.29 122.075 274.29C123.191 274.29 123.851 273.666 124.055 272.418H126.521ZM136.641 276H134.049C133.965 275.76 133.905 275.46 133.869 275.1C133.089 275.88 132.087 276.27 130.863 276.27C129.831 276.27 129.021 276.024 128.433 275.532C127.845 275.028 127.551 274.338 127.551 273.462C127.551 273.066 127.599 272.718 127.695 272.418C127.803 272.118 127.971 271.866 128.199 271.662C128.439 271.458 128.661 271.29 128.865 271.158C129.081 271.026 129.375 270.918 129.747 270.834C130.119 270.75 130.419 270.69 130.647 270.654C130.875 270.606 131.193 270.558 131.601 270.51C132.501 270.39 133.101 270.264 133.401 270.132C133.713 270 133.869 269.754 133.869 269.394C133.869 268.566 133.311 268.152 132.195 268.152C131.607 268.152 131.175 268.26 130.899 268.476C130.623 268.68 130.443 269.046 130.359 269.574H127.965C128.109 267.486 129.543 266.442 132.267 266.442C134.967 266.442 136.317 267.45 136.317 269.466V273.48C136.317 274.656 136.425 275.496 136.641 276ZM133.851 271.482C133.551 271.662 132.951 271.824 132.051 271.968C131.295 272.088 130.803 272.238 130.575 272.418C130.311 272.646 130.179 272.958 130.179 273.354C130.179 273.738 130.299 274.044 130.539 274.272C130.791 274.488 131.139 274.596 131.583 274.596C132.267 274.596 132.813 274.416 133.221 274.056C133.641 273.684 133.851 273.174 133.851 272.526V271.482ZM144.619 263.184H145.627C145.627 264.912 144.649 265.776 142.693 265.776C140.737 265.776 139.759 264.912 139.759 263.184H140.767C140.923 263.976 141.565 264.372 142.693 264.372C143.821 264.372 144.463 263.976 144.619 263.184ZM147.031 276H144.583V269.718L141.271 276H138.373V266.712H140.821V272.994L144.133 266.712H147.031V276ZM156.873 268.674H153.813V276H151.275V268.674H148.215V266.712H156.873V268.674ZM31.666 295H29.218V288.718L25.906 295H23.008V285.712H25.456V291.994L28.768 285.712H31.666V295ZM42.2819 295H39.7439V287.674H37.2959L37.1879 290.95C37.1759 291.31 37.1639 291.598 37.1519 291.814C37.1399 292.018 37.1039 292.294 37.0439 292.642C36.9959 292.99 36.9359 293.272 36.8639 293.488C36.7919 293.692 36.6779 293.926 36.5219 294.19C36.3779 294.442 36.2039 294.64 35.9999 294.784C35.8079 294.916 35.5559 295.03 35.2439 295.126C34.9319 295.234 34.5839 295.288 34.1999 295.288C33.5759 295.288 33.1139 295.228 32.8139 295.108V293.074C33.1139 293.134 33.3539 293.164 33.5339 293.164C34.2659 293.164 34.6499 292.522 34.6859 291.238L34.8299 285.712H42.2819V295ZM53.0058 295H50.5578V288.718L47.2458 295H44.3478V285.712H46.7958V291.994L50.1078 285.712H53.0058V295ZM68.6855 295H66.1475V287.674H62.5655V295H60.0275V285.712H68.6855V295ZM73.0735 285.712V286.864C73.7455 285.928 74.7055 285.46 75.9535 285.46C77.2015 285.46 78.2035 285.91 78.9595 286.81C79.7155 287.71 80.0935 288.91 80.0935 290.41C80.0935 291.862 79.7215 293.032 78.9775 293.92C78.2455 294.796 77.2735 295.234 76.0615 295.234C74.8135 295.234 73.8595 294.772 73.1995 293.848V298.294H70.6615V285.712H73.0735ZM75.3235 287.512C74.6275 287.512 74.0815 287.764 73.6855 288.268C73.3015 288.772 73.1095 289.474 73.1095 290.374C73.1095 291.274 73.3075 291.976 73.7035 292.48C74.0995 292.984 74.6455 293.236 75.3415 293.236C76.0255 293.236 76.5595 292.984 76.9435 292.48C77.3395 291.976 77.5375 291.286 77.5375 290.41C77.5375 289.51 77.3395 288.802 76.9435 288.286C76.5475 287.77 76.0075 287.512 75.3235 287.512ZM90.3594 295H87.9114V288.718L84.5994 295H81.7014V285.712H84.1494V291.994L87.4614 285.712H90.3594V295ZM100.975 295H98.4373V287.674H95.9893L95.8813 290.95C95.8693 291.31 95.8573 291.598 95.8453 291.814C95.8333 292.018 95.7973 292.294 95.7373 292.642C95.6893 292.99 95.6293 293.272 95.5573 293.488C95.4853 293.692 95.3713 293.926 95.2153 294.19C95.0713 294.442 94.8973 294.64 94.6933 294.784C94.5013 294.916 94.2493 295.03 93.9373 295.126C93.6253 295.234 93.2773 295.288 92.8933 295.288C92.2693 295.288 91.8073 295.228 91.5073 295.108V293.074C91.8073 293.134 92.0473 293.164 92.2273 293.164C92.9593 293.164 93.3433 292.522 93.3793 291.238L93.5233 285.712H100.975V295ZM112.329 290.356C112.329 291.844 111.891 293.038 111.015 293.938C110.151 294.838 108.993 295.288 107.541 295.288C106.089 295.288 104.925 294.838 104.049 293.938C103.173 293.038 102.735 291.844 102.735 290.356C102.735 288.88 103.179 287.692 104.067 286.792C104.955 285.892 106.125 285.442 107.577 285.442C109.005 285.442 110.151 285.892 111.015 286.792C111.891 287.692 112.329 288.88 112.329 290.356ZM109.773 290.338C109.773 289.414 109.569 288.694 109.161 288.178C108.765 287.65 108.213 287.386 107.505 287.386C106.821 287.386 106.281 287.65 105.885 288.178C105.489 288.706 105.291 289.432 105.291 290.356C105.291 291.304 105.489 292.042 105.885 292.57C106.281 293.098 106.833 293.362 107.541 293.362C108.249 293.362 108.795 293.098 109.179 292.57C109.575 292.03 109.773 291.286 109.773 290.338ZM117.923 291.094L115.673 295H112.667L116.249 289.24L113.081 285.712H115.997L118.913 289.402V285.712H121.325V289.402L124.241 285.712H127.157L123.935 289.294L127.571 295H124.565L122.315 291.094L121.325 292.21V295H118.913V292.21L117.923 291.094ZM136.907 292.12C136.619 293.116 136.085 293.89 135.305 294.442C134.537 294.994 133.619 295.27 132.551 295.27C131.123 295.27 129.971 294.826 129.095 293.938C128.231 293.05 127.799 291.874 127.799 290.41C127.799 288.97 128.237 287.782 129.113 286.846C129.989 285.91 131.105 285.442 132.461 285.442C133.865 285.442 134.981 285.922 135.809 286.882C136.637 287.83 137.051 289.12 137.051 290.752V291.004H130.391C130.403 291.808 130.595 292.42 130.967 292.84C131.351 293.26 131.885 293.47 132.569 293.47C133.469 293.47 134.099 293.02 134.459 292.12H136.907ZM134.459 289.384C134.399 288.772 134.201 288.274 133.865 287.89C133.529 287.494 133.061 287.296 132.461 287.296C131.897 287.296 131.429 287.482 131.057 287.854C130.685 288.226 130.463 288.736 130.391 289.384H134.459ZM147.207 295H144.669V291.094H141.087V295H138.549V285.712H141.087V289.078H144.669V285.712H147.207V295ZM157.877 295H155.429V288.718L152.117 295H149.219V285.712H151.667V291.994L154.979 285.712H157.877V295ZM168.583 292.12C168.295 293.116 167.761 293.89 166.981 294.442C166.213 294.994 165.295 295.27 164.227 295.27C162.799 295.27 161.647 294.826 160.771 293.938C159.907 293.05 159.475 291.874 159.475 290.41C159.475 288.97 159.913 287.782 160.789 286.846C161.665 285.91 162.781 285.442 164.137 285.442C165.541 285.442 166.657 285.922 167.485 286.882C168.313 287.83 168.727 289.12 168.727 290.752V291.004H162.067C162.079 291.808 162.271 292.42 162.643 292.84C163.027 293.26 163.561 293.47 164.245 293.47C165.145 293.47 165.775 293.02 166.135 292.12H168.583ZM166.135 289.384C166.075 288.772 165.877 288.274 165.541 287.89C165.205 287.494 164.737 287.296 164.137 287.296C163.573 287.296 163.105 287.482 162.733 287.854C162.361 288.226 162.139 288.736 162.067 289.384H166.135Z" fill="#3F414E"/>
<path d="M145.87 29.1657C145.067 26.1072 140.787 26.0365 137.693 26.6801C123.251 29.6811 107.102 34.9164 93.0389 39.3772C84.7 42.1296 76.5886 45.5727 68.8145 49.662C66.4716 50.8943 63.773 53.3772 65.0883 55.677C66.0375 57.3383 68.3778 57.375 70.2815 57.1761C90.2488 55.0857 109.923 50.2088 128.56 42.7313C133.81 40.6252 139.069 38.2548 143.315 34.5161C144.877 33.1346 146.401 31.1829 145.87 29.1657Z" fill="#D196A8"/>
<path d="M220.894 141.48C221.127 145.702 220.585 150.187 218.52 154.294C218.48 154.373 218.439 154.451 218.397 154.53C218.376 154.574 218.352 154.616 218.329 154.661C218.198 154.912 218.059 155.163 217.913 155.409C217.194 156.644 216.326 157.837 215.288 158.97C214.001 160.375 212.406 161.641 210.586 162.782C210.356 162.928 210.123 163.07 209.885 163.208C209.362 163.52 208.821 163.82 208.264 164.111C197.182 169.914 180.052 172.028 170.463 172.787C168.086 172.828 165.712 172.965 163.348 173.19H163.338H163.335C159.211 173.579 155.114 174.239 151.079 175.168C137.217 178.352 124.198 184.628 110.292 187.619C97.8502 190.295 83.7977 189.858 73.3957 182.925C71.2097 181.468 69.4629 179.435 68.2836 177.085C66.9421 174.411 65.8177 172.031 64.6593 169.78C64.4789 169.43 64.2985 169.085 64.1154 168.739C64.0867 168.687 64.0605 168.635 64.0318 168.582C62.5988 165.9 61.0456 163.363 58.917 160.676C58.598 160.273 58.2659 159.865 57.9181 159.454L57.9155 159.451C57.7429 159.245 57.5651 159.035 57.3795 158.823C57.3246 158.758 57.267 158.692 57.2095 158.627C56.6761 158.02 56.1113 157.403 55.5098 156.772C53.4284 154.593 51.1848 152.573 49.0275 150.467C48.8366 150.281 48.6457 150.093 48.4548 149.904C48.3032 149.755 48.1541 149.603 48.0025 149.452C47.4193 148.866 46.8467 148.269 46.2871 147.659C35.9766 136.391 31.2881 120.206 33.9788 105.165C36.6695 90.1262 46.6767 76.5736 60.2559 69.5828C62.7505 68.2982 65.3288 67.2359 67.9672 66.3333C68.315 66.2129 68.6627 66.0978 69.0131 65.9827C77.7521 63.1466 87.1004 61.9719 96.195 60.3027C114.661 56.9197 132.717 51.3025 149.845 43.6131C152.695 42.3337 155.53 40.9941 158.372 39.6598C158.72 39.495 159.07 39.3327 159.418 39.1705C168.552 34.8954 177.759 30.78 187.648 29.0898C191.9 28.3651 196.296 28.1061 200.498 29.0715C211.676 31.646 219.547 43.1657 219.55 54.6435C219.555 67.7566 210.976 79.7812 211.227 92.8917C211.316 97.554 212.521 102.046 214.338 106.347C216.046 110.395 218.295 114.272 220.664 117.964C220.816 118.199 220.967 118.432 221.121 118.668C222.724 121.145 224.393 123.597 226.009 126.072L220.58 138.301C220.729 139.337 220.836 140.399 220.894 141.48Z" fill="#D196A8"/>
<path d="M218.52 154.294C218.481 154.373 218.439 154.451 218.397 154.53L98.4963 166.79L98.4022 166.8L57.3797 158.823C57.3248 158.758 57.2673 158.692 57.2097 158.627C56.6763 158.02 56.1115 157.403 55.5101 156.772C53.4286 154.593 51.185 152.573 49.0277 150.467C48.8369 150.281 48.646 150.093 48.4551 149.904L156.432 144.729L206.57 142.327L219.121 141.584L220.894 141.48C221.127 145.702 220.586 150.187 218.52 154.294Z" fill="#B29EEF"/>
<path d="M159.418 39.1705V110.863C159.418 111.151 159.183 111.387 158.895 111.387C158.605 111.387 158.372 111.151 158.372 110.863V39.6598C158.72 39.4949 159.07 39.3327 159.418 39.1705Z" fill="#D9A5B5"/>
<path d="M218.329 154.661C218.198 154.912 218.06 155.163 217.913 155.409C217.194 156.644 216.326 157.837 215.288 158.97C214.001 160.375 212.406 161.641 210.586 162.782C210.356 162.928 210.123 163.069 209.885 163.208L114.879 174.131L99.9319 175.85L99.673 171.096L99.4795 167.562L99.503 167.559L107.366 166.706L218.329 154.661Z" fill="white"/>
<path d="M69.0132 65.9827V141.804C69.0132 142.094 68.7805 142.327 68.4903 142.327C68.2026 142.327 67.9673 142.094 67.9673 141.804V66.3333C68.3151 66.2129 68.6628 66.0978 69.0132 65.9827Z" fill="#D9A5B5"/>
<path d="M109.188 102.784C107.737 99.9506 104.918 98.1192 100.774 97.3029C100.771 97.3003 100.768 97.3003 100.763 97.3003C98.2214 96.7979 95.1829 96.6749 91.6501 96.9366C75.3594 98.1479 63.3753 101.358 56.0327 106.476C51.0199 109.971 48.9019 116.488 50.8866 122.328L59.9733 149.07L60.2819 149.98L83.9179 148.316L89.4196 147.929L89.5321 147.921L89.6027 147.835C89.6053 147.829 89.6262 147.806 89.6628 147.761C90.3453 146.94 96.5661 139.363 101.958 130.413C109.628 117.687 112.059 108.391 109.188 102.784ZM89.2732 147.413L70.5401 148.735L61.9319 149.339H61.9293L60.648 149.431L60.5199 149.051L51.3808 122.158C49.4719 116.541 51.5089 110.267 56.3334 106.905C61.7541 103.124 69.7557 100.395 80.1995 98.7549C80.2178 98.7523 80.2388 98.7497 80.2623 98.7445C83.7924 98.1924 87.6049 97.766 91.6894 97.4598C92.8896 97.3709 94.0323 97.3264 95.1175 97.3264C102.214 97.3264 106.783 99.2363 108.723 103.025C115.21 115.696 90.782 145.59 89.2732 147.413Z" fill="#FEECD6"/>
<path d="M62.0521 149.705L52.7221 122.242C50.774 116.509 52.8084 110.149 57.7715 106.69C63.5399 102.669 74.0623 98.6241 93.2582 97.1982C135.967 94.0246 90.9911 147.667 90.9911 147.667L62.0521 149.705Z" fill="#FEECD6"/>
<path d="M140.146 52.281C140.35 51.4752 140.397 50.7426 140.381 50.0231C140.363 49.3062 140.271 48.5893 140.219 47.8071C140.149 47.3178 140.039 46.8312 139.89 46.355C139.301 44.4425 138.13 42.666 136.605 41.3683C133.556 38.7755 129.414 37.8205 125.416 37.6897C119.423 37.4909 112.928 39.2726 109.353 44.0893C106.301 48.1969 105.935 53.6232 104.552 58.5497C102.28 66.6525 97.0996 73.6669 91.1585 79.6217C87.6781 83.1119 83.6956 86.6674 82.7804 91.5129C81.8835 96.2668 84.3729 101.238 88.1985 104.194C89.5922 105.272 91.1742 106.136 92.8844 106.559C94.6233 106.991 96.4537 106.957 98.2187 106.656C103.637 105.733 108.289 102.418 112.87 99.3828C113.328 99.0793 113.79 98.7758 114.251 98.4409C117.577 95.9371 117.838 91.4893 120.453 88.3498C120.911 87.7271 121.381 87.2875 121.857 86.9945C128.036 86.78 138.234 83.3787 139.832 92.0963C140 92.5777 140.167 93.0565 140.353 93.5144C141.098 95.3432 142.133 96.8424 144.461 96.9601C144.863 96.9915 145.271 97.0046 145.682 96.9993C147.729 96.9706 149.803 96.4447 151.223 95.0109C152.731 93.4882 153.226 91.2199 153.241 89.0771C153.265 86.0919 152.48 83.104 150.995 80.5165C150.422 79.517 149.756 78.5882 149.029 77.7013C148.665 77.2591 148.289 76.8248 147.899 76.4088C142.418 72.6518 138.757 66.3726 139.495 59.6093C139.503 58.9553 139.531 58.3038 139.576 57.6471C139.712 55.6848 140 53.7043 140.308 51.7525L140.146 52.281Z" fill="#3F4553"/>
<path d="M137.641 53.3537C136.407 57.0244 138.012 60.8129 140.355 63.6647C143.273 67.2177 147.044 69.8418 149.549 73.7663C152.054 77.6934 154.073 82.6749 153.053 87.4079C152.635 89.3544 151.565 90.1472 149.719 90.6495C148.168 91.0708 146.725 91.5208 145.389 92.4496C145.08 92.6641 145.373 93.1743 145.687 92.9571C147.238 91.8792 148.911 91.5731 150.658 90.9896C151.751 90.6234 152.648 90.0268 153.168 88.9672C154.931 85.3724 153.547 80.4327 152.002 77.0341C150.059 72.759 147.091 69.5514 143.739 66.349C140.311 63.076 136.496 58.6099 138.211 53.5107C138.331 53.1496 137.761 52.9953 137.641 53.3537Z" fill="#4E5567"/>
<path d="M117.919 83.7083L120.953 81.487L124.833 79.6556L136.754 83.7083L141.846 137.634L128.688 140.943L119.616 113.603L117.919 83.7083Z" fill="white"/>
<path d="M142.144 76.019C147.091 77.008 151.756 79.8048 154.374 84.2107C157.096 88.7919 157.143 94.7833 154.128 99.2311C153.916 99.545 154.423 99.8407 154.635 99.5293C157.687 95.024 157.705 88.9698 155.077 84.2578C152.447 79.538 147.51 76.4952 142.298 75.4539C141.93 75.3754 141.773 75.9431 142.144 76.019Z" fill="#4E5567"/>
<path d="M102.071 69.0464C98.2031 72.0944 94.5004 75.3465 90.6382 78.4024C87.5919 80.812 84.1768 82.9548 82.0378 86.2906C77.8096 92.8838 80.8794 101.021 86.7054 105.458C89.9766 107.951 94.4141 109.932 98.5535 108.663C98.9143 108.553 98.7601 107.983 98.3966 108.095C94.5998 109.259 90.5441 107.522 87.4768 105.301C84.4252 103.093 81.9542 99.9584 81.0154 96.2641C80.1028 92.6693 80.8481 88.8494 83.042 85.8668C85.1705 82.9731 88.2743 81.0187 91.054 78.821C94.9162 75.7678 98.6189 72.513 102.486 69.465C102.784 69.2295 102.366 68.8135 102.071 69.0464Z" fill="#4E5567"/>
<path d="M153.121 152.526L113.568 151.576C113.568 150.511 114.369 149.619 115.428 149.506L156.277 145.093L153.121 152.526Z" fill="#400F58"/>
<path d="M107.989 54.6199C107.523 59.1697 106.574 63.7274 104.613 67.8847C102.667 72.0107 99.6078 75.2288 96.483 78.4782C93.6903 81.3824 90.8793 84.4487 89.5143 88.3183C88.3742 91.5416 88.6148 95.037 90.1393 98.0929C91.6638 101.146 94.4538 103.378 97.9656 103.305C98.3448 103.297 98.3448 102.708 97.9656 102.716C94.4068 102.789 91.7344 100.34 90.3798 97.2086C88.7586 93.4594 89.2711 89.4773 91.2349 85.9557C93.2327 82.374 96.3078 79.5693 99.09 76.6128C101.755 73.7819 104.04 70.7548 105.58 67.16C107.285 63.1805 108.14 58.9107 108.577 54.6199C108.613 54.2431 108.025 54.2458 107.989 54.6199Z" fill="#4E5567"/>
<path d="M137.296 65.5118C137.272 70.6006 141.472 73.9495 144.594 77.3978C146.44 79.4385 148.09 81.8063 148.268 84.6424C148.443 87.4366 147.282 90.1524 145.224 92.0231C144.945 92.2795 145.36 92.6929 145.64 92.4391C149.324 89.0902 149.769 83.7502 147.107 79.6426C144.097 74.996 137.856 71.6733 137.884 65.5118C137.887 65.1324 137.299 65.1324 137.296 65.5118Z" fill="#4E5567"/>
<path d="M135.062 83.1877C136.2 85.613 135.196 88.4622 135.58 91.1151C137.819 106.586 137.262 122.425 137.502 138.018C137.539 140.386 137.641 142.95 139.129 144.794C139.411 145.145 139.756 145.472 140.188 145.608C140.528 145.715 140.894 145.694 141.252 145.673C146.307 145.367 151.361 145.061 156.416 144.755C154.774 135.043 153.131 125.329 151.489 115.617C155.432 120.512 159.373 125.407 163.316 130.303C164.985 125.933 166.65 121.564 168.319 117.192C168.517 116.669 168.721 116.119 168.646 115.565C168.578 115.073 168.298 114.641 168.023 114.228C164.171 108.427 160.126 102.758 155.872 97.2452C153.291 93.8989 150.59 90.5709 147.159 88.1064C143.605 85.5476 139.236 84.1949 135.062 83.1877Z" fill="#FB7C85"/>
<path d="M154.392 142.714C154.4 143.052 154.141 143.337 153.861 143.523C153.346 143.86 152.727 143.989 152.117 144.072C149.359 144.446 146.495 144.007 143.975 142.827C145 144.208 146.022 145.587 147.047 146.969C147.183 147.152 147.327 147.372 147.267 147.591C147.22 147.769 147.055 147.884 146.901 147.981C146.691 148.109 146.472 148.224 146.25 148.326C145.068 148.876 143.729 149.085 142.437 148.913C139.681 148.544 137.351 146.534 134.592 146.168C133.199 145.98 131.787 146.228 130.38 146.309C128.973 146.388 127.475 146.273 126.324 145.462C126.047 145.268 125.788 145.027 125.662 144.713C125.341 143.923 125.95 143.091 126.444 142.395C126.599 142.178 126.742 141.956 126.878 141.728C127.592 140.551 128.079 139.24 128.306 137.882C129.825 137.79 131.753 137.278 133.22 136.883C135.356 136.31 137.654 135.428 139.686 136.299C140.159 136.503 140.591 136.794 141.02 137.081C144.571 139.47 148.446 141.862 152.727 141.859C153.425 141.859 154.379 142.016 154.392 142.714Z" fill="#FFB9A3"/>
<path d="M146.25 148.327C145.068 148.876 143.729 149.085 142.437 148.913C139.681 148.544 137.351 146.534 134.592 146.168C133.199 145.98 131.787 146.228 130.38 146.309C128.973 146.388 127.475 146.273 126.324 145.462C126.047 145.268 125.788 145.027 125.662 144.714C125.341 143.923 125.95 143.091 126.444 142.395C126.599 142.178 126.742 141.956 126.878 141.728C127.883 142.45 129.982 143.335 133.986 142.84C140.327 142.055 139.019 145.718 143.53 147.026C144.981 147.448 145.802 147.903 146.25 148.327Z" fill="#FF9B8D"/>
<path d="M139.003 45.175C136.31 36.4652 126.167 34.4846 118.267 36.4992C114.45 37.4725 110.851 39.5001 108.339 42.5769C105.371 46.211 104.194 50.8943 103.509 55.4415C103.062 58.4058 102.829 61.4093 102.139 64.3317C101.736 66.0376 100.836 67.542 100.227 69.1772C100.094 69.533 100.664 69.6874 100.795 69.3342C101.252 68.1045 101.927 66.9638 102.361 65.7315C103.017 63.8739 103.245 61.8201 103.506 59.8761C104.126 55.2662 104.599 50.5227 106.675 46.2869C110.334 38.8251 118.816 35.5783 126.774 36.5437C132.116 37.1899 136.781 39.9868 138.433 45.3319C138.548 45.693 139.116 45.5386 139.003 45.175Z" fill="#4E5567"/>
<path d="M119.669 58.7486C116.944 57.9271 115.582 59.0312 115.255 60.9542C114.926 62.8746 116.67 64.8682 118.615 64.8002C118.804 67.1706 119.141 69.5645 120.098 71.7413C121.052 73.9181 122.694 75.8777 124.891 76.783C127.339 77.7955 130.33 77.3272 132.354 75.6187C133.164 74.9332 133.816 74.0803 134.43 73.2143C136.308 70.5666 137.937 67.6755 138.651 64.5071C139.364 61.3388 139.082 57.8538 137.364 55.0988C137.178 54.8006 136.961 54.4997 136.648 54.3401C136.2 54.1125 135.664 54.2223 135.181 54.3479C129.956 55.7241 125.069 58.7643 119.669 58.7486Z" fill="#FFB9A3"/>
<path d="M139.929 47.2184C140.319 48.6025 140.711 50.0127 140.656 51.449C140.601 52.8854 140.021 54.3767 138.828 55.1799C137.877 55.8209 136.679 55.9439 135.594 56.3128C133.395 57.0584 131.695 58.78 129.98 60.3472C128.356 61.8306 126.316 63.3089 124.161 62.8772C122.179 62.4795 120.869 60.5931 120.061 58.7381C119.627 57.7439 119.272 56.6398 119.525 55.5854C119.672 54.9785 120.012 54.4343 120.388 53.9372C122.556 51.0906 126.073 49.5234 129.606 48.9792C133.141 48.435 136.744 48.8013 140.301 49.1702L139.929 47.2184Z" fill="#3F4553"/>
<path d="M120.111 58.8454C120.874 63.3324 126 65.5615 129.765 62.9216C131.554 61.6684 132.707 59.7611 134.268 58.2672C135.926 56.6817 138.818 55.9962 139.278 53.4557C139.346 53.0842 138.778 52.9272 138.711 53.2988C138.297 55.5671 135.654 56.2212 134.119 57.6C132.882 58.7119 131.927 60.0934 130.764 61.2786C129.211 62.8615 127.208 63.8609 124.948 63.369C122.647 62.8667 121.063 60.9568 120.676 58.6884C120.615 58.3169 120.048 58.4765 120.111 58.8454Z" fill="#4E5567"/>
<path d="M218.52 154.294C218.48 154.373 218.439 154.451 218.397 154.53C218.376 154.574 218.352 154.616 218.329 154.661C218.198 154.912 218.059 155.163 217.913 155.409L107.366 166.706L99.5002 167.51L99.5028 167.559L99.6728 171.097L99.9029 175.908L114.878 174.131L210.586 162.782C210.356 162.928 210.123 163.07 209.885 163.208C209.362 163.52 208.821 163.821 208.264 164.111L99.4688 177.012C99.4505 177.015 99.4296 177.017 99.4087 177.017C99.2858 177.017 99.1655 176.973 99.0714 176.892C98.9589 176.8 98.8936 176.664 98.8857 176.518L98.4333 167.065C98.4281 166.965 98.4516 166.871 98.4961 166.79C98.5745 166.644 98.7236 166.536 98.9014 166.518L218.52 154.294Z" fill="#6737C3"/>
<path d="M99.4688 167.141C99.4191 167.389 99.1994 167.562 98.9563 167.562C98.9223 167.562 98.8883 167.559 98.8543 167.554L98.5065 167.486L58.4202 159.553V159.551L57.9181 159.454L57.9155 159.451C57.688 159.179 57.4527 158.904 57.2095 158.627C57.3115 158.428 57.5363 158.31 57.7717 158.358L99.0556 166.526C99.3406 166.583 99.5237 166.858 99.4688 167.141Z" fill="#6737C3"/>
<path d="M99.9211 176.601C99.8688 176.847 99.6518 177.017 99.4086 177.017C99.3746 177.017 99.338 177.012 99.3014 177.007L64.6593 169.78C64.4789 169.43 64.2985 169.084 64.1154 168.739C64.0867 168.687 64.0605 168.634 64.0317 168.582L98.836 175.84L99.5158 175.981C99.7982 176.041 99.9787 176.319 99.9211 176.601Z" fill="#6737C3"/>
<path d="M84.3678 148.818C84.3756 149.106 84.1507 149.349 83.8605 149.357L49.0275 150.467C48.6823 150.132 48.3424 149.794 48.0024 149.452L59.9734 149.07L60.5199 149.051L61.8195 149.012L70.5402 148.735L80.2258 148.426L83.8291 148.311C83.8605 148.311 83.8892 148.311 83.918 148.316C84.1638 148.35 84.3573 148.559 84.3678 148.818Z" fill="#6737C3"/>
<path d="M190.788 84.1089C191.144 82.6046 190.215 81.0958 188.711 80.7389C187.208 80.3821 185.7 81.3123 185.343 82.8167C184.986 84.3211 185.916 85.8299 187.42 86.1867C188.923 86.5435 190.431 85.6133 190.788 84.1089Z" fill="#D9A5B5"/>
<path d="M188.067 89.4538C184.767 89.4538 182.081 86.7669 182.081 83.465C182.081 80.1632 184.767 77.4763 188.067 77.4763C191.367 77.4763 194.052 80.1632 194.052 83.465C194.055 86.7669 191.369 89.4538 188.067 89.4538ZM188.067 77.7353C184.91 77.7353 182.343 80.3045 182.343 83.4624C182.343 86.6203 184.91 89.1896 188.067 89.1896C191.223 89.1896 193.791 86.6203 193.791 83.4624C193.793 80.3045 191.225 77.7353 188.067 77.7353Z" fill="#D9A5B5"/>
<path d="M150.611 52.9456C151.189 52.9456 151.657 52.477 151.657 51.899C151.657 51.3211 151.189 50.8525 150.611 50.8525C150.033 50.8525 149.565 51.3211 149.565 51.899C149.565 52.477 150.033 52.9456 150.611 52.9456Z" fill="#D9A5B5"/>
<path d="M50.7743 96.102C48.6406 96.102 46.9043 94.3648 46.9043 92.2298C46.9043 90.0949 48.6406 88.3576 50.7743 88.3576C52.9081 88.3576 54.6444 90.0949 54.6444 92.2298C54.6444 94.3648 52.9081 96.102 50.7743 96.102ZM50.7743 88.8809C48.9282 88.8809 47.4273 90.3827 47.4273 92.2298C47.4273 94.077 48.9282 95.5787 50.7743 95.5787C52.6205 95.5787 54.1214 94.077 54.1214 92.2298C54.1214 90.3827 52.6205 88.8809 50.7743 88.8809Z" fill="#D9A5B5"/>
<path d="M83.4106 50.8524C83.4106 51.7263 82.702 52.4353 81.8286 52.4353C80.9552 52.4353 80.2466 51.7263 80.2466 50.8524C80.2466 49.9786 80.9552 49.2696 81.8286 49.2696C82.7046 49.2722 83.4106 49.9786 83.4106 50.8524Z" fill="#D9A5B5"/>
<path d="M231.121 114.563L226.009 126.072L220.58 138.301L219.121 141.584L214.998 150.87L153.124 152.526L156.432 144.729L170.795 110.879C171.577 109.04 173.324 107.794 175.317 107.653C182.463 107.156 200.027 106.073 214.339 106.348C219.072 106.436 223.452 106.677 226.977 107.135C228.221 107.297 229.285 107.87 230.075 108.689C231.519 110.175 232.052 112.47 231.121 114.563Z" fill="#FEECD6"/>
<path d="M151.197 152.62L150.71 152.429L154.018 144.028L168.385 109.838C169.208 107.881 171.026 106.57 173.128 106.421C180.091 105.932 197.836 104.825 212.174 105.102C217.286 105.199 221.545 105.468 224.84 105.9C226.098 106.065 227.222 106.635 228.093 107.548C229.691 109.21 230.122 111.651 229.189 113.767L217.189 141.056L216.71 140.844L228.71 113.556C229.557 111.635 229.165 109.419 227.714 107.909C226.924 107.083 225.907 106.567 224.77 106.418C221.496 105.989 217.252 105.722 212.161 105.625C197.844 105.348 180.118 106.455 173.162 106.944C171.258 107.08 169.611 108.268 168.863 110.042L154.499 144.227L151.197 152.62Z" fill="#FEECD6"/>
<path d="M198.622 131.546C201.197 129.174 202 125.855 200.416 124.132C198.831 122.41 195.459 122.937 192.883 125.31C190.308 127.682 189.505 131.001 191.089 132.723C192.674 134.445 196.046 133.918 198.622 131.546Z" fill="#B29EEF"/>
<path d="M152.264 116.517C151.035 114.084 149.406 111.858 148.43 109.299C148.252 108.83 147.494 109.035 147.675 109.508C148.679 112.135 150.326 114.416 151.589 116.915C151.814 117.365 152.491 116.967 152.264 116.517Z" fill="white"/>
<path d="M141.508 140.582C143.151 144.237 148.71 144.857 152.114 144.462C152.611 144.405 152.617 143.62 152.114 143.677C148.979 144.041 143.713 143.588 142.186 140.187C141.979 139.727 141.302 140.127 141.508 140.582Z" fill="white"/>
<path d="M128.688 137.482C128.262 130.342 127.59 123.218 126.672 116.125C125.929 110.379 125.228 104.608 123.829 98.9747C123.131 96.1647 122.258 93.3966 121.144 90.7201C120.09 88.1849 118.369 85.4194 119.439 82.5912C116.636 84.6058 114.79 85.4299 111.576 86.6857C108.987 87.6983 106.299 88.4465 103.734 89.5192C102.243 90.1419 100.782 90.8823 99.5657 91.9446C98.1903 93.1455 97.181 94.7048 96.237 96.2668C95.1701 98.0328 94.1581 99.8354 93.29 101.709C91.8963 104.715 90.8817 107.878 89.7233 110.981C87.6523 116.522 85.1132 121.883 82.3362 127.108C80.5842 130.405 78.7015 133.751 78.2099 137.453C77.7183 141.155 78.9761 145.367 82.2185 147.215C83.6986 148.057 85.4322 148.329 87.1319 148.457C99.5448 149.386 111.312 147.68 125.341 145.857C125.725 145.807 124.982 146.003 125.341 145.857C125.754 145.689 125.992 145.268 126.188 144.868C127.32 142.555 128.523 140.056 128.688 137.482Z" fill="#FB7C85"/>
<path d="M108.43 116.423C106.511 121.229 104.929 126.156 103.684 131.179C103.632 131.391 103.752 131.598 103.959 131.663C110.564 133.735 117.509 134.026 124.261 135.394C125.178 135.58 128.029 135.828 128.235 136.851C128.379 137.568 128.068 138.557 127.922 139.253C127.409 141.699 126.53 144.242 124.818 146.113C124.478 146.485 125.029 147.042 125.372 146.668C127.145 144.729 128.099 142.136 128.646 139.604C128.941 138.238 129.637 136.26 128.039 135.535C126.34 134.763 124.169 134.557 122.341 134.243C120.364 133.903 118.377 133.631 116.39 133.353C112.266 132.778 108.148 132.158 104.165 130.907C104.257 131.067 104.348 131.229 104.44 131.391C105.682 126.365 107.266 121.441 109.186 116.635C109.371 116.164 108.613 115.96 108.43 116.423Z" fill="white"/>
<path d="M104.008 130.904C101.838 131.232 99.7645 131.852 97.7641 132.746C97.3039 132.953 97.7013 133.628 98.1589 133.424C100.099 132.555 102.115 131.977 104.218 131.661C104.714 131.587 104.503 130.829 104.008 130.904Z" fill="white"/>
<path d="M131.109 90.5685C129.268 91.2356 127.229 91.0315 125.307 90.6469C123.4 90.265 121.34 89.5795 120.362 87.8972C119.128 85.7806 120.124 83.1381 120.712 80.7598C121.468 77.7222 121.497 74.5068 120.801 71.4561L128.029 72.8506L130.481 73.3242C130.416 76.4769 131.221 79.6426 132.788 82.3793C132.937 82.6383 133.091 82.8947 133.243 83.1538C133.813 84.114 134.362 85.0951 134.419 86.1939C134.524 88.151 132.953 89.9013 131.109 90.5685Z" fill="#FFB9A3"/>
<path d="M133.243 83.1537C126.478 82.6566 123.9 77.9498 123.047 75.6893C123.607 76.1367 124.224 76.5082 124.891 76.7829C126.747 77.5495 128.915 77.4658 130.735 76.639C131.078 78.6536 131.773 80.6054 132.788 82.3793C132.937 82.6383 133.091 82.8947 133.243 83.1537Z" fill="#FF9B8D"/>
<mask id="path-46-inside-1" fill="white">
<path d="M188.066 64.46C179.788 64.46 173.052 57.7203 173.052 49.437C173.052 41.1537 179.788 34.414 188.066 34.414C196.345 34.414 203.081 41.1537 203.081 49.437C203.081 57.7203 196.348 64.46 188.066 64.46ZM188.066 34.6757C179.932 34.6757 173.313 41.2976 173.313 49.437C173.313 57.5764 179.932 64.1984 188.066 64.1984C196.201 64.1984 202.82 57.5764 202.82 49.437C202.82 41.2976 196.201 34.6757 188.066 34.6757Z"/>
</mask>
<path d="M188.066 64.46C179.788 64.46 173.052 57.7203 173.052 49.437C173.052 41.1537 179.788 34.414 188.066 34.414C196.345 34.414 203.081 41.1537 203.081 49.437C203.081 57.7203 196.348 64.46 188.066 64.46ZM188.066 34.6757C179.932 34.6757 173.313 41.2976 173.313 49.437C173.313 57.5764 179.932 64.1984 188.066 64.1984C196.201 64.1984 202.82 57.5764 202.82 49.437C202.82 41.2976 196.201 34.6757 188.066 34.6757Z" fill="#F9F7F1"/>
<path d="M188.066 59.46C182.552 59.46 178.052 54.9615 178.052 49.437H168.052C168.052 60.4792 177.024 69.46 188.066 69.46V59.46ZM178.052 49.437C178.052 43.9125 182.552 39.414 188.066 39.414V29.414C177.024 29.414 168.052 38.3949 168.052 49.437H178.052ZM188.066 39.414C193.581 39.414 198.081 43.9125 198.081 49.437H208.081C208.081 38.3949 199.109 29.414 188.066 29.414V39.414ZM198.081 49.437C198.081 54.9621 193.583 59.46 188.066 59.46V69.46C199.112 69.46 208.081 60.4786 208.081 49.437H198.081ZM188.066 29.6757C177.168 29.6757 168.313 38.5388 168.313 49.437H178.313C178.313 44.0564 182.696 39.6757 188.066 39.6757V29.6757ZM168.313 49.437C168.313 60.3353 177.168 69.1984 188.066 69.1984V59.1984C182.696 59.1984 178.313 54.8176 178.313 49.437H168.313ZM188.066 69.1984C198.965 69.1984 207.82 60.3353 207.82 49.437H197.82C197.82 54.8176 193.437 59.1984 188.066 59.1984V69.1984ZM207.82 49.437C207.82 38.5388 198.965 29.6757 188.066 29.6757V39.6757C193.437 39.6757 197.82 44.0564 197.82 49.437H207.82Z" fill="#F9F7F1" mask="url(#path-46-inside-1)"/>
<mask id="path-48-inside-2" fill="white">
<path d="M187.91 49.5888L189.881 37.9985L190.14 38.043L188.229 49.2853C190.734 48.9688 194.392 48.4769 194.646 48.3539L194.693 48.4533L194.714 48.456L194.81 48.3591L194.844 48.5004C194.813 48.5946 194.769 48.7254 188.087 49.5653L187.91 49.5888Z"/>
</mask>
<path d="M187.91 49.5888L189.881 37.9985L190.14 38.043L188.229 49.2853C190.734 48.9688 194.392 48.4769 194.646 48.3539L194.693 48.4533L194.714 48.456L194.81 48.3591L194.844 48.5004C194.813 48.5946 194.769 48.7254 188.087 49.5653L187.91 49.5888Z" fill="#F9F7F1"/>
<path d="M187.91 49.5888L182.98 48.7503L181.843 55.4359L188.566 54.5455L187.91 49.5888ZM189.881 37.9985L190.728 33.0707L185.792 32.2226L184.952 37.16L189.881 37.9985ZM190.14 38.043L195.069 38.881L195.906 33.9603L190.987 33.1152L190.14 38.043ZM188.229 49.2853L183.299 48.4472L182.17 55.0908L188.856 54.2459L188.229 49.2853ZM194.646 48.3539L199.165 46.2145L197.005 41.6533L192.464 43.8548L194.646 48.3539ZM194.693 48.4533L190.174 50.5927L191.348 53.074L194.072 53.4147L194.693 48.4533ZM194.714 48.456L194.093 53.4173L196.521 53.7209L198.25 51.9905L194.714 48.456ZM194.81 48.3591L199.672 47.1895L197.584 38.5113L191.274 44.8246L194.81 48.3591ZM194.844 48.5004L199.588 50.0808L200.041 48.7226L199.706 47.3307L194.844 48.5004ZM188.087 49.5653L187.464 44.6043L187.447 44.6064L187.431 44.6086L188.087 49.5653ZM192.839 50.4273L194.81 38.837L184.952 37.16L182.98 48.7503L192.839 50.4273ZM189.035 42.9263L189.294 42.9707L190.987 33.1152L190.728 33.0707L189.035 42.9263ZM185.211 37.2049L183.299 48.4472L193.158 50.1234L195.069 38.881L185.211 37.2049ZM188.856 54.2459C190.122 54.0858 191.689 53.8804 192.981 53.6979C193.622 53.6072 194.224 53.5184 194.696 53.4412C194.926 53.4035 195.166 53.362 195.38 53.3192C195.484 53.2985 195.628 53.2683 195.783 53.2291C195.805 53.2235 196.295 53.1107 196.827 52.8531L192.464 43.8548C192.78 43.7017 193.037 43.6204 193.11 43.5974C193.218 43.5635 193.299 43.5424 193.336 43.5332C193.408 43.5149 193.445 43.5082 193.419 43.5133C193.375 43.5222 193.268 43.5418 193.081 43.5724C192.717 43.632 192.2 43.7089 191.582 43.7962C190.355 43.9695 188.84 44.1683 187.602 44.3248L188.856 54.2459ZM190.126 50.4933L190.174 50.5927L199.212 46.3139L199.165 46.2145L190.126 50.4933ZM194.072 53.4147L194.093 53.4173L195.334 43.4946L195.313 43.492L194.072 53.4147ZM198.25 51.9905L198.347 51.8937L191.274 44.8246L191.177 44.9214L198.25 51.9905ZM189.949 49.5288L189.983 49.6701L199.706 47.3307L199.672 47.1895L189.949 49.5288ZM190.101 46.9201C190.09 46.9514 190.227 46.5001 190.513 46.0076C190.83 45.4618 191.225 45.0213 191.639 44.6804C192.329 44.1119 192.988 43.8947 193.097 43.8574C193.394 43.7559 193.527 43.7526 193.094 43.8288C192.379 43.9544 190.811 44.1836 187.464 44.6043L188.711 54.5262C192.045 54.1071 193.839 53.851 194.825 53.6777C195.242 53.6044 195.81 53.4983 196.333 53.3195C196.555 53.2436 197.275 52.9941 197.999 52.3972C198.43 52.042 198.836 51.5883 199.16 51.0297C199.312 50.7687 199.416 50.5351 199.487 50.3585C199.521 50.2731 199.546 50.2022 199.562 50.1558C199.571 50.1325 199.577 50.1133 199.581 50.1012C199.583 50.095 199.585 50.0899 199.586 50.0866C199.587 50.0835 199.588 50.0809 199.588 50.0808L190.101 46.9201ZM187.431 44.6086L187.253 44.6321L188.566 54.5455L188.744 54.522L187.431 44.6086Z" fill="#F9F7F1" mask="url(#path-48-inside-2)"/>
<path d="M238.858 70.1401C238.254 68.3453 237.501 66.5243 236.107 65.2423C233.461 62.8065 229.071 63.076 226.129 65.1481C223.187 67.2202 221.506 70.679 220.627 74.1666C219.822 79.7211 220.026 83.6561 221.699 89.5009C222.515 92.3475 223.77 95.1731 225.961 97.1668C228.153 99.1604 231.434 100.152 234.17 99.0192C236.779 97.9386 238.348 95.2464 239.3 92.5882C241.873 85.409 241.287 77.3664 238.858 70.1401Z" fill="#D196A8"/>
<path d="M105.969 114.662C106.422 115.023 106.751 115.502 107.183 115.884C107.593 116.248 108.069 116.522 108.545 116.792C108.987 117.04 109.382 116.363 108.94 116.114C108.474 115.853 108.004 115.591 107.617 115.22C107.24 114.856 106.934 114.435 106.524 114.108C106.131 113.796 105.574 114.348 105.969 114.662Z" fill="white"/>
<path d="M148.404 109.665C148.945 108.896 149.468 108.113 149.973 107.321C150.245 106.894 149.568 106.499 149.296 106.926C148.791 107.718 148.268 108.501 147.727 109.27C147.437 109.683 148.116 110.076 148.404 109.665Z" fill="white"/>
<path d="M118.56 65.0643C118.874 68.9051 119.802 74.3105 123.419 76.4637C125.066 77.4448 127.273 78.146 129.198 77.8268C131.151 77.5024 132.573 76.0556 133.761 74.5799C133.996 74.2869 133.583 73.8683 133.345 74.1639C132.226 75.5558 130.921 76.9373 129.077 77.2355C127.187 77.5416 124.909 76.7881 123.348 75.7259C120.257 73.6224 119.434 68.5127 119.151 65.067C119.117 64.6876 118.529 64.685 118.56 65.0643Z" fill="#FF9B8D"/>
<path d="M105.025 157.502H93.5196L91.1191 141.906H107.679L105.025 157.502Z" fill="white"/>
<path d="M99.2567 159.435C102.443 159.435 105.025 158.57 105.025 157.502C105.025 156.434 102.443 155.568 99.2567 155.568C96.0709 155.568 93.4883 156.434 93.4883 157.502C93.4883 158.57 96.0709 159.435 99.2567 159.435Z" fill="white"/>
<path d="M99.4005 143.84C103.974 143.84 107.682 142.974 107.682 141.906C107.682 140.838 103.974 139.973 99.4005 139.973C94.8268 139.973 91.1191 140.838 91.1191 141.906C91.1191 142.974 94.8268 143.84 99.4005 143.84Z" fill="white"/>
<path d="M99.4008 143.515C103.205 143.515 106.288 142.795 106.288 141.906C106.288 141.017 103.205 140.297 99.4008 140.297C95.5969 140.297 92.5132 141.017 92.5132 141.906C92.5132 142.795 95.5969 143.515 99.4008 143.515Z" fill="#400F58"/>
<path d="M92.2047 143.56C89.4853 143.941 86.7631 144.323 84.0437 144.708C83.4265 144.794 83.3324 145.639 83.6985 146.019C85.5655 147.978 87.4273 149.943 89.3022 151.895C90.9182 153.58 92.5813 155.197 94.6131 156.372C95.489 156.879 96.2787 155.524 95.4054 155.016C93.3553 153.829 91.7236 152.157 90.0997 150.456C88.3347 148.609 86.5723 146.757 84.8098 144.907C84.6948 145.344 84.5797 145.781 84.4647 146.218C87.1841 145.836 89.9062 145.454 92.6257 145.069C93.6168 144.933 93.1932 143.421 92.2047 143.56Z" fill="white"/>
<path d="M97.2723 141.867C97.0265 141.563 96.7964 141.239 96.6003 140.899C96.3022 140.389 96.2394 140.313 96.4381 139.734C96.6369 139.154 97.0997 138.97 97.4318 138.494C97.79 137.984 97.9155 137.369 97.5233 136.841C97.0709 136.234 96.1453 136.079 95.4471 136.168C95.2797 136.189 95.1202 136.242 94.9607 136.286C94.4508 136.425 93.5199 136.323 93.1721 135.82C92.6518 135.07 93.9749 133.963 94.4744 133.515C94.7568 133.262 94.341 132.846 94.0586 133.099C93.2793 133.798 92.3824 134.52 92.5446 135.677C92.6753 136.611 93.282 137.212 94.2312 137.102C94.9398 137.019 97.9574 136.103 96.9663 138.06C96.6604 138.664 95.923 138.879 95.6877 139.533C95.3425 140.493 96.3048 141.6 96.8565 142.283C97.0945 142.578 97.5076 142.16 97.2723 141.867Z" fill="white"/>
<path d="M99.8741 140.844C99.5577 140.486 99.0557 139.991 98.9903 139.481C98.8569 138.434 99.5839 138.406 100.062 137.956C100.308 137.725 100.481 137.506 100.515 137.165C100.622 136.043 99.3355 135.928 98.6216 135.522C96.5061 134.319 97.5547 132.061 98.5484 130.549C99.2361 129.505 99.8402 128.497 99.7617 127.205C99.7382 126.828 99.1498 126.826 99.1733 127.205C99.3512 130.065 95.1934 132.27 97.4083 135.221C97.7796 135.716 98.2163 135.978 98.7707 136.218C99.5133 136.543 99.9238 137.032 99.2701 137.796C99.1263 137.963 98.8779 138.037 98.7236 138.22C97.8607 139.248 98.7419 140.454 99.4558 141.26C99.7094 141.543 100.125 141.127 99.8741 140.844Z" fill="white"/>
<path d="M102.295 141.299C102.075 140.828 101.767 140.297 102.261 139.852C102.394 139.735 102.593 139.698 102.747 139.619C103.056 139.46 103.289 139.269 103.399 138.929C103.623 138.233 103.166 137.6 102.51 137.406C102.146 137.299 101.989 137.867 102.353 137.974C102.813 138.11 103.066 138.68 102.606 139.036C102.499 139.12 102.243 139.185 102.112 139.261C101.892 139.384 101.699 139.523 101.568 139.742C101.202 140.344 101.518 141.027 101.785 141.6C101.947 141.938 102.455 141.639 102.295 141.299Z" fill="white"/>
<rect x="196" y="250" width="55" height="55" rx="27.5" fill="#E6E7F2"/>
<path d="M214.151 276.5L229.427 276.5L223.016 269.911L224.391 268.5L232.622 276.933C232.925 277.244 232.925 277.744 232.622 278.056L224.391 286.5L223.016 285.089L229.427 278.5L214.151 278.5L214.151 277.5L214.151 276.5Z" fill="#3F414E"/>
</svg>
