<svg width="609" height="103" viewBox="0 0 609 103" fill="none" xmlns="http://www.w3.org/2000/svg">
<rect y="0.522217" width="608.36" height="102.478" rx="38" fill="#8E97FD"/>
<path d="M267.2 44.864H272.984C273.688 44.864 274.336 44.936 274.928 45.08C275.536 45.224 276.056 45.464 276.488 45.8C276.92 46.136 277.256 46.584 277.496 47.144C277.736 47.704 277.856 48.392 277.856 49.208C277.856 50.136 277.64 50.936 277.208 51.608C276.776 52.264 276.128 52.712 275.264 52.952V53C276.224 53.128 276.984 53.536 277.544 54.224C278.104 54.912 278.384 55.832 278.384 56.984C278.384 57.656 278.296 58.296 278.12 58.904C277.944 59.512 277.64 60.048 277.208 60.512C276.792 60.96 276.24 61.32 275.552 61.592C274.88 61.864 274.04 62 273.032 62H267.2V44.864ZM272 59.456C272.832 59.456 273.504 59.272 274.016 58.904C274.528 58.536 274.784 57.856 274.784 56.864C274.784 56.368 274.712 55.96 274.568 55.64C274.44 55.304 274.256 55.04 274.016 54.848C273.792 54.64 273.52 54.496 273.2 54.416C272.88 54.336 272.528 54.296 272.144 54.296H270.656V59.456H272ZM271.64 51.896C272.6 51.896 273.296 51.728 273.728 51.392C274.176 51.04 274.4 50.456 274.4 49.64C274.4 48.824 274.2 48.248 273.8 47.912C273.4 47.576 272.768 47.408 271.904 47.408H270.656V51.896H271.64ZM286.296 62.264C285.304 62.264 284.48 62.128 283.824 61.856C283.168 61.584 282.648 61.168 282.264 60.608C281.88 60.048 281.608 59.352 281.448 58.52C281.288 57.672 281.208 56.68 281.208 55.544C281.208 54.44 281.296 53.464 281.472 52.616C281.648 51.768 281.936 51.064 282.336 50.504C282.736 49.928 283.256 49.496 283.896 49.208C284.552 48.904 285.352 48.752 286.296 48.752C287.288 48.752 288.112 48.896 288.768 49.184C289.424 49.472 289.944 49.896 290.328 50.456C290.712 51.016 290.984 51.728 291.144 52.592C291.304 53.44 291.384 54.424 291.384 55.544C291.384 56.664 291.296 57.648 291.12 58.496C290.944 59.328 290.656 60.024 290.256 60.584C289.856 61.144 289.328 61.568 288.672 61.856C288.032 62.128 287.24 62.264 286.296 62.264ZM286.296 60.08C286.968 60.08 287.432 59.728 287.688 59.024C287.944 58.32 288.072 57.16 288.072 55.544C288.072 53.928 287.944 52.768 287.688 52.064C287.432 51.36 286.968 51.008 286.296 51.008C285.88 51.008 285.552 51.12 285.312 51.344C285.088 51.568 284.912 51.88 284.784 52.28C284.672 52.68 284.6 53.16 284.568 53.72C284.536 54.28 284.52 54.888 284.52 55.544C284.52 56.2 284.536 56.808 284.568 57.368C284.6 57.928 284.672 58.408 284.784 58.808C284.912 59.208 285.088 59.52 285.312 59.744C285.552 59.968 285.88 60.08 286.296 60.08ZM294.371 49.088H297.491V57.224L300.995 49.088H304.499V62H301.355V53.912L297.851 62H294.371V49.088ZM299.291 47.504C298.251 47.504 297.435 47.208 296.843 46.616C296.267 46.024 295.963 45.2 295.931 44.144H297.515C297.579 44.624 297.771 45 298.091 45.272C298.411 45.544 298.811 45.68 299.291 45.68C299.771 45.68 300.171 45.544 300.491 45.272C300.811 45 301.003 44.624 301.067 44.144H302.651C302.619 45.2 302.307 46.024 301.715 46.616C301.139 47.208 300.331 47.504 299.291 47.504ZM310.179 51.584H306.891V49.088H316.755V51.584H313.467V62H310.179V51.584ZM319.154 49.088H322.274V57.224L325.778 49.088H329.282V62H326.138V53.912L322.634 62H319.154V49.088Z" fill="#F6F1FB"/>
</svg>
