<svg width="609" height="103" viewBox="0 0 609 103" fill="none" xmlns="http://www.w3.org/2000/svg">
<rect x="0.5" y="0.5" width="607.36" height="101.478" rx="37.5" stroke="#D1D1D1"/>
<path d="M206.2 44.864H211.984C212.688 44.864 213.336 44.936 213.928 45.08C214.536 45.224 215.056 45.464 215.488 45.8C215.92 46.136 216.256 46.584 216.496 47.144C216.736 47.704 216.856 48.392 216.856 49.208C216.856 50.136 216.64 50.936 216.208 51.608C215.776 52.264 215.128 52.712 214.264 52.952V53C215.224 53.128 215.984 53.536 216.544 54.224C217.104 54.912 217.384 55.832 217.384 56.984C217.384 57.656 217.296 58.296 217.12 58.904C216.944 59.512 216.64 60.048 216.208 60.512C215.792 60.96 215.24 61.32 214.552 61.592C213.88 61.864 213.04 62 212.032 62H206.2V44.864ZM211 59.456C211.832 59.456 212.504 59.272 213.016 58.904C213.528 58.536 213.784 57.856 213.784 56.864C213.784 56.368 213.712 55.96 213.568 55.64C213.44 55.304 213.256 55.04 213.016 54.848C212.792 54.64 212.52 54.496 212.2 54.416C211.88 54.336 211.528 54.296 211.144 54.296H209.656V59.456H211ZM210.64 51.896C211.6 51.896 212.296 51.728 212.728 51.392C213.176 51.04 213.4 50.456 213.4 49.64C213.4 48.824 213.2 48.248 212.8 47.912C212.4 47.576 211.768 47.408 210.904 47.408H209.656V51.896H210.64ZM225.296 62.264C224.304 62.264 223.48 62.128 222.824 61.856C222.168 61.584 221.648 61.168 221.264 60.608C220.88 60.048 220.608 59.352 220.448 58.52C220.288 57.672 220.208 56.68 220.208 55.544C220.208 54.44 220.296 53.464 220.472 52.616C220.648 51.768 220.936 51.064 221.336 50.504C221.736 49.928 222.256 49.496 222.896 49.208C223.552 48.904 224.352 48.752 225.296 48.752C226.288 48.752 227.112 48.896 227.768 49.184C228.424 49.472 228.944 49.896 229.328 50.456C229.712 51.016 229.984 51.728 230.144 52.592C230.304 53.44 230.384 54.424 230.384 55.544C230.384 56.664 230.296 57.648 230.12 58.496C229.944 59.328 229.656 60.024 229.256 60.584C228.856 61.144 228.328 61.568 227.672 61.856C227.032 62.128 226.24 62.264 225.296 62.264ZM225.296 60.08C225.968 60.08 226.432 59.728 226.688 59.024C226.944 58.32 227.072 57.16 227.072 55.544C227.072 53.928 226.944 52.768 226.688 52.064C226.432 51.36 225.968 51.008 225.296 51.008C224.88 51.008 224.552 51.12 224.312 51.344C224.088 51.568 223.912 51.88 223.784 52.28C223.672 52.68 223.6 53.16 223.568 53.72C223.536 54.28 223.52 54.888 223.52 55.544C223.52 56.2 223.536 56.808 223.568 57.368C223.6 57.928 223.672 58.408 223.784 58.808C223.912 59.208 224.088 59.52 224.312 59.744C224.552 59.968 224.88 60.08 225.296 60.08ZM233.371 49.088H236.491V57.224L239.995 49.088H243.499V62H240.355V53.912L236.851 62H233.371V49.088ZM238.291 47.504C237.251 47.504 236.435 47.208 235.843 46.616C235.267 46.024 234.963 45.2 234.931 44.144H236.515C236.579 44.624 236.771 45 237.091 45.272C237.411 45.544 237.811 45.68 238.291 45.68C238.771 45.68 239.171 45.544 239.491 45.272C239.811 45 240.003 44.624 240.067 44.144H241.651C241.619 45.2 241.307 46.024 240.715 46.616C240.139 47.208 239.331 47.504 238.291 47.504ZM245.795 59.504H246.875C247.275 58.64 247.579 57.616 247.787 56.432C248.011 55.232 248.123 53.752 248.123 51.992V49.088H256.835V59.504H258.323V65H255.323V62H248.795V65H245.795V59.504ZM253.619 59.504V51.584H251.219V52.736C251.219 53.248 251.195 53.808 251.147 54.416C251.099 55.024 251.027 55.632 250.931 56.24C250.835 56.848 250.715 57.44 250.571 58.016C250.443 58.576 250.291 59.072 250.115 59.504H253.619ZM260.802 49.088H263.922V57.224L267.426 49.088H270.93V62H267.786V53.912L264.282 62H260.802V49.088ZM287.2 57.08C287.024 57.112 286.744 57.16 286.36 57.224C285.976 57.288 285.528 57.32 285.016 57.32C283.64 57.32 282.624 57.016 281.968 56.408C281.312 55.8 280.984 54.872 280.984 53.624V49.088H284.272V53.528C284.272 54.12 284.408 54.504 284.68 54.68C284.952 54.84 285.296 54.92 285.712 54.92C286.032 54.92 286.328 54.896 286.6 54.848C286.872 54.8 287.072 54.76 287.2 54.728V49.088H290.512V62H287.2V57.08ZM298.469 62.264C297.269 62.264 296.333 62.064 295.661 61.664C294.989 61.248 294.493 60.72 294.173 60.08C293.853 59.424 293.653 58.688 293.573 57.872C293.509 57.056 293.477 56.24 293.477 55.424C293.477 54.56 293.533 53.728 293.645 52.928C293.773 52.128 294.013 51.416 294.365 50.792C294.733 50.168 295.253 49.672 295.925 49.304C296.597 48.936 297.493 48.752 298.613 48.752C299.573 48.752 300.357 48.912 300.965 49.232C301.589 49.536 302.077 49.976 302.429 50.552C302.781 51.112 303.021 51.8 303.149 52.616C303.277 53.416 303.341 54.312 303.341 55.304V56.048H296.789V57.08C296.789 57.464 296.813 57.84 296.861 58.208C296.925 58.56 297.021 58.88 297.149 59.168C297.277 59.44 297.445 59.664 297.653 59.84C297.861 60 298.117 60.08 298.421 60.08C298.981 60.08 299.389 59.88 299.645 59.48C299.901 59.08 300.077 58.472 300.173 57.656H303.149C303.085 59.16 302.685 60.304 301.949 61.088C301.229 61.872 300.069 62.264 298.469 62.264ZM300.173 54.08C300.157 53.584 300.125 53.152 300.077 52.784C300.029 52.4 299.941 52.08 299.813 51.824C299.701 51.552 299.533 51.352 299.309 51.224C299.101 51.08 298.829 51.008 298.493 51.008C298.157 51.008 297.877 51.088 297.653 51.248C297.445 51.392 297.277 51.592 297.149 51.848C297.021 52.088 296.925 52.36 296.861 52.664C296.813 52.968 296.789 53.272 296.789 53.576V54.08H300.173ZM306.266 49.088H309.434V50.456H309.482C309.85 49.848 310.258 49.416 310.706 49.16C311.17 48.888 311.738 48.752 312.41 48.752C313.77 48.752 314.77 49.288 315.41 50.36C316.05 51.416 316.37 53.144 316.37 55.544C316.37 57.944 316.05 59.664 315.41 60.704C314.77 61.744 313.77 62.264 312.41 62.264C311.786 62.264 311.25 62.152 310.802 61.928C310.37 61.688 309.978 61.312 309.626 60.8H309.578V66.152H306.266V49.088ZM311.33 59.792C312.05 59.792 312.514 59.44 312.722 58.736C312.946 58.016 313.058 56.952 313.058 55.544C313.058 54.136 312.946 53.08 312.722 52.376C312.514 51.656 312.05 51.296 311.33 51.296C310.594 51.296 310.114 51.656 309.89 52.376C309.682 53.08 309.578 54.136 309.578 55.544C309.578 56.952 309.682 58.016 309.89 58.736C310.114 59.44 310.594 59.792 311.33 59.792ZM323.979 62.264C322.779 62.264 321.843 62.064 321.171 61.664C320.499 61.248 320.003 60.72 319.683 60.08C319.363 59.424 319.163 58.688 319.083 57.872C319.019 57.056 318.987 56.24 318.987 55.424C318.987 54.56 319.043 53.728 319.155 52.928C319.283 52.128 319.523 51.416 319.875 50.792C320.243 50.168 320.763 49.672 321.435 49.304C322.107 48.936 323.003 48.752 324.123 48.752C325.083 48.752 325.867 48.912 326.475 49.232C327.099 49.536 327.587 49.976 327.939 50.552C328.291 51.112 328.531 51.8 328.659 52.616C328.787 53.416 328.851 54.312 328.851 55.304V56.048H322.299V57.08C322.299 57.464 322.323 57.84 322.371 58.208C322.435 58.56 322.531 58.88 322.659 59.168C322.787 59.44 322.955 59.664 323.163 59.84C323.371 60 323.627 60.08 323.931 60.08C324.491 60.08 324.899 59.88 325.155 59.48C325.411 59.08 325.587 58.472 325.683 57.656H328.659C328.595 59.16 328.195 60.304 327.459 61.088C326.739 61.872 325.579 62.264 323.979 62.264ZM325.683 54.08C325.667 53.584 325.635 53.152 325.587 52.784C325.539 52.4 325.451 52.08 325.323 51.824C325.211 51.552 325.043 51.352 324.819 51.224C324.611 51.08 324.339 51.008 324.003 51.008C323.667 51.008 323.387 51.088 323.163 51.248C322.955 51.392 322.787 51.592 322.659 51.848C322.531 52.088 322.435 52.36 322.371 52.664C322.323 52.968 322.299 53.272 322.299 53.576V54.08H325.683ZM335.976 62.264C334.472 62.264 333.312 61.936 332.496 61.28C331.696 60.608 331.296 59.504 331.296 57.968V57.728H334.248V57.896C334.248 58.6 334.376 59.144 334.632 59.528C334.888 59.896 335.336 60.08 335.976 60.08C336.456 60.08 336.84 59.92 337.128 59.6C337.416 59.264 337.56 58.816 337.56 58.256C337.56 57.584 337.432 57.12 337.176 56.864C336.92 56.592 336.512 56.456 335.952 56.456C335.872 56.456 335.704 56.456 335.448 56.456C335.208 56.456 335 56.464 334.824 56.48V54.176C334.952 54.192 335.136 54.2 335.376 54.2C335.616 54.2 335.768 54.2 335.832 54.2C336.248 54.2 336.6 54.072 336.888 53.816C337.192 53.544 337.344 53.08 337.344 52.424C337.344 51.928 337.216 51.56 336.96 51.32C336.704 51.064 336.368 50.936 335.952 50.936C335.392 50.936 335 51.096 334.776 51.416C334.552 51.736 334.44 52.168 334.44 52.712V52.88H331.512V52.664C331.512 51.944 331.624 51.336 331.848 50.84C332.072 50.344 332.384 49.944 332.784 49.64C333.2 49.32 333.688 49.096 334.248 48.968C334.824 48.824 335.448 48.752 336.12 48.752C337.624 48.752 338.736 49.064 339.456 49.688C340.176 50.296 340.536 51.152 340.536 52.256C340.536 52.576 340.496 52.896 340.416 53.216C340.336 53.52 340.216 53.808 340.056 54.08C339.896 54.336 339.696 54.56 339.456 54.752C339.216 54.944 338.936 55.088 338.616 55.184C339.336 55.328 339.888 55.656 340.272 56.168C340.672 56.664 340.872 57.344 340.872 58.208C340.872 58.896 340.752 59.496 340.512 60.008C340.288 60.52 339.96 60.944 339.528 61.28C339.096 61.616 338.576 61.864 337.968 62.024C337.376 62.184 336.712 62.264 335.976 62.264ZM358.661 49.952H361.973C361.973 48.208 361.557 46.872 360.725 45.944C359.893 45 358.533 44.528 356.645 44.528C355.541 44.528 354.621 44.712 353.885 45.08C353.149 45.448 352.557 46 352.109 46.736C351.661 47.456 351.341 48.36 351.149 49.448C350.973 50.536 350.885 51.8 350.885 53.24C350.885 54.728 350.949 56.04 351.077 57.176C351.205 58.296 351.453 59.24 351.821 60.008C352.205 60.776 352.725 61.344 353.381 61.712C354.053 62.08 354.917 62.264 355.973 62.264C356.789 62.264 357.485 62.128 358.061 61.856C358.653 61.568 359.157 61.088 359.573 60.416H359.621V62H362.165V52.76H356.573V55.304H358.853V57.056C358.853 57.52 358.781 57.928 358.637 58.28C358.493 58.616 358.309 58.896 358.085 59.12C357.877 59.344 357.645 59.512 357.389 59.624C357.149 59.736 356.925 59.792 356.717 59.792C356.221 59.792 355.813 59.64 355.493 59.336C355.189 59.016 354.949 58.568 354.773 57.992C354.613 57.4 354.501 56.688 354.437 55.856C354.373 55.024 354.341 54.096 354.341 53.072C354.341 50.928 354.525 49.392 354.893 48.464C355.261 47.536 355.861 47.072 356.693 47.072C357.045 47.072 357.341 47.168 357.581 47.36C357.837 47.536 358.045 47.768 358.205 48.056C358.365 48.328 358.477 48.632 358.541 48.968C358.621 49.304 358.661 49.632 358.661 49.952ZM368.373 55.544C368.373 54.888 368.389 54.28 368.421 53.72C368.453 53.16 368.525 52.68 368.637 52.28C368.765 51.88 368.949 51.568 369.189 51.344C369.429 51.12 369.749 51.008 370.149 51.008C370.821 51.008 371.285 51.36 371.541 52.064C371.797 52.768 371.925 53.928 371.925 55.544C371.925 57.16 371.797 58.32 371.541 59.024C371.285 59.728 370.821 60.08 370.149 60.08C369.749 60.08 369.429 59.968 369.189 59.744C368.949 59.52 368.765 59.208 368.637 58.808C368.525 58.408 368.453 57.928 368.421 57.368C368.389 56.808 368.373 56.2 368.373 55.544ZM365.061 55.544C365.061 56.664 365.141 57.656 365.301 58.52C365.461 59.368 365.733 60.08 366.117 60.656C366.501 61.216 367.021 61.632 367.677 61.904C368.333 62.16 369.157 62.28 370.149 62.264C371.093 62.264 371.885 62.128 372.525 61.856C373.181 61.584 373.709 61.168 374.109 60.608C374.509 60.032 374.797 59.32 374.973 58.472C375.149 57.624 375.237 56.648 375.237 55.544C375.237 54.408 375.157 53.416 374.997 52.568C374.837 51.72 374.565 51.008 374.181 50.432C373.797 49.856 373.277 49.432 372.621 49.16C371.965 48.872 371.141 48.736 370.149 48.752C369.205 48.752 368.405 48.904 367.749 49.208C367.109 49.496 366.589 49.928 366.189 50.504C365.789 51.064 365.501 51.768 365.325 52.616C365.149 53.464 365.061 54.44 365.061 55.544ZM381.104 55.544C381.104 54.888 381.12 54.28 381.152 53.72C381.184 53.16 381.256 52.68 381.368 52.28C381.496 51.88 381.68 51.568 381.92 51.344C382.16 51.12 382.48 51.008 382.88 51.008C383.552 51.008 384.016 51.36 384.272 52.064C384.528 52.768 384.656 53.928 384.656 55.544C384.656 57.16 384.528 58.32 384.272 59.024C384.016 59.728 383.552 60.08 382.88 60.08C382.48 60.08 382.16 59.968 381.92 59.744C381.68 59.52 381.496 59.208 381.368 58.808C381.256 58.408 381.184 57.928 381.152 57.368C381.12 56.808 381.104 56.2 381.104 55.544ZM377.792 55.544C377.792 56.664 377.872 57.656 378.032 58.52C378.192 59.368 378.464 60.08 378.848 60.656C379.232 61.216 379.752 61.632 380.408 61.904C381.064 62.16 381.888 62.28 382.88 62.264C383.824 62.264 384.616 62.128 385.256 61.856C385.912 61.584 386.44 61.168 386.84 60.608C387.24 60.032 387.528 59.32 387.704 58.472C387.88 57.624 387.968 56.648 387.968 55.544C387.968 54.408 387.888 53.416 387.728 52.568C387.568 51.72 387.296 51.008 386.912 50.432C386.528 49.856 386.008 49.432 385.352 49.16C384.696 48.872 383.872 48.736 382.88 48.752C381.936 48.752 381.136 48.904 380.48 49.208C379.84 49.496 379.32 49.928 378.92 50.504C378.52 51.064 378.232 51.768 378.056 52.616C377.88 53.464 377.792 54.44 377.792 55.544ZM394.004 55.952C394.004 55.088 394.02 54.36 394.052 53.768C394.1 53.16 394.188 52.68 394.316 52.328C394.444 51.96 394.62 51.696 394.844 51.536C395.068 51.376 395.364 51.296 395.732 51.296C396.388 51.296 396.836 51.624 397.076 52.28C397.332 52.936 397.46 54.048 397.46 55.616C397.46 56.16 397.428 56.664 397.364 57.128C397.316 57.576 397.22 57.96 397.076 58.28C396.948 58.6 396.764 58.856 396.524 59.048C396.3 59.224 396.012 59.312 395.66 59.312C395.308 59.312 395.02 59.224 394.796 59.048C394.588 58.856 394.42 58.608 394.292 58.304C394.18 57.984 394.1 57.624 394.052 57.224C394.02 56.824 394.004 56.4 394.004 55.952ZM400.628 49.088H397.46V50.528H397.412C397.092 49.856 396.684 49.392 396.188 49.136C395.692 48.88 395.212 48.752 394.748 48.752C393.852 48.752 393.132 48.952 392.588 49.352C392.06 49.752 391.652 50.272 391.364 50.912C391.092 51.536 390.908 52.24 390.812 53.024C390.732 53.808 390.692 54.576 390.692 55.328C390.692 57.68 391.02 59.36 391.676 60.368C392.348 61.36 393.34 61.856 394.652 61.856C395.18 61.856 395.684 61.712 396.164 61.424C396.66 61.136 397.076 60.752 397.412 60.272H397.46V61.976C397.46 62.616 397.324 63.152 397.052 63.584C396.78 64.016 396.308 64.232 395.636 64.232C395.428 64.232 395.228 64.2 395.036 64.136C394.86 64.072 394.692 63.984 394.532 63.872C394.196 63.632 394.028 63.304 394.028 62.888H390.86C390.86 63.992 391.236 64.84 391.988 65.432C392.756 66.04 393.844 66.344 395.252 66.344C397.188 66.344 398.564 65.928 399.38 65.096C400.212 64.264 400.628 63.016 400.628 61.352V49.088ZM404.276 44.864V62H407.588V44.864H404.276ZM417.337 54.08H413.953V53.576C413.953 53.272 413.977 52.968 414.025 52.664C414.089 52.36 414.185 52.088 414.313 51.848C414.441 51.592 414.609 51.392 414.817 51.248C415.041 51.088 415.321 51.008 415.657 51.008C415.993 51.008 416.265 51.08 416.473 51.224C416.697 51.352 416.865 51.552 416.977 51.824C417.105 52.08 417.193 52.4 417.241 52.784C417.289 53.152 417.321 53.584 417.337 54.08ZM413.953 56.048H420.505V55.304C420.505 54.312 420.441 53.416 420.313 52.616C420.185 51.8 419.945 51.112 419.593 50.552C419.241 49.976 418.753 49.536 418.129 49.232C417.521 48.912 416.737 48.752 415.777 48.752C414.657 48.752 413.761 48.936 413.089 49.304C412.417 49.672 411.897 50.168 411.529 50.792C411.177 51.416 410.937 52.128 410.809 52.928C410.697 53.728 410.641 54.56 410.641 55.424C410.641 56.24 410.673 57.056 410.737 57.872C410.817 58.688 411.017 59.424 411.337 60.08C411.657 60.736 412.153 61.264 412.825 61.664C413.497 62.064 414.433 62.264 415.633 62.264C417.217 62.264 418.377 61.872 419.113 61.088C419.849 60.304 420.249 59.16 420.313 57.656H417.337C417.241 58.472 417.065 59.08 416.809 59.48C416.553 59.88 416.145 60.08 415.585 60.08C415.281 60.08 415.025 60 414.817 59.84C414.609 59.664 414.441 59.44 414.313 59.168C414.185 58.88 414.089 58.56 414.025 58.208C413.977 57.84 413.953 57.464 413.953 57.08V56.048Z" fill="#3F414E"/>
<path d="M85.6401 51.6737C85.6401 50.0645 85.5095 48.8901 85.2269 47.6723H66.8506V54.9357H77.6371C77.4197 56.7408 76.2453 59.4592 73.6356 61.2859L73.599 61.529L79.4093 66.0302L79.8118 66.0703C83.5088 62.656 85.6401 57.6324 85.6401 51.6737Z" fill="#4285F4"/>
<path d="M66.8509 70.8111C72.1354 70.8111 76.5717 69.0713 79.8122 66.0703L73.636 61.2858C71.9832 62.4384 69.765 63.243 66.8509 63.243C61.6751 63.243 57.2823 59.8289 55.7163 55.1097L55.4868 55.1292L49.4452 59.8049L49.3662 60.0245C52.5847 66.4181 59.1959 70.8111 66.8509 70.8111Z" fill="#34A853"/>
<path d="M55.7171 55.1097C55.3039 53.8919 55.0648 52.587 55.0648 51.2387C55.0648 49.8903 55.3039 48.5855 55.6953 47.3677L55.6844 47.1083L49.5671 42.3576L49.367 42.4528C48.0405 45.106 47.2793 48.0854 47.2793 51.2387C47.2793 54.392 48.0405 57.3713 49.367 60.0245L55.7171 55.1097" fill="#FBBC05"/>
<path d="M66.8529 39.2344C70.5281 39.2344 73.0072 40.822 74.4208 42.1486L79.9446 36.7553C76.5521 33.602 72.1373 31.6665 66.8529 31.6665C59.1978 31.6665 52.5867 36.0594 49.3682 42.453L55.6965 47.3679C57.2842 42.6488 61.6771 39.2344 66.8529 39.2344" fill="#EB4335"/>
</svg>
