<svg width="46" height="46" viewBox="0 0 46 46" fill="none" xmlns="http://www.w3.org/2000/svg">
<rect width="46" height="46" rx="18" fill="#8E97FD"/>
<path d="M32.3204 19.5059L24.7282 12.8191C23.6436 11.7345 21.8778 11.7345 20.8381 12.7743L13.1563 19.5508C12.4123 20.2947 12 21.2897 12 22.3474V31.302C12 32.7899 13.2101 34 14.698 34H30.8324C32.3114 34 33.5215 32.7899 33.5215 31.302V22.3474C33.5215 21.2897 33.1092 20.2947 32.3204 19.5059ZM31.7288 31.302C31.7288 31.8039 31.3254 32.2073 30.8324 32.2073H25.1495V26.4348C25.1495 25.9149 24.7372 25.5026 24.2173 25.5026H21.3042C20.7932 25.5026 20.372 25.9149 20.372 26.4348V32.2073H14.698C14.1961 32.2073 13.7927 31.8039 13.7927 31.302V22.3474C13.7927 21.7827 14.0258 21.218 14.3843 20.8505L22.0661 14.083C22.2543 13.8948 22.4963 13.7962 22.7473 13.7962C23.0162 13.7962 23.2851 13.9037 23.5002 14.1188L31.0924 20.8146C31.5047 21.2269 31.7288 21.7737 31.7288 22.3474V31.302Z" fill="white"/>
</svg>
