<svg width="739" height="540" viewBox="0 0 739 540" fill="none" xmlns="http://www.w3.org/2000/svg">
<path d="M378.024 534.861C465.227 534.861 535.919 532.105 535.919 528.704C535.919 525.303 465.227 522.546 378.024 522.546C290.821 522.546 220.129 525.303 220.129 528.704C220.129 532.105 290.821 534.861 378.024 534.861Z" fill="#F9F0E3"/>
<path opacity="0.5" d="M100.23 524.486C155.586 524.486 200.461 521.077 200.461 516.873C200.461 512.669 155.586 509.261 100.23 509.261C44.8747 509.261 0 512.669 0 516.873C0 521.077 44.8747 524.486 100.23 524.486Z" fill="#F9EAD4"/>
<path d="M730.195 534.877C730.195 537.447 696.075 539.516 653.977 539.516C611.879 539.516 577.758 537.447 577.758 534.877C577.758 532.308 611.879 530.239 653.977 530.239C696.058 530.239 730.195 532.308 730.195 534.877Z" fill="#F9F0E3"/>
<path d="M545.479 166.338L541.958 172.415H548.983L545.479 166.338Z" fill="#E7CCA8"/>
<path d="M545.478 177.49L541.958 183.567H548.982L545.478 177.49Z" fill="#E7CCA8"/>
<path d="M552.761 170.912L549.499 177.49H556.007L552.761 170.912Z" fill="#E7CCA8"/>
<path d="M16.5032 202.589L12.9829 208.682H20.0073L16.5032 202.589Z" fill="#E7CCA8"/>
<path d="M16.5032 213.741L12.9829 219.818H20.0073L16.5032 213.741Z" fill="#E7CCA8"/>
<path d="M23.7858 207.163L20.5239 213.741H27.0316L23.7858 207.163Z" fill="#E7CCA8"/>
<path d="M538.455 435.498L534.951 441.575H541.959L538.455 435.498Z" fill="#E7CCA8"/>
<path d="M538.454 446.634L534.95 452.727H541.958L538.454 446.634Z" fill="#E7CCA8"/>
<path d="M545.737 440.056L542.491 446.634H548.982L545.737 440.056Z" fill="#E7CCA8"/>
<path d="M400.034 123.396C400.034 127.679 396.579 131.138 392.299 131.138C388.02 131.138 384.564 127.679 384.564 123.396C384.564 119.113 388.02 115.655 392.299 115.655C396.562 115.655 400.034 119.13 400.034 123.396Z" stroke="white" stroke-miterlimit="10"/>
<path d="M734.249 452.695H573.948C571.574 452.695 569.652 450.771 569.652 448.396C569.652 446.02 571.574 444.096 573.948 444.096H734.249C736.622 444.096 738.544 446.02 738.544 448.396C738.544 450.771 736.622 452.695 734.249 452.695Z" fill="#FEE6C6"/>
<path d="M596.086 528.704C593.68 528.704 591.694 527.233 591.597 525.358L587.431 450.044H604.742L600.576 525.358C600.463 527.233 598.492 528.704 596.086 528.704Z" fill="#FEE6C6"/>
<path d="M713.66 528.704C711.254 528.704 709.268 527.233 709.171 525.358L705.005 450.044H722.315L718.149 525.358C718.036 527.233 716.066 528.704 713.66 528.704Z" fill="#FEE6C6"/>
<path d="M654.106 528.704C651.7 528.704 649.714 527.233 649.617 525.358L645.451 450.044H662.762L658.596 525.358C658.499 527.233 656.513 528.704 654.106 528.704Z" fill="#FEE6C6"/>
<path d="M690.068 429.045C692.374 418.749 685.905 408.532 675.619 406.224C665.333 403.915 655.124 410.39 652.818 420.685C650.511 430.98 656.98 441.197 667.267 443.506C677.553 445.814 687.761 439.34 690.068 429.045Z" fill="#F9D8AC"/>
<path d="M681.057 409.17H661.372C660.274 409.17 659.386 408.281 659.386 407.182C659.386 406.083 660.274 405.194 661.372 405.194H681.057C682.155 405.194 683.043 406.083 683.043 407.182C683.043 408.281 682.155 409.17 681.057 409.17Z" fill="#F9D8AC"/>
<path d="M662.729 373.452C663.423 373.775 664.247 375.004 664.521 376.701C664.796 378.398 664.441 379.852 663.859 380.353C663.181 380.046 662.342 378.802 662.067 377.105C661.793 375.408 662.196 373.969 662.729 373.452Z" fill="#F9D8AC"/>
<path d="M664.021 380.186L663.623 380.251L665.413 391.143L665.811 391.078L664.021 380.186Z" fill="#F9D8AC"/>
<path d="M668.462 379.884C667.719 379.836 666.492 380.531 665.588 381.904C664.683 383.294 664.441 384.765 664.748 385.509C665.474 385.573 666.718 384.862 667.622 383.488C668.543 382.115 668.736 380.628 668.462 379.884Z" fill="#F9D8AC"/>
<path d="M659.354 381.387C660.049 381.096 661.421 381.355 662.729 382.373C664.037 383.391 664.732 384.716 664.683 385.525C664.021 385.832 662.616 385.557 661.308 384.539C660 383.52 659.338 382.179 659.354 381.387Z" fill="#F9D8AC"/>
<path d="M660.226 386.721C660.92 386.43 662.293 386.705 663.601 387.707C664.909 388.725 665.603 390.05 665.555 390.858C664.893 391.165 663.488 390.891 662.18 389.872C660.872 388.854 660.21 387.513 660.226 386.721Z" fill="#F9D8AC"/>
<path d="M669.35 385.234C668.607 385.185 667.379 385.88 666.475 387.254C665.571 388.628 665.329 390.114 665.636 390.858C666.362 390.923 667.606 390.211 668.51 388.838C669.414 387.448 669.624 385.961 669.35 385.234Z" fill="#F9D8AC"/>
<path d="M665.765 390.838L665.366 390.903L667.156 401.795L667.555 401.729L665.765 390.838Z" fill="#F9D8AC"/>
<path d="M670.222 390.536C669.479 390.487 668.252 391.182 667.348 392.556C666.443 393.946 666.201 395.416 666.508 396.16C667.235 396.225 668.478 395.53 669.382 394.14C670.287 392.766 670.497 391.279 670.222 390.536Z" fill="#F9D8AC"/>
<path d="M661.098 392.039C661.793 391.748 663.165 392.006 664.473 393.024C665.781 394.043 666.476 395.368 666.427 396.176C665.765 396.483 664.36 396.208 663.052 395.19C661.744 394.172 661.082 392.831 661.098 392.039Z" fill="#F9D8AC"/>
<path d="M661.986 397.388C662.681 397.097 664.053 397.372 665.361 398.374C666.669 399.392 667.364 400.718 667.315 401.526C666.653 401.833 665.248 401.558 663.94 400.54C662.632 399.522 661.954 398.164 661.986 397.388Z" fill="#F9D8AC"/>
<path d="M671.094 395.885C670.351 395.836 669.124 396.531 668.219 397.905C667.315 399.279 667.073 400.766 667.38 401.509C668.106 401.574 669.35 400.863 670.254 399.489C671.174 398.115 671.368 396.612 671.094 395.885Z" fill="#F9D8AC"/>
<path d="M667.524 401.486L667.125 401.552L668.916 412.444L669.314 412.378L667.524 401.486Z" fill="#F9D8AC"/>
<path d="M679.813 381.323C680.362 381.808 680.75 383.069 680.475 384.54C680.201 386.01 679.41 387.077 678.699 387.303C678.15 386.835 677.762 385.558 678.021 384.087C678.312 382.632 679.135 381.582 679.813 381.323Z" fill="#F9D8AC"/>
<path d="M678.531 387.204L676.796 396.645L677.193 396.718L678.928 387.277L678.531 387.204Z" fill="#F9D8AC"/>
<path d="M683.204 388.403C682.51 388.128 681.154 388.306 679.846 389.13C678.554 389.97 677.859 391.102 677.924 391.796C678.586 392.087 679.975 391.893 681.283 391.069C682.575 390.229 683.221 389.081 683.204 388.403Z" fill="#F9D8AC"/>
<path d="M674.113 386.722C674.856 386.706 676.067 387.352 676.988 388.597C677.908 389.841 678.15 391.15 677.843 391.78C677.117 391.813 675.89 391.15 674.969 389.906C674.049 388.661 673.855 387.352 674.113 386.722Z" fill="#F9D8AC"/>
<path d="M673.274 391.36C674.016 391.344 675.227 391.99 676.148 393.235C677.068 394.479 677.311 395.788 677.004 396.419C676.277 396.451 675.05 395.788 674.129 394.544C673.209 393.299 672.999 391.99 673.274 391.36Z" fill="#F9D8AC"/>
<path d="M682.349 393.024C681.655 392.75 680.298 392.927 678.99 393.752C677.698 394.592 677.004 395.723 677.069 396.418C677.731 396.709 679.119 396.515 680.427 395.691C681.719 394.867 682.381 393.703 682.349 393.024Z" fill="#F9D8AC"/>
<path d="M676.844 396.442L675.108 405.883L675.505 405.957L677.241 396.515L676.844 396.442Z" fill="#F9D8AC"/>
<path d="M681.509 397.63C680.815 397.356 679.458 397.533 678.15 398.358C676.859 399.198 676.164 400.329 676.229 401.024C676.891 401.315 678.28 401.121 679.588 400.297C680.879 399.473 681.525 398.325 681.509 397.63Z" fill="#F9D8AC"/>
<path d="M672.418 395.966C673.16 395.95 674.371 396.597 675.292 397.841C676.212 399.085 676.455 400.395 676.148 401.025C675.421 401.057 674.194 400.395 673.273 399.15C672.353 397.906 672.159 396.597 672.418 395.966Z" fill="#F9D8AC"/>
<path d="M675.135 405.673L673.4 415.115L673.797 415.188L675.532 405.746L675.135 405.673Z" fill="#F9D8AC"/>
<path d="M693.346 289.75C694.186 290.283 695.074 291.98 695.171 294.227C695.284 296.457 694.589 298.283 693.782 298.849C692.942 298.364 692.054 296.619 691.941 294.372C691.844 292.142 692.587 290.348 693.346 289.75Z" fill="#FEE6C6"/>
<path d="M694.038 298.637L693.505 298.663L694.199 313.013L694.731 312.988L694.038 298.637Z" fill="#FEE6C6"/>
<path d="M699.805 298.93C698.852 298.753 697.173 299.464 695.784 301.112C694.395 302.761 693.879 304.652 694.169 305.654C695.106 305.864 696.802 305.12 698.19 303.472C699.563 301.823 700.047 299.932 699.805 298.93Z" fill="#FEE6C6"/>
<path d="M687.807 299.512C688.743 299.254 690.487 299.787 692.022 301.29C693.556 302.793 694.266 304.619 694.072 305.654C693.168 305.945 691.392 305.379 689.858 303.876C688.307 302.373 687.645 300.53 687.807 299.512Z" fill="#FEE6C6"/>
<path d="M688.146 306.542C689.082 306.284 690.826 306.817 692.36 308.32C693.895 309.823 694.605 311.649 694.411 312.684C693.507 312.975 691.731 312.409 690.197 310.906C688.646 309.403 688.001 307.561 688.146 306.542Z" fill="#FEE6C6"/>
<path d="M700.144 305.96C699.191 305.783 697.512 306.494 696.123 308.142C694.734 309.791 694.218 311.682 694.508 312.684C695.445 312.894 697.14 312.15 698.529 310.502C699.902 308.853 700.386 306.962 700.144 305.96Z" fill="#FEE6C6"/>
<path d="M694.69 312.744L694.157 312.77L694.849 327.121L695.381 327.095L694.69 312.744Z" fill="#FEE6C6"/>
<path d="M700.484 312.974C699.531 312.797 697.852 313.508 696.463 315.156C695.074 316.805 694.557 318.696 694.848 319.698C695.785 319.908 697.48 319.164 698.869 317.516C700.242 315.867 700.726 313.96 700.484 312.974Z" fill="#FEE6C6"/>
<path d="M688.486 313.556C689.422 313.298 691.166 313.831 692.7 315.334C694.234 316.837 694.945 318.663 694.751 319.698C693.847 319.989 692.07 319.423 690.536 317.92C688.986 316.401 688.324 314.558 688.486 313.556Z" fill="#FEE6C6"/>
<path d="M688.825 320.587C689.762 320.328 691.506 320.861 693.04 322.364C694.574 323.867 695.284 325.694 695.09 326.728C694.186 327.019 692.41 326.453 690.876 324.95C689.326 323.447 688.663 321.605 688.825 320.587Z" fill="#FEE6C6"/>
<path d="M700.823 320.005C699.87 319.827 698.191 320.538 696.802 322.187C695.414 323.835 694.897 325.726 695.187 326.728C696.124 326.938 697.82 326.195 699.208 324.546C700.581 322.898 701.065 321.007 700.823 320.005Z" fill="#FEE6C6"/>
<path d="M695.396 326.725L694.864 326.751L695.558 341.102L696.09 341.076L695.396 326.725Z" fill="#FEE6C6"/>
<path d="M705.392 443.902H690.375C684.384 443.902 679.652 438.779 680.137 432.799L687.936 336.878H707.814L715.614 432.799C716.114 438.779 711.383 443.902 705.392 443.902Z" fill="#FEE6C6"/>
<path d="M709.865 337.169H685.901C684.497 337.169 683.366 336.038 683.366 334.632C683.366 333.225 684.497 332.094 685.901 332.094H709.865C711.27 332.094 712.4 333.225 712.4 334.632C712.4 336.021 711.27 337.169 709.865 337.169Z" fill="#FEE6C6"/>
<path d="M700.887 356.192C701.113 348.143 701.517 340.095 701.936 332.062C702.356 324.03 702.921 315.997 703.422 307.965C704.036 299.932 704.585 291.9 705.279 283.883L706.345 271.859C706.765 267.851 707.12 263.843 707.572 259.835C707.475 263.859 707.281 267.883 707.136 271.908L706.522 283.964C706.103 291.997 705.537 300.029 705.037 308.062C704.407 316.094 703.874 324.127 703.18 332.143C702.485 340.159 701.775 348.175 700.887 356.192Z" fill="#FEE6C6"/>
<path d="M701.645 346.979C700.434 330.898 699.966 314.801 699.675 298.704C699.449 282.606 699.417 266.509 700.128 250.396C701.339 266.477 701.807 282.574 702.098 298.671C702.307 314.769 702.34 330.866 701.645 346.979Z" fill="#FEE6C6"/>
<path d="M699.595 362.075C700.596 354.074 701.759 346.107 702.97 338.155C704.165 330.187 705.505 322.252 706.765 314.3C708.154 306.365 709.478 298.429 710.931 290.51L713.143 278.631C713.935 274.687 714.677 270.728 715.517 266.784C715.033 270.776 714.451 274.768 713.918 278.76L712.158 290.704C710.963 298.671 709.623 306.607 708.364 314.559C706.975 322.494 705.651 330.43 704.197 338.349C702.728 346.284 701.258 354.188 699.595 362.075Z" fill="#FEE6C6"/>
<path d="M696.624 250.638C696.624 251.576 695.865 252.335 694.928 252.335C693.992 252.335 693.233 251.576 693.233 250.638C693.233 249.701 693.992 248.941 694.928 248.941C695.865 248.941 696.624 249.701 696.624 250.638Z" stroke="#FEE6C6" stroke-miterlimit="10"/>
<path d="M705.715 246.485C707.963 246.485 709.785 244.662 709.785 242.412C709.785 240.163 707.963 238.339 705.715 238.339C703.468 238.339 701.646 240.163 701.646 242.412C701.646 244.662 703.468 246.485 705.715 246.485Z" stroke="#FEE6C6" stroke-miterlimit="10"/>
<path d="M713.902 263.39C714.642 263.39 715.243 262.79 715.243 262.049C715.243 261.308 714.642 260.707 713.902 260.707C713.162 260.707 712.562 261.308 712.562 262.049C712.562 262.79 713.162 263.39 713.902 263.39Z" stroke="#FEE6C6" stroke-miterlimit="10"/>
<path d="M718.488 291.011C718.488 291.706 717.923 292.271 717.229 292.271C716.534 292.271 715.969 291.706 715.969 291.011C715.969 290.316 716.534 289.75 717.229 289.75C717.923 289.75 718.488 290.316 718.488 291.011Z" stroke="#FEE6C6" stroke-miterlimit="10"/>
<path d="M686.257 280.36C687.47 280.36 688.453 279.376 688.453 278.162C688.453 276.948 687.47 275.964 686.257 275.964C685.044 275.964 684.061 276.948 684.061 278.162C684.061 279.376 685.044 280.36 686.257 280.36Z" stroke="#FEE6C6" stroke-miterlimit="10"/>
<path d="M633.501 380.354H577.532V441.381H633.501V380.354Z" fill="#F9D8AC"/>
<path d="M627.236 387.19H583.814V434.545H627.236V387.19Z" fill="#FEE6C6"/>
<path d="M69.6946 101.884H60.6841V500.663H69.6946V101.884Z" fill="#FEE6C6"/>
<path d="M111.163 515.225H19.2324C19.2324 505.382 39.8211 497.414 65.2057 497.414C90.5903 497.414 111.163 505.382 111.163 515.225Z" fill="#FEE6C6"/>
<path d="M128.425 107.363H1.95361L4.29507 99.1532L4.76336 97.537L9.01028 82.6681L9.47857 81.0519L32.6348 0H100.973L121.691 81.0519L122.111 82.6681L125.905 97.537L126.325 99.1532L128.425 107.363Z" fill="#FEE6C6"/>
<path d="M10.2539 86.3042L5.94238 93.771H14.5493L10.2539 86.3042Z" fill="#E5CAA6"/>
<path d="M20.0073 93.771L15.6958 86.3042H24.3188L20.0073 93.771Z" fill="#E5CAA6"/>
<path d="M28.6142 86.3042L24.3188 93.771H32.9257L28.6142 86.3042Z" fill="#E5CAA6"/>
<path d="M38.3838 93.771L34.0723 86.3042H42.6791L38.3838 93.771Z" fill="#E5CAA6"/>
<path d="M46.9907 86.3042L42.6792 93.771H51.2861L46.9907 86.3042Z" fill="#E5CAA6"/>
<path d="M56.7441 93.771L52.4326 86.3042H61.0556L56.7441 93.771Z" fill="#E5CAA6"/>
<path d="M65.351 86.3042L61.0557 93.771H69.6625L65.351 86.3042Z" fill="#E5CAA6"/>
<path d="M75.104 93.771L70.8086 86.3042H79.4155L75.104 93.771Z" fill="#E5CAA6"/>
<path d="M83.727 86.3042L79.4155 93.771H88.0224L83.727 86.3042Z" fill="#E5CAA6"/>
<path d="M93.4805 93.771L89.1689 86.3042H97.7758L93.4805 93.771Z" fill="#E5CAA6"/>
<path d="M102.087 86.3042L97.7759 93.771H106.399L102.087 86.3042Z" fill="#E5CAA6"/>
<path d="M111.841 93.771L107.545 86.3042H116.152L111.841 93.771Z" fill="#E5CAA6"/>
<path d="M120.448 86.3042L116.152 93.771H124.759L120.448 86.3042Z" fill="#E5CAA6"/>
<path d="M122.111 82.6678H9.01074L9.47903 81.0516H121.691L122.111 82.6678Z" fill="#E5CAA6"/>
<path d="M126.326 99.1533H4.29541L4.7637 97.5371H125.906L126.326 99.1533Z" fill="#E5CAA6"/>
<path d="M142.698 343.923C145.992 331.155 153.081 319.745 160.364 308.755C166.823 298.993 173.589 289.28 182.115 281.263C190.642 273.231 201.154 266.911 212.716 265.134C209.89 274.249 207.064 283.364 204.238 292.48C201.412 301.595 198.489 310.904 192.918 318.646C187.089 326.727 178.644 332.642 169.633 336.876C160.606 341.111 150.95 343.777 141.342 346.428" fill="#66A986"/>
<path d="M143.297 344.087C148.158 326.81 158.718 311.1 169.376 296.829C174.882 289.443 180.938 282.494 188.269 276.886C191.741 274.219 209.455 262.469 211.215 268.013C211.99 270.469 207.695 279.342 206.968 281.686C205.612 286.065 204.288 290.445 202.899 294.809C200.299 303.003 197.473 311.294 192.419 318.341C180.534 334.842 159.8 340.709 141.198 345.848C140.455 346.058 140.762 347.222 141.521 347.012C159.703 341.986 179.436 336.329 191.854 321.04C204.11 305.961 207.711 283.366 213.315 265.297C213.46 264.829 212.992 264.473 212.572 264.554C195.084 267.754 181.535 279.245 170.829 292.934C159.025 308.029 147.366 325.161 142.134 343.78C141.908 344.507 143.071 344.83 143.297 344.087Z" fill="#66A986"/>
<path d="M123.322 386.835C136.079 359.553 148.82 332.256 161.577 304.975C162.239 303.569 160.139 302.34 159.477 303.746C146.72 331.028 133.98 358.325 121.223 385.606C120.577 387.012 122.66 388.241 123.322 386.835Z" fill="#80B996"/>
<path d="M125.163 328.119C125.906 299.528 136.693 270.631 143.878 243.139C144.072 242.38 142.91 242.057 142.716 242.816C135.498 270.453 124.711 299.367 123.968 328.119C123.936 328.894 125.147 328.894 125.163 328.119Z" fill="#80B996"/>
<path d="M105.915 334.099C93.7392 323.27 81.4667 312.329 71.9233 299.108C62.3959 285.888 55.6945 270.033 56.2274 253.742C63.9946 266.073 80.4009 270.679 88.4911 282.801C91.1555 286.793 92.7542 291.399 94.3205 295.941C98.7128 308.66 103.121 321.395 107.513 334.115" fill="#66A986"/>
<path d="M106.335 333.679C93.5615 322.317 80.5785 310.81 70.8736 296.587C66.0453 289.508 62.0891 281.767 59.6023 273.556C58.3105 269.29 57.4385 264.926 57.0186 260.498C56.6634 256.683 55.533 255.31 58.3589 257.653C62.3636 260.982 65.8031 264.57 70.0985 267.609C75.9925 271.762 82.2256 275.657 86.6663 281.46C92.3988 288.942 94.7241 299.028 97.7761 307.852C100.828 316.66 103.864 325.468 106.916 334.277C107.174 335.004 108.337 334.697 108.079 333.953C104.687 324.159 101.313 314.381 97.9214 304.587C95.257 296.862 93.1739 288.345 88.3457 281.605C79.9488 269.871 64.9311 265.411 56.728 253.419C56.405 252.934 55.5976 253.095 55.5976 253.726C55.3392 288.409 81.4505 313.137 105.463 334.519C106.06 335.052 106.932 334.196 106.335 333.679Z" fill="#66A986"/>
<path d="M82.2415 274.671C102.152 315.254 115.232 358.745 120.997 403.595C121.19 405.114 123.613 405.146 123.419 403.595C117.606 358.309 104.445 314.446 84.3246 273.443C83.6464 272.037 81.5471 273.265 82.2415 274.671Z" fill="#80B996"/>
<path d="M118.17 238.305C108.206 203.347 108.497 165.528 119.009 130.715C126.324 141.236 131.928 152.954 135.545 165.237C139.582 178.926 141.148 193.488 138.774 207.565C136.401 221.642 129.909 235.202 119.494 244.947" fill="#66A986"/>
<path d="M118.752 238.145C113.649 219.689 111.13 200.666 111.566 181.514C111.808 171.251 112.842 161.021 114.715 150.92C115.522 146.572 116.491 142.257 117.589 137.974C119.479 130.685 120.803 134.289 123.613 139.138C142.296 171.267 147.77 216.408 119.043 244.529C118.477 245.079 119.333 245.935 119.899 245.386C151.742 214.21 142.215 163.93 119.511 130.41C119.22 129.99 118.558 130.039 118.397 130.556C108.046 165.837 107.771 203.026 117.557 238.469C117.799 239.212 118.962 238.889 118.752 238.145Z" fill="#66A986"/>
<path d="M146.349 334.098C143.701 316.514 149.353 298.477 158.508 283.237C167.664 267.996 180.179 255.099 192.581 242.363C195.6 266.639 190.449 291.867 178.161 313.007C174.786 318.825 170.781 324.433 165.42 328.49C160.059 332.547 153.147 334.939 146.543 333.743" fill="#80B996"/>
<path d="M146.963 334.099C144.654 315.722 150.176 297.944 159.768 282.348C164.645 274.429 170.458 267.14 176.61 260.174C179.404 257.023 182.278 253.919 185.185 250.865C186.428 249.556 187.656 247.907 189.077 246.808C191.257 245.127 190.982 243.948 192.371 246.404C193.695 248.715 192.807 254.631 192.775 257.265C192.726 261.338 192.468 265.411 191.999 269.467C190.934 278.389 188.818 287.245 185.653 295.666C179.404 312.328 167.664 335.553 146.511 333.145C145.736 333.064 145.752 334.276 146.511 334.357C165.888 336.571 177.386 317.807 184.184 302.421C192.548 283.528 195.439 262.841 193.146 242.364C193.098 241.879 192.516 241.523 192.112 241.927C167.794 266.946 140.972 296.377 145.719 334.099C145.849 334.858 147.06 334.874 146.963 334.099Z" fill="#80B996"/>
<path d="M127.52 302.662C126.018 281.167 130.346 259.574 137.418 239.21C144.491 218.846 154.277 199.565 164.03 180.333C170.506 202.329 172.573 225.974 167.115 248.245C161.657 270.516 148.173 291.236 128.456 302.904" fill="#80B996"/>
<path d="M128.134 302.664C126.859 280.506 131.154 258.736 138.534 237.919C142.458 226.848 147.173 216.068 152.227 205.466C154.649 200.359 157.169 195.3 159.704 190.258C159.994 189.676 162.562 183.357 163.176 183.389C165.21 183.47 165.339 187.413 165.759 189.175C175.529 230.533 166.583 278.728 128.151 302.389C127.489 302.793 128.102 303.843 128.764 303.439C170.943 277.483 177.176 224.295 164.629 180.173C164.5 179.688 163.757 179.542 163.515 180.027C144.089 218.347 124.372 258.509 126.923 302.664C126.972 303.439 128.183 303.456 128.134 302.664Z" fill="#80B996"/>
<path d="M114.457 225.265C124.13 281.621 125.825 338.98 119.576 395.821C119.398 397.373 121.837 397.356 121.998 395.821C128.264 338.77 126.487 281.185 116.798 224.618C116.524 223.083 114.199 223.729 114.457 225.265Z" fill="#80B996"/>
<path d="M118.492 243.639C109.207 235.881 101.117 222.709 98.9372 210.814C96.7572 198.919 97.4031 186.684 98.1459 174.611C98.9049 162.538 99.7607 150.352 98.0167 138.376C107.076 150.578 114.698 163.847 120.688 177.827C125.226 188.413 128.859 199.581 129.263 211.089C129.667 222.596 126.566 234.556 118.961 243.202" fill="#80B996"/>
<path d="M118.93 243.22C103.912 229.967 98.1474 212.432 98.0667 192.795C98.0344 183.696 98.8579 174.629 99.3101 165.562C99.5361 161.021 99.6976 156.479 99.633 151.938C99.6169 150.629 98.3735 141.481 99.1809 140.996C102.088 139.251 122.644 184.1 123.79 187.397C130.217 205.805 131.606 226.864 118.542 242.784C118.058 243.382 118.898 244.238 119.398 243.64C145.283 212.092 118.462 165.352 98.535 138.087C98.2282 137.667 97.3239 137.732 97.4046 138.394C100.101 159.55 95.5153 180.674 97.1785 201.846C98.4704 218.347 105.592 233.087 118.058 244.077C118.655 244.594 119.511 243.737 118.93 243.22Z" fill="#80B996"/>
<path d="M104.847 326.63C109.53 310.161 106.769 287.712 98.9209 272.488C91.073 257.279 78.849 244.689 65.2847 234.249C66.0275 251.8 67.3839 269.595 73.2295 286.161C79.0912 302.743 89.1675 318.727 104.847 326.63Z" fill="#80B996"/>
<path d="M105.43 326.793C115.216 289.282 94.2878 256.198 65.7221 233.83C65.3507 233.539 64.6563 233.685 64.6886 234.267C66.1742 267.803 71.5999 309.516 104.542 327.165C105.236 327.537 105.834 326.486 105.155 326.115C90.1862 318.098 80.5782 303.86 74.6519 288.264C71.5999 280.231 69.646 271.811 68.3542 263.326C67.4822 257.572 66.9332 251.786 66.5295 245.984C66.4003 244.093 66.0289 242.008 66.1742 240.117C66.3841 237.37 65.3345 236.578 68.0474 237.208C70.7764 237.838 75.2332 243.35 77.2194 245.241C80.1584 248.037 82.9681 250.978 85.6164 254.049C91.5265 260.901 96.7423 268.53 100.279 276.886C106.803 292.239 108.498 310.292 104.267 326.47C104.073 327.23 105.236 327.553 105.43 326.793Z" fill="#80B996"/>
<path d="M173.284 455.361C173.284 482.707 162.674 506.53 146.995 518.926H97.5496C81.87 506.53 71.2607 482.707 71.2607 455.361C71.2607 429.809 80.5297 407.328 94.53 394.366H149.998C164.015 407.328 173.284 429.793 173.284 455.361Z" fill="#FEE6C6"/>
<path d="M99.2775 420.759L86.0039 443.79H112.567L99.2775 420.759Z" stroke="#E6CAA6" stroke-miterlimit="10"/>
<path d="M99.2774 426.383L90.8481 440.993H107.707L99.2774 426.383Z" stroke="#E6CAA6" stroke-width="0.5" stroke-miterlimit="10"/>
<path d="M118.461 496.38L102.41 505.657V487.119L118.461 496.38Z" stroke="#E6CAA6" stroke-width="0.75" stroke-miterlimit="10"/>
<path d="M113.133 496.38L105.075 501.035V491.726L113.133 496.38Z" stroke="#E6CAA6" stroke-width="0.5" stroke-miterlimit="10"/>
<path d="M140.971 401.138L128.118 423.425H153.841L140.971 401.138Z" stroke="#E6CAA6" stroke-miterlimit="10"/>
<path d="M140.971 409.591L135.433 419.191H146.526L140.971 409.591Z" stroke="#E6CAA6" stroke-width="0.5" stroke-miterlimit="10"/>
<path d="M140.972 499.015L126.212 465.058H155.747L140.972 499.015Z" stroke="#E6CAA6" stroke-miterlimit="10"/>
<path d="M140.972 490.74L131.606 469.196H150.354L140.972 490.74Z" stroke="#E6CAA6" stroke-width="0.5" stroke-miterlimit="10"/>
<path d="M92.0269 470.311C92.0269 468.049 93.8677 466.206 96.1284 466.206C98.3892 466.206 100.23 468.049 100.23 470.311C100.23 472.574 98.3892 474.416 96.1284 474.416C93.8677 474.416 92.0269 472.574 92.0269 470.311Z" stroke="#E6CAA6" stroke-miterlimit="10"/>
<path d="M140.972 449.624C144.61 449.624 147.56 446.671 147.56 443.03C147.56 439.388 144.61 436.436 140.972 436.436C137.333 436.436 134.383 439.388 134.383 443.03C134.383 446.671 137.333 449.624 140.972 449.624Z" stroke="#E6CAA6" stroke-miterlimit="10"/>
<path d="M114.424 411.03C115.842 411.03 116.992 409.879 116.992 408.46C116.992 407.041 115.842 405.89 114.424 405.89C113.006 405.89 111.857 407.041 111.857 408.46C111.857 409.879 113.006 411.03 114.424 411.03Z" stroke="#E6CAA6" stroke-miterlimit="10"/>
<g opacity="0.25">
<path opacity="0.25" d="M153.712 398.18C144.863 441.931 124.581 483.337 95.3213 517.019C96.0479 517.665 96.7908 518.328 97.5497 518.926H146.995C162.674 506.53 173.284 482.707 173.284 455.361C173.284 432.137 165.63 411.482 153.712 398.18Z" fill="#FEE6C6"/>
</g>
<path d="M149.917 394.366H94.6266C92.9473 394.366 91.5908 393.009 91.5908 391.328V390.698C91.5908 389.017 92.9473 387.659 94.6266 387.659H149.917C151.597 387.659 152.953 389.017 152.953 390.698V391.328C152.969 393.009 151.597 394.366 149.917 394.366Z" fill="#F9D8AC"/>
<path d="M153.438 322.01C154.988 316.741 156.942 311.585 159.122 306.527C161.286 301.468 163.773 296.539 166.437 291.722C169.15 286.922 172.057 282.251 175.254 277.775C176.869 275.544 178.5 273.33 180.195 271.164C181.939 269.031 183.667 266.914 185.524 264.877C184.749 266.009 183.958 267.14 183.15 268.239L180.825 271.633C179.275 273.896 177.757 276.175 176.287 278.47C173.348 283.092 170.506 287.747 167.842 292.514C165.145 297.266 162.658 302.131 160.236 307.044C157.83 311.973 155.618 316.983 153.438 322.01Z" fill="#66A986"/>
<path d="M114.651 229.741C113.762 224.78 113.052 219.802 112.374 214.824C111.679 209.846 111.098 204.852 110.517 199.874C109.984 194.88 109.451 189.886 109.031 184.876L108.417 177.361C108.272 174.855 108.078 172.334 107.981 169.829C108.434 172.302 108.789 174.791 109.209 177.28L110.258 184.747C110.953 189.724 111.534 194.718 112.115 199.712C112.648 204.706 113.181 209.7 113.601 214.727C114.037 219.705 114.424 224.715 114.651 229.741Z" fill="#66A986"/>
<path d="M76.751 257.943C79.4961 262.226 81.9345 266.687 84.2275 271.228C86.5367 275.77 88.5713 280.425 90.4768 285.16C92.3338 289.895 94.0455 294.695 95.4988 299.576C96.2093 302.017 96.9037 304.473 97.5334 306.93C98.1147 309.403 98.7122 311.876 99.1805 314.381L96.7745 307.156C95.9832 304.748 95.1597 302.356 94.32 299.964C92.6083 295.197 90.8643 290.445 88.9911 285.758C87.1503 281.055 85.1479 276.4 83.1294 271.762C81.0625 267.123 78.9148 262.549 76.751 257.943Z" fill="#66A986"/>
<path d="M134.803 282.073C137.338 275.916 139.858 269.774 142.231 263.568C144.605 257.362 146.947 251.156 149.046 244.869C151.274 238.614 153.26 232.279 155.198 225.943C156.167 222.775 157.104 219.591 158.024 216.391L160.753 206.791C160.188 210.072 159.477 213.321 158.783 216.585C158.024 219.834 157.217 223.066 156.393 226.282C154.681 232.731 152.679 239.083 150.564 245.402C148.335 251.673 145.994 257.927 143.362 264.053C140.746 270.146 137.936 276.19 134.803 282.073Z" fill="#66A986"/>
<path d="M437.368 217.086H315.08C285.464 217.086 261.452 241.119 261.452 270.76V401.978H491.012V270.76C491.012 241.119 467 217.086 437.368 217.086Z" fill="#5C6193"/>
<path d="M463.834 373.097H288.613V401.978H463.834V373.097Z" fill="#4E5567"/>
<path d="M463.834 401.979H275.032V475.386H463.834V401.979Z" fill="#8E97FD"/>
<path d="M478.787 486.263H273.676C267.669 486.263 262.808 481.398 262.808 475.386H489.655C489.655 481.398 484.778 486.263 478.787 486.263Z" fill="#3F414E"/>
<path d="M268.25 520.251H261.452L273.676 486.263H283.187L268.25 520.251Z" fill="#3F414E"/>
<path d="M484.213 520.251H491.012L478.788 486.263H469.276L484.213 520.251Z" fill="#3F414E"/>
<path d="M241.977 238.145C235.405 233.765 229.882 227.527 227.282 220.06C224.683 212.593 225.264 203.866 229.672 197.304C234.081 190.742 242.494 186.831 250.196 188.593C250.519 178.185 260.079 170.605 269.332 165.837C279.521 160.584 290.163 157.546 300.578 162.314C306.375 164.98 312.479 169.312 315.547 174.92C318.615 180.512 320.44 186.686 322.216 192.827C329.499 188.496 339.414 189.159 346.067 194.411C352.72 199.664 355.643 209.167 353.124 217.264C361.359 213.773 371.339 212.222 378.912 216.989C386.873 222 389.618 232.295 390.167 241.701C390.635 249.782 389.828 258.348 385.242 265.006C379.816 272.893 370.208 276.611 361.117 279.601C345.389 284.756 329.192 289.071 312.641 289.556C296.089 290.041 279.037 286.453 265.472 276.966C251.892 267.479 242.316 251.576 242.801 235.01" fill="#4E5567"/>
<path d="M233.306 249.911C225.07 250.347 217.255 255.567 213.686 263.018C210.117 270.469 210.925 279.826 215.721 286.533C208.874 286.63 202.237 290.703 199.04 296.764C195.843 302.825 196.246 310.599 200.025 316.304C203.222 321.12 208.438 324.255 213.848 326.292C228.849 331.932 245.901 330.025 260.79 324.094C269.348 320.684 277.568 315.851 283.332 308.675C289.097 301.499 292.101 291.689 289.614 282.816C287.87 276.626 283.655 271.374 278.682 267.333C273.692 263.293 267.927 260.335 262.195 257.474C252.312 252.545 241.961 247.664 230.916 247.47" fill="#3F4553"/>
<path d="M281.831 358.471H234.291C219.29 358.471 207.13 346.301 207.13 331.287C207.13 316.272 219.29 304.102 234.291 304.102H271.965C277.423 304.102 281.847 308.531 281.847 313.993V358.471H281.831Z" fill="#8E97FD"/>
<path d="M288.613 475.386H256.979C245.95 475.386 237.004 466.432 237.004 455.393V304.086H268.638C279.667 304.086 288.613 313.039 288.613 324.078V475.386Z" fill="#8E97FD"/>
<path d="M294.2 168.681C298.496 167.663 303.34 168.439 307.151 171.057C309.024 172.366 310.671 174.063 311.721 176.083C312.351 177.037 312.673 178.136 313.077 179.17C313.384 180.237 313.594 181.352 313.772 182.419C313.239 181.433 312.9 180.399 312.351 179.461C311.785 178.54 311.333 177.57 310.655 176.746C309.476 175.001 307.942 173.546 306.23 172.366C304.535 171.17 302.597 170.314 300.579 169.716C298.544 169.166 296.412 168.778 294.2 168.681Z" fill="white"/>
<path d="M366.091 221.902C370.612 221.822 375.295 223.502 378.719 226.751C379.591 227.543 380.285 228.513 380.979 229.45C381.528 230.5 382.174 231.486 382.481 232.618C382.933 233.7 383.078 234.864 383.256 235.995C383.369 237.143 383.321 238.29 383.288 239.406C382.788 237.191 382.287 235.026 381.318 233.086C380.43 231.115 379.171 229.353 377.604 227.898C376.07 226.411 374.262 225.199 372.324 224.213C370.338 223.276 368.271 222.452 366.091 221.902Z" fill="white"/>
<path d="M338.881 198.177C339.883 198.322 340.835 198.678 341.756 199.131C342.676 199.583 343.516 200.181 344.259 200.876C345.001 201.587 345.615 202.46 346.035 203.397C346.471 204.335 346.632 205.385 346.6 206.387C346.277 205.434 346.003 204.496 345.47 203.688C344.953 202.88 344.388 202.121 343.677 201.458C342.305 200.133 340.658 199.082 338.881 198.177Z" fill="white"/>
<path d="M363.458 268.304C365.493 260.902 364.831 252.53 360.536 246.162C356.24 239.794 348.005 235.948 340.577 237.887C342.854 232.538 339.559 226.154 334.747 222.873C329.951 219.592 324.009 218.574 318.325 217.281C301.628 213.483 285.625 206.614 271.366 197.127C264.148 192.327 262.953 193.41 259.546 185.668C257.512 188.658 253.523 193.523 253.41 197.224C246.967 191.341 234.049 190.727 229.656 197.289C225.248 203.85 224.667 212.578 227.266 220.045C229.866 227.511 235.389 233.75 241.961 238.13L242.768 234.994C242.284 251.56 251.86 267.464 265.44 276.951C279.021 286.438 296.073 290.026 312.608 289.541C327.868 289.088 342.821 285.387 357.387 280.765C360.083 276.934 362.231 272.781 363.458 268.304Z" fill="#3F4553"/>
<path d="M273.934 324.078V456.638H248.098V344.83H241.009C233.532 344.83 227.477 338.769 227.477 331.286C227.477 323.803 233.532 317.742 241.009 317.742H267.604C271.108 317.742 273.934 320.571 273.934 324.078Z" stroke="#8C96FF" stroke-miterlimit="10"/>
<path d="M300.998 214.387C299.916 205.918 305.277 198.258 312.964 197.272C320.666 196.286 327.788 202.331 328.886 210.799C329.968 219.268 324.606 226.929 316.92 227.915C309.217 228.901 302.096 222.84 300.998 214.387Z" fill="#8E97FD"/>
<path d="M300.998 214.391C302.08 222.86 309.217 228.921 316.92 227.919C320.117 227.515 322.895 225.931 324.994 223.652C315.434 217.511 313.755 202.27 313.448 197.244C313.287 197.26 313.141 197.26 312.98 197.276C305.277 198.262 299.916 205.922 300.998 214.391Z" fill="#8E97FD"/>
<path d="M280.474 249.378L285.9 273.847L304.922 279.278C304.922 279.278 311.72 272.474 311.72 271.116C311.72 269.758 302.209 243.932 302.209 243.932L280.474 249.378Z" fill="#FDBCA0"/>
<path d="M302.193 243.948L280.458 249.378L282.315 257.734C286.207 259.414 290.599 260.659 295.605 261.273C298.334 261.612 301.144 261.095 303.533 259.705C304.761 258.994 305.907 258.121 307.005 257.2C304.615 250.525 302.193 243.948 302.193 243.948Z" fill="#DF8370"/>
<path d="M250.585 200.439C250.585 200.439 247.872 253.467 295.411 256.182C310.348 250.751 319.859 230.355 317.147 214.032C314.434 197.724 296.768 170.524 270.963 178.686C257.383 184.132 250.585 200.439 250.585 200.439Z" fill="#FDBCA0"/>
<path d="M401.358 261.629L435.898 219.366C437.271 217.685 438.03 215.584 438.03 213.402V201.927C438.03 201.054 438.595 200.262 439.419 199.987C440.743 199.551 442.099 200.537 442.099 201.927V209.976L454.323 188.222L470.617 186.864L448.881 224.925L416.279 282.025L401.358 261.629Z" fill="#FDBCA0"/>
<path d="M553.488 223.552L610.539 242.59L628.091 227.786C634.664 222.242 644.304 221.709 651.135 226.929C655.091 229.952 657.174 234.202 652.636 239.875C641.769 253.467 610.522 268.417 610.522 268.417L546.673 254.825L553.488 223.552Z" fill="#FDBCA0"/>
<path opacity="0.5" d="M546.706 254.825L578.405 261.58C580.439 250.154 578.857 238.614 577.387 231.535L553.504 223.568L546.706 254.825Z" fill="#DF8370"/>
<path d="M378.266 321.444C378.266 321.444 449.785 241.911 481.775 214.759C487.103 210.234 494.015 208.036 500.991 208.601C524.599 210.508 573.867 219.478 573.867 219.478C573.867 219.478 583.378 254.824 565.712 275.221C554.844 273.863 505.948 264.344 505.948 264.344L406.783 373.097L378.266 321.444Z" fill="#739BE0"/>
<path d="M568.425 292.886L614.608 344.539L653.121 351.149C660.275 352.378 664.764 359.941 661.922 366.632C660.081 370.948 655.673 376.766 645.855 374.455C622.763 369.024 601.028 362.22 601.028 362.22L546.69 318.712L568.425 292.886Z" fill="#FDBCA0"/>
<path opacity="0.5" d="M596.878 324.709L568.425 292.886L546.69 318.712L584.67 349.129C590.935 342.648 596.248 334.389 596.878 324.709Z" fill="#DF8370"/>
<path opacity="0.2" d="M481.468 230.484L381.625 327.504L406.8 373.097L505.964 264.344C505.964 264.344 554.86 273.863 565.728 275.221C566.858 273.928 567.86 272.554 568.78 271.148C551.017 256.618 529.815 239.939 514.022 228.286C504.075 220.965 490.317 221.886 481.468 230.484Z" fill="#739BE0"/>
<path d="M338.881 364.936C338.881 364.936 363.329 400.282 398.645 396.209C431.619 392.395 468.13 344.749 493.837 304.151C496.469 299.981 502.363 299.512 505.641 303.181C525.859 325.856 561.643 359.505 561.643 359.505C561.643 359.505 595.602 343.198 595.602 317.355C586.236 306.106 547.158 265.766 523.792 241.798C513.715 231.455 497.406 230.566 486.248 239.729L376.894 329.59L338.881 364.936Z" fill="#97B8FF"/>
<g opacity="0.5">
<path opacity="0.5" d="M398.645 396.209C431.619 392.394 468.13 344.749 493.837 304.15C496.469 299.981 502.363 299.512 505.641 303.181C525.859 325.856 561.643 359.505 561.643 359.505C561.643 359.505 569.555 355.691 577.742 348.854C559.543 330.721 540.263 313.686 520.013 297.896C513.457 292.789 505.674 287.52 497.519 289.136C490.43 290.558 485.44 296.748 481.097 302.534C471.698 315.043 462.316 327.553 452.918 340.062C442.664 353.719 431.829 367.861 416.472 375.311C403.376 381.647 387.664 382.358 374.052 377.234C363.491 373.259 354.319 365.792 348.102 356.386L338.881 364.951C338.881 364.935 363.329 400.281 398.645 396.209Z" fill="#97B8FF"/>
</g>
<path d="M470.633 358.471H518.172C533.174 358.471 545.333 346.301 545.333 331.287C545.333 316.272 533.174 304.102 518.172 304.102H480.499C475.041 304.102 470.617 308.531 470.617 313.993V358.471H470.633Z" fill="#8E97FD"/>
<path d="M463.834 475.386H495.468C506.497 475.386 515.443 466.432 515.443 455.393V304.086H483.809C472.78 304.086 463.834 313.039 463.834 324.078V475.386Z" fill="#8E97FD"/>
<path d="M477.351 324.078V456.638H503.187V344.83H510.276C517.753 344.83 523.808 338.769 523.808 331.286C523.808 323.803 517.753 317.742 510.276 317.742H483.681C480.177 317.742 477.351 320.571 477.351 324.078Z" stroke="#8C96FF" stroke-miterlimit="10"/>
<path d="M262.809 224.909L239.717 231.713C239.717 231.713 246.515 254.825 280.474 269.774L284.544 268.417C284.544 268.417 303.55 279.067 308.314 260.821C316 258.138 325.673 255.908 333.246 254.372C341.078 252.788 349.2 254.033 356.192 257.863L383.353 272.781C385.921 274.187 389.134 273.589 391.023 271.342L409.513 249.378L428.374 263.584L402.23 305.234C400.535 307.949 397.031 308.902 394.188 307.432L368.772 294.243L383.708 317.355C383.708 317.355 382.352 359.505 338.882 364.936C323.945 349.986 304.922 330.947 294.055 322.785C283.187 314.624 247.872 291.512 238.361 281.993C228.849 272.473 204.401 238.485 203.045 220.82C203.045 211.301 257.383 204.513 257.383 204.513L262.809 224.909Z" fill="#FFFFFE"/>
<path d="M254.121 277.952C225.733 258.477 213.703 233.038 208.616 215.535C205.193 217.167 203.045 218.945 203.045 220.836C204.401 238.517 228.849 272.489 238.361 282.009C247.872 291.528 283.187 314.64 294.055 322.801C295.993 324.256 298.205 326.066 300.579 328.135C294.782 315.819 282.025 297.104 254.121 277.952Z" fill="#F2F2F2"/>
<path d="M342.838 276.692C343.968 276.368 345.131 276.191 346.31 276.094C347.489 275.98 348.667 275.997 349.862 276.11C352.22 276.336 354.61 276.934 356.757 278.098C358.921 279.197 360.827 280.877 362.215 282.865C362.991 283.819 363.491 284.934 364.056 286.001C364.589 287.084 364.88 288.263 365.3 289.395L365.187 289.169C366.511 290.963 367.738 292.837 369.014 294.664C370.289 296.506 371.484 298.381 372.679 300.288C371.178 298.623 369.692 296.942 368.287 295.229C366.882 293.5 365.413 291.803 364.056 290.041L364.008 289.993L363.927 289.815C363.491 288.781 363.152 287.698 362.651 286.68C362.102 285.71 361.65 284.676 360.924 283.819C360.326 282.882 359.519 282.122 358.744 281.314C357.872 280.635 357.048 279.892 356.047 279.374C354.125 278.259 351.994 277.451 349.733 277.063C347.489 276.675 345.163 276.498 342.838 276.692Z" fill="#97B8FF"/>
<path d="M289.436 217.846C290.631 219.737 291.665 223.551 294.684 222.953C295.718 222.743 296.202 221.951 296.993 221.337C299.771 219.172 301.224 222.501 299.254 224.327C298.237 225.265 296.816 225.491 295.508 225.636C294.749 225.717 294.733 226.929 295.508 226.848C297.413 226.638 299.416 226.202 300.643 224.586C301.628 223.293 301.822 221.515 300.74 220.222C299.739 219.058 298.253 218.865 296.993 219.705C295.815 220.481 295.153 222.323 293.231 221.499C291.858 220.917 291.212 218.38 290.486 217.232C290.066 216.586 289.016 217.184 289.436 217.846Z" fill="#444359"/>
<path d="M283.025 235.673C289.339 240.974 298.124 239.826 302.791 233.006C303.227 232.359 302.177 231.745 301.741 232.392C297.559 238.517 289.582 239.6 283.881 234.816C283.284 234.315 282.428 235.172 283.025 235.673Z" fill="#444359"/>
<path d="M268.379 214.258C269.849 210.476 273.563 208.391 277.568 209.102C278.326 209.232 278.649 208.068 277.89 207.939C273.208 207.115 268.928 209.507 267.217 213.951C266.926 214.662 268.105 214.969 268.379 214.258Z" fill="#444359"/>
<path d="M272.239 225.005L269.025 223.147L272.723 223.47L272.239 225.005Z" fill="#444359"/>
<path d="M273.014 225.458C274.726 220.836 279.441 218.703 284.091 220.27C284.834 220.513 285.157 219.349 284.414 219.107C279.118 217.329 273.773 219.931 271.851 225.151C271.577 225.862 272.739 226.185 273.014 225.458Z" fill="#444359"/>
<path d="M275.113 220.561L273.676 216.343L276.518 219.769L275.113 220.561Z" fill="#444359"/>
<path d="M281.75 219.252L282.735 216.343L283.365 219.365L281.75 219.252Z" fill="#444359"/>
<path d="M306.198 209.329L308.458 206.371L307.667 210.008L306.198 209.329Z" fill="#444359"/>
<path d="M307.925 209.749C302.806 207.745 297.332 209.992 295.152 215.034C294.845 215.745 295.895 216.359 296.202 215.648C298.188 211.058 302.936 209.086 307.619 210.913C308.329 211.204 308.636 210.024 307.925 209.749Z" fill="#444359"/>
<path d="M300.917 209.668L300.288 205.256L302.451 209.151L300.917 209.668Z" fill="#444359"/>
<path d="M296.024 214.468L294.2 211.979L297.026 213.208L296.024 214.468Z" fill="#444359"/>
<path d="M440 223.567L456.067 173.142C456.487 171.833 457.682 170.928 459.071 170.896L487.895 170.136C490.107 170.072 491.722 172.205 491.076 174.322L475.058 226.703C474.622 228.109 473.297 229.046 471.828 228.998L442.955 227.818C440.824 227.689 439.354 225.604 440 223.567Z" fill="#3F4553"/>
<path d="M437.287 223.568L453.355 173.142C453.775 171.833 454.969 170.928 456.358 170.896L485.182 170.136C487.395 170.072 489.009 172.205 488.363 174.322L472.345 226.703C471.909 228.109 470.585 229.046 469.115 228.998L440.242 227.818C438.095 227.689 436.642 225.604 437.287 223.568Z" fill="#4E5567"/>
<path d="M483.132 178.347L472.393 213.434L470.859 218.476L470.132 220.852C469.874 221.693 469.228 222.323 468.453 222.582C468.146 222.679 467.839 222.727 467.516 222.711L461.493 222.468L444.086 221.757C442.342 221.677 441.163 219.98 441.68 218.331L449.996 192.213L453.145 182.339L454.727 177.393C454.792 177.183 454.889 176.973 455.018 176.795C455.47 176.068 456.261 175.599 457.149 175.567L457.989 175.551L480.548 174.953C482.34 174.904 483.648 176.633 483.132 178.347Z" fill="#F2EDE4"/>
<g opacity="0.35">
<path opacity="0.35" d="M472.393 213.434L470.859 218.477L455.018 176.795C455.47 176.068 456.261 175.599 457.15 175.567L457.989 175.551L472.393 213.434Z" fill="white"/>
</g>
<g opacity="0.35">
<path opacity="0.35" d="M468.453 222.582C468.146 222.679 467.84 222.727 467.517 222.711L461.493 222.468L449.996 192.213L453.145 182.339L468.453 222.582Z" fill="white"/>
</g>
<path d="M256.882 232.731C262.485 219.995 263.971 205.482 261.08 191.858C263.099 198.339 270.156 202.007 276.889 202.864C283.623 203.72 290.454 202.524 297.236 202.864C304.018 203.203 311.349 205.595 314.772 211.462C315.402 212.529 316.097 213.854 317.324 213.951C318.858 214.08 319.762 212.27 320.085 210.767C322.588 199.502 317.97 187.138 309.169 179.672C300.368 172.205 287.902 169.603 276.647 172.14C265.392 174.678 255.477 182.08 249.115 191.696C245.126 197.724 242.43 204.69 242.026 211.915C241.622 219.123 243.624 226.573 248.13 232.214C249.244 233.604 250.617 234.945 252.361 235.333C254.105 235.721 256.236 234.735 256.511 232.957" fill="#3F4553"/>
<path d="M256.729 248.976C265.082 247.271 270.369 238.6 268.538 229.61C266.706 220.619 258.449 214.713 250.095 216.418C241.742 218.123 236.455 226.794 238.286 235.784C240.118 244.775 248.375 250.681 256.729 248.976Z" fill="#8E97FD"/>
<path d="M247.306 226.024C238.134 198.031 249.615 187.478 250.132 186.799L250.471 186.767H250.552L250.891 186.75C250.503 187.284 245.885 199.971 253.426 222.985L247.306 226.024Z" fill="#8E97FD"/>
<path d="M266.667 241.668C242.93 247.971 239.022 235.252 239.07 226.072C237.94 229.03 237.617 232.391 238.312 235.801C240.152 244.804 248.404 250.703 256.753 249.006C261.064 248.101 264.552 245.353 266.667 241.668Z" fill="#8E97FD"/>
</svg>
