<svg width="728" height="472" viewBox="0 0 728 472" fill="none" xmlns="http://www.w3.org/2000/svg">
<path d="M110.834 312.851L165.7 372.013C168.787 374.424 171.284 377.508 173.001 381.028C174.719 384.549 175.611 388.415 175.612 392.332V454.561C175.612 458.347 174.108 461.978 171.43 464.655C168.753 467.332 165.122 468.837 161.336 468.837H89.9683" stroke="#D8BAA3" stroke-width="6" stroke-miterlimit="10" stroke-linecap="round"/>
<path d="M175.466 303.462C175.466 305.952 174.477 308.34 172.716 310.101C170.955 311.862 168.566 312.851 166.076 312.851H30.501C23.2076 312.85 16.2131 309.953 11.0559 304.795C5.89864 299.638 3.00092 292.644 3 285.35V177.749C2.99954 175.284 3.48509 172.842 4.42889 170.565C5.37268 168.287 6.7562 166.218 8.50032 164.475C10.2445 162.733 12.315 161.351 14.5935 160.41C16.872 159.468 19.3137 158.985 21.7792 158.987H91.3908C93.0729 158.987 94.7386 159.318 96.2927 159.961C97.8469 160.605 99.259 161.548 100.448 162.738C101.638 163.927 102.581 165.339 103.225 166.893C103.868 168.448 104.199 170.113 104.199 171.795V266.575C104.199 273.867 107.096 280.861 112.253 286.018C117.409 291.175 124.404 294.072 131.696 294.072H166.076C168.566 294.072 170.955 295.061 172.716 296.822C174.477 298.583 175.466 300.971 175.466 303.462Z" fill="white" stroke="#D8BAA3" stroke-width="6" stroke-miterlimit="10" stroke-linecap="round"/>
<path d="M175.094 306.084C174.526 308.036 173.34 309.751 171.714 310.972C170.088 312.192 168.109 312.852 166.076 312.851H30.501C23.2076 312.85 16.2131 309.953 11.0559 304.796C5.89864 299.638 3.00092 292.644 3 285.35V177.749C3.0008 174.284 3.9602 170.887 5.77204 167.934C7.58388 164.98 10.1775 162.586 13.2659 161.015C11.3259 164.036 10.2973 167.552 10.303 171.142V282.954C10.303 289.134 12.7578 295.06 17.1274 299.43C21.4971 303.8 27.4235 306.254 33.6031 306.254H173.404C173.971 306.251 174.537 306.194 175.094 306.084Z" fill="#F0E1D4" stroke="#D8BAA3" stroke-width="6" stroke-miterlimit="10" stroke-linecap="round"/>
<path d="M104.546 229.833H130.281C142.247 229.838 153.721 234.595 162.181 243.058C170.64 251.52 175.393 262.996 175.393 274.962V306.261" stroke="#D8BAA3" stroke-width="6" stroke-miterlimit="10" stroke-linecap="round"/>
<path d="M51.3667 312.851L106.233 372.013C109.32 374.424 111.817 377.508 113.534 381.028C115.251 384.549 116.144 388.415 116.144 392.332V454.561C116.144 458.347 114.64 461.978 111.963 464.655C109.286 467.332 105.655 468.837 101.869 468.837H30.501" stroke="#D8BAA3" stroke-width="6" stroke-miterlimit="10" stroke-linecap="round"/>
<path d="M112.054 87.484C112.054 87.484 137.747 83.6586 153.184 117.412C166.705 146.972 176.787 174.539 176.787 174.539C176.787 174.539 197.625 186.193 232.672 198.667V215.394C232.672 215.394 179.218 218.5 161.381 215.394C148.267 213.113 112.079 164.572 109.564 131.646C107.05 98.7202 112.054 87.484 112.054 87.484Z" fill="#374486"/>
<path d="M225.641 215.231C223.662 214.831 225.105 208.679 226.267 204.885C226.91 202.798 228.447 201.727 230.495 200.826C234.571 199.025 241.624 197.975 245.599 198.844C251.434 200.12 255.183 202.718 258.814 206.964C259.857 208.178 264.986 214.017 264.986 215.575L225.641 215.231Z" fill="#FAB6AD"/>
<path d="M87.4504 73.9036C65.2979 76.1849 22.5336 103.081 29.6106 201.842C34.1315 264.996 75.5952 296.642 80.6064 294.493C85.6177 292.344 170.649 250.435 151.171 227.889C132.534 206.328 138.599 189.83 141.531 160.632C144.463 131.434 148.869 99.6589 125.186 88.6627C86.8105 70.8538 93.3728 73.2916 87.4504 73.9036Z" fill="#3F4D90"/>
<path d="M264.969 468.377H204.396C204.333 467.411 204.316 466.492 204.33 465.595H265.039C265.107 466.523 265.084 467.454 264.969 468.377Z" fill="#383C4D"/>
<path d="M210.568 440.111C210.784 447.004 204.399 451.368 204.399 465.609H264.969C264.969 465.609 265.849 453.663 253.736 450.909C241.623 448.155 230.61 444.475 229.507 440.128L210.568 440.111Z" fill="#FFB000"/>
<path d="M145.429 223.709C145.429 223.709 237.878 217.679 260.344 245.239C282.809 272.799 239.2 381.249 234.794 440.97C234.794 440.97 212.672 443.265 203.69 440.97C194.707 438.675 186.889 322.95 209.518 294.931C209.518 294.931 126.953 315.57 93.4108 289.537C59.8692 263.503 131.47 224.196 145.429 223.709Z" fill="#383C4D"/>
<path d="M401.848 372.746L353.801 411.205C353.106 410.339 352.508 409.491 351.955 408.667L399.814 370.368C400.58 371.081 401.262 371.879 401.848 372.746Z" fill="#41465A"/>
<path d="M341.821 384.626C346.015 389.953 343.497 397.472 351.809 408.767L399.859 370.312C399.859 370.312 393.599 360.275 382.366 365.791C371.134 371.306 360.266 375.375 356.844 372.611L341.821 384.626Z" fill="#FFB000"/>
<path d="M78.0327 292.305C79.4238 300.085 154.62 322.415 238.316 267.291C238.316 267.291 251.302 340.001 335.881 388.236C335.881 388.236 354.504 379.959 359.567 368.816C359.567 368.816 299.902 292.556 278.657 230.755C269.733 204.833 157.496 218.395 141.089 223.709C124.682 229.023 71.8565 257.64 78.0327 292.305Z" fill="#41465A"/>
<path d="M81.0062 99.172C100.373 105.606 127.631 162.913 127.631 162.913C127.631 162.913 158.136 165.838 204.305 185.17C204.305 185.17 205.369 195.217 199.287 203.448C199.287 203.448 148.514 210.028 122.105 207.326C113.174 206.404 79.3335 181.091 60.7282 146.061C44.0912 114.727 57.3479 91.316 81.0062 99.172Z" fill="#49549A"/>
<path d="M203.947 185.49C203.947 185.49 216.814 178.695 222.841 180.055C228.868 181.414 236.129 186.85 236.884 188.359C237.638 189.868 242.924 197.269 242.924 198.928C242.924 200.586 225.842 199.971 223.45 199.971C221.057 199.971 205.251 200.225 202.202 199.592C199.152 198.959 203.947 185.49 203.947 185.49Z" fill="#FFCFC9"/>
<path d="M223.436 199.985C225.842 199.985 242.91 200.59 242.91 198.942C242.91 197.293 237.624 189.9 236.87 188.373C236.115 186.846 228.871 181.418 222.827 180.069C222.827 180.069 230.283 190.421 223.422 199.999" fill="#FAB6AD"/>
<path d="M106.414 42.6017C106.8 45.6064 100.098 60.7201 88.1422 72.471C77.6502 82.7752 122.779 90.7494 123.962 90.4886C125.144 90.2277 130.413 74.3593 131.494 70.6418C132.576 66.9242 106.414 42.6017 106.414 42.6017Z" fill="#FFCFC9"/>
<path d="M131.491 70.6415C131.025 72.2447 129.161 77.482 127.099 82.9419C122.119 80.5319 116.287 75.8092 111.725 66.8196C106.783 57.0822 107.398 47.1328 106.807 44.5628C106.767 44.0879 106.844 43.6105 107.03 43.1718C110.966 46.8754 132.472 67.2612 131.491 70.6415Z" fill="#FAB6AD"/>
<path d="M145.356 27.0634C147.238 34.5577 148.893 47.1223 146.334 53.2221C143.774 59.3218 139.257 70.5302 137.486 71.1179C135.716 71.7056 116.245 69.153 111.724 60.685C107.203 52.217 107.002 45.147 106.414 42.6014C105.826 40.0558 116.443 19.3917 130.013 19.7847C143.583 20.1777 144.81 24.8899 145.356 27.0634Z" fill="#FFCFC9"/>
<path d="M153.581 23.3459C149.975 24.8239 152.708 29.0074 145.93 29.6334C139.152 30.2594 137.584 21.9514 137.584 21.9514C137.584 21.9514 136.812 25.2725 133.411 26.4062C133.411 26.4062 135.222 22.8868 132.625 21.3358C130.027 19.7848 128.431 21.8609 128.431 21.8609C128.431 21.8609 126.167 20.7272 124.953 23.4328C123.739 26.1384 125.927 27.759 128.778 28.0685C128.778 28.0685 129.039 32.0886 122.661 32.7007C116.283 33.3127 114.969 29.3796 114.969 29.3796C114.969 29.3796 113.926 28.4163 113.48 31.2157C113.035 34.0152 115.219 38.557 110.771 42.1424C108.994 43.5717 107.989 44.1386 107.457 44.302C109.7 46.2425 108.615 52.1336 103.531 54.5367C96.6278 57.8022 91.5644 55.3887 90.9349 50.6174C90.3681 46.3086 93.1154 47.9987 92.4129 44.6776C92.4129 44.6776 87.9164 47.9674 85.0056 43.1753C82.6269 39.2595 86.7861 36.8078 86.7861 36.8078C86.7861 36.8078 83.8232 32.7459 86.2854 29.9082C89.0675 26.6705 93.418 28.7675 92.7816 26.7574C92.1452 24.7474 90.4829 20.0247 93.1884 17.3887C95.894 14.7527 100.185 15.8133 100.794 14.4153C101.403 13.0173 100.537 10.9377 97.7407 12.1514C97.8507 11.2493 98.1568 10.3822 98.6374 9.6108C99.118 8.83945 99.7615 8.18255 100.523 7.68614C103.002 6.01341 106.678 6.4029 109.217 7.14711C109.648 4.86927 110.723 2.08717 113.47 0.793493C118.022 -1.33829 121.27 1.25949 123.047 3.47822C123.309 2.7021 123.79 2.0183 124.432 1.50925C125.073 1.00019 125.849 0.687607 126.664 0.609179C132.082 -0.176764 136.54 1.23167 137.584 5.59957C138.686 10.2005 146.733 -0.406287 150.521 8.65988C151.296 10.5134 149.272 11.9775 151.564 13.4694C152.861 14.3145 154.527 11.5567 153.23 10.59C154.846 11.2593 156.194 12.4488 157.058 13.9702C157.754 15.1943 159.392 20.9707 153.581 23.3459Z" fill="#FFB000"/>
<path d="M10.3032 229.833H41.6018C53.5678 229.838 65.0421 234.595 73.5017 243.057C81.9613 251.52 86.7136 262.996 86.7136 274.962V306.261" stroke="#D8BAA3" stroke-width="6" stroke-miterlimit="10" stroke-linecap="round"/>
<path d="M358.639 210.418H179.288C177.95 210.418 176.668 210.949 175.722 211.895C174.776 212.84 174.245 214.123 174.245 215.46C174.245 216.798 174.776 218.08 175.722 219.026C176.668 219.971 177.95 220.503 179.288 220.503H358.639V210.418Z" fill="white"/>
<path d="M358.639 210.418H179.288C177.95 210.418 176.668 210.949 175.722 211.895C174.776 212.84 174.245 214.123 174.245 215.46V215.46C174.245 216.798 174.776 218.08 175.722 219.026C176.668 219.971 177.95 220.503 179.288 220.503H358.639" stroke="#D8BAA3" stroke-width="6" stroke-miterlimit="10"/>
<path d="M280.987 468.489L309.942 225.907C310.86 220.736 318.219 220.572 319.363 225.698L355.433 467.129" stroke="#D8BAA3" stroke-width="6" stroke-miterlimit="10" stroke-linecap="round"/>
<path d="M339.415 201.084H201.45C199.572 201.084 198.049 202.607 198.049 204.485V206.572C198.049 208.45 199.572 209.973 201.45 209.973H339.415C341.293 209.973 342.816 208.45 342.816 206.572V204.485C342.816 202.607 341.293 201.084 339.415 201.084Z" fill="white" stroke="#D8BAA3" stroke-width="6" stroke-miterlimit="10"/>
<path d="M333.809 200.931H232.686C230.071 200.931 228.315 198.417 229.369 196.177L257.934 135.416C259.555 131.973 263.196 129.751 267.216 129.751H368.342C370.957 129.751 372.709 132.265 371.656 134.505L343.091 195.262C341.473 198.705 337.832 200.931 333.809 200.931Z" fill="white" stroke="#D8BAA3" stroke-width="6" stroke-miterlimit="10"/>
<path d="M662.907 294.273H521.879V302.856H662.907V294.273Z" fill="white" stroke="#3F4D90" stroke-width="5" stroke-linejoin="round"/>
<path d="M681.412 275.846C681.412 197.001 720.566 153.614 720.566 153.614H604.177C604.177 153.614 565.022 197.001 565.022 275.846H681.412Z" fill="white" stroke="#D8BAA3" stroke-width="6" stroke-miterlimit="10"/>
<path d="M523.023 275.846H681.412C681.412 280.734 679.47 285.422 676.013 288.879C672.557 292.335 667.868 294.277 662.98 294.277H504.592C504.592 289.389 506.534 284.701 509.99 281.244C513.447 277.788 518.135 275.846 523.023 275.846Z" fill="white" stroke="#D8BAA3" stroke-width="6" stroke-miterlimit="10"/>
<path d="M661.45 466.35C660.988 466.35 660.541 466.189 660.185 465.896C659.829 465.602 659.586 465.193 659.499 464.74L628.51 302.86H646.273L663.425 464.152C663.455 464.429 663.426 464.709 663.34 464.975C663.255 465.24 663.114 465.484 662.928 465.691C662.741 465.899 662.513 466.065 662.259 466.178C662.004 466.291 661.729 466.35 661.45 466.35Z" fill="white" stroke="#3F4D90" stroke-width="5" stroke-linejoin="round"/>
<path d="M523.628 466.35C524.09 466.35 524.537 466.189 524.893 465.896C525.249 465.602 525.492 465.193 525.579 464.74L556.568 302.86H538.808L521.653 464.152C521.623 464.429 521.652 464.709 521.738 464.975C521.824 465.24 521.964 465.484 522.15 465.691C522.337 465.899 522.565 466.065 522.819 466.178C523.074 466.291 523.35 466.35 523.628 466.35Z" fill="white" stroke="#3F4D90" stroke-width="5" stroke-linejoin="round"/>
<path d="M489.099 202.962C536.742 214.438 560.613 201.508 564.939 193.621C564.939 193.621 562.557 178.813 564.316 155.857C566.076 132.901 562.376 81.4882 562.376 81.4882C551.877 85.5257 536.513 91.9871 531.94 105.445C527.367 118.904 526.647 155.777 526.376 171.541C526.376 171.541 501.931 179.926 490.98 185.65C489.759 186.287 488.767 187.29 488.143 188.518C487.52 189.746 487.296 191.139 487.503 192.501L489.099 202.962Z" fill="#FFB000"/>
<path d="M536.12 171.541C536.12 171.541 531.373 169.656 521.938 171.74" stroke="white" stroke-width="5" stroke-linejoin="round"/>
<path d="M491.773 194.56C492.033 196.159 491.842 197.798 491.221 199.295C490.601 200.791 489.576 202.085 488.261 203.031L487.715 203.417C483.983 205.994 476.826 208.077 475.129 207.962C473.432 207.848 462.999 205.918 462.999 205.918C462.999 205.918 462.627 204.495 464.154 202.621C465.68 200.746 476.864 202.235 472.775 198.121C470.956 196.292 461.897 200.419 457.957 204.996C454.016 209.573 452.146 205.945 452.146 205.945C452.146 205.945 455.919 197.467 457.265 195.933C458.61 194.4 467.611 187.886 473.693 186.892C476.593 186.419 480.669 186.686 484.717 187.389C486.493 187.702 488.126 188.561 489.391 189.847C490.656 191.132 491.488 192.779 491.773 194.56Z" fill="#C36F0B"/>
<path d="M517.835 451.334C521.681 450.464 526.998 448.6 529.961 444.674L531.644 435.594C531.644 435.594 520.585 436.853 510.483 435.886L512.441 447.769C512.549 448.363 512.776 448.93 513.109 449.434C513.441 449.938 513.873 450.37 514.377 450.703C514.881 451.036 515.447 451.264 516.041 451.372C516.635 451.48 517.246 451.467 517.835 451.334Z" fill="#C36F0B"/>
<path d="M472.827 462.452C472.886 463.126 474.103 466.347 474.103 466.347L536.308 464.239V460.762C536.308 454.94 534.329 449.915 533.282 447.731C531.669 444.361 529.429 445.203 529.429 445.203C529.429 445.203 523.347 451.149 516.523 451.149C515.209 451.149 514.267 450.454 513.592 449.438C513.19 448.81 512.876 448.129 512.66 447.414C512.376 446.483 512.176 445.529 512.062 444.563C512.011 444.154 511.862 443.764 511.627 443.425C511.393 443.086 511.081 442.809 510.716 442.617C510.352 442.425 509.947 442.323 509.535 442.321C509.123 442.319 508.717 442.416 508.351 442.605C505.673 443.996 502.422 447.063 493.714 451.765C493.279 452.001 492.827 452.241 492.361 452.488C481.772 458.059 472.945 455.987 472.827 462.452Z" fill="#FFB000"/>
<path d="M479.828 469.424C478.026 469.424 475.828 468.61 474.65 467.289C473.916 466.43 473.389 465.415 473.109 464.321C472.829 463.226 472.803 462.083 473.032 460.977H473.081C473.331 462.293 474.024 463.483 475.046 464.349C476.067 465.215 477.355 465.704 478.694 465.734L532.622 464.156C534.294 464.156 535.727 462.998 536.311 461.373V464.997C536.311 467.449 534.534 469.435 532.34 469.435L479.828 469.424Z" fill="#3F4D79"/>
<path d="M491.373 452.996C494.552 453.571 497.504 455.031 499.891 457.209C502.277 459.387 504 462.193 504.863 465.307L507.346 465.22C506.559 462.012 504.974 459.054 502.738 456.623C500.503 454.191 497.689 452.363 494.559 451.309L493.717 451.765C493.282 452.001 492.83 452.241 492.364 452.488C492.035 452.667 491.705 452.836 491.373 452.996Z" fill="#3F4D79"/>
<path d="M485.221 455.382V455.705C488.384 455.709 491.478 456.634 494.124 458.368C496.77 460.101 498.853 462.568 500.119 465.467L502.7 465.38C501.622 462.531 499.865 459.989 497.583 457.971C495.301 455.954 492.562 454.523 489.603 453.803C488.171 454.405 486.708 454.932 485.221 455.382Z" fill="#3F4D79"/>
<path d="M593.41 451.334C597.256 450.464 602.222 448.6 605.185 444.674L606.176 434.839C606.176 434.839 595.803 435.747 585.7 434.777L588.02 447.769C588.127 448.363 588.354 448.929 588.687 449.434C589.019 449.938 589.45 450.369 589.954 450.703C590.457 451.036 591.023 451.263 591.617 451.372C592.211 451.48 592.821 451.467 593.41 451.334Z" fill="#C36F0B"/>
<path d="M551.922 462.451C551.981 463.126 553.198 466.346 553.198 466.346L611.887 464.239V460.761C611.887 454.94 609.908 449.915 608.864 447.731C607.247 444.361 605.011 444.5 605.011 444.5C605.011 444.5 598.925 451.149 592.102 451.149C590.788 451.149 589.845 450.454 589.174 449.438C588.771 448.81 588.457 448.129 588.242 447.414C587.957 446.484 587.757 445.529 587.644 444.563C587.592 444.154 587.443 443.764 587.208 443.425C586.974 443.086 586.661 442.809 586.296 442.617C585.932 442.425 585.527 442.323 585.115 442.321C584.703 442.319 584.296 442.416 583.93 442.605C581.252 443.996 581.516 447.063 572.802 451.765C572.367 452.001 571.915 452.241 571.449 452.488C560.863 458.059 552.037 455.987 551.922 462.451Z" fill="#FFC033"/>
<path d="M558.919 469.424C557.117 469.424 554.919 468.61 553.74 467.289C553.007 466.43 552.48 465.415 552.2 464.321C551.92 463.226 551.893 462.083 552.123 460.977H552.172C552.422 462.293 553.115 463.483 554.137 464.349C555.158 465.215 556.446 465.704 557.785 465.734L608.21 464.156C609.883 464.156 611.312 462.998 611.897 461.373V464.997C611.897 467.449 610.12 469.435 607.925 469.435L558.919 469.424Z" fill="#3F4D79"/>
<path d="M570.465 452.996C573.644 453.571 576.596 455.031 578.982 457.209C581.369 459.386 583.092 462.193 583.955 465.307L586.438 465.22C585.65 462.011 584.066 459.054 581.83 456.622C579.595 454.191 576.781 452.363 573.65 451.309L572.809 451.765C572.374 452.001 571.922 452.241 571.456 452.488C571.127 452.667 570.796 452.836 570.465 452.996Z" fill="#3F4D79"/>
<path d="M564.313 455.382V455.705C567.476 455.709 570.57 456.634 573.216 458.368C575.861 460.101 577.945 462.568 579.211 465.467L581.792 465.38C580.713 462.531 578.957 459.988 576.675 457.971C574.393 455.954 571.654 454.523 568.695 453.803C567.263 454.405 565.8 454.932 564.313 455.382Z" fill="#3F4D79"/>
<path d="M609.38 293.512C609.38 293.512 634.488 329.279 612.45 433.66C612.45 433.66 600.901 437.534 582.494 434.704C582.494 434.704 557.574 333.209 554.183 289.231C548.069 289.05 541.736 288.939 535.209 288.939C535.209 288.939 561.545 342.769 535.981 435.562C535.981 435.562 517.15 436.908 507.249 435.496C507.249 435.496 476.858 283.778 478.823 269.669C481.174 252.688 534.666 231.005 568.316 227.948L643.627 227.482C643.627 227.482 662.932 246.957 654.874 274.587C648.83 295.317 609.38 293.512 609.38 293.512Z" fill="#D8BAA3"/>
<path d="M649.115 234.639C649.36 235.378 649.734 236.066 650.221 236.674C650.221 236.674 584.226 259.139 556.454 230.876C586.629 241.438 636.147 236.263 649.115 234.639Z" fill="#F0E1D4"/>
<path d="M621.259 63.196C624.688 66.0129 666.948 90.5058 673.003 93.8722C679.057 97.2385 644.757 171.121 645.825 197.481C646.618 217.046 651.987 234.212 651.987 234.212C651.987 234.212 591.445 243.125 556.454 230.877C556.454 230.877 563.722 220.096 559.684 197.77C556.412 179.655 549.752 129.368 551.609 110.022C552.284 103.022 553.494 85.6615 562.39 81.4883C575.848 75.1695 585.134 69.6644 585.134 69.6644L621.259 63.196Z" fill="#FFB000"/>
<path d="M559.681 198.813C556.409 180.698 549.944 144.837 554.774 120.566" stroke="white" stroke-width="5" stroke-linejoin="round"/>
<path d="M673.003 94.0738C691.038 109.956 692.755 175.582 681.349 187.542C659.009 210.96 591.574 210.696 591.574 210.696C591.574 210.696 584.518 209.677 588.555 193.259C588.555 193.259 638.55 168.012 643.394 168.161C643.394 168.161 642.587 121.324 652.815 107.331C663.043 93.3365 670.881 92.2063 673.003 94.0738Z" fill="#FFB000"/>
<path d="M647.63 205.138C621.158 211.868 591.574 211.05 591.574 211.05" stroke="white" stroke-width="5" stroke-linecap="round" stroke-linejoin="round"/>
<path d="M588.556 192.908C588.556 192.908 615.132 177.989 643.394 167.81C643.394 167.81 644.57 131.921 647.543 121.39" stroke="white" stroke-width="5" stroke-linejoin="round"/>
<path d="M589.588 193.009C589.588 193.009 574.495 187.309 569.616 190.174C564.278 193.304 554.395 203.309 553.818 204.992C553.24 206.676 553.418 208.432 553.522 210.24C553.626 212.049 571.71 212.017 573.852 211.892C575.994 211.767 587.738 213.036 589.72 210.884C597.003 202.993 589.588 193.009 589.588 193.009Z" fill="#C36F0B"/>
<path d="M618.23 39.5657C618.23 39.5657 614.193 49.6508 621.259 63.2135C621.259 63.2135 611.567 77.0162 596.221 76.9293C576.398 76.8215 585.116 69.6645 585.116 69.6645C585.116 69.6645 588.145 64.8167 587.551 56.1366L618.23 39.5657Z" fill="#B65A18"/>
<path d="M615.132 45.5574C614.728 47.4422 614.669 55.5799 611.306 57.8682C606.952 60.8311 594.141 65.4772 584.452 61.9787C583.21 61.5301 577.048 43.4047 577.452 37.2146C577.855 31.0244 577.991 9.08755 591.71 3.56856C605.429 -1.95043 621.854 1.13422 626.43 17.2947C628.301 23.9022 626.757 29.8142 624.278 34.5124C624.278 34.5124 625.864 37.3571 623.321 40.1914C620.557 43.283 615.132 45.5574 615.132 45.5574Z" fill="#C36F0B"/>
<path d="M624.284 34.509C621.057 30.861 616.613 37.3468 616.613 37.3468L616.55 37.6945C615.335 37.0373 614.3 36.09 613.539 34.9368C611.681 32.1269 611.528 29.0005 611.775 17.7573C611.775 17.7573 593.758 19.6596 580.692 16.5193C582.699 10.9099 586.051 5.83603 591.716 3.55818C605.443 -1.96081 621.864 1.12385 626.437 17.2844C628.308 23.8884 626.764 29.8108 624.284 34.509Z" fill="#722D54"/>
<path d="M600.396 71.5945C602.907 70.4295 613.316 66.6389 620.671 59.1898C620.671 59.1898 628.012 66.3085 628.078 67.5744C628.144 68.8402 612.53 79.4261 608.134 79.8747L600.396 71.5945Z" fill="#F0E1D4"/>
<path d="M585.133 65.8774C585.829 67.1329 587.589 70.0958 592.614 71.4416C592.614 71.4416 588.934 77.451 585.523 79.3358C585.523 79.3358 579.959 76.9015 578.446 73.7299C577.444 71.6399 585.133 65.8774 585.133 65.8774Z" fill="#F0E1D4"/>
<path d="M592.614 71.4413L596.224 76.9116L600.397 71.5943L604.222 75.684C604.222 75.684 598.888 78.2261 588.921 76.4039L592.614 71.4413Z" fill="#D8BAA3"/>
<path d="M401.883 211.092H591.337C593.182 211.092 594.951 211.825 596.255 213.13C597.56 214.434 598.292 216.203 598.292 218.048V219.891C598.292 221.735 597.56 223.505 596.255 224.809C594.951 226.113 593.182 226.846 591.337 226.846H402.231" fill="white"/>
<path d="M401.883 211.092H591.337C593.182 211.092 594.951 211.825 596.255 213.13C597.56 214.434 598.292 216.203 598.292 218.048V219.891C598.292 221.735 597.56 223.505 596.255 224.809C594.951 226.113 593.182 226.846 591.337 226.846H402.231" stroke="#D8BAA3" stroke-width="6" stroke-miterlimit="10"/>
<path d="M551.407 469.88V227.096H566.538V469.873" fill="white"/>
<path d="M551.407 231.923V227.096H566.538V243.876L551.407 231.923Z" fill="#F0E1D4"/>
<path d="M551.407 469.528V227.096H566.538V469.521" stroke="#D8BAA3" stroke-width="6" stroke-miterlimit="10"/>
<path d="M557.62 211.093H481.866C480.68 211.092 479.518 210.757 478.514 210.124C477.511 209.492 476.706 208.588 476.194 207.518L451.709 156.355C451.473 155.864 451.366 155.321 451.398 154.777C451.43 154.234 451.598 153.707 451.889 153.246C452.179 152.786 452.582 152.406 453.059 152.143C453.535 151.881 454.071 151.743 454.616 151.743H530.369C531.555 151.743 532.717 152.079 533.721 152.712C534.725 153.344 535.529 154.248 536.041 155.318L560.527 206.488C560.76 206.979 560.866 207.521 560.834 208.064C560.801 208.606 560.632 209.132 560.342 209.592C560.052 210.051 559.65 210.43 559.174 210.692C558.698 210.955 558.163 211.092 557.62 211.093Z" fill="white" stroke="#3F4D90" stroke-width="5" stroke-miterlimit="10"/>
<path d="M557.5 210.324H482.968C481.857 210.283 480.779 209.94 479.85 209.33C478.921 208.721 478.176 207.869 477.696 206.867L466.915 184.315L467.078 184.029H548.803L548.938 184.311L559.249 205.872C560.811 208.39 559.792 210.324 557.5 210.324Z" fill="#F0E1D4"/>
<path d="M549.682 183.918L535.824 208.115C534.781 209.938 532.572 211.099 530.148 211.099H454.395C452.024 211.099 450.466 209.033 451.488 207.246L464.856 183.918H549.682Z" fill="white" stroke="#3F4D90" stroke-width="5" stroke-linejoin="round"/>
</svg>
