<svg width="150" height="38" viewBox="0 0 150 38" fill="none" xmlns="http://www.w3.org/2000/svg">
<path d="M2.184 10.42H7.14C11.284 10.42 14.1773 11.4 15.82 13.36C17.4813 15.32 18.312 17.6533 18.312 20.36C18.312 22.2453 17.9573 23.9907 17.248 25.596C16.5387 27.1827 15.3627 28.48 13.72 29.488C12.096 30.496 9.95867 31 7.308 31H2.184V10.42ZM7.644 28.228C10.22 28.228 12.0867 27.5 13.244 26.044C14.42 24.5693 15.008 22.7213 15.008 20.5C15.008 18.3347 14.42 16.5707 13.244 15.208C12.068 13.8453 10.2013 13.164 7.644 13.164H5.32V28.228H7.644ZM27.3413 31.28C25.8107 31.28 24.532 30.9813 23.5053 30.384C22.4787 29.768 21.7227 28.956 21.2373 27.948C20.752 26.9213 20.5093 25.8013 20.5093 24.588C20.5093 23.2253 20.7893 22.0307 21.3493 21.004C21.928 19.9773 22.7213 19.1933 23.7293 18.652C24.7373 18.092 25.876 17.812 27.1453 17.812C29.124 17.812 30.5893 18.3627 31.5413 19.464C32.512 20.5467 32.9973 22.0773 32.9973 24.056C32.9973 24.56 32.9693 25.0827 32.9133 25.624H23.6733C23.8787 26.7627 24.28 27.584 24.8773 28.088C25.4933 28.592 26.3427 28.844 27.4253 28.844C28.3213 28.844 29.0587 28.7693 29.6373 28.62C30.216 28.4707 30.748 28.2653 31.2333 28.004L32.1573 30.16C31.6907 30.4587 31.056 30.72 30.2533 30.944C29.4507 31.168 28.48 31.28 27.3413 31.28ZM30.0573 23.524C30.076 22.3667 29.824 21.5547 29.3013 21.088C28.7787 20.6027 28.032 20.36 27.0613 20.36C25.1013 20.36 23.972 21.4147 23.6733 23.524H30.0573ZM36.0837 18.148H39.1077V20.668C39.4064 19.8093 39.8917 19.1187 40.5637 18.596C41.2357 18.0733 42.001 17.812 42.8597 17.812C43.457 17.812 43.8677 17.868 44.0917 17.98L43.6717 21.032C43.5037 20.92 43.1397 20.864 42.5797 20.864C41.7024 20.864 40.8997 21.144 40.1717 21.704C39.4624 22.264 39.1077 23.16 39.1077 24.392V31H36.0837V18.148ZM54.7702 13.108H45.7822V10.42H59.6982L49.5342 28.256H59.2782V31H44.4662L54.7702 13.108ZM62.6964 18.148H65.8324V31H62.6964V18.148ZM64.2364 15.74C63.6577 15.74 63.1724 15.544 62.7804 15.152C62.3884 14.76 62.1924 14.2747 62.1924 13.696C62.1924 13.1733 62.3884 12.7253 62.7804 12.352C63.1724 11.9787 63.6577 11.792 64.2364 11.792C64.7964 11.792 65.2724 11.9787 65.6644 12.352C66.0564 12.7253 66.2524 13.1733 66.2524 13.696C66.2524 14.2747 66.0564 14.76 65.6644 15.152C65.291 15.544 64.815 15.74 64.2364 15.74ZM70.0193 18.148H72.9873L73.0153 20.5C73.3699 19.716 73.9299 19.072 74.6953 18.568C75.4606 18.064 76.3566 17.812 77.3833 17.812C78.7086 17.812 79.7259 18.092 80.4353 18.652C81.1446 19.1933 81.6206 19.9587 81.8633 20.948C82.1059 21.9373 82.2273 23.2253 82.2273 24.812V31H79.2033V24.896C79.2033 23.272 79.0446 22.1053 78.7273 21.396C78.4099 20.668 77.7566 20.304 76.7673 20.304C76.2073 20.304 75.6379 20.4813 75.0593 20.836C74.4806 21.172 73.9953 21.6667 73.6033 22.32C73.2299 22.9733 73.0433 23.7387 73.0433 24.616V31H70.0193V18.148ZM92.2007 31.28C90.6701 31.28 89.3914 30.9813 88.3647 30.384C87.3381 29.768 86.5821 28.956 86.0967 27.948C85.6114 26.9213 85.3687 25.8013 85.3687 24.588C85.3687 23.2253 85.6487 22.0307 86.2087 21.004C86.7874 19.9773 87.5807 19.1933 88.5887 18.652C89.5967 18.092 90.7354 17.812 92.0047 17.812C93.9834 17.812 95.4487 18.3627 96.4007 19.464C97.3714 20.5467 97.8567 22.0773 97.8567 24.056C97.8567 24.56 97.8287 25.0827 97.7727 25.624H88.5327C88.7381 26.7627 89.1394 27.584 89.7367 28.088C90.3527 28.592 91.2021 28.844 92.2847 28.844C93.1807 28.844 93.9181 28.7693 94.4967 28.62C95.0754 28.4707 95.6074 28.2653 96.0927 28.004L97.0167 30.16C96.5501 30.4587 95.9154 30.72 95.1127 30.944C94.3101 31.168 93.3394 31.28 92.2007 31.28ZM94.9167 23.524C94.9354 22.3667 94.6834 21.5547 94.1607 21.088C93.6381 20.6027 92.8914 20.36 91.9207 20.36C89.9607 20.36 88.8314 21.4147 88.5327 23.524H94.9167Z" fill="#3F414E"/>
</svg>
