<svg width="46" height="46" viewBox="0 0 46 46" fill="none" xmlns="http://www.w3.org/2000/svg">
<path d="M17.3233 17.3113C17.3233 20.2925 19.748 22.7154 22.7311 22.7154C25.7143 22.7154 28.1388 20.2851 28.1388 17.3041C28.1388 14.3229 25.7141 11.9 22.7311 11.9C19.7479 11.9 17.3233 14.323 17.3233 17.3113ZM18.9657 17.3041C18.9657 15.2333 20.6517 13.5413 22.7311 13.5413C24.8104 13.5413 26.4965 15.2333 26.4965 17.3041C26.4965 19.3748 24.8033 21.0669 22.7311 21.0669C20.6588 21.0669 18.9657 19.3748 18.9657 17.3041Z" fill="#A0A3B1" stroke="#A0A3B1" stroke-width="0.2"/>
<path d="M27.7543 35.0001H17.7073C15.1078 35.0001 13 32.6235 13 29.6924C13 26.7612 15.1165 24.3847 17.7073 24.3847H27.7543C30.3539 24.3847 32.4616 26.7712 32.4616 29.6924C32.4616 32.6136 30.3539 35.0001 27.7543 35.0001ZM17.7073 26.3652C16.0826 26.3652 14.7565 27.8604 14.7565 29.6924C14.7565 31.5243 16.0826 33.0196 17.7073 33.0196H27.7543C29.379 33.0196 30.7052 31.5243 30.7052 29.6924C30.7052 27.8604 29.379 26.3652 27.7543 26.3652H17.7073Z" fill="#A0A3B1"/>
</svg>
