<svg width="624" height="492" viewBox="0 0 624 492" fill="none" xmlns="http://www.w3.org/2000/svg">
<path opacity="0.1" d="M545.749 41.5171C541.619 17.5288 520.815 0 496.474 0H50.001C22.3868 0 0.00109863 22.3858 0.00109863 50V441.408C0.00109863 469.022 22.3868 491.408 50.0011 491.408H563.856C594.861 491.408 618.391 463.48 613.131 432.925L545.749 41.5171Z" fill="#526CF5"/>
<ellipse rx="45.2526" ry="25.547" transform="matrix(-0.884714 0.466134 -0.534646 -0.845076 405.562 57.5605)" stroke="white" stroke-width="1.5"/>
<path d="M152.22 211.335V222.727H150.716V217.399H144.7V222.727H143.196V211.335H144.7V216.087H150.716V211.335H152.22ZM161.815 221.639V222.695C161.537 222.802 161.228 222.855 160.887 222.855C160.108 222.855 159.708 222.45 159.687 221.639C158.908 222.514 157.911 222.951 156.695 222.951C155.884 222.951 155.239 222.743 154.759 222.327C154.289 221.911 154.055 221.34 154.055 220.615C154.055 219.143 155.031 218.284 156.983 218.039C157.111 218.018 157.297 217.996 157.543 217.975C158.471 217.868 159.041 217.746 159.255 217.607C159.5 217.436 159.623 217.143 159.623 216.727C159.623 215.82 158.999 215.367 157.751 215.367C157.111 215.367 156.625 215.5 156.295 215.767C155.964 216.023 155.767 216.45 155.703 217.047H154.375C154.396 216.162 154.711 215.474 155.319 214.983C155.927 214.492 156.764 214.247 157.831 214.247C158.993 214.247 159.857 214.514 160.423 215.047C160.604 215.218 160.737 215.442 160.823 215.719C160.908 215.996 160.956 216.226 160.967 216.407C160.977 216.578 160.983 216.839 160.983 217.191C160.983 217.596 160.972 218.21 160.951 219.031C160.929 219.852 160.919 220.466 160.919 220.871C160.919 221.17 160.956 221.383 161.031 221.511C161.116 221.628 161.265 221.687 161.479 221.687C161.564 221.687 161.676 221.671 161.815 221.639ZM159.623 218.439C159.527 218.514 159.425 218.578 159.319 218.631C159.212 218.684 159.073 218.727 158.903 218.759C158.743 218.791 158.631 218.818 158.567 218.839C158.513 218.85 158.375 218.871 158.151 218.903C157.927 218.924 157.809 218.935 157.799 218.935C157.468 218.978 157.249 219.01 157.143 219.031C157.047 219.042 156.855 219.084 156.567 219.159C156.289 219.234 156.092 219.319 155.975 219.415C155.857 219.511 155.74 219.655 155.623 219.847C155.516 220.028 155.463 220.247 155.463 220.503C155.463 220.93 155.607 221.266 155.895 221.511C156.193 221.756 156.599 221.879 157.111 221.879C157.761 221.879 158.343 221.687 158.855 221.303C159.367 220.919 159.623 220.466 159.623 219.943V218.439ZM168.909 222.727H167.549V214.471H168.909V217.751H173.037V214.471H174.397V222.727H173.037V218.951H168.909V222.727ZM183.752 221.639V222.695C183.475 222.802 183.165 222.855 182.824 222.855C182.045 222.855 181.645 222.45 181.624 221.639C180.845 222.514 179.848 222.951 178.632 222.951C177.821 222.951 177.176 222.743 176.696 222.327C176.227 221.911 175.992 221.34 175.992 220.615C175.992 219.143 176.968 218.284 178.92 218.039C179.048 218.018 179.235 217.996 179.48 217.975C180.408 217.868 180.979 217.746 181.192 217.607C181.437 217.436 181.56 217.143 181.56 216.727C181.56 215.82 180.936 215.367 179.688 215.367C179.048 215.367 178.563 215.5 178.232 215.767C177.901 216.023 177.704 216.45 177.64 217.047H176.312C176.333 216.162 176.648 215.474 177.256 214.983C177.864 214.492 178.701 214.247 179.768 214.247C180.931 214.247 181.795 214.514 182.36 215.047C182.541 215.218 182.675 215.442 182.76 215.719C182.845 215.996 182.893 216.226 182.904 216.407C182.915 216.578 182.92 216.839 182.92 217.191C182.92 217.596 182.909 218.21 182.888 219.031C182.867 219.852 182.856 220.466 182.856 220.871C182.856 221.17 182.893 221.383 182.968 221.511C183.053 221.628 183.203 221.687 183.416 221.687C183.501 221.687 183.613 221.671 183.752 221.639ZM181.56 218.439C181.464 218.514 181.363 218.578 181.256 218.631C181.149 218.684 181.011 218.727 180.84 218.759C180.68 218.791 180.568 218.818 180.504 218.839C180.451 218.85 180.312 218.871 180.088 218.903C179.864 218.924 179.747 218.935 179.736 218.935C179.405 218.978 179.187 219.01 179.08 219.031C178.984 219.042 178.792 219.084 178.504 219.159C178.227 219.234 178.029 219.319 177.912 219.415C177.795 219.511 177.677 219.655 177.56 219.847C177.453 220.028 177.4 220.247 177.4 220.503C177.4 220.93 177.544 221.266 177.832 221.511C178.131 221.756 178.536 221.879 179.048 221.879C179.699 221.879 180.28 221.687 180.792 221.303C181.304 220.919 181.56 220.466 181.56 219.943V218.439ZM192.138 219.719C192.02 220.711 191.642 221.5 191.002 222.087C190.372 222.674 189.551 222.967 188.538 222.967C187.29 222.967 186.324 222.583 185.642 221.815C184.959 221.036 184.618 220.002 184.618 218.711C184.618 217.335 184.975 216.247 185.69 215.447C186.404 214.636 187.37 214.231 188.586 214.231C189.599 214.231 190.41 214.487 191.018 214.999C191.626 215.5 191.983 216.22 192.09 217.159H190.682C190.436 215.964 189.743 215.367 188.602 215.367C187.812 215.367 187.188 215.66 186.73 216.247C186.271 216.823 186.042 217.607 186.042 218.599C186.042 219.602 186.26 220.391 186.698 220.967C187.135 221.543 187.738 221.831 188.506 221.831C189.124 221.831 189.626 221.65 190.01 221.287C190.404 220.924 190.655 220.402 190.762 219.719H192.138ZM199.361 214.471V215.639C199.958 214.69 200.886 214.215 202.145 214.215C203.297 214.215 204.209 214.604 204.881 215.383C205.563 216.162 205.905 217.218 205.905 218.551C205.905 219.884 205.569 220.951 204.897 221.751C204.235 222.54 203.339 222.935 202.209 222.935C201.025 222.935 200.102 222.482 199.441 221.575V225.911H198.081V214.471H199.361ZM201.937 215.351C201.147 215.351 200.523 215.639 200.065 216.215C199.617 216.78 199.393 217.564 199.393 218.567C199.393 219.57 199.622 220.359 200.081 220.935C200.55 221.5 201.185 221.783 201.985 221.783C202.763 221.783 203.377 221.495 203.825 220.919C204.273 220.343 204.497 219.559 204.497 218.567C204.497 217.564 204.267 216.78 203.809 216.215C203.361 215.639 202.737 215.351 201.937 215.351ZM214.877 221.639V222.695C214.6 222.802 214.29 222.855 213.949 222.855C213.17 222.855 212.77 222.45 212.749 221.639C211.97 222.514 210.973 222.951 209.757 222.951C208.946 222.951 208.301 222.743 207.821 222.327C207.352 221.911 207.117 221.34 207.117 220.615C207.117 219.143 208.093 218.284 210.045 218.039C210.173 218.018 210.36 217.996 210.605 217.975C211.533 217.868 212.104 217.746 212.317 217.607C212.562 217.436 212.685 217.143 212.685 216.727C212.685 215.82 212.061 215.367 210.813 215.367C210.173 215.367 209.688 215.5 209.357 215.767C209.026 216.023 208.829 216.45 208.765 217.047H207.437C207.458 216.162 207.773 215.474 208.381 214.983C208.989 214.492 209.826 214.247 210.893 214.247C212.056 214.247 212.92 214.514 213.485 215.047C213.666 215.218 213.8 215.442 213.885 215.719C213.97 215.996 214.018 216.226 214.029 216.407C214.04 216.578 214.045 216.839 214.045 217.191C214.045 217.596 214.034 218.21 214.013 219.031C213.992 219.852 213.981 220.466 213.981 220.871C213.981 221.17 214.018 221.383 214.093 221.511C214.178 221.628 214.328 221.687 214.541 221.687C214.626 221.687 214.738 221.671 214.877 221.639ZM212.685 218.439C212.589 218.514 212.488 218.578 212.381 218.631C212.274 218.684 212.136 218.727 211.965 218.759C211.805 218.791 211.693 218.818 211.629 218.839C211.576 218.85 211.437 218.871 211.213 218.903C210.989 218.924 210.872 218.935 210.861 218.935C210.53 218.978 210.312 219.01 210.205 219.031C210.109 219.042 209.917 219.084 209.629 219.159C209.352 219.234 209.154 219.319 209.037 219.415C208.92 219.511 208.802 219.655 208.685 219.847C208.578 220.028 208.525 220.247 208.525 220.503C208.525 220.93 208.669 221.266 208.957 221.511C209.256 221.756 209.661 221.879 210.173 221.879C210.824 221.879 211.405 221.687 211.917 221.303C212.429 220.919 212.685 220.466 212.685 219.943V218.439ZM216.927 213.319C217.289 212.754 217.727 212.338 218.239 212.071C218.751 211.794 219.401 211.628 220.191 211.575C221.076 211.511 221.615 211.426 221.807 211.319C221.935 211.255 222.031 211.17 222.095 211.063H223.455C223.423 211.234 223.375 211.388 223.311 211.527C223.257 211.666 223.193 211.788 223.119 211.895C223.055 211.991 222.959 212.082 222.831 212.167C222.713 212.252 222.612 212.327 222.527 212.391C222.441 212.444 222.313 212.498 222.143 212.551C221.983 212.594 221.855 212.631 221.759 212.663C221.663 212.684 221.513 212.706 221.311 212.727C221.119 212.748 220.98 212.764 220.895 212.775C220.809 212.786 220.655 212.796 220.431 212.807C220.207 212.818 220.063 212.828 219.999 212.839C219.124 212.903 218.441 213.244 217.951 213.863C217.46 214.471 217.151 215.287 217.023 216.311H217.071C217.305 215.746 217.679 215.292 218.191 214.951C218.703 214.61 219.295 214.439 219.967 214.439C221.14 214.439 222.057 214.812 222.719 215.559C223.391 216.295 223.727 217.33 223.727 218.663C223.727 220.039 223.385 221.106 222.703 221.863C222.031 222.62 221.081 222.999 219.855 222.999C218.852 222.999 218.004 222.706 217.311 222.119C216.617 221.522 216.191 220.668 216.031 219.559C215.967 219.111 215.935 218.61 215.935 218.055C215.935 215.911 216.265 214.332 216.927 213.319ZM217.327 218.711C217.327 219.65 217.551 220.407 217.999 220.983C218.457 221.559 219.081 221.847 219.871 221.847C220.639 221.847 221.241 221.57 221.679 221.015C222.116 220.46 222.335 219.687 222.335 218.695C222.335 217.724 222.111 216.962 221.663 216.407C221.215 215.852 220.607 215.575 219.839 215.575C219.071 215.575 218.457 215.858 217.999 216.423C217.551 216.978 217.327 217.74 217.327 218.711ZM226.002 215.415C226.728 214.626 227.714 214.231 228.962 214.231C230.21 214.231 231.181 214.61 231.874 215.367C232.568 216.124 232.914 217.186 232.914 218.551C232.914 219.948 232.568 221.036 231.874 221.815C231.181 222.594 230.205 222.983 228.946 222.983C227.688 222.983 226.701 222.599 225.986 221.831C225.272 221.063 224.914 219.996 224.914 218.631C224.914 217.276 225.277 216.204 226.002 215.415ZM230.818 216.247C230.36 215.66 229.73 215.367 228.93 215.367C228.13 215.367 227.496 215.66 227.026 216.247C226.557 216.834 226.322 217.618 226.322 218.599C226.322 219.612 226.552 220.407 227.01 220.983C227.48 221.548 228.13 221.831 228.962 221.831C229.762 221.831 230.386 221.543 230.834 220.967C231.293 220.391 231.522 219.596 231.522 218.583C231.522 217.602 231.288 216.823 230.818 216.247ZM240.573 215.671H237.613V222.727H236.253V215.671H233.293V214.471H240.573V215.671ZM248.69 221.639V222.695C248.412 222.802 248.103 222.855 247.762 222.855C246.983 222.855 246.583 222.45 246.562 221.639C245.783 222.514 244.786 222.951 243.57 222.951C242.759 222.951 242.114 222.743 241.634 222.327C241.164 221.911 240.93 221.34 240.93 220.615C240.93 219.143 241.906 218.284 243.858 218.039C243.986 218.018 244.172 217.996 244.418 217.975C245.346 217.868 245.916 217.746 246.13 217.607C246.375 217.436 246.498 217.143 246.498 216.727C246.498 215.82 245.874 215.367 244.626 215.367C243.986 215.367 243.5 215.5 243.17 215.767C242.839 216.023 242.642 216.45 242.578 217.047H241.25C241.271 216.162 241.586 215.474 242.194 214.983C242.802 214.492 243.639 214.247 244.706 214.247C245.868 214.247 246.732 214.514 247.298 215.047C247.479 215.218 247.612 215.442 247.698 215.719C247.783 215.996 247.831 216.226 247.842 216.407C247.852 216.578 247.858 216.839 247.858 217.191C247.858 217.596 247.847 218.21 247.826 219.031C247.804 219.852 247.794 220.466 247.794 220.871C247.794 221.17 247.831 221.383 247.906 221.511C247.991 221.628 248.14 221.687 248.354 221.687C248.439 221.687 248.551 221.671 248.69 221.639ZM246.498 218.439C246.402 218.514 246.3 218.578 246.194 218.631C246.087 218.684 245.948 218.727 245.778 218.759C245.618 218.791 245.506 218.818 245.442 218.839C245.388 218.85 245.25 218.871 245.026 218.903C244.802 218.924 244.684 218.935 244.674 218.935C244.343 218.978 244.124 219.01 244.018 219.031C243.922 219.042 243.73 219.084 243.442 219.159C243.164 219.234 242.967 219.319 242.85 219.415C242.732 219.511 242.615 219.655 242.498 219.847C242.391 220.028 242.338 220.247 242.338 220.503C242.338 220.93 242.482 221.266 242.77 221.511C243.068 221.756 243.474 221.879 243.986 221.879C244.636 221.879 245.218 221.687 245.73 221.303C246.242 220.919 246.498 220.466 246.498 219.943V218.439ZM257.027 220.119C256.611 222.039 255.411 222.999 253.427 222.999C252.211 222.999 251.257 222.62 250.563 221.863C249.881 221.106 249.539 220.055 249.539 218.711C249.539 217.378 249.891 216.3 250.595 215.479C251.31 214.647 252.238 214.231 253.379 214.231C254.649 214.231 255.587 214.663 256.195 215.527C256.814 216.38 257.123 217.463 257.123 218.775V218.967H250.915L250.899 219.063C250.899 219.938 251.129 220.626 251.587 221.127C252.046 221.628 252.675 221.879 253.475 221.879C254.073 221.879 254.542 221.74 254.883 221.463C255.235 221.186 255.507 220.738 255.699 220.119H257.027ZM255.715 217.863C255.651 217.074 255.411 216.46 254.995 216.023C254.579 215.575 254.03 215.351 253.347 215.351C252.686 215.351 252.137 215.575 251.699 216.023C251.262 216.471 251.001 217.084 250.915 217.863H255.715ZM264.604 215.671H261.644V222.727H260.284V215.671H257.324V214.471H264.604V215.671ZM270.911 213.319C271.274 212.754 271.711 212.338 272.223 212.071C272.735 211.794 273.386 211.628 274.175 211.575C275.06 211.511 275.599 211.426 275.791 211.319C275.919 211.255 276.015 211.17 276.079 211.063H277.439C277.407 211.234 277.359 211.388 277.295 211.527C277.242 211.666 277.178 211.788 277.103 211.895C277.039 211.991 276.943 212.082 276.815 212.167C276.698 212.252 276.596 212.327 276.511 212.391C276.426 212.444 276.298 212.498 276.127 212.551C275.967 212.594 275.839 212.631 275.743 212.663C275.647 212.684 275.498 212.706 275.295 212.727C275.103 212.748 274.964 212.764 274.879 212.775C274.794 212.786 274.639 212.796 274.415 212.807C274.191 212.818 274.047 212.828 273.983 212.839C273.108 212.903 272.426 213.244 271.935 213.863C271.444 214.471 271.135 215.287 271.007 216.311H271.055C271.29 215.746 271.663 215.292 272.175 214.951C272.687 214.61 273.279 214.439 273.951 214.439C275.124 214.439 276.042 214.812 276.703 215.559C277.375 216.295 277.711 217.33 277.711 218.663C277.711 220.039 277.37 221.106 276.687 221.863C276.015 222.62 275.066 222.999 273.839 222.999C272.836 222.999 271.988 222.706 271.295 222.119C270.602 221.522 270.175 220.668 270.015 219.559C269.951 219.111 269.919 218.61 269.919 218.055C269.919 215.911 270.25 214.332 270.911 213.319ZM271.311 218.711C271.311 219.65 271.535 220.407 271.983 220.983C272.442 221.559 273.066 221.847 273.855 221.847C274.623 221.847 275.226 221.57 275.663 221.015C276.1 220.46 276.319 219.687 276.319 218.695C276.319 217.724 276.095 216.962 275.647 216.407C275.199 215.852 274.591 215.575 273.823 215.575C273.055 215.575 272.442 215.858 271.983 216.423C271.535 216.978 271.311 217.74 271.311 218.711ZM286.387 220.119C285.971 222.039 284.771 222.999 282.787 222.999C281.571 222.999 280.616 222.62 279.923 221.863C279.24 221.106 278.899 220.055 278.899 218.711C278.899 217.378 279.251 216.3 279.955 215.479C280.669 214.647 281.597 214.231 282.739 214.231C284.008 214.231 284.947 214.663 285.555 215.527C286.173 216.38 286.483 217.463 286.483 218.775V218.967H280.275L280.259 219.063C280.259 219.938 280.488 220.626 280.947 221.127C281.405 221.628 282.035 221.879 282.835 221.879C283.432 221.879 283.901 221.74 284.243 221.463C284.595 221.186 284.867 220.738 285.059 220.119H286.387ZM285.075 217.863C285.011 217.074 284.771 216.46 284.355 216.023C283.939 215.575 283.389 215.351 282.707 215.351C282.045 215.351 281.496 215.575 281.059 216.023C280.621 216.471 280.36 217.084 280.275 217.863H285.075ZM287.46 216.855C287.524 215.916 287.882 215.244 288.532 214.839C289.183 214.434 289.988 214.231 290.948 214.231C291.855 214.231 292.596 214.418 293.172 214.791C293.759 215.164 294.052 215.719 294.052 216.455C294.052 216.903 293.919 217.287 293.652 217.607C293.396 217.927 293.087 218.124 292.724 218.199V218.231C293.162 218.316 293.535 218.535 293.844 218.887C294.164 219.228 294.324 219.692 294.324 220.279C294.324 221.132 293.988 221.799 293.316 222.279C292.644 222.748 291.839 222.983 290.9 222.983C289.823 222.983 288.964 222.738 288.324 222.247C287.695 221.746 287.359 221.047 287.316 220.151H288.692C288.735 220.727 288.954 221.159 289.348 221.447C289.743 221.735 290.255 221.879 290.884 221.879C291.514 221.879 292.01 221.73 292.372 221.431C292.735 221.122 292.916 220.748 292.916 220.311C292.916 219.415 292.33 218.967 291.156 218.967H290.02V217.863H290.932C291.455 217.863 291.876 217.756 292.196 217.543C292.516 217.319 292.676 216.978 292.676 216.519C292.676 216.199 292.516 215.922 292.196 215.687C291.887 215.452 291.466 215.335 290.932 215.335C290.388 215.335 289.914 215.458 289.508 215.703C289.114 215.948 288.89 216.332 288.836 216.855H287.46ZM302.756 214.471L299.22 223.783C299.082 224.156 298.959 224.444 298.852 224.647C298.756 224.86 298.612 225.09 298.42 225.335C298.239 225.591 298.015 225.772 297.748 225.879C297.492 225.996 297.188 226.055 296.836 226.055C296.57 226.055 296.234 226.007 295.828 225.911V224.695C296.223 224.812 296.516 224.871 296.708 224.871C297.156 224.871 297.476 224.642 297.668 224.183L298.308 222.679L295.028 214.471H296.564L299.012 221.047L301.332 214.471H302.756ZM305.284 222.727H303.924V214.471H310.772V222.727H309.412V215.671H305.284V222.727ZM314.095 214.471V215.639C314.692 214.69 315.62 214.215 316.879 214.215C318.031 214.215 318.943 214.604 319.615 215.383C320.298 216.162 320.639 217.218 320.639 218.551C320.639 219.884 320.303 220.951 319.631 221.751C318.97 222.54 318.074 222.935 316.943 222.935C315.759 222.935 314.836 222.482 314.175 221.575V225.911H312.815V214.471H314.095ZM316.671 215.351C315.882 215.351 315.258 215.639 314.799 216.215C314.351 216.78 314.127 217.564 314.127 218.567C314.127 219.57 314.356 220.359 314.815 220.935C315.284 221.5 315.919 221.783 316.719 221.783C317.498 221.783 318.111 221.495 318.559 220.919C319.007 220.343 319.231 219.559 319.231 218.567C319.231 217.564 319.002 216.78 318.543 216.215C318.095 215.639 317.471 215.351 316.671 215.351ZM329.355 220.119C328.939 222.039 327.739 222.999 325.755 222.999C324.539 222.999 323.585 222.62 322.891 221.863C322.209 221.106 321.867 220.055 321.867 218.711C321.867 217.378 322.219 216.3 322.923 215.479C323.638 214.647 324.566 214.231 325.707 214.231C326.977 214.231 327.915 214.663 328.523 215.527C329.142 216.38 329.451 217.463 329.451 218.775V218.967H323.243L323.227 219.063C323.227 219.938 323.457 220.626 323.915 221.127C324.374 221.628 325.003 221.879 325.803 221.879C326.401 221.879 326.87 221.74 327.211 221.463C327.563 221.186 327.835 220.738 328.027 220.119H329.355ZM328.043 217.863C327.979 217.074 327.739 216.46 327.323 216.023C326.907 215.575 326.358 215.351 325.675 215.351C325.014 215.351 324.465 215.575 324.027 216.023C323.59 216.471 323.329 217.084 323.243 217.863H328.043ZM337.277 222.727H335.917V219.079C335.693 219.143 335.298 219.223 334.733 219.319C334.178 219.404 333.72 219.447 333.357 219.447C332.514 219.447 331.853 219.25 331.373 218.855C330.904 218.45 330.669 217.858 330.669 217.079V214.471H332.029V216.855C332.029 217.815 332.557 218.295 333.613 218.295C334.37 218.295 335.138 218.172 335.917 217.927V214.471H337.277V222.727ZM340.691 222.727H339.331V214.471H340.691V217.751H344.819V214.471H346.179V222.727H344.819V218.951H340.691V222.727ZM356.093 214.471H357.453V222.727H356.093V214.471ZM354.045 218.311C354.536 218.759 354.781 219.372 354.781 220.151C354.781 220.93 354.541 221.554 354.061 222.023C353.592 222.492 352.957 222.727 352.157 222.727H348.173V214.471H349.533V217.623H352.093C352.904 217.623 353.555 217.852 354.045 218.311ZM351.661 218.791H349.533V221.527H351.661C352.216 221.527 352.637 221.41 352.925 221.175C353.224 220.93 353.373 220.588 353.373 220.151C353.373 219.244 352.803 218.791 351.661 218.791ZM366.543 220.119C366.127 222.039 364.927 222.999 362.943 222.999C361.727 222.999 360.772 222.62 360.079 221.863C359.396 221.106 359.055 220.055 359.055 218.711C359.055 217.378 359.407 216.3 360.111 215.479C360.826 214.647 361.754 214.231 362.895 214.231C364.164 214.231 365.103 214.663 365.711 215.527C366.33 216.38 366.639 217.463 366.639 218.775V218.967H360.431L360.415 219.063C360.415 219.938 360.644 220.626 361.103 221.127C361.562 221.628 362.191 221.879 362.991 221.879C363.588 221.879 364.058 221.74 364.399 221.463C364.751 221.186 365.023 220.738 365.215 220.119H366.543ZM365.231 217.863C365.167 217.074 364.927 216.46 364.511 216.023C364.095 215.575 363.546 215.351 362.863 215.351C362.202 215.351 361.652 215.575 361.215 216.023C360.778 216.471 360.516 217.084 360.431 217.863H365.231ZM151.9 248.727H150.54V242.215H150.492L148.044 248.727H146.796L144.348 242.215H144.3V248.727H142.94V240.471H144.892L147.404 247.159H147.436L149.948 240.471H151.9V248.727ZM160.965 246.119C160.549 248.039 159.349 248.999 157.365 248.999C156.149 248.999 155.194 248.62 154.501 247.863C153.818 247.106 153.477 246.055 153.477 244.711C153.477 243.378 153.829 242.3 154.533 241.479C155.247 240.647 156.175 240.231 157.317 240.231C158.586 240.231 159.525 240.663 160.133 241.527C160.751 242.38 161.061 243.463 161.061 244.775V244.967H154.853L154.837 245.063C154.837 245.938 155.066 246.626 155.525 247.127C155.983 247.628 156.613 247.879 157.413 247.879C158.01 247.879 158.479 247.74 158.821 247.463C159.173 247.186 159.445 246.738 159.637 246.119H160.965ZM159.653 243.863C159.589 243.074 159.349 242.46 158.933 242.023C158.517 241.575 157.967 241.351 157.285 241.351C156.623 241.351 156.074 241.575 155.637 242.023C155.199 242.471 154.938 243.084 154.853 243.863H159.653ZM163.863 248.727H162.503V240.471H163.863V243.751H167.991V240.471H169.351V248.727H167.991V244.951H163.863V248.727ZM178.449 246.119C178.033 248.039 176.833 248.999 174.849 248.999C173.633 248.999 172.678 248.62 171.985 247.863C171.302 247.106 170.961 246.055 170.961 244.711C170.961 243.378 171.313 242.3 172.017 241.479C172.732 240.647 173.66 240.231 174.801 240.231C176.07 240.231 177.009 240.663 177.617 241.527C178.236 242.38 178.545 243.463 178.545 244.775V244.967H172.337L172.321 245.063C172.321 245.938 172.55 246.626 173.009 247.127C173.468 247.628 174.097 247.879 174.897 247.879C175.494 247.879 175.964 247.74 176.305 247.463C176.657 247.186 176.929 246.738 177.121 246.119H178.449ZM177.137 243.863C177.073 243.074 176.833 242.46 176.417 242.023C176.001 241.575 175.452 241.351 174.769 241.351C174.108 241.351 173.558 241.575 173.121 242.023C172.684 242.471 172.422 243.084 172.337 243.863H177.137ZM187.706 251.351H186.41V248.727H180.106V251.351H178.81V247.527H179.706C179.962 247.036 180.196 246.279 180.41 245.255C180.634 244.22 180.746 243.212 180.746 242.231V240.471H186.634V247.527H187.706V251.351ZM185.274 247.527V241.671H182.074V242.359C182.074 243.33 181.972 244.316 181.77 245.319C181.578 246.311 181.359 247.047 181.114 247.527H185.274ZM192.381 244.727L189.549 248.727H187.869L191.485 243.863L188.333 240.471H190.013L193.373 244.263H193.405V240.471H194.765V244.263H194.797L198.157 240.471H199.837L196.685 243.863L200.301 248.727H198.621L195.789 244.727L194.765 245.767V248.727H193.405V245.767L192.381 244.727ZM208.121 246.119C207.705 248.039 206.505 248.999 204.521 248.999C203.305 248.999 202.35 248.62 201.657 247.863C200.974 247.106 200.633 246.055 200.633 244.711C200.633 243.378 200.985 242.3 201.689 241.479C202.404 240.647 203.332 240.231 204.473 240.231C205.742 240.231 206.681 240.663 207.289 241.527C207.908 242.38 208.217 243.463 208.217 244.775V244.967H202.009L201.993 245.063C201.993 245.938 202.222 246.626 202.681 247.127C203.14 247.628 203.769 247.879 204.569 247.879C205.166 247.879 205.636 247.74 205.977 247.463C206.329 247.186 206.601 246.738 206.793 246.119H208.121ZM206.809 243.863C206.745 243.074 206.505 242.46 206.089 242.023C205.673 241.575 205.124 241.351 204.441 241.351C203.78 241.351 203.23 241.575 202.793 242.023C202.356 242.471 202.094 243.084 202.009 243.863H206.809ZM210.939 240.471V241.639C211.536 240.69 212.464 240.215 213.723 240.215C214.875 240.215 215.787 240.604 216.459 241.383C217.141 242.162 217.483 243.218 217.483 244.551C217.483 245.884 217.147 246.951 216.475 247.751C215.813 248.54 214.917 248.935 213.787 248.935C212.603 248.935 211.68 248.482 211.019 247.575V251.911H209.659V240.471H210.939ZM213.515 241.351C212.725 241.351 212.101 241.639 211.643 242.215C211.195 242.78 210.971 243.564 210.971 244.567C210.971 245.57 211.2 246.359 211.659 246.935C212.128 247.5 212.763 247.783 213.563 247.783C214.341 247.783 214.955 247.495 215.403 246.919C215.851 246.343 216.075 245.559 216.075 244.567C216.075 243.564 215.845 242.78 215.387 242.215C214.939 241.639 214.315 241.351 213.515 241.351ZM227.015 240.471H228.375V248.727H227.015V240.471ZM224.967 244.311C225.458 244.759 225.703 245.372 225.703 246.151C225.703 246.93 225.463 247.554 224.983 248.023C224.514 248.492 223.879 248.727 223.079 248.727H219.095V240.471H220.455V243.623H223.015C223.826 243.623 224.476 243.852 224.967 244.311ZM222.583 244.791H220.455V247.527H222.583C223.138 247.527 223.559 247.41 223.847 247.175C224.146 246.93 224.295 246.588 224.295 246.151C224.295 245.244 223.724 244.791 222.583 244.791ZM232.489 246.951V248.039C232.489 248.444 232.467 248.786 232.425 249.063C232.393 249.351 232.318 249.639 232.201 249.927C232.083 250.215 231.902 250.455 231.657 250.647C231.411 250.85 231.097 250.999 230.713 251.095V250.295C231.289 250.103 231.582 249.58 231.593 248.727H230.713V246.951H232.489ZM246.707 248.727H244.979L241.971 244.663L240.675 245.927V248.727H239.315V240.471H240.675V244.407L244.451 240.471H246.275L242.947 243.719L246.707 248.727ZM248.268 241.415C248.993 240.626 249.98 240.231 251.228 240.231C252.476 240.231 253.447 240.61 254.14 241.367C254.833 242.124 255.18 243.186 255.18 244.551C255.18 245.948 254.833 247.036 254.14 247.815C253.447 248.594 252.471 248.983 251.212 248.983C249.953 248.983 248.967 248.599 248.252 247.831C247.537 247.063 247.18 245.996 247.18 244.631C247.18 243.276 247.543 242.204 248.268 241.415ZM253.084 242.247C252.625 241.66 251.996 241.367 251.196 241.367C250.396 241.367 249.761 241.66 249.292 242.247C248.823 242.834 248.588 243.618 248.588 244.599C248.588 245.612 248.817 246.407 249.276 246.983C249.745 247.548 250.396 247.831 251.228 247.831C252.028 247.831 252.652 247.543 253.1 246.967C253.559 246.391 253.788 245.596 253.788 244.583C253.788 243.602 253.553 242.823 253.084 242.247ZM262.838 241.671H259.878V248.727H258.518V241.671H255.558V240.471H262.838V241.671ZM264.299 241.415C265.024 240.626 266.011 240.231 267.259 240.231C268.507 240.231 269.478 240.61 270.171 241.367C270.864 242.124 271.211 243.186 271.211 244.551C271.211 245.948 270.864 247.036 270.171 247.815C269.478 248.594 268.502 248.983 267.243 248.983C265.984 248.983 264.998 248.599 264.283 247.831C263.568 247.063 263.211 245.996 263.211 244.631C263.211 243.276 263.574 242.204 264.299 241.415ZM269.115 242.247C268.656 241.66 268.027 241.367 267.227 241.367C266.427 241.367 265.792 241.66 265.323 242.247C264.854 242.834 264.619 243.618 264.619 244.599C264.619 245.612 264.848 246.407 265.307 246.983C265.776 247.548 266.427 247.831 267.259 247.831C268.059 247.831 268.683 247.543 269.131 246.967C269.59 246.391 269.819 245.596 269.819 244.583C269.819 243.602 269.584 242.823 269.115 242.247ZM274.111 240.471V241.639C274.708 240.69 275.636 240.215 276.895 240.215C278.047 240.215 278.959 240.604 279.631 241.383C280.313 242.162 280.655 243.218 280.655 244.551C280.655 245.884 280.319 246.951 279.647 247.751C278.985 248.54 278.089 248.935 276.959 248.935C275.775 248.935 274.852 248.482 274.191 247.575V251.911H272.831V240.471H274.111ZM276.687 241.351C275.897 241.351 275.273 241.639 274.815 242.215C274.367 242.78 274.143 243.564 274.143 244.567C274.143 245.57 274.372 246.359 274.831 246.935C275.3 247.5 275.935 247.783 276.735 247.783C277.513 247.783 278.127 247.495 278.575 246.919C279.023 246.343 279.247 245.559 279.247 244.567C279.247 243.564 279.017 242.78 278.559 242.215C278.111 241.639 277.487 241.351 276.687 241.351ZM290.187 240.471H291.547V248.727H290.187V240.471ZM288.139 244.311C288.63 244.759 288.875 245.372 288.875 246.151C288.875 246.93 288.635 247.554 288.155 248.023C287.686 248.492 287.051 248.727 286.251 248.727H282.267V240.471H283.627V243.623H286.187C286.998 243.623 287.648 243.852 288.139 244.311ZM285.755 244.791H283.627V247.527H285.755C286.31 247.527 286.731 247.41 287.019 247.175C287.318 246.93 287.467 246.588 287.467 246.151C287.467 245.244 286.896 244.791 285.755 244.791ZM300.637 246.119C300.221 248.039 299.021 248.999 297.037 248.999C295.821 248.999 294.866 248.62 294.173 247.863C293.49 247.106 293.149 246.055 293.149 244.711C293.149 243.378 293.501 242.3 294.205 241.479C294.919 240.647 295.847 240.231 296.989 240.231C298.258 240.231 299.197 240.663 299.805 241.527C300.423 242.38 300.733 243.463 300.733 244.775V244.967H294.525L294.509 245.063C294.509 245.938 294.738 246.626 295.197 247.127C295.655 247.628 296.285 247.879 297.085 247.879C297.682 247.879 298.151 247.74 298.493 247.463C298.845 247.186 299.117 246.738 299.309 246.119H300.637ZM299.325 243.863C299.261 243.074 299.021 242.46 298.605 242.023C298.189 241.575 297.639 241.351 296.957 241.351C296.295 241.351 295.746 241.575 295.309 242.023C294.871 242.471 294.61 243.084 294.525 243.863H299.325ZM313.732 245.719C313.614 246.711 313.236 247.5 312.596 248.087C311.966 248.674 311.145 248.967 310.132 248.967C308.884 248.967 307.918 248.583 307.236 247.815C306.553 247.036 306.212 246.002 306.212 244.711C306.212 243.335 306.569 242.247 307.284 241.447C307.998 240.636 308.964 240.231 310.18 240.231C311.193 240.231 312.004 240.487 312.612 240.999C313.22 241.5 313.577 242.22 313.684 243.159H312.276C312.03 241.964 311.337 241.367 310.196 241.367C309.406 241.367 308.782 241.66 308.324 242.247C307.865 242.823 307.636 243.607 307.636 244.599C307.636 245.602 307.854 246.391 308.292 246.967C308.729 247.543 309.332 247.831 310.1 247.831C310.718 247.831 311.22 247.65 311.604 247.287C311.998 246.924 312.249 246.402 312.356 245.719H313.732ZM320.954 240.471V241.639C321.552 240.69 322.48 240.215 323.738 240.215C324.89 240.215 325.802 240.604 326.474 241.383C327.157 242.162 327.498 243.218 327.498 244.551C327.498 245.884 327.162 246.951 326.49 247.751C325.829 248.54 324.933 248.935 323.802 248.935C322.618 248.935 321.696 248.482 321.034 247.575V251.911H319.674V240.471H320.954ZM323.53 241.351C322.741 241.351 322.117 241.639 321.658 242.215C321.21 242.78 320.986 243.564 320.986 244.567C320.986 245.57 321.216 246.359 321.674 246.935C322.144 247.5 322.778 247.783 323.578 247.783C324.357 247.783 324.97 247.495 325.418 246.919C325.866 246.343 326.09 245.559 326.09 244.567C326.09 243.564 325.861 242.78 325.402 242.215C324.954 241.639 324.33 241.351 323.53 241.351ZM336.471 247.639V248.695C336.193 248.802 335.884 248.855 335.543 248.855C334.764 248.855 334.364 248.45 334.343 247.639C333.564 248.514 332.567 248.951 331.351 248.951C330.54 248.951 329.895 248.743 329.415 248.327C328.945 247.911 328.711 247.34 328.711 246.615C328.711 245.143 329.687 244.284 331.639 244.039C331.767 244.018 331.953 243.996 332.199 243.975C333.127 243.868 333.697 243.746 333.911 243.607C334.156 243.436 334.279 243.143 334.279 242.727C334.279 241.82 333.655 241.367 332.407 241.367C331.767 241.367 331.281 241.5 330.951 241.767C330.62 242.023 330.423 242.45 330.359 243.047H329.031C329.052 242.162 329.367 241.474 329.975 240.983C330.583 240.492 331.42 240.247 332.487 240.247C333.649 240.247 334.513 240.514 335.079 241.047C335.26 241.218 335.393 241.442 335.479 241.719C335.564 241.996 335.612 242.226 335.623 242.407C335.633 242.578 335.639 242.839 335.639 243.191C335.639 243.596 335.628 244.21 335.607 245.031C335.585 245.852 335.575 246.466 335.575 246.871C335.575 247.17 335.612 247.383 335.687 247.511C335.772 247.628 335.921 247.687 336.135 247.687C336.22 247.687 336.332 247.671 336.471 247.639ZM334.279 244.439C334.183 244.514 334.081 244.578 333.975 244.631C333.868 244.684 333.729 244.727 333.559 244.759C333.399 244.791 333.287 244.818 333.223 244.839C333.169 244.85 333.031 244.871 332.807 244.903C332.583 244.924 332.465 244.935 332.455 244.935C332.124 244.978 331.905 245.01 331.799 245.031C331.703 245.042 331.511 245.084 331.223 245.159C330.945 245.234 330.748 245.319 330.631 245.415C330.513 245.511 330.396 245.655 330.279 245.847C330.172 246.028 330.119 246.247 330.119 246.503C330.119 246.93 330.263 247.266 330.551 247.511C330.849 247.756 331.255 247.879 331.767 247.879C332.417 247.879 332.999 247.687 333.511 247.303C334.023 246.919 334.279 246.466 334.279 245.943V244.439ZM345.753 251.351H344.457V248.727H338.153V251.351H336.857V247.527H337.753C338.009 247.036 338.243 246.279 338.457 245.255C338.681 244.22 338.793 243.212 338.793 242.231V240.471H344.681V247.527H345.753V251.351ZM343.321 247.527V241.671H340.121V242.359C340.121 243.33 340.019 244.316 339.817 245.319C339.625 246.311 339.406 247.047 339.161 247.527H343.321ZM347.596 241.415C348.321 240.626 349.308 240.231 350.556 240.231C351.804 240.231 352.775 240.61 353.468 241.367C354.161 242.124 354.508 243.186 354.508 244.551C354.508 245.948 354.161 247.036 353.468 247.815C352.775 248.594 351.799 248.983 350.54 248.983C349.281 248.983 348.295 248.599 347.58 247.831C346.865 247.063 346.508 245.996 346.508 244.631C346.508 243.276 346.871 242.204 347.596 241.415ZM352.412 242.247C351.953 241.66 351.324 241.367 350.524 241.367C349.724 241.367 349.089 241.66 348.62 242.247C348.151 242.834 347.916 243.618 347.916 244.599C347.916 245.612 348.145 246.407 348.604 246.983C349.073 247.548 349.724 247.831 350.556 247.831C351.356 247.831 351.98 247.543 352.428 246.967C352.887 246.391 353.116 245.596 353.116 244.583C353.116 243.602 352.881 242.823 352.412 242.247ZM363.232 245.719C363.114 246.711 362.736 247.5 362.096 248.087C361.466 248.674 360.645 248.967 359.632 248.967C358.384 248.967 357.418 248.583 356.736 247.815C356.053 247.036 355.712 246.002 355.712 244.711C355.712 243.335 356.069 242.247 356.784 241.447C357.498 240.636 358.464 240.231 359.68 240.231C360.693 240.231 361.504 240.487 362.112 240.999C362.72 241.5 363.077 242.22 363.184 243.159H361.776C361.53 241.964 360.837 241.367 359.696 241.367C358.906 241.367 358.282 241.66 357.824 242.247C357.365 242.823 357.136 243.607 357.136 244.599C357.136 245.602 357.354 246.391 357.792 246.967C358.229 247.543 358.832 247.831 359.6 247.831C360.218 247.831 360.72 247.65 361.104 247.287C361.498 246.924 361.749 246.402 361.856 245.719H363.232ZM371.041 241.671H368.081V248.727H366.721V241.671H363.761V240.471H371.041V241.671ZM378.336 244.311C378.826 244.759 379.072 245.372 379.072 246.151C379.072 246.93 378.832 247.554 378.352 248.023C377.882 248.492 377.248 248.727 376.448 248.727H372.08V240.471H373.44V243.623H376.384C377.194 243.623 377.845 243.852 378.336 244.311ZM375.952 244.791H373.44V247.527H375.952C376.506 247.527 376.928 247.41 377.216 247.175C377.514 246.93 377.664 246.588 377.664 246.151C377.664 245.244 377.093 244.791 375.952 244.791ZM387.272 240.231C388.478 240.231 389.411 240.61 390.072 241.367C390.734 242.124 391.064 243.186 391.064 244.551C391.064 245.948 390.728 247.036 390.056 247.815C389.395 248.594 388.462 248.983 387.256 248.983C386.094 248.983 385.171 248.631 384.488 247.927C383.806 247.212 383.438 246.22 383.384 244.951H381.784V248.727H380.424V240.471H381.784V243.751H383.448C383.598 242.652 384.008 241.794 384.68 241.175C385.352 240.546 386.216 240.231 387.272 240.231ZM389.016 242.247C388.579 241.66 387.987 241.367 387.24 241.367C386.494 241.367 385.896 241.66 385.448 242.247C385.011 242.834 384.792 243.618 384.792 244.599C384.792 245.612 385.011 246.407 385.448 246.983C385.886 247.548 386.494 247.831 387.272 247.831C388.019 247.831 388.606 247.543 389.032 246.967C389.459 246.391 389.672 245.596 389.672 244.583C389.672 243.602 389.454 242.823 389.016 242.247ZM143.612 267.415C144.337 266.626 145.324 266.231 146.572 266.231C147.82 266.231 148.79 266.61 149.484 267.367C150.177 268.124 150.524 269.186 150.524 270.551C150.524 271.948 150.177 273.036 149.484 273.815C148.79 274.594 147.814 274.983 146.556 274.983C145.297 274.983 144.31 274.599 143.596 273.831C142.881 273.063 142.524 271.996 142.524 270.631C142.524 269.276 142.886 268.204 143.612 267.415ZM148.428 268.247C147.969 267.66 147.34 267.367 146.54 267.367C145.74 267.367 145.105 267.66 144.636 268.247C144.166 268.834 143.932 269.618 143.932 270.599C143.932 271.612 144.161 272.407 144.62 272.983C145.089 273.548 145.74 273.831 146.572 273.831C147.372 273.831 147.996 273.543 148.444 272.967C148.902 272.391 149.132 271.596 149.132 270.583C149.132 269.602 148.897 268.823 148.428 268.247ZM158.182 267.671H155.222V274.727H153.862V267.671H150.902V266.471H158.182V267.671ZM159.236 274.727V266.471H163.06C163.604 266.471 164.068 266.519 164.452 266.615C164.836 266.7 165.172 266.898 165.46 267.207C165.748 267.516 165.892 267.938 165.892 268.471C165.892 269.282 165.487 269.874 164.676 270.247V270.263C165.167 270.359 165.551 270.588 165.828 270.951C166.105 271.303 166.244 271.751 166.244 272.295C166.244 272.999 166.009 273.58 165.54 274.039C165.071 274.498 164.468 274.727 163.732 274.727H159.236ZM162.916 269.799C163.481 269.799 163.881 269.708 164.116 269.527C164.361 269.335 164.484 269.058 164.484 268.695C164.484 268.332 164.367 268.066 164.132 267.895C163.897 267.724 163.492 267.639 162.916 267.639H160.564V269.799H162.916ZM160.564 270.951V273.559H163.476C163.903 273.559 164.233 273.431 164.468 273.175C164.713 272.919 164.836 272.588 164.836 272.183C164.836 271.362 164.303 270.951 163.236 270.951H160.564ZM174.918 272.119C174.502 274.039 173.302 274.999 171.318 274.999C170.102 274.999 169.147 274.62 168.454 273.863C167.771 273.106 167.43 272.055 167.43 270.711C167.43 269.378 167.782 268.3 168.486 267.479C169.201 266.647 170.129 266.231 171.27 266.231C172.539 266.231 173.478 266.663 174.086 267.527C174.705 268.38 175.014 269.463 175.014 270.775V270.967H168.806L168.79 271.063C168.79 271.938 169.019 272.626 169.478 273.127C169.937 273.628 170.566 273.879 171.366 273.879C171.963 273.879 172.433 273.74 172.774 273.463C173.126 273.186 173.398 272.738 173.59 272.119H174.918ZM173.606 269.863C173.542 269.074 173.302 268.46 172.886 268.023C172.47 267.575 171.921 267.351 171.238 267.351C170.577 267.351 170.027 267.575 169.59 268.023C169.153 268.471 168.891 269.084 168.806 269.863H173.606ZM182.494 267.671H179.534V274.727H178.174V267.671H175.214V266.471H182.494V267.671ZM190.109 274.727H188.749V271.351H186.941L184.333 274.727H182.525L185.373 271.303C184.765 271.207 184.269 270.951 183.885 270.535C183.511 270.108 183.325 269.564 183.325 268.903C183.325 268.135 183.554 267.538 184.013 267.111C184.471 266.684 185.106 266.471 185.917 266.471H190.109V274.727ZM188.749 267.671H186.349C185.261 267.671 184.717 268.082 184.717 268.903C184.717 269.735 185.261 270.151 186.349 270.151H188.749V267.671ZM198.494 267.671H195.534V274.727H194.174V267.671H191.214V266.471H198.494V267.671ZM204.002 274.727V266.471H207.826C208.37 266.471 208.834 266.519 209.218 266.615C209.602 266.7 209.938 266.898 210.226 267.207C210.514 267.516 210.658 267.938 210.658 268.471C210.658 269.282 210.252 269.874 209.442 270.247V270.263C209.932 270.359 210.316 270.588 210.594 270.951C210.871 271.303 211.01 271.751 211.01 272.295C211.01 272.999 210.775 273.58 210.306 274.039C209.836 274.498 209.234 274.727 208.498 274.727H204.002ZM207.682 269.799C208.247 269.799 208.647 269.708 208.882 269.527C209.127 269.335 209.25 269.058 209.25 268.695C209.25 268.332 209.132 268.066 208.898 267.895C208.663 267.724 208.258 267.639 207.682 267.639H205.33V269.799H207.682ZM205.33 270.951V273.559H208.242C208.668 273.559 208.999 273.431 209.234 273.175C209.479 272.919 209.602 272.588 209.602 272.183C209.602 271.362 209.068 270.951 208.002 270.951H205.33ZM219.94 273.639V274.695C219.662 274.802 219.353 274.855 219.012 274.855C218.233 274.855 217.833 274.45 217.812 273.639C217.033 274.514 216.036 274.951 214.82 274.951C214.009 274.951 213.364 274.743 212.884 274.327C212.414 273.911 212.18 273.34 212.18 272.615C212.18 271.143 213.156 270.284 215.108 270.039C215.236 270.018 215.422 269.996 215.668 269.975C216.596 269.868 217.166 269.746 217.38 269.607C217.625 269.436 217.748 269.143 217.748 268.727C217.748 267.82 217.124 267.367 215.876 267.367C215.236 267.367 214.75 267.5 214.42 267.767C214.089 268.023 213.892 268.45 213.828 269.047H212.5C212.521 268.162 212.836 267.474 213.444 266.983C214.052 266.492 214.889 266.247 215.956 266.247C217.118 266.247 217.982 266.514 218.548 267.047C218.729 267.218 218.862 267.442 218.948 267.719C219.033 267.996 219.081 268.226 219.092 268.407C219.102 268.578 219.108 268.839 219.108 269.191C219.108 269.596 219.097 270.21 219.076 271.031C219.054 271.852 219.044 272.466 219.044 272.871C219.044 273.17 219.081 273.383 219.156 273.511C219.241 273.628 219.39 273.687 219.604 273.687C219.689 273.687 219.801 273.671 219.94 273.639ZM217.748 270.439C217.652 270.514 217.55 270.578 217.444 270.631C217.337 270.684 217.198 270.727 217.028 270.759C216.868 270.791 216.756 270.818 216.692 270.839C216.638 270.85 216.5 270.871 216.276 270.903C216.052 270.924 215.934 270.935 215.924 270.935C215.593 270.978 215.374 271.01 215.268 271.031C215.172 271.042 214.98 271.084 214.692 271.159C214.414 271.234 214.217 271.319 214.1 271.415C213.982 271.511 213.865 271.655 213.748 271.847C213.641 272.028 213.588 272.247 213.588 272.503C213.588 272.93 213.732 273.266 214.02 273.511C214.318 273.756 214.724 273.879 215.236 273.879C215.886 273.879 216.468 273.687 216.98 273.303C217.492 272.919 217.748 272.466 217.748 271.943V270.439ZM230.165 274.727H228.805V268.215H228.757L226.309 274.727H225.061L222.613 268.215H222.565V274.727H221.205V266.471H223.157L225.669 273.159H225.701L228.213 266.471H230.165V274.727ZM236.596 274.727V266.471H240.42C240.964 266.471 241.428 266.519 241.812 266.615C242.196 266.7 242.532 266.898 242.82 267.207C243.108 267.516 243.252 267.938 243.252 268.471C243.252 269.282 242.846 269.874 242.036 270.247V270.263C242.526 270.359 242.91 270.588 243.188 270.951C243.465 271.303 243.604 271.751 243.604 272.295C243.604 272.999 243.369 273.58 242.9 274.039C242.43 274.498 241.828 274.727 241.092 274.727H236.596ZM240.276 269.799C240.841 269.799 241.241 269.708 241.476 269.527C241.721 269.335 241.844 269.058 241.844 268.695C241.844 268.332 241.726 268.066 241.492 267.895C241.257 267.724 240.852 267.639 240.276 267.639H237.924V269.799H240.276ZM237.924 270.951V273.559H240.836C241.262 273.559 241.593 273.431 241.828 273.175C242.073 272.919 242.196 272.588 242.196 272.183C242.196 271.362 241.662 270.951 240.596 270.951H237.924ZM258.618 274.727H257.258V268.215H257.21L254.762 274.727H253.514L251.066 268.215H251.018V274.727H249.658V266.471H251.61L254.122 273.159H254.154L256.666 266.471H258.618V274.727ZM267.94 273.639V274.695C267.662 274.802 267.353 274.855 267.012 274.855C266.233 274.855 265.833 274.45 265.812 273.639C265.033 274.514 264.036 274.951 262.82 274.951C262.009 274.951 261.364 274.743 260.884 274.327C260.414 273.911 260.18 273.34 260.18 272.615C260.18 271.143 261.156 270.284 263.108 270.039C263.236 270.018 263.422 269.996 263.668 269.975C264.596 269.868 265.166 269.746 265.38 269.607C265.625 269.436 265.748 269.143 265.748 268.727C265.748 267.82 265.124 267.367 263.876 267.367C263.236 267.367 262.75 267.5 262.42 267.767C262.089 268.023 261.892 268.45 261.828 269.047H260.5C260.521 268.162 260.836 267.474 261.444 266.983C262.052 266.492 262.889 266.247 263.956 266.247C265.118 266.247 265.982 266.514 266.548 267.047C266.729 267.218 266.862 267.442 266.948 267.719C267.033 267.996 267.081 268.226 267.092 268.407C267.102 268.578 267.108 268.839 267.108 269.191C267.108 269.596 267.097 270.21 267.076 271.031C267.054 271.852 267.044 272.466 267.044 272.871C267.044 273.17 267.081 273.383 267.156 273.511C267.241 273.628 267.39 273.687 267.604 273.687C267.689 273.687 267.801 273.671 267.94 273.639ZM265.748 270.439C265.652 270.514 265.55 270.578 265.444 270.631C265.337 270.684 265.198 270.727 265.028 270.759C264.868 270.791 264.756 270.818 264.692 270.839C264.638 270.85 264.5 270.871 264.276 270.903C264.052 270.924 263.934 270.935 263.924 270.935C263.593 270.978 263.374 271.01 263.268 271.031C263.172 271.042 262.98 271.084 262.692 271.159C262.414 271.234 262.217 271.319 262.1 271.415C261.982 271.511 261.865 271.655 261.748 271.847C261.641 272.028 261.588 272.247 261.588 272.503C261.588 272.93 261.732 273.266 262.02 273.511C262.318 273.756 262.724 273.879 263.236 273.879C263.886 273.879 264.468 273.687 264.98 273.303C265.492 272.919 265.748 272.466 265.748 271.943V270.439ZM276.613 274.727H274.885L271.877 270.663L270.581 271.927V274.727H269.221V266.471H270.581V270.407L274.357 266.471H276.181L272.853 269.719L276.613 274.727ZM284.622 271.719C284.505 272.711 284.126 273.5 283.486 274.087C282.857 274.674 282.035 274.967 281.022 274.967C279.774 274.967 278.809 274.583 278.126 273.815C277.443 273.036 277.102 272.002 277.102 270.711C277.102 269.335 277.459 268.247 278.174 267.447C278.889 266.636 279.854 266.231 281.07 266.231C282.083 266.231 282.894 266.487 283.502 266.999C284.11 267.5 284.467 268.22 284.574 269.159H283.166C282.921 267.964 282.227 267.367 281.086 267.367C280.297 267.367 279.673 267.66 279.214 268.247C278.755 268.823 278.526 269.607 278.526 270.599C278.526 271.602 278.745 272.391 279.182 272.967C279.619 273.543 280.222 273.831 280.99 273.831C281.609 273.831 282.11 273.65 282.494 273.287C282.889 272.924 283.139 272.402 283.246 271.719H284.622ZM287.856 274.727H286.112V266.471H287.472V273.207H287.504L291.216 266.471H292.96V274.727H291.6V267.991H291.568L287.856 274.727ZM303.947 274.727H302.587V268.215H302.539L300.091 274.727H298.843L296.395 268.215H296.347V274.727H294.987V266.471H296.939L299.451 273.159H299.483L301.995 266.471H303.947V274.727ZM313.268 273.639V274.695C312.99 274.802 312.681 274.855 312.34 274.855C311.561 274.855 311.161 274.45 311.14 273.639C310.361 274.514 309.364 274.951 308.148 274.951C307.337 274.951 306.692 274.743 306.212 274.327C305.742 273.911 305.508 273.34 305.508 272.615C305.508 271.143 306.484 270.284 308.436 270.039C308.564 270.018 308.75 269.996 308.996 269.975C309.924 269.868 310.494 269.746 310.708 269.607C310.953 269.436 311.076 269.143 311.076 268.727C311.076 267.82 310.452 267.367 309.204 267.367C308.564 267.367 308.078 267.5 307.748 267.767C307.417 268.023 307.22 268.45 307.156 269.047H305.828C305.849 268.162 306.164 267.474 306.772 266.983C307.38 266.492 308.217 266.247 309.284 266.247C310.446 266.247 311.31 266.514 311.876 267.047C312.057 267.218 312.19 267.442 312.276 267.719C312.361 267.996 312.409 268.226 312.42 268.407C312.43 268.578 312.436 268.839 312.436 269.191C312.436 269.596 312.425 270.21 312.404 271.031C312.382 271.852 312.372 272.466 312.372 272.871C312.372 273.17 312.409 273.383 312.484 273.511C312.569 273.628 312.718 273.687 312.932 273.687C313.017 273.687 313.129 273.671 313.268 273.639ZM311.076 270.439C310.98 270.514 310.878 270.578 310.772 270.631C310.665 270.684 310.526 270.727 310.356 270.759C310.196 270.791 310.084 270.818 310.02 270.839C309.966 270.85 309.828 270.871 309.604 270.903C309.38 270.924 309.262 270.935 309.252 270.935C308.921 270.978 308.702 271.01 308.596 271.031C308.5 271.042 308.308 271.084 308.02 271.159C307.742 271.234 307.545 271.319 307.428 271.415C307.31 271.511 307.193 271.655 307.076 271.847C306.969 272.028 306.916 272.247 306.916 272.503C306.916 272.93 307.06 273.266 307.348 273.511C307.646 273.756 308.052 273.879 308.564 273.879C309.214 273.879 309.796 273.687 310.308 273.303C310.82 272.919 311.076 272.466 311.076 271.943V270.439ZM321.429 266.471V274.727H320.069V267.671H317.125L317.013 271.319C316.981 272.578 316.752 273.49 316.325 274.055C315.899 274.62 315.365 274.903 314.725 274.903C314.331 274.903 314.005 274.844 313.749 274.727V273.623C313.888 273.698 314.128 273.735 314.469 273.735C314.789 273.735 315.061 273.564 315.285 273.223C315.52 272.871 315.648 272.284 315.669 271.463L315.813 266.471H321.429ZM329.648 270.311C330.139 270.759 330.384 271.372 330.384 272.151C330.384 272.93 330.144 273.554 329.664 274.023C329.195 274.492 328.56 274.727 327.76 274.727H323.392V266.471H324.752V269.623H327.696C328.507 269.623 329.157 269.852 329.648 270.311ZM327.264 270.791H324.752V273.527H327.264C327.819 273.527 328.24 273.41 328.528 273.175C328.827 272.93 328.976 272.588 328.976 272.151C328.976 271.244 328.405 270.791 327.264 270.791ZM333.097 274.727H331.737V266.471H333.097V269.751H337.225V266.471H338.585V274.727H337.225V270.951H333.097V274.727ZM341.284 267.415C342.009 266.626 342.996 266.231 344.244 266.231C345.492 266.231 346.462 266.61 347.156 267.367C347.849 268.124 348.196 269.186 348.196 270.551C348.196 271.948 347.849 273.036 347.156 273.815C346.462 274.594 345.486 274.983 344.228 274.983C342.969 274.983 341.982 274.599 341.268 273.831C340.553 273.063 340.196 271.996 340.196 270.631C340.196 269.276 340.558 268.204 341.284 267.415ZM346.1 268.247C345.641 267.66 345.012 267.367 344.212 267.367C343.412 267.367 342.777 267.66 342.308 268.247C341.838 268.834 341.604 269.618 341.604 270.599C341.604 271.612 341.833 272.407 342.292 272.983C342.761 273.548 343.412 273.831 344.244 273.831C345.044 273.831 345.668 273.543 346.116 272.967C346.574 272.391 346.804 271.596 346.804 270.583C346.804 269.602 346.569 268.823 346.1 268.247ZM361.66 274.727H359.932L356.924 270.663L355.628 271.927V274.727H354.268V266.471H355.628V270.407L359.404 266.471H361.228L357.9 269.719L361.66 274.727ZM363.221 267.415C363.946 266.626 364.933 266.231 366.181 266.231C367.429 266.231 368.4 266.61 369.093 267.367C369.786 268.124 370.133 269.186 370.133 270.551C370.133 271.948 369.786 273.036 369.093 273.815C368.4 274.594 367.424 274.983 366.165 274.983C364.906 274.983 363.92 274.599 363.205 273.831C362.49 273.063 362.133 271.996 362.133 270.631C362.133 269.276 362.496 268.204 363.221 267.415ZM368.037 268.247C367.578 267.66 366.949 267.367 366.149 267.367C365.349 267.367 364.714 267.66 364.245 268.247C363.776 268.834 363.541 269.618 363.541 270.599C363.541 271.612 363.77 272.407 364.229 272.983C364.698 273.548 365.349 273.831 366.181 273.831C366.981 273.831 367.605 273.543 368.053 272.967C368.512 272.391 368.741 271.596 368.741 270.583C368.741 269.602 368.506 268.823 368.037 268.247ZM373.033 266.471V267.639C373.63 266.69 374.558 266.215 375.817 266.215C376.969 266.215 377.881 266.604 378.553 267.383C379.235 268.162 379.577 269.218 379.577 270.551C379.577 271.884 379.241 272.951 378.569 273.751C377.907 274.54 377.011 274.935 375.881 274.935C374.697 274.935 373.774 274.482 373.113 273.575V277.911H371.753V266.471H373.033ZM375.609 267.351C374.819 267.351 374.195 267.639 373.737 268.215C373.289 268.78 373.065 269.564 373.065 270.567C373.065 271.57 373.294 272.359 373.753 272.935C374.222 273.5 374.857 273.783 375.657 273.783C376.435 273.783 377.049 273.495 377.497 272.919C377.945 272.343 378.169 271.559 378.169 270.567C378.169 269.564 377.939 268.78 377.481 268.215C377.033 267.639 376.409 267.351 375.609 267.351ZM381.893 267.415C382.618 266.626 383.605 266.231 384.853 266.231C386.101 266.231 387.072 266.61 387.765 267.367C388.458 268.124 388.805 269.186 388.805 270.551C388.805 271.948 388.458 273.036 387.765 273.815C387.072 274.594 386.096 274.983 384.837 274.983C383.578 274.983 382.592 274.599 381.877 273.831C381.162 273.063 380.805 271.996 380.805 270.631C380.805 269.276 381.168 268.204 381.893 267.415ZM386.709 268.247C386.25 267.66 385.621 267.367 384.821 267.367C384.021 267.367 383.386 267.66 382.917 268.247C382.448 268.834 382.213 269.618 382.213 270.599C382.213 271.612 382.442 272.407 382.901 272.983C383.37 273.548 384.021 273.831 384.853 273.831C385.653 273.831 386.277 273.543 386.725 272.967C387.184 272.391 387.413 271.596 387.413 270.583C387.413 269.602 387.178 268.823 386.709 268.247ZM396.463 267.671H393.503V274.727H392.143V267.671H389.183V266.471H396.463V267.671ZM404.941 274.727H403.213L400.205 270.663L398.909 271.927V274.727H397.549V266.471H398.909V270.407L402.685 266.471H404.509L401.181 269.719L404.941 274.727ZM407.59 274.727H405.846V266.471H407.206V273.207H407.238L410.95 266.471H412.694V274.727H411.334V267.991H411.302L407.59 274.727ZM420.577 263.335C420.47 264.007 420.209 264.546 419.793 264.951C419.388 265.346 418.849 265.543 418.177 265.543C417.526 265.543 416.977 265.34 416.529 264.935C416.092 264.519 415.83 263.986 415.745 263.335H416.561C416.806 264.167 417.34 264.583 418.161 264.583C418.95 264.583 419.484 264.167 419.761 263.335H420.577ZM416.481 274.727H414.737V266.471H416.097V273.207H416.129L419.841 266.471H421.585V274.727H420.225V267.991H420.193L416.481 274.727ZM150.06 297.719C149.942 298.711 149.564 299.5 148.924 300.087C148.294 300.674 147.473 300.967 146.46 300.967C145.212 300.967 144.246 300.583 143.564 299.815C142.881 299.036 142.54 298.002 142.54 296.711C142.54 295.335 142.897 294.247 143.612 293.447C144.326 292.636 145.292 292.231 146.508 292.231C147.521 292.231 148.332 292.487 148.94 292.999C149.548 293.5 149.905 294.22 150.012 295.159H148.604C148.358 293.964 147.665 293.367 146.524 293.367C145.734 293.367 145.11 293.66 144.652 294.247C144.193 294.823 143.964 295.607 143.964 296.599C143.964 297.602 144.182 298.391 144.62 298.967C145.057 299.543 145.66 299.831 146.428 299.831C147.046 299.831 147.548 299.65 147.932 299.287C148.326 298.924 148.577 298.402 148.684 297.719H150.06ZM152.829 292.471V293.639C153.427 292.69 154.355 292.215 155.613 292.215C156.765 292.215 157.677 292.604 158.349 293.383C159.032 294.162 159.373 295.218 159.373 296.551C159.373 297.884 159.037 298.951 158.365 299.751C157.704 300.54 156.808 300.935 155.677 300.935C154.493 300.935 153.571 300.482 152.909 299.575V303.911H151.549V292.471H152.829ZM155.405 293.351C154.616 293.351 153.992 293.639 153.533 294.215C153.085 294.78 152.861 295.564 152.861 296.567C152.861 297.57 153.091 298.359 153.549 298.935C154.019 299.5 154.653 299.783 155.453 299.783C156.232 299.783 156.845 299.495 157.293 298.919C157.741 298.343 157.965 297.559 157.965 296.567C157.965 295.564 157.736 294.78 157.277 294.215C156.829 293.639 156.205 293.351 155.405 293.351ZM161.69 293.415C162.415 292.626 163.402 292.231 164.65 292.231C165.898 292.231 166.868 292.61 167.562 293.367C168.255 294.124 168.602 295.186 168.602 296.551C168.602 297.948 168.255 299.036 167.562 299.815C166.868 300.594 165.892 300.983 164.634 300.983C163.375 300.983 162.388 300.599 161.674 299.831C160.959 299.063 160.602 297.996 160.602 296.631C160.602 295.276 160.964 294.204 161.69 293.415ZM166.506 294.247C166.047 293.66 165.418 293.367 164.618 293.367C163.818 293.367 163.183 293.66 162.714 294.247C162.244 294.834 162.01 295.618 162.01 296.599C162.01 297.612 162.239 298.407 162.698 298.983C163.167 299.548 163.818 299.831 164.65 299.831C165.45 299.831 166.074 299.543 166.522 298.967C166.98 298.391 167.21 297.596 167.21 296.583C167.21 295.602 166.975 294.823 166.506 294.247ZM177.613 300.727H175.885L172.877 296.663L171.581 297.927V300.727H170.221V292.471H171.581V296.407L175.357 292.471H177.181L173.853 295.719L177.613 300.727ZM180.598 298.951V300.727H178.822V298.951H180.598Z" fill="#4B5D68"/>
<path d="M322.945 404.749C322.817 406.189 322.316 407.315 321.441 408.125C320.577 408.925 319.436 409.325 318.017 409.325C316.396 409.325 315.111 408.792 314.161 407.725C313.212 406.648 312.737 405.197 312.737 403.373C312.737 401.667 313.212 400.248 314.161 399.117C315.121 397.976 316.444 397.405 318.129 397.405C319.335 397.405 320.396 397.731 321.313 398.381C322.231 399.032 322.743 399.933 322.849 401.085H321.345C321.175 400.339 320.801 399.757 320.225 399.341C319.649 398.915 318.94 398.701 318.097 398.701C316.828 398.701 315.868 399.149 315.217 400.045C314.577 400.941 314.257 402.045 314.257 403.357C314.257 404.808 314.599 405.949 315.281 406.781C315.964 407.613 316.897 408.029 318.081 408.029C319.052 408.029 319.825 407.752 320.401 407.197C320.977 406.632 321.324 405.816 321.441 404.749H322.945ZM325.34 401.741C326.065 400.952 327.052 400.557 328.3 400.557C329.548 400.557 330.519 400.936 331.212 401.693C331.905 402.451 332.252 403.512 332.252 404.877C332.252 406.275 331.905 407.363 331.212 408.141C330.519 408.92 329.543 409.309 328.284 409.309C327.025 409.309 326.039 408.925 325.324 408.157C324.609 407.389 324.252 406.323 324.252 404.957C324.252 403.603 324.615 402.531 325.34 401.741ZM330.156 402.573C329.697 401.987 329.068 401.693 328.268 401.693C327.468 401.693 326.833 401.987 326.364 402.573C325.895 403.16 325.66 403.944 325.66 404.925C325.66 405.939 325.889 406.733 326.348 407.309C326.817 407.875 327.468 408.157 328.3 408.157C329.1 408.157 329.724 407.869 330.172 407.293C330.631 406.717 330.86 405.923 330.86 404.909C330.86 403.928 330.625 403.149 330.156 402.573ZM339.99 401.997H337.03V409.053H335.67V401.997H332.71V400.797H339.99V401.997ZM342.437 400.797V401.965C343.034 401.016 343.962 400.541 345.221 400.541C346.373 400.541 347.285 400.931 347.957 401.709C348.639 402.488 348.981 403.544 348.981 404.877C348.981 406.211 348.645 407.277 347.973 408.077C347.311 408.867 346.415 409.261 345.285 409.261C344.101 409.261 343.178 408.808 342.517 407.901V412.237H341.157V400.797H342.437ZM345.013 401.677C344.223 401.677 343.599 401.965 343.141 402.541C342.693 403.107 342.469 403.891 342.469 404.893C342.469 405.896 342.698 406.685 343.157 407.261C343.626 407.827 344.261 408.109 345.061 408.109C345.839 408.109 346.453 407.821 346.901 407.245C347.349 406.669 347.573 405.885 347.573 404.893C347.573 403.891 347.343 403.107 346.885 402.541C346.437 401.965 345.813 401.677 345.013 401.677ZM357.365 400.797L353.829 410.109C353.691 410.483 353.568 410.771 353.461 410.973C353.365 411.187 353.221 411.416 353.029 411.661C352.848 411.917 352.624 412.099 352.357 412.205C352.101 412.323 351.797 412.381 351.445 412.381C351.179 412.381 350.843 412.333 350.437 412.237V411.021C350.832 411.139 351.125 411.197 351.317 411.197C351.765 411.197 352.085 410.968 352.277 410.509L352.917 409.005L349.637 400.797H351.173L353.621 407.373L355.941 400.797H357.365ZM366.332 411.677H365.036V409.053H358.732V411.677H357.436V407.853H358.332C358.588 407.363 358.823 406.605 359.036 405.581C359.26 404.547 359.372 403.539 359.372 402.557V400.797H365.26V407.853H366.332V411.677ZM363.9 407.853V401.997H360.7V402.685C360.7 403.656 360.599 404.643 360.396 405.645C360.204 406.637 359.986 407.373 359.74 407.853H363.9ZM368.96 409.053H367.6V400.797H368.96V404.077H373.088V400.797H374.448V409.053H373.088V405.277H368.96V409.053ZM378.314 409.053H376.57V400.797H377.93V407.533H377.962L381.674 400.797H383.418V409.053H382.058V402.317H382.026L378.314 409.053ZM391.925 409.053H390.565V405.405C390.341 405.469 389.946 405.549 389.381 405.645C388.826 405.731 388.368 405.773 388.005 405.773C387.162 405.773 386.501 405.576 386.021 405.181C385.552 404.776 385.317 404.184 385.317 403.405V400.797H386.677V403.181C386.677 404.141 387.205 404.621 388.261 404.621C389.018 404.621 389.786 404.499 390.565 404.253V400.797H391.925V409.053ZM401.37 407.965V409.021C401.093 409.128 400.784 409.181 400.442 409.181C399.664 409.181 399.264 408.776 399.242 407.965C398.464 408.84 397.466 409.277 396.25 409.277C395.44 409.277 394.794 409.069 394.314 408.653C393.845 408.237 393.61 407.667 393.61 406.941C393.61 405.469 394.586 404.611 396.538 404.365C396.666 404.344 396.853 404.323 397.098 404.301C398.026 404.195 398.597 404.072 398.81 403.933C399.056 403.763 399.178 403.469 399.178 403.053C399.178 402.147 398.554 401.693 397.306 401.693C396.666 401.693 396.181 401.827 395.85 402.093C395.52 402.349 395.322 402.776 395.258 403.373H393.93C393.952 402.488 394.266 401.8 394.874 401.309C395.482 400.819 396.32 400.573 397.386 400.573C398.549 400.573 399.413 400.84 399.978 401.373C400.16 401.544 400.293 401.768 400.378 402.045C400.464 402.323 400.512 402.552 400.522 402.733C400.533 402.904 400.538 403.165 400.538 403.517C400.538 403.923 400.528 404.536 400.506 405.357C400.485 406.179 400.474 406.792 400.474 407.197C400.474 407.496 400.512 407.709 400.586 407.837C400.672 407.955 400.821 408.013 401.034 408.013C401.12 408.013 401.232 407.997 401.37 407.965ZM399.178 404.765C399.082 404.84 398.981 404.904 398.874 404.957C398.768 405.011 398.629 405.053 398.458 405.085C398.298 405.117 398.186 405.144 398.122 405.165C398.069 405.176 397.93 405.197 397.706 405.229C397.482 405.251 397.365 405.261 397.354 405.261C397.024 405.304 396.805 405.336 396.698 405.357C396.602 405.368 396.41 405.411 396.122 405.485C395.845 405.56 395.648 405.645 395.53 405.741C395.413 405.837 395.296 405.981 395.178 406.173C395.072 406.355 395.018 406.573 395.018 406.829C395.018 407.256 395.162 407.592 395.45 407.837C395.749 408.083 396.154 408.205 396.666 408.205C397.317 408.205 397.898 408.013 398.41 407.629C398.922 407.245 399.178 406.792 399.178 406.269V404.765ZM409.052 401.997H406.092V409.053H404.732V401.997H401.772V400.797H409.052V401.997ZM416.426 404.637C416.917 405.085 417.162 405.699 417.162 406.477C417.162 407.256 416.922 407.88 416.442 408.349C415.973 408.819 415.338 409.053 414.538 409.053H410.17V400.797H411.53V403.949H414.474C415.285 403.949 415.936 404.179 416.426 404.637ZM414.042 405.117H411.53V407.853H414.042C414.597 407.853 415.018 407.736 415.306 407.501C415.605 407.256 415.754 406.915 415.754 406.477C415.754 405.571 415.184 405.117 414.042 405.117Z" fill="#212353"/>
<path d="M476.422 413.85L484.573 405.171L476.422 396.492" stroke="#9C69E2" stroke-width="2" stroke-linecap="round" stroke-linejoin="round"/>
<path d="M484.573 405.171H457.401" stroke="#9C69E2" stroke-width="2" stroke-linecap="round" stroke-linejoin="round"/>
<path d="M127.045 119.384V116.216C127.653 116.472 128.253 116.6 128.845 116.6C129.389 116.6 129.813 116.464 130.117 116.192C130.421 115.904 130.573 115.552 130.573 115.136C130.573 114.992 130.557 114.848 130.525 114.704C130.493 114.56 130.445 114.4 130.381 114.224C130.317 114.048 130.261 113.912 130.213 113.816C130.165 113.704 130.085 113.544 129.973 113.336C129.877 113.128 129.813 112.992 129.781 112.928L124.765 102.368H128.917L132.781 111.368L136.573 102.368H140.581L134.821 114.944C134.005 116.736 133.189 117.992 132.373 118.712C131.557 119.416 130.477 119.768 129.133 119.768C128.381 119.768 127.685 119.64 127.045 119.384ZM148.532 107.072H155.66C156.828 107.072 157.78 107.336 158.516 107.864C159.252 108.376 159.62 109.152 159.62 110.192C159.62 111.376 159.06 112.224 157.94 112.736C159.444 113.168 160.196 114.176 160.196 115.76C160.196 116.928 159.796 117.84 158.996 118.496C158.212 119.136 157.212 119.456 155.996 119.456H148.532V107.072ZM151.892 112.04H154.148C155.492 112.04 156.164 111.568 156.164 110.624C156.164 110.08 155.98 109.712 155.612 109.52C155.26 109.328 154.772 109.232 154.148 109.232H151.892V112.04ZM151.892 117.248H154.412C155.116 117.248 155.668 117.136 156.068 116.912C156.468 116.688 156.668 116.256 156.668 115.616C156.668 114.96 156.452 114.52 156.02 114.296C155.588 114.072 155.004 113.96 154.268 113.96H151.892V117.248ZM173.881 119.456H170.425C170.313 119.136 170.233 118.736 170.185 118.256C169.145 119.296 167.809 119.816 166.177 119.816C164.801 119.816 163.721 119.488 162.937 118.832C162.153 118.16 161.761 117.24 161.761 116.072C161.761 115.544 161.825 115.08 161.953 114.68C162.097 114.28 162.321 113.944 162.625 113.672C162.945 113.4 163.241 113.176 163.513 113C163.801 112.824 164.193 112.68 164.689 112.568C165.185 112.456 165.585 112.376 165.889 112.328C166.193 112.264 166.617 112.2 167.161 112.136C168.361 111.976 169.161 111.808 169.561 111.632C169.977 111.456 170.185 111.128 170.185 110.648C170.185 109.544 169.441 108.992 167.953 108.992C167.169 108.992 166.593 109.136 166.225 109.424C165.857 109.696 165.617 110.184 165.505 110.888H162.313C162.505 108.104 164.417 106.712 168.049 106.712C171.649 106.712 173.449 108.056 173.449 110.744V116.096C173.449 117.664 173.593 118.784 173.881 119.456ZM170.161 113.432C169.761 113.672 168.961 113.888 167.761 114.08C166.753 114.24 166.097 114.44 165.793 114.68C165.441 114.984 165.265 115.4 165.265 115.928C165.265 116.44 165.425 116.848 165.745 117.152C166.081 117.44 166.545 117.584 167.137 117.584C168.049 117.584 168.777 117.344 169.321 116.864C169.881 116.368 170.161 115.688 170.161 114.824V113.432ZM187.951 114.68C187.743 116.28 187.111 117.528 186.055 118.424C185.015 119.32 183.671 119.768 182.023 119.768C180.119 119.768 178.591 119.184 177.439 118.016C176.287 116.848 175.711 115.296 175.711 113.36C175.711 111.36 176.287 109.752 177.439 108.536C178.607 107.32 180.151 106.712 182.071 106.712C183.719 106.712 185.063 107.136 186.103 107.984C187.143 108.816 187.735 109.952 187.879 111.392H184.543C184.287 109.968 183.471 109.256 182.095 109.256C181.167 109.256 180.439 109.616 179.911 110.336C179.399 111.04 179.143 112.024 179.143 113.288C179.143 114.52 179.391 115.48 179.887 116.168C180.399 116.84 181.111 117.176 182.023 117.176C183.511 117.176 184.391 116.344 184.663 114.68H187.951ZM208.196 119.456H204.812V114.248H200.036V119.456H196.652V107.072H200.036V111.56H204.812V107.072H208.196V119.456ZM222.47 115.616C222.086 116.944 221.374 117.976 220.334 118.712C219.31 119.448 218.086 119.816 216.662 119.816C214.758 119.816 213.222 119.224 212.054 118.04C210.902 116.856 210.326 115.288 210.326 113.336C210.326 111.416 210.91 109.832 212.078 108.584C213.246 107.336 214.734 106.712 216.542 106.712C218.414 106.712 219.902 107.352 221.006 108.632C222.11 109.896 222.662 111.616 222.662 113.792V114.128H213.782C213.798 115.2 214.054 116.016 214.55 116.576C215.062 117.136 215.774 117.416 216.686 117.416C217.886 117.416 218.726 116.816 219.206 115.616H222.47ZM219.206 111.968C219.126 111.152 218.862 110.488 218.414 109.976C217.966 109.448 217.342 109.184 216.542 109.184C215.79 109.184 215.166 109.432 214.67 109.928C214.174 110.424 213.878 111.104 213.782 111.968H219.206ZM243.675 113.408C243.675 115.36 243.091 116.92 241.923 118.088C240.771 119.24 239.203 119.816 237.219 119.816C236.147 119.816 235.211 119.6 234.411 119.168C233.611 118.72 232.987 118.12 232.539 117.368C232.091 116.616 231.755 115.808 231.531 114.944C231.323 114.08 231.219 113.168 231.219 112.208C231.219 111.344 231.243 110.584 231.291 109.928C231.355 109.256 231.483 108.512 231.675 107.696C231.867 106.864 232.131 106.152 232.467 105.56C232.819 104.968 233.315 104.416 233.955 103.904C234.595 103.392 235.347 103.024 236.211 102.8C236.547 102.704 237.027 102.624 237.651 102.56C238.291 102.496 238.795 102.416 239.163 102.32C239.547 102.208 239.787 102.048 239.883 101.84H243.123C243.043 102.448 242.875 102.976 242.619 103.424C242.363 103.856 242.075 104.2 241.755 104.456C241.435 104.696 241.011 104.904 240.483 105.08C239.955 105.256 239.475 105.376 239.043 105.44C238.611 105.504 238.051 105.568 237.363 105.632C234.803 105.872 233.355 107.52 233.019 110.576H233.091C233.443 109.6 234.019 108.776 234.819 108.104C235.635 107.416 236.691 107.072 237.987 107.072C239.603 107.072 240.955 107.656 242.043 108.824C243.131 109.992 243.675 111.52 243.675 113.408ZM240.267 113.384C240.267 112.184 240.011 111.256 239.499 110.6C239.003 109.928 238.307 109.592 237.411 109.592C236.563 109.592 235.883 109.928 235.371 110.6C234.875 111.272 234.627 112.208 234.627 113.408C234.627 114.64 234.875 115.592 235.371 116.264C235.883 116.92 236.579 117.248 237.459 117.248C238.339 117.248 239.027 116.912 239.523 116.24C240.019 115.568 240.267 114.616 240.267 113.384ZM256.938 107.072L252.378 119.408C252.154 120.032 251.986 120.464 251.874 120.704C251.778 120.96 251.618 121.312 251.394 121.76C251.186 122.208 250.986 122.52 250.794 122.696C250.618 122.872 250.37 123.072 250.05 123.296C249.746 123.52 249.394 123.672 248.994 123.752C248.61 123.832 248.162 123.872 247.65 123.872C247.234 123.872 246.474 123.864 245.37 123.848V121.04H247.026C247.586 121.04 248.01 120.896 248.298 120.608C248.602 120.32 248.754 119.912 248.754 119.384C248.754 119.256 248.722 119.096 248.658 118.904L244.17 107.072H247.842L250.674 115.496L253.41 107.072H256.938ZM271.262 123.104H268.07V119.456H259.91V123.104H256.718V116.84H258.206C258.606 116.072 258.966 114.952 259.286 113.48C259.606 112.008 259.766 110.592 259.766 109.232V107.072H269.654V116.84H271.262V123.104ZM266.27 116.84V109.592H262.934V109.904C262.934 111.104 262.782 112.376 262.478 113.72C262.19 115.048 261.878 116.088 261.542 116.84H266.27ZM284.556 115.616C284.172 116.944 283.46 117.976 282.42 118.712C281.396 119.448 280.172 119.816 278.748 119.816C276.844 119.816 275.308 119.224 274.14 118.04C272.988 116.856 272.412 115.288 272.412 113.336C272.412 111.416 272.996 109.832 274.164 108.584C275.332 107.336 276.82 106.712 278.628 106.712C280.5 106.712 281.988 107.352 283.092 108.632C284.196 109.896 284.748 111.616 284.748 113.792V114.128H275.868C275.884 115.2 276.14 116.016 276.636 116.576C277.148 117.136 277.86 117.416 278.772 117.416C279.972 117.416 280.812 116.816 281.292 115.616H284.556ZM281.292 111.968C281.212 111.152 280.948 110.488 280.5 109.976C280.052 109.448 279.428 109.184 278.628 109.184C277.876 109.184 277.252 109.432 276.756 109.928C276.26 110.424 275.964 111.104 275.868 111.968H281.292ZM296.763 109.688H292.683V119.456H289.299V109.688H285.219V107.072H296.763V109.688ZM304.907 107.072H312.035C313.203 107.072 314.155 107.336 314.891 107.864C315.627 108.376 315.995 109.152 315.995 110.192C315.995 111.376 315.435 112.224 314.315 112.736C315.819 113.168 316.571 114.176 316.571 115.76C316.571 116.928 316.171 117.84 315.371 118.496C314.587 119.136 313.587 119.456 312.371 119.456H304.907V107.072ZM308.267 112.04H310.523C311.867 112.04 312.539 111.568 312.539 110.624C312.539 110.08 312.355 109.712 311.987 109.52C311.635 109.328 311.147 109.232 310.523 109.232H308.267V112.04ZM308.267 117.248H310.787C311.491 117.248 312.043 117.136 312.443 116.912C312.843 116.688 313.043 116.256 313.043 115.616C313.043 114.96 312.827 114.52 312.395 114.296C311.963 114.072 311.379 113.96 310.643 113.96H308.267V117.248ZM331.168 113.264C331.168 115.248 330.584 116.84 329.416 118.04C328.264 119.24 326.72 119.84 324.784 119.84C322.848 119.84 321.296 119.24 320.128 118.04C318.96 116.84 318.376 115.248 318.376 113.264C318.376 111.296 318.968 109.712 320.152 108.512C321.336 107.312 322.896 106.712 324.832 106.712C326.736 106.712 328.264 107.312 329.416 108.512C330.584 109.712 331.168 111.296 331.168 113.264ZM327.76 113.24C327.76 112.008 327.488 111.048 326.944 110.36C326.416 109.656 325.68 109.304 324.736 109.304C323.824 109.304 323.104 109.656 322.576 110.36C322.048 111.064 321.784 112.032 321.784 113.264C321.784 114.528 322.048 115.512 322.576 116.216C323.104 116.92 323.84 117.272 324.784 117.272C325.728 117.272 326.456 116.92 326.968 116.216C327.496 115.496 327.76 114.504 327.76 113.24ZM345 119.456H341.616V109.688H336.84V119.456H333.456V107.072H345V119.456ZM350.851 107.072V108.608C351.747 107.36 353.027 106.736 354.691 106.736C356.355 106.736 357.691 107.336 358.699 108.536C359.707 109.736 360.211 111.336 360.211 113.336C360.211 115.272 359.715 116.832 358.723 118.016C357.747 119.184 356.451 119.768 354.835 119.768C353.171 119.768 351.899 119.152 351.019 117.92V123.848H347.635V107.072H350.851ZM353.851 109.472C352.923 109.472 352.195 109.808 351.667 110.48C351.155 111.152 350.899 112.088 350.899 113.288C350.899 114.488 351.163 115.424 351.691 116.096C352.219 116.768 352.947 117.104 353.875 117.104C354.787 117.104 355.499 116.768 356.011 116.096C356.539 115.424 356.803 114.504 356.803 113.336C356.803 112.136 356.539 111.192 356.011 110.504C355.483 109.816 354.763 109.472 353.851 109.472ZM374.739 113.264C374.739 115.248 374.155 116.84 372.987 118.04C371.835 119.24 370.291 119.84 368.355 119.84C366.419 119.84 364.867 119.24 363.699 118.04C362.531 116.84 361.947 115.248 361.947 113.264C361.947 111.296 362.539 109.712 363.723 108.512C364.907 107.312 366.467 106.712 368.403 106.712C370.307 106.712 371.835 107.312 372.987 108.512C374.155 109.712 374.739 111.296 374.739 113.264ZM371.331 113.24C371.331 112.008 371.059 111.048 370.515 110.36C369.987 109.656 369.251 109.304 368.307 109.304C367.395 109.304 366.675 109.656 366.147 110.36C365.619 111.064 365.355 112.032 365.355 113.264C365.355 114.528 365.619 115.512 366.147 116.216C366.675 116.92 367.411 117.272 368.355 117.272C369.299 117.272 370.027 116.92 370.539 116.216C371.067 115.496 371.331 114.504 371.331 113.24ZM388.787 114.68C388.579 116.28 387.947 117.528 386.891 118.424C385.851 119.32 384.507 119.768 382.859 119.768C380.955 119.768 379.427 119.184 378.275 118.016C377.123 116.848 376.547 115.296 376.547 113.36C376.547 111.36 377.123 109.752 378.275 108.536C379.443 107.32 380.987 106.712 382.907 106.712C384.555 106.712 385.899 107.136 386.939 107.984C387.979 108.816 388.571 109.952 388.715 111.392H385.379C385.123 109.968 384.307 109.256 382.931 109.256C382.003 109.256 381.275 109.616 380.747 110.336C380.235 111.04 379.979 112.024 379.979 113.288C379.979 114.52 380.227 115.48 380.723 116.168C381.235 116.84 381.947 117.176 382.859 117.176C384.347 117.176 385.227 116.344 385.499 114.68H388.787ZM403.192 113.264C403.192 115.248 402.608 116.84 401.44 118.04C400.288 119.24 398.744 119.84 396.808 119.84C394.872 119.84 393.32 119.24 392.152 118.04C390.984 116.84 390.4 115.248 390.4 113.264C390.4 111.296 390.992 109.712 392.176 108.512C393.36 107.312 394.92 106.712 396.856 106.712C398.76 106.712 400.288 107.312 401.44 108.512C402.608 109.712 403.192 111.296 403.192 113.264ZM399.784 113.24C399.784 112.008 399.512 111.048 398.968 110.36C398.44 109.656 397.704 109.304 396.76 109.304C395.848 109.304 395.128 109.656 394.6 110.36C394.072 111.064 393.808 112.032 393.808 113.264C393.808 114.528 394.072 115.512 394.6 116.216C395.128 116.92 395.864 117.272 396.808 117.272C397.752 117.272 398.48 116.92 398.992 116.216C399.52 115.496 399.784 114.504 399.784 113.24ZM405.384 107.072H412.512C413.68 107.072 414.632 107.336 415.368 107.864C416.104 108.376 416.472 109.152 416.472 110.192C416.472 111.376 415.912 112.224 414.792 112.736C416.296 113.168 417.048 114.176 417.048 115.76C417.048 116.928 416.648 117.84 415.848 118.496C415.064 119.136 414.064 119.456 412.848 119.456H405.384V107.072ZM408.744 112.04H411C412.344 112.04 413.016 111.568 413.016 110.624C413.016 110.08 412.832 109.712 412.464 109.52C412.112 109.328 411.624 109.232 411 109.232H408.744V112.04ZM408.744 117.248H411.264C411.968 117.248 412.52 117.136 412.92 116.912C413.32 116.688 413.52 116.256 413.52 115.616C413.52 114.96 413.304 114.52 412.872 114.296C412.44 114.072 411.856 113.96 411.12 113.96H408.744V117.248Z" fill="#212353"/>
</svg>
