<svg width="709" height="514" viewBox="0 0 709 514" fill="none" xmlns="http://www.w3.org/2000/svg">
<path opacity="0.1" d="M204.198 41.7444C208.231 17.6514 229.083 0 253.511 0H658.303C685.917 0 708.303 22.3858 708.303 50V416.408C708.303 444.022 685.917 466.408 658.303 466.408H192.171C161.26 466.408 137.754 438.639 142.858 408.152L204.198 41.7444Z" fill="#526CF5"/>
<path d="M413.006 337.752C376.509 296.323 419.603 256.32 495.451 255.241C646.246 265.186 680.275 398.838 668.878 428.804C657.482 458.77 623.547 459.588 573.268 398.543C522.989 337.499 458.627 389.538 413.006 337.752Z" stroke="white" stroke-width="1.5"/>
<path d="M333.567 196.451H338.431C339.476 196.451 340.34 196.68 341.023 197.139C341.716 197.597 342.063 198.317 342.063 199.299C342.063 199.864 341.908 200.371 341.599 200.819C341.3 201.256 340.895 201.565 340.383 201.747C341.087 201.907 341.625 202.237 341.999 202.739C342.383 203.24 342.575 203.869 342.575 204.627C342.575 206.771 341.135 207.843 338.255 207.843H333.567V196.451ZM335.039 197.731V201.331H337.743C338.052 201.331 338.313 201.325 338.527 201.315C338.751 201.293 339.001 201.251 339.279 201.187C339.556 201.123 339.775 201.032 339.935 200.915C340.105 200.787 340.249 200.605 340.367 200.371C340.495 200.136 340.559 199.853 340.559 199.523C340.559 199.192 340.505 198.915 340.399 198.691C340.292 198.456 340.164 198.28 340.015 198.163C339.865 198.035 339.657 197.939 339.391 197.875C339.135 197.811 338.9 197.773 338.687 197.763C338.484 197.741 338.217 197.731 337.887 197.731H335.039ZM335.039 202.515V206.579H338.047C338.42 206.579 338.724 206.573 338.959 206.563C339.193 206.541 339.455 206.493 339.743 206.419C340.041 206.344 340.276 206.237 340.447 206.099C340.617 205.949 340.761 205.741 340.879 205.475C340.996 205.197 341.055 204.867 341.055 204.483C341.055 204.163 341.012 203.885 340.927 203.651C340.852 203.416 340.719 203.229 340.527 203.091C340.345 202.952 340.169 202.84 339.999 202.755C339.839 202.669 339.604 202.611 339.295 202.579C338.985 202.547 338.745 202.531 338.575 202.531C338.404 202.52 338.143 202.515 337.791 202.515H335.039ZM351.336 205.235C350.92 207.155 349.72 208.115 347.736 208.115C346.52 208.115 345.565 207.736 344.872 206.979C344.189 206.221 343.848 205.171 343.848 203.827C343.848 202.493 344.2 201.416 344.904 200.595C345.619 199.763 346.547 199.347 347.688 199.347C348.957 199.347 349.896 199.779 350.504 200.643C351.123 201.496 351.432 202.579 351.432 203.891V204.083H345.224L345.208 204.179C345.208 205.053 345.437 205.741 345.896 206.243C346.355 206.744 346.984 206.995 347.784 206.995C348.381 206.995 348.851 206.856 349.192 206.579C349.544 206.301 349.816 205.853 350.008 205.235H351.336ZM350.024 202.979C349.96 202.189 349.72 201.576 349.304 201.139C348.888 200.691 348.339 200.467 347.656 200.467C346.995 200.467 346.445 200.691 346.008 201.139C345.571 201.587 345.309 202.2 345.224 202.979H350.024ZM360.592 210.467H359.296V207.843H352.992V210.467H351.696V206.643H352.592C352.848 206.152 353.083 205.395 353.296 204.371C353.52 203.336 353.632 202.328 353.632 201.347V199.587H359.52V206.643H360.592V210.467ZM358.16 206.643V200.787H354.96V201.475C354.96 202.445 354.859 203.432 354.656 204.435C354.464 205.427 354.246 206.163 354 206.643H358.16ZM367.988 203.427C368.479 203.875 368.724 204.488 368.724 205.267C368.724 206.045 368.484 206.669 368.004 207.139C367.535 207.608 366.9 207.843 366.1 207.843H361.732V199.587H363.092V202.739H366.036C366.847 202.739 367.497 202.968 367.988 203.427ZM365.604 203.907H363.092V206.643H365.604C366.159 206.643 366.58 206.525 366.868 206.291C367.167 206.045 367.316 205.704 367.316 205.267C367.316 204.36 366.745 203.907 365.604 203.907ZM379.234 196.515V207.843H377.746V199.635H374.898V198.611C375.815 198.611 376.541 198.461 377.074 198.163C377.618 197.864 377.981 197.315 378.162 196.515H379.234ZM386.828 196.499C387.511 196.499 388.092 196.627 388.572 196.883C389.063 197.128 389.436 197.432 389.692 197.795C389.948 198.157 390.151 198.632 390.3 199.219C390.45 199.795 390.54 200.317 390.572 200.787C390.604 201.245 390.62 201.8 390.62 202.451C390.62 203.048 390.594 203.587 390.54 204.067C390.498 204.547 390.396 205.048 390.236 205.571C390.087 206.093 389.879 206.531 389.612 206.883C389.346 207.224 388.983 207.507 388.524 207.731C388.066 207.955 387.522 208.067 386.892 208.067C386.231 208.067 385.655 207.955 385.164 207.731C384.684 207.496 384.311 207.208 384.044 206.867C383.778 206.525 383.564 206.093 383.404 205.571C383.255 205.037 383.159 204.536 383.116 204.067C383.074 203.587 383.052 203.037 383.052 202.419C383.052 201.885 383.063 201.421 383.084 201.027C383.116 200.632 383.17 200.189 383.244 199.699C383.33 199.197 383.458 198.776 383.628 198.435C383.799 198.083 384.018 197.752 384.284 197.443C384.551 197.133 384.898 196.899 385.324 196.739C385.762 196.579 386.263 196.499 386.828 196.499ZM387.708 197.907C387.452 197.779 387.159 197.715 386.828 197.715C386.498 197.715 386.204 197.779 385.948 197.907C385.692 198.024 385.484 198.163 385.324 198.323C385.164 198.483 385.026 198.723 384.908 199.043C384.791 199.352 384.706 199.613 384.652 199.827C384.61 200.04 384.572 200.349 384.54 200.755C384.508 201.149 384.492 201.432 384.492 201.603C384.492 201.763 384.492 202.035 384.492 202.419C384.492 202.792 384.498 203.101 384.508 203.347C384.519 203.592 384.546 203.912 384.588 204.307C384.631 204.701 384.706 205.032 384.812 205.299C384.919 205.555 385.052 205.816 385.212 206.083C385.372 206.339 385.591 206.536 385.868 206.675C386.156 206.803 386.487 206.867 386.86 206.867C387.18 206.867 387.463 206.808 387.708 206.691C387.964 206.573 388.172 206.435 388.332 206.275C388.492 206.115 388.626 205.891 388.732 205.603C388.85 205.304 388.935 205.048 388.988 204.835C389.042 204.611 389.079 204.317 389.1 203.955C389.132 203.581 389.148 203.309 389.148 203.139C389.159 202.957 389.164 202.696 389.164 202.355C389.164 201.981 389.164 201.715 389.164 201.555C389.164 201.395 389.148 201.117 389.116 200.723C389.084 200.328 389.042 200.024 388.988 199.811C388.946 199.597 388.866 199.336 388.748 199.027C388.631 198.717 388.492 198.483 388.332 198.323C388.172 198.163 387.964 198.024 387.708 197.907ZM395.719 196.499C396.402 196.499 396.983 196.627 397.463 196.883C397.954 197.128 398.327 197.432 398.583 197.795C398.839 198.157 399.042 198.632 399.191 199.219C399.34 199.795 399.431 200.317 399.463 200.787C399.495 201.245 399.511 201.8 399.511 202.451C399.511 203.048 399.484 203.587 399.431 204.067C399.388 204.547 399.287 205.048 399.127 205.571C398.978 206.093 398.77 206.531 398.503 206.883C398.236 207.224 397.874 207.507 397.415 207.731C396.956 207.955 396.412 208.067 395.783 208.067C395.122 208.067 394.546 207.955 394.055 207.731C393.575 207.496 393.202 207.208 392.935 206.867C392.668 206.525 392.455 206.093 392.295 205.571C392.146 205.037 392.05 204.536 392.007 204.067C391.964 203.587 391.943 203.037 391.943 202.419C391.943 201.885 391.954 201.421 391.975 201.027C392.007 200.632 392.06 200.189 392.135 199.699C392.22 199.197 392.348 198.776 392.519 198.435C392.69 198.083 392.908 197.752 393.175 197.443C393.442 197.133 393.788 196.899 394.215 196.739C394.652 196.579 395.154 196.499 395.719 196.499ZM396.599 197.907C396.343 197.779 396.05 197.715 395.719 197.715C395.388 197.715 395.095 197.779 394.839 197.907C394.583 198.024 394.375 198.163 394.215 198.323C394.055 198.483 393.916 198.723 393.799 199.043C393.682 199.352 393.596 199.613 393.543 199.827C393.5 200.04 393.463 200.349 393.431 200.755C393.399 201.149 393.383 201.432 393.383 201.603C393.383 201.763 393.383 202.035 393.383 202.419C393.383 202.792 393.388 203.101 393.399 203.347C393.41 203.592 393.436 203.912 393.479 204.307C393.522 204.701 393.596 205.032 393.703 205.299C393.81 205.555 393.943 205.816 394.103 206.083C394.263 206.339 394.482 206.536 394.759 206.675C395.047 206.803 395.378 206.867 395.751 206.867C396.071 206.867 396.354 206.808 396.599 206.691C396.855 206.573 397.063 206.435 397.223 206.275C397.383 206.115 397.516 205.891 397.623 205.603C397.74 205.304 397.826 205.048 397.879 204.835C397.932 204.611 397.97 204.317 397.991 203.955C398.023 203.581 398.039 203.309 398.039 203.139C398.05 202.957 398.055 202.696 398.055 202.355C398.055 201.981 398.055 201.715 398.055 201.555C398.055 201.395 398.039 201.117 398.007 200.723C397.975 200.328 397.932 200.024 397.879 199.811C397.836 199.597 397.756 199.336 397.639 199.027C397.522 198.717 397.383 198.483 397.223 198.323C397.063 198.163 396.855 198.024 396.599 197.907ZM411.81 196.147L405.426 208.387H404.338L410.754 196.147H411.81ZM404.306 196.467C405.116 196.467 405.735 196.728 406.162 197.251C406.599 197.773 406.818 198.531 406.818 199.523C406.818 200.611 406.599 201.443 406.162 202.019C405.724 202.595 405.084 202.883 404.242 202.883C402.524 202.883 401.666 201.805 401.666 199.651C401.666 198.637 401.895 197.853 402.354 197.299C402.812 196.744 403.463 196.467 404.306 196.467ZM405.618 199.587C405.618 198.125 405.159 197.395 404.242 197.395C403.324 197.395 402.866 198.173 402.866 199.731C402.866 201.224 403.324 201.971 404.242 201.971C405.159 201.971 405.618 201.176 405.618 199.587ZM412.274 201.667C413.084 201.667 413.703 201.928 414.13 202.451C414.567 202.973 414.786 203.731 414.786 204.723C414.786 205.811 414.567 206.643 414.13 207.219C413.692 207.795 413.052 208.083 412.21 208.083C410.492 208.083 409.634 207.005 409.634 204.851C409.634 203.837 409.863 203.053 410.322 202.499C410.78 201.944 411.431 201.667 412.274 201.667ZM413.586 204.787C413.586 203.325 413.127 202.595 412.21 202.595C411.292 202.595 410.834 203.373 410.834 204.931C410.834 206.424 411.292 207.171 412.21 207.171C413.127 207.171 413.586 206.376 413.586 204.787ZM423.015 207.843H421.655V199.587H428.503V207.843H427.143V200.787H423.015V207.843ZM431.825 199.587V200.755C432.423 199.805 433.351 199.331 434.609 199.331C435.761 199.331 436.673 199.72 437.345 200.499C438.028 201.277 438.369 202.333 438.369 203.667C438.369 205 438.033 206.067 437.361 206.867C436.7 207.656 435.804 208.051 434.673 208.051C433.489 208.051 432.567 207.597 431.905 206.691V211.027H430.545V199.587H431.825ZM434.401 200.467C433.612 200.467 432.988 200.755 432.529 201.331C432.081 201.896 431.857 202.68 431.857 203.683C431.857 204.685 432.087 205.475 432.545 206.051C433.015 206.616 433.649 206.899 434.449 206.899C435.228 206.899 435.841 206.611 436.289 206.035C436.737 205.459 436.961 204.675 436.961 203.683C436.961 202.68 436.732 201.896 436.273 201.331C435.825 200.755 435.201 200.467 434.401 200.467ZM440.686 200.531C441.411 199.741 442.398 199.347 443.646 199.347C444.894 199.347 445.865 199.725 446.558 200.483C447.251 201.24 447.598 202.301 447.598 203.667C447.598 205.064 447.251 206.152 446.558 206.931C445.865 207.709 444.889 208.099 443.63 208.099C442.371 208.099 441.385 207.715 440.67 206.947C439.955 206.179 439.598 205.112 439.598 203.747C439.598 202.392 439.961 201.32 440.686 200.531ZM445.502 201.363C445.043 200.776 444.414 200.483 443.614 200.483C442.814 200.483 442.179 200.776 441.71 201.363C441.241 201.949 441.006 202.733 441.006 203.715C441.006 204.728 441.235 205.523 441.694 206.099C442.163 206.664 442.814 206.947 443.646 206.947C444.446 206.947 445.07 206.659 445.518 206.083C445.977 205.507 446.206 204.712 446.206 203.699C446.206 202.717 445.971 201.939 445.502 201.363ZM456.273 205.235C455.857 207.155 454.657 208.115 452.673 208.115C451.457 208.115 450.503 207.736 449.809 206.979C449.127 206.221 448.785 205.171 448.785 203.827C448.785 202.493 449.137 201.416 449.841 200.595C450.556 199.763 451.484 199.347 452.625 199.347C453.895 199.347 454.833 199.779 455.441 200.643C456.06 201.496 456.369 202.579 456.369 203.891V204.083H450.161L450.145 204.179C450.145 205.053 450.375 205.741 450.833 206.243C451.292 206.744 451.921 206.995 452.721 206.995C453.319 206.995 453.788 206.856 454.129 206.579C454.481 206.301 454.753 205.853 454.945 205.235H456.273ZM454.961 202.979C454.897 202.189 454.657 201.576 454.241 201.139C453.825 200.691 453.276 200.467 452.593 200.467C451.932 200.467 451.383 200.691 450.945 201.139C450.508 201.587 450.247 202.2 450.161 202.979H454.961ZM465.203 207.843H463.475L460.467 203.779L459.171 205.043V207.843H457.811V199.587H459.171V203.523L462.947 199.587H464.771L461.443 202.835L465.203 207.843ZM472.428 200.787H469.468V207.843H468.108V200.787H465.148V199.587H472.428V200.787ZM473.889 200.531C474.614 199.741 475.601 199.347 476.849 199.347C478.097 199.347 479.068 199.725 479.761 200.483C480.454 201.24 480.801 202.301 480.801 203.667C480.801 205.064 480.454 206.152 479.761 206.931C479.068 207.709 478.092 208.099 476.833 208.099C475.574 208.099 474.588 207.715 473.873 206.947C473.158 206.179 472.801 205.112 472.801 203.747C472.801 202.392 473.164 201.32 473.889 200.531ZM478.705 201.363C478.246 200.776 477.617 200.483 476.817 200.483C476.017 200.483 475.382 200.776 474.913 201.363C474.444 201.949 474.209 202.733 474.209 203.715C474.209 204.728 474.438 205.523 474.897 206.099C475.366 206.664 476.017 206.947 476.849 206.947C477.649 206.947 478.273 206.659 478.721 206.083C479.18 205.507 479.409 204.712 479.409 203.699C479.409 202.717 479.174 201.939 478.705 201.363ZM482.388 207.843V199.587H486.212C486.756 199.587 487.22 199.635 487.604 199.731C487.988 199.816 488.324 200.013 488.612 200.323C488.9 200.632 489.044 201.053 489.044 201.587C489.044 202.397 488.639 202.989 487.828 203.363V203.379C488.319 203.475 488.703 203.704 488.98 204.067C489.258 204.419 489.396 204.867 489.396 205.411C489.396 206.115 489.162 206.696 488.692 207.155C488.223 207.613 487.62 207.843 486.884 207.843H482.388ZM486.068 202.915C486.634 202.915 487.034 202.824 487.268 202.643C487.514 202.451 487.636 202.173 487.636 201.811C487.636 201.448 487.519 201.181 487.284 201.011C487.05 200.84 486.644 200.755 486.068 200.755H483.716V202.915H486.068ZM483.716 204.067V206.675H486.628C487.055 206.675 487.386 206.547 487.62 206.291C487.866 206.035 487.988 205.704 487.988 205.299C487.988 204.477 487.455 204.067 486.388 204.067H483.716ZM493.094 206.067V207.155C493.094 207.56 493.073 207.901 493.03 208.179C492.998 208.467 492.924 208.755 492.806 209.043C492.689 209.331 492.508 209.571 492.262 209.763C492.017 209.965 491.702 210.115 491.318 210.211V209.411C491.894 209.219 492.188 208.696 492.198 207.843H491.318V206.067H493.094ZM507.312 207.843H505.584L502.576 203.779L501.28 205.043V207.843H499.92V199.587H501.28V203.523L505.056 199.587H506.88L503.552 202.835L507.312 207.843ZM508.873 200.531C509.599 199.741 510.585 199.347 511.833 199.347C513.081 199.347 514.052 199.725 514.745 200.483C515.439 201.24 515.785 202.301 515.785 203.667C515.785 205.064 515.439 206.152 514.745 206.931C514.052 207.709 513.076 208.099 511.817 208.099C510.559 208.099 509.572 207.715 508.857 206.947C508.143 206.179 507.785 205.112 507.785 203.747C507.785 202.392 508.148 201.32 508.873 200.531ZM513.689 201.363C513.231 200.776 512.601 200.483 511.801 200.483C511.001 200.483 510.367 200.776 509.897 201.363C509.428 201.949 509.193 202.733 509.193 203.715C509.193 204.728 509.423 205.523 509.881 206.099C510.351 206.664 511.001 206.947 511.833 206.947C512.633 206.947 513.257 206.659 513.705 206.083C514.164 205.507 514.393 204.712 514.393 203.699C514.393 202.717 514.159 201.939 513.689 201.363ZM523.444 200.787H520.484V207.843H519.124V200.787H516.164V199.587H523.444V200.787ZM524.905 200.531C525.63 199.741 526.617 199.347 527.865 199.347C529.113 199.347 530.083 199.725 530.777 200.483C531.47 201.24 531.817 202.301 531.817 203.667C531.817 205.064 531.47 206.152 530.777 206.931C530.083 207.709 529.107 208.099 527.849 208.099C526.59 208.099 525.603 207.715 524.889 206.947C524.174 206.179 523.817 205.112 523.817 203.747C523.817 202.392 524.179 201.32 524.905 200.531ZM529.721 201.363C529.262 200.776 528.633 200.483 527.833 200.483C527.033 200.483 526.398 200.776 525.929 201.363C525.459 201.949 525.225 202.733 525.225 203.715C525.225 204.728 525.454 205.523 525.913 206.099C526.382 206.664 527.033 206.947 527.865 206.947C528.665 206.947 529.289 206.659 529.737 206.083C530.195 205.507 530.425 204.712 530.425 203.699C530.425 202.717 530.19 201.939 529.721 201.363ZM534.716 199.587V200.755C535.313 199.805 536.241 199.331 537.5 199.331C538.652 199.331 539.564 199.72 540.236 200.499C540.919 201.277 541.26 202.333 541.26 203.667C541.26 205 540.924 206.067 540.252 206.867C539.591 207.656 538.695 208.051 537.564 208.051C536.38 208.051 535.457 207.597 534.796 206.691V211.027H533.436V199.587H534.716ZM537.292 200.467C536.503 200.467 535.879 200.755 535.42 201.331C534.972 201.896 534.748 202.68 534.748 203.683C534.748 204.685 534.977 205.475 535.436 206.051C535.905 206.616 536.54 206.899 537.34 206.899C538.119 206.899 538.732 206.611 539.18 206.035C539.628 205.459 539.852 204.675 539.852 203.683C539.852 202.68 539.623 201.896 539.164 201.331C538.716 200.755 538.092 200.467 537.292 200.467ZM550.792 199.587H552.152V207.843H550.792V199.587ZM548.744 203.427C549.235 203.875 549.48 204.488 549.48 205.267C549.48 206.045 549.24 206.669 548.76 207.139C548.291 207.608 547.656 207.843 546.856 207.843H542.872V199.587H544.232V202.739H546.792C547.603 202.739 548.254 202.968 548.744 203.427ZM546.36 203.907H544.232V206.643H546.36C546.915 206.643 547.336 206.525 547.624 206.291C547.923 206.045 548.072 205.704 548.072 205.267C548.072 204.36 547.502 203.907 546.36 203.907ZM561.242 205.235C560.826 207.155 559.626 208.115 557.642 208.115C556.426 208.115 555.471 207.736 554.778 206.979C554.095 206.221 553.754 205.171 553.754 203.827C553.754 202.493 554.106 201.416 554.81 200.595C555.525 199.763 556.453 199.347 557.594 199.347C558.863 199.347 559.802 199.779 560.41 200.643C561.029 201.496 561.338 202.579 561.338 203.891V204.083H555.13L555.114 204.179C555.114 205.053 555.343 205.741 555.802 206.243C556.261 206.744 556.89 206.995 557.69 206.995C558.287 206.995 558.757 206.856 559.098 206.579C559.45 206.301 559.722 205.853 559.914 205.235H561.242ZM559.93 202.979C559.866 202.189 559.626 201.576 559.21 201.139C558.794 200.691 558.245 200.467 557.562 200.467C556.901 200.467 556.351 200.691 555.914 201.139C555.477 201.587 555.215 202.2 555.13 202.979H559.93ZM334.687 233.843H333.327V225.587H340.175V233.843H338.815V226.787H334.687V233.843ZM342.873 226.531C343.599 225.741 344.585 225.347 345.833 225.347C347.081 225.347 348.052 225.725 348.745 226.483C349.439 227.24 349.785 228.301 349.785 229.667C349.785 231.064 349.439 232.152 348.745 232.931C348.052 233.709 347.076 234.099 345.817 234.099C344.559 234.099 343.572 233.715 342.857 232.947C342.143 232.179 341.785 231.112 341.785 229.747C341.785 228.392 342.148 227.32 342.873 226.531ZM347.689 227.363C347.231 226.776 346.601 226.483 345.801 226.483C345.001 226.483 344.367 226.776 343.897 227.363C343.428 227.949 343.193 228.733 343.193 229.715C343.193 230.728 343.423 231.523 343.881 232.099C344.351 232.664 345.001 232.947 345.833 232.947C346.633 232.947 347.257 232.659 347.705 232.083C348.164 231.507 348.393 230.712 348.393 229.699C348.393 228.717 348.159 227.939 347.689 227.363ZM352.765 233.843H351.405V225.587H358.253V233.843H356.893V226.787H352.765V233.843ZM367.607 232.755V233.811C367.33 233.917 367.021 233.971 366.679 233.971C365.901 233.971 365.501 233.565 365.479 232.755C364.701 233.629 363.703 234.067 362.487 234.067C361.677 234.067 361.031 233.859 360.551 233.443C360.082 233.027 359.847 232.456 359.847 231.731C359.847 230.259 360.823 229.4 362.775 229.155C362.903 229.133 363.09 229.112 363.335 229.091C364.263 228.984 364.834 228.861 365.047 228.723C365.293 228.552 365.415 228.259 365.415 227.843C365.415 226.936 364.791 226.483 363.543 226.483C362.903 226.483 362.418 226.616 362.087 226.883C361.757 227.139 361.559 227.565 361.495 228.163H360.167C360.189 227.277 360.503 226.589 361.111 226.099C361.719 225.608 362.557 225.363 363.623 225.363C364.786 225.363 365.65 225.629 366.215 226.163C366.397 226.333 366.53 226.557 366.615 226.835C366.701 227.112 366.749 227.341 366.759 227.523C366.77 227.693 366.775 227.955 366.775 228.307C366.775 228.712 366.765 229.325 366.743 230.147C366.722 230.968 366.711 231.581 366.711 231.987C366.711 232.285 366.749 232.499 366.823 232.627C366.909 232.744 367.058 232.803 367.271 232.803C367.357 232.803 367.469 232.787 367.607 232.755ZM365.415 229.555C365.319 229.629 365.218 229.693 365.111 229.747C365.005 229.8 364.866 229.843 364.695 229.875C364.535 229.907 364.423 229.933 364.359 229.955C364.306 229.965 364.167 229.987 363.943 230.019C363.719 230.04 363.602 230.051 363.591 230.051C363.261 230.093 363.042 230.125 362.935 230.147C362.839 230.157 362.647 230.2 362.359 230.275C362.082 230.349 361.885 230.435 361.767 230.531C361.65 230.627 361.533 230.771 361.415 230.963C361.309 231.144 361.255 231.363 361.255 231.619C361.255 232.045 361.399 232.381 361.687 232.627C361.986 232.872 362.391 232.995 362.903 232.995C363.554 232.995 364.135 232.803 364.647 232.419C365.159 232.035 365.415 231.581 365.415 231.059V229.555ZM376.889 236.467H375.593V233.843H369.289V236.467H367.993V232.643H368.889C369.145 232.152 369.38 231.395 369.593 230.371C369.817 229.336 369.929 228.328 369.929 227.347V225.587H375.817V232.643H376.889V236.467ZM374.457 232.643V226.787H371.257V227.475C371.257 228.445 371.156 229.432 370.953 230.435C370.761 231.427 370.543 232.163 370.297 232.643H374.457ZM385.389 232.755V233.811C385.111 233.917 384.802 233.971 384.461 233.971C383.682 233.971 383.282 233.565 383.261 232.755C382.482 233.629 381.485 234.067 380.269 234.067C379.458 234.067 378.813 233.859 378.333 233.443C377.863 233.027 377.629 232.456 377.629 231.731C377.629 230.259 378.605 229.4 380.557 229.155C380.685 229.133 380.871 229.112 381.117 229.091C382.045 228.984 382.615 228.861 382.829 228.723C383.074 228.552 383.197 228.259 383.197 227.843C383.197 226.936 382.573 226.483 381.325 226.483C380.685 226.483 380.199 226.616 379.869 226.883C379.538 227.139 379.341 227.565 379.277 228.163H377.949C377.97 227.277 378.285 226.589 378.893 226.099C379.501 225.608 380.338 225.363 381.405 225.363C382.567 225.363 383.431 225.629 383.997 226.163C384.178 226.333 384.311 226.557 384.397 226.835C384.482 227.112 384.53 227.341 384.541 227.523C384.551 227.693 384.557 227.955 384.557 228.307C384.557 228.712 384.546 229.325 384.525 230.147C384.503 230.968 384.493 231.581 384.493 231.987C384.493 232.285 384.53 232.499 384.605 232.627C384.69 232.744 384.839 232.803 385.053 232.803C385.138 232.803 385.25 232.787 385.389 232.755ZM383.197 229.555C383.101 229.629 382.999 229.693 382.893 229.747C382.786 229.8 382.647 229.843 382.477 229.875C382.317 229.907 382.205 229.933 382.141 229.955C382.087 229.965 381.949 229.987 381.725 230.019C381.501 230.04 381.383 230.051 381.373 230.051C381.042 230.093 380.823 230.125 380.717 230.147C380.621 230.157 380.429 230.2 380.141 230.275C379.863 230.349 379.666 230.435 379.549 230.531C379.431 230.627 379.314 230.771 379.197 230.963C379.09 231.144 379.037 231.363 379.037 231.619C379.037 232.045 379.181 232.381 379.469 232.627C379.767 232.872 380.173 232.995 380.685 232.995C381.335 232.995 381.917 232.803 382.429 232.419C382.941 232.035 383.197 231.581 383.197 231.059V229.555ZM393.518 225.347C394.724 225.347 395.657 225.725 396.318 226.483C396.98 227.24 397.31 228.301 397.31 229.667C397.31 231.064 396.974 232.152 396.302 232.931C395.641 233.709 394.708 234.099 393.502 234.099C392.34 234.099 391.417 233.747 390.734 233.043C390.052 232.328 389.684 231.336 389.63 230.067H388.03V233.843H386.67V225.587H388.03V228.867H389.694C389.844 227.768 390.254 226.909 390.926 226.291C391.598 225.661 392.462 225.347 393.518 225.347ZM395.262 227.363C394.825 226.776 394.233 226.483 393.486 226.483C392.74 226.483 392.142 226.776 391.694 227.363C391.257 227.949 391.038 228.733 391.038 229.715C391.038 230.728 391.257 231.523 391.694 232.099C392.132 232.664 392.74 232.947 393.518 232.947C394.265 232.947 394.852 232.659 395.278 232.083C395.705 231.507 395.918 230.712 395.918 229.699C395.918 228.717 395.7 227.939 395.262 227.363ZM404.959 226.787H401.999V233.843H400.639V226.787H397.679V225.587H404.959V226.787ZM417.891 233.843H416.163L413.155 229.779L411.859 231.043V233.843H410.499V225.587H411.859V229.523L415.635 225.587H417.459L414.131 228.835L417.891 233.843ZM424.609 233.843H423.249V225.587H424.609V228.867H428.737V225.587H430.097V233.843H428.737V230.067H424.609V233.843ZM439.451 232.755V233.811C439.174 233.917 438.865 233.971 438.523 233.971C437.745 233.971 437.345 233.565 437.323 232.755C436.545 233.629 435.547 234.067 434.331 234.067C433.521 234.067 432.875 233.859 432.395 233.443C431.926 233.027 431.691 232.456 431.691 231.731C431.691 230.259 432.667 229.4 434.619 229.155C434.747 229.133 434.934 229.112 435.179 229.091C436.107 228.984 436.678 228.861 436.891 228.723C437.137 228.552 437.259 228.259 437.259 227.843C437.259 226.936 436.635 226.483 435.387 226.483C434.747 226.483 434.262 226.616 433.931 226.883C433.601 227.139 433.403 227.565 433.339 228.163H432.011C432.033 227.277 432.347 226.589 432.955 226.099C433.563 225.608 434.401 225.363 435.467 225.363C436.63 225.363 437.494 225.629 438.059 226.163C438.241 226.333 438.374 226.557 438.459 226.835C438.545 227.112 438.593 227.341 438.603 227.523C438.614 227.693 438.619 227.955 438.619 228.307C438.619 228.712 438.609 229.325 438.587 230.147C438.566 230.968 438.555 231.581 438.555 231.987C438.555 232.285 438.593 232.499 438.667 232.627C438.753 232.744 438.902 232.803 439.115 232.803C439.201 232.803 439.313 232.787 439.451 232.755ZM437.259 229.555C437.163 229.629 437.062 229.693 436.955 229.747C436.849 229.8 436.71 229.843 436.539 229.875C436.379 229.907 436.267 229.933 436.203 229.955C436.15 229.965 436.011 229.987 435.787 230.019C435.563 230.04 435.446 230.051 435.435 230.051C435.105 230.093 434.886 230.125 434.779 230.147C434.683 230.157 434.491 230.2 434.203 230.275C433.926 230.349 433.729 230.435 433.611 230.531C433.494 230.627 433.377 230.771 433.259 230.963C433.153 231.144 433.099 231.363 433.099 231.619C433.099 232.045 433.243 232.381 433.531 232.627C433.83 232.872 434.235 232.995 434.747 232.995C435.398 232.995 435.979 232.803 436.491 232.419C437.003 232.035 437.259 231.581 437.259 231.059V229.555ZM449.677 233.843H448.317V227.331H448.269L445.821 233.843H444.573L442.125 227.331H442.077V233.843H440.717V225.587H442.669L445.181 232.275H445.213L447.725 225.587H449.677V233.843ZM456.107 233.843V225.587H459.931C460.475 225.587 460.939 225.635 461.323 225.731C461.707 225.816 462.043 226.013 462.331 226.323C462.619 226.632 462.763 227.053 462.763 227.587C462.763 228.397 462.358 228.989 461.547 229.363V229.379C462.038 229.475 462.422 229.704 462.699 230.067C462.977 230.419 463.115 230.867 463.115 231.411C463.115 232.115 462.881 232.696 462.411 233.155C461.942 233.613 461.339 233.843 460.603 233.843H456.107ZM459.787 228.915C460.353 228.915 460.753 228.824 460.987 228.643C461.233 228.451 461.355 228.173 461.355 227.811C461.355 227.448 461.238 227.181 461.003 227.011C460.769 226.84 460.363 226.755 459.787 226.755H457.435V228.915H459.787ZM457.435 230.067V232.675H460.347C460.774 232.675 461.105 232.547 461.339 232.291C461.585 232.035 461.707 231.704 461.707 231.299C461.707 230.477 461.174 230.067 460.107 230.067H457.435ZM470.466 225.587V226.755C471.063 225.805 471.991 225.331 473.25 225.331C474.402 225.331 475.314 225.72 475.986 226.499C476.669 227.277 477.01 228.333 477.01 229.667C477.01 231 476.674 232.067 476.002 232.867C475.341 233.656 474.445 234.051 473.314 234.051C472.13 234.051 471.207 233.597 470.546 232.691V237.027H469.186V225.587H470.466ZM473.042 226.467C472.253 226.467 471.629 226.755 471.17 227.331C470.722 227.896 470.498 228.68 470.498 229.683C470.498 230.685 470.727 231.475 471.186 232.051C471.655 232.616 472.29 232.899 473.09 232.899C473.869 232.899 474.482 232.611 474.93 232.035C475.378 231.459 475.602 230.675 475.602 229.683C475.602 228.68 475.373 227.896 474.914 227.331C474.466 226.755 473.842 226.467 473.042 226.467ZM485.315 225.587L481.779 234.899C481.64 235.272 481.518 235.56 481.411 235.763C481.315 235.976 481.171 236.205 480.979 236.451C480.798 236.707 480.574 236.888 480.307 236.995C480.051 237.112 479.747 237.171 479.395 237.171C479.128 237.171 478.792 237.123 478.387 237.027V235.811C478.782 235.928 479.075 235.987 479.267 235.987C479.715 235.987 480.035 235.757 480.227 235.299L480.867 233.795L477.587 225.587H479.123L481.571 232.163L483.891 225.587H485.315ZM493.875 233.843H492.147L489.139 229.779L487.843 231.043V233.843H486.483V225.587H487.843V229.523L491.619 225.587H493.443L490.115 228.835L493.875 233.843ZM496.524 233.843H494.78V225.587H496.14V232.323H496.172L499.884 225.587H501.628V233.843H500.268V227.107H500.236L496.524 233.843ZM505.75 232.067V233.155C505.75 233.56 505.729 233.901 505.686 234.179C505.654 234.467 505.58 234.755 505.462 235.043C505.345 235.331 505.164 235.571 504.918 235.763C504.673 235.965 504.358 236.115 503.974 236.211V235.411C504.55 235.219 504.844 234.696 504.854 233.843H503.974V232.067H505.75ZM512.545 233.843V225.587H516.369C516.913 225.587 517.377 225.635 517.761 225.731C518.145 225.816 518.481 226.013 518.769 226.323C519.057 226.632 519.201 227.053 519.201 227.587C519.201 228.397 518.795 228.989 517.985 229.363V229.379C518.475 229.475 518.859 229.704 519.137 230.067C519.414 230.419 519.553 230.867 519.553 231.411C519.553 232.115 519.318 232.696 518.849 233.155C518.379 233.613 517.777 233.843 517.041 233.843H512.545ZM516.225 228.915C516.79 228.915 517.19 228.824 517.425 228.643C517.67 228.451 517.793 228.173 517.793 227.811C517.793 227.448 517.675 227.181 517.441 227.011C517.206 226.84 516.801 226.755 516.225 226.755H513.873V228.915H516.225ZM513.873 230.067V232.675H516.785C517.211 232.675 517.542 232.547 517.777 232.291C518.022 232.035 518.145 231.704 518.145 231.299C518.145 230.477 517.611 230.067 516.545 230.067H513.873ZM529.042 225.587H530.402V233.843H529.042V225.587ZM526.994 229.427C527.485 229.875 527.73 230.488 527.73 231.267C527.73 232.045 527.49 232.669 527.01 233.139C526.541 233.608 525.906 233.843 525.106 233.843H521.122V225.587H522.482V228.739H525.042C525.853 228.739 526.504 228.968 526.994 229.427ZM524.61 229.907H522.482V232.643H524.61C525.165 232.643 525.586 232.525 525.874 232.291C526.173 232.045 526.322 231.704 526.322 231.267C526.322 230.36 525.752 229.907 524.61 229.907ZM533.796 233.843H532.436V225.587H539.284V233.843H537.924V226.787H533.796V233.843ZM541.983 226.531C542.708 225.741 543.695 225.347 544.943 225.347C546.191 225.347 547.161 225.725 547.855 226.483C548.548 227.24 548.895 228.301 548.895 229.667C548.895 231.064 548.548 232.152 547.855 232.931C547.161 233.709 546.185 234.099 544.927 234.099C543.668 234.099 542.681 233.715 541.967 232.947C541.252 232.179 540.895 231.112 540.895 229.747C540.895 228.392 541.257 227.32 541.983 226.531ZM546.799 227.363C546.34 226.776 545.711 226.483 544.911 226.483C544.111 226.483 543.476 226.776 543.007 227.363C542.537 227.949 542.303 228.733 542.303 229.715C542.303 230.728 542.532 231.523 542.991 232.099C543.46 232.664 544.111 232.947 544.943 232.947C545.743 232.947 546.367 232.659 546.815 232.083C547.273 231.507 547.503 230.712 547.503 229.699C547.503 228.717 547.268 227.939 546.799 227.363ZM557.004 225.587V233.843H555.644V226.787H552.7L552.588 230.435C552.556 231.693 552.326 232.605 551.9 233.171C551.473 233.736 550.94 234.019 550.3 234.019C549.905 234.019 549.58 233.96 549.324 233.843V232.739C549.462 232.813 549.702 232.851 550.044 232.851C550.364 232.851 550.636 232.68 550.86 232.339C551.094 231.987 551.222 231.4 551.244 230.579L551.388 225.587H557.004ZM560.374 233.843H559.014V225.587H560.374V228.867H564.502V225.587H565.862V233.843H564.502V230.067H560.374V233.843ZM574.433 233.843H573.073V230.467H571.265L568.657 233.843H566.849L569.697 230.419C569.089 230.323 568.593 230.067 568.209 229.651C567.836 229.224 567.649 228.68 567.649 228.019C567.649 227.251 567.878 226.653 568.337 226.227C568.796 225.8 569.43 225.587 570.241 225.587H574.433V233.843ZM573.073 226.787H570.673C569.585 226.787 569.041 227.197 569.041 228.019C569.041 228.851 569.585 229.267 570.673 229.267H573.073V226.787ZM583.347 225.347C584.552 225.347 585.485 225.725 586.147 226.483C586.808 227.24 587.139 228.301 587.139 229.667C587.139 231.064 586.803 232.152 586.131 232.931C585.469 233.709 584.536 234.099 583.331 234.099C582.168 234.099 581.245 233.747 580.563 233.043C579.88 232.328 579.512 231.336 579.459 230.067H577.859V233.843H576.499V225.587H577.859V228.867H579.523C579.672 227.768 580.083 226.909 580.755 226.291C581.427 225.661 582.291 225.347 583.347 225.347ZM585.091 227.363C584.653 226.776 584.061 226.483 583.315 226.483C582.568 226.483 581.971 226.776 581.523 227.363C581.085 227.949 580.867 228.733 580.867 229.715C580.867 230.728 581.085 231.523 581.523 232.099C581.96 232.664 582.568 232.947 583.347 232.947C584.093 232.947 584.68 232.659 585.107 232.083C585.533 231.507 585.747 230.712 585.747 229.699C585.747 228.717 585.528 227.939 585.091 227.363ZM594.787 226.787H591.827V233.843H590.467V226.787H587.507V225.587H594.787V226.787ZM602.696 230.835C602.579 231.827 602.2 232.616 601.56 233.203C600.931 233.789 600.11 234.083 599.096 234.083C597.848 234.083 596.883 233.699 596.2 232.931C595.518 232.152 595.176 231.117 595.176 229.827C595.176 228.451 595.534 227.363 596.248 226.563C596.963 225.752 597.928 225.347 599.144 225.347C600.158 225.347 600.968 225.603 601.576 226.115C602.184 226.616 602.542 227.336 602.648 228.275H601.24C600.995 227.08 600.302 226.483 599.16 226.483C598.371 226.483 597.747 226.776 597.288 227.363C596.83 227.939 596.6 228.723 596.6 229.715C596.6 230.717 596.819 231.507 597.256 232.083C597.694 232.659 598.296 232.947 599.064 232.947C599.683 232.947 600.184 232.765 600.568 232.403C600.963 232.04 601.214 231.517 601.32 230.835H602.696ZM610.714 233.843H609.354V230.467H607.546L604.938 233.843H603.13L605.978 230.419C605.37 230.323 604.874 230.067 604.49 229.651C604.117 229.224 603.93 228.68 603.93 228.019C603.93 227.251 604.159 226.653 604.618 226.227C605.077 225.8 605.711 225.587 606.522 225.587H610.714V233.843ZM609.354 226.787H606.954C605.866 226.787 605.322 227.197 605.322 228.019C605.322 228.851 605.866 229.267 606.954 229.267H609.354V226.787ZM333.295 259.843V251.587H337.119C337.663 251.587 338.127 251.635 338.511 251.731C338.895 251.816 339.231 252.013 339.519 252.323C339.807 252.632 339.951 253.053 339.951 253.587C339.951 254.397 339.545 254.989 338.735 255.363V255.379C339.225 255.475 339.609 255.704 339.887 256.067C340.164 256.419 340.303 256.867 340.303 257.411C340.303 258.115 340.068 258.696 339.599 259.155C339.129 259.613 338.527 259.843 337.791 259.843H333.295ZM336.975 254.915C337.54 254.915 337.94 254.824 338.175 254.643C338.42 254.451 338.543 254.173 338.543 253.811C338.543 253.448 338.425 253.181 338.191 253.011C337.956 252.84 337.551 252.755 336.975 252.755H334.623V254.915H336.975ZM334.623 256.067V258.675H337.535C337.961 258.675 338.292 258.547 338.527 258.291C338.772 258.035 338.895 257.704 338.895 257.299C338.895 256.477 338.361 256.067 337.295 256.067H334.623ZM353.478 256.835C353.36 257.827 352.982 258.616 352.342 259.203C351.712 259.789 350.891 260.083 349.878 260.083C348.63 260.083 347.664 259.699 346.982 258.931C346.299 258.152 345.958 257.117 345.958 255.827C345.958 254.451 346.315 253.363 347.03 252.563C347.744 251.752 348.71 251.347 349.926 251.347C350.939 251.347 351.75 251.603 352.358 252.115C352.966 252.616 353.323 253.336 353.43 254.275H352.022C351.776 253.08 351.083 252.483 349.942 252.483C349.152 252.483 348.528 252.776 348.07 253.363C347.611 253.939 347.382 254.723 347.382 255.715C347.382 256.717 347.6 257.507 348.038 258.083C348.475 258.659 349.078 258.947 349.846 258.947C350.464 258.947 350.966 258.765 351.35 258.403C351.744 258.04 351.995 257.517 352.102 256.835H353.478ZM356.247 251.587V252.755C356.845 251.805 357.773 251.331 359.031 251.331C360.183 251.331 361.095 251.72 361.767 252.499C362.45 253.277 362.791 254.333 362.791 255.667C362.791 257 362.455 258.067 361.783 258.867C361.122 259.656 360.226 260.051 359.095 260.051C357.911 260.051 356.989 259.597 356.327 258.691V263.027H354.967V251.587H356.247ZM358.823 252.467C358.034 252.467 357.41 252.755 356.951 253.331C356.503 253.896 356.279 254.68 356.279 255.683C356.279 256.685 356.509 257.475 356.967 258.051C357.437 258.616 358.071 258.899 358.871 258.899C359.65 258.899 360.263 258.611 360.711 258.035C361.159 257.459 361.383 256.675 361.383 255.683C361.383 254.68 361.154 253.896 360.695 253.331C360.247 252.755 359.623 252.467 358.823 252.467ZM365.108 252.531C365.833 251.741 366.82 251.347 368.068 251.347C369.316 251.347 370.286 251.725 370.98 252.483C371.673 253.24 372.02 254.301 372.02 255.667C372.02 257.064 371.673 258.152 370.98 258.931C370.286 259.709 369.31 260.099 368.052 260.099C366.793 260.099 365.806 259.715 365.092 258.947C364.377 258.179 364.02 257.112 364.02 255.747C364.02 254.392 364.382 253.32 365.108 252.531ZM369.924 253.363C369.465 252.776 368.836 252.483 368.036 252.483C367.236 252.483 366.601 252.776 366.132 253.363C365.662 253.949 365.428 254.733 365.428 255.715C365.428 256.728 365.657 257.523 366.116 258.099C366.585 258.664 367.236 258.947 368.068 258.947C368.868 258.947 369.492 258.659 369.94 258.083C370.398 257.507 370.628 256.712 370.628 255.699C370.628 254.717 370.393 253.939 369.924 253.363ZM381.031 259.843H379.303L376.295 255.779L374.999 257.043V259.843H373.639V251.587H374.999V255.523L378.775 251.587H380.599L377.271 254.835L381.031 259.843ZM384.016 258.067V259.155C384.016 259.56 383.995 259.901 383.952 260.179C383.92 260.467 383.845 260.755 383.728 261.043C383.611 261.331 383.429 261.571 383.184 261.763C382.939 261.965 382.624 262.115 382.24 262.211V261.411C382.816 261.219 383.109 260.696 383.12 259.843H382.24V258.067H384.016ZM397.162 252.787H394.202V259.843H392.842V252.787H389.882V251.587H397.162V252.787ZM405.279 258.755V259.811C405.002 259.917 404.693 259.971 404.351 259.971C403.573 259.971 403.173 259.565 403.151 258.755C402.373 259.629 401.375 260.067 400.159 260.067C399.349 260.067 398.703 259.859 398.223 259.443C397.754 259.027 397.519 258.456 397.519 257.731C397.519 256.259 398.495 255.4 400.447 255.155C400.575 255.133 400.762 255.112 401.007 255.091C401.935 254.984 402.506 254.861 402.719 254.723C402.965 254.552 403.087 254.259 403.087 253.843C403.087 252.936 402.463 252.483 401.215 252.483C400.575 252.483 400.09 252.616 399.759 252.883C399.429 253.139 399.231 253.565 399.167 254.163H397.839C397.861 253.277 398.175 252.589 398.783 252.099C399.391 251.608 400.229 251.363 401.295 251.363C402.458 251.363 403.322 251.629 403.887 252.163C404.069 252.333 404.202 252.557 404.287 252.835C404.373 253.112 404.421 253.341 404.431 253.523C404.442 253.693 404.447 253.955 404.447 254.307C404.447 254.712 404.437 255.325 404.415 256.147C404.394 256.968 404.383 257.581 404.383 257.987C404.383 258.285 404.421 258.499 404.495 258.627C404.581 258.744 404.73 258.803 404.943 258.803C405.029 258.803 405.141 258.787 405.279 258.755ZM403.087 255.555C402.991 255.629 402.89 255.693 402.783 255.747C402.677 255.8 402.538 255.843 402.367 255.875C402.207 255.907 402.095 255.933 402.031 255.955C401.978 255.965 401.839 255.987 401.615 256.019C401.391 256.04 401.274 256.051 401.263 256.051C400.933 256.093 400.714 256.125 400.607 256.147C400.511 256.157 400.319 256.2 400.031 256.275C399.754 256.349 399.557 256.435 399.439 256.531C399.322 256.627 399.205 256.771 399.087 256.963C398.981 257.144 398.927 257.363 398.927 257.619C398.927 258.045 399.071 258.381 399.359 258.627C399.658 258.872 400.063 258.995 400.575 258.995C401.226 258.995 401.807 258.803 402.319 258.419C402.831 258.035 403.087 257.581 403.087 257.059V255.555ZM413.953 259.843H412.225L409.217 255.779L407.921 257.043V259.843H406.561V251.587H407.921V255.523L411.697 251.587H413.521L410.193 254.835L413.953 259.843ZM426.703 259.843H424.975L421.967 255.779L420.671 257.043V259.843H419.311V251.587H420.671V255.523L424.447 251.587H426.271L422.943 254.835L426.703 259.843ZM434.92 258.755V259.811C434.643 259.917 434.333 259.971 433.992 259.971C433.213 259.971 432.813 259.565 432.792 258.755C432.013 259.629 431.016 260.067 429.8 260.067C428.989 260.067 428.344 259.859 427.864 259.443C427.395 259.027 427.16 258.456 427.16 257.731C427.16 256.259 428.136 255.4 430.088 255.155C430.216 255.133 430.403 255.112 430.648 255.091C431.576 254.984 432.147 254.861 432.36 254.723C432.605 254.552 432.728 254.259 432.728 253.843C432.728 252.936 432.104 252.483 430.856 252.483C430.216 252.483 429.731 252.616 429.4 252.883C429.069 253.139 428.872 253.565 428.808 254.163H427.48C427.501 253.277 427.816 252.589 428.424 252.099C429.032 251.608 429.869 251.363 430.936 251.363C432.099 251.363 432.963 251.629 433.528 252.163C433.709 252.333 433.843 252.557 433.928 252.835C434.013 253.112 434.061 253.341 434.072 253.523C434.083 253.693 434.088 253.955 434.088 254.307C434.088 254.712 434.077 255.325 434.056 256.147C434.035 256.968 434.024 257.581 434.024 257.987C434.024 258.285 434.061 258.499 434.136 258.627C434.221 258.744 434.371 258.803 434.584 258.803C434.669 258.803 434.781 258.787 434.92 258.755ZM432.728 255.555C432.632 255.629 432.531 255.693 432.424 255.747C432.317 255.8 432.179 255.843 432.008 255.875C431.848 255.907 431.736 255.933 431.672 255.955C431.619 255.965 431.48 255.987 431.256 256.019C431.032 256.04 430.915 256.051 430.904 256.051C430.573 256.093 430.355 256.125 430.248 256.147C430.152 256.157 429.96 256.2 429.672 256.275C429.395 256.349 429.197 256.435 429.08 256.531C428.963 256.627 428.845 256.771 428.728 256.963C428.621 257.144 428.568 257.363 428.568 257.619C428.568 258.045 428.712 258.381 429 258.627C429.299 258.872 429.704 258.995 430.216 258.995C430.867 258.995 431.448 258.803 431.96 258.419C432.472 258.035 432.728 257.581 432.728 257.059V255.555ZM443.594 259.843H441.866L438.858 255.779L437.562 257.043V259.843H436.202V251.587H437.562V255.523L441.338 251.587H443.162L439.834 254.835L443.594 259.843ZM450.312 259.843H448.952V251.587H450.312V254.867H454.44V251.587H455.8V259.843H454.44V256.067H450.312V259.843ZM465.154 258.755V259.811C464.877 259.917 464.568 259.971 464.226 259.971C463.448 259.971 463.048 259.565 463.026 258.755C462.248 259.629 461.25 260.067 460.034 260.067C459.224 260.067 458.578 259.859 458.098 259.443C457.629 259.027 457.394 258.456 457.394 257.731C457.394 256.259 458.37 255.4 460.322 255.155C460.45 255.133 460.637 255.112 460.882 255.091C461.81 254.984 462.381 254.861 462.594 254.723C462.84 254.552 462.962 254.259 462.962 253.843C462.962 252.936 462.338 252.483 461.09 252.483C460.45 252.483 459.965 252.616 459.634 252.883C459.304 253.139 459.106 253.565 459.042 254.163H457.714C457.736 253.277 458.05 252.589 458.658 252.099C459.266 251.608 460.104 251.363 461.17 251.363C462.333 251.363 463.197 251.629 463.762 252.163C463.944 252.333 464.077 252.557 464.162 252.835C464.248 253.112 464.296 253.341 464.306 253.523C464.317 253.693 464.322 253.955 464.322 254.307C464.322 254.712 464.312 255.325 464.29 256.147C464.269 256.968 464.258 257.581 464.258 257.987C464.258 258.285 464.296 258.499 464.37 258.627C464.456 258.744 464.605 258.803 464.818 258.803C464.904 258.803 465.016 258.787 465.154 258.755ZM462.962 255.555C462.866 255.629 462.765 255.693 462.658 255.747C462.552 255.8 462.413 255.843 462.242 255.875C462.082 255.907 461.97 255.933 461.906 255.955C461.853 255.965 461.714 255.987 461.49 256.019C461.266 256.04 461.149 256.051 461.138 256.051C460.808 256.093 460.589 256.125 460.482 256.147C460.386 256.157 460.194 256.2 459.906 256.275C459.629 256.349 459.432 256.435 459.314 256.531C459.197 256.627 459.08 256.771 458.962 256.963C458.856 257.144 458.802 257.363 458.802 257.619C458.802 258.045 458.946 258.381 459.234 258.627C459.533 258.872 459.938 258.995 460.45 258.995C461.101 258.995 461.682 258.803 462.194 258.419C462.706 258.035 462.962 257.581 462.962 257.059V255.555ZM466.436 259.843V251.587H467.796V258.643H471.204V251.587H472.564V258.643H475.972V251.587H477.332V259.843H466.436ZM486.43 257.235C486.014 259.155 484.814 260.115 482.83 260.115C481.614 260.115 480.659 259.736 479.966 258.979C479.283 258.221 478.942 257.171 478.942 255.827C478.942 254.493 479.294 253.416 479.998 252.595C480.712 251.763 481.64 251.347 482.782 251.347C484.051 251.347 484.99 251.779 485.598 252.643C486.216 253.496 486.526 254.579 486.526 255.891V256.083H480.318L480.302 256.179C480.302 257.053 480.531 257.741 480.99 258.243C481.448 258.744 482.078 258.995 482.878 258.995C483.475 258.995 483.944 258.856 484.286 258.579C484.638 258.301 484.91 257.853 485.102 257.235H486.43ZM485.118 254.979C485.054 254.189 484.814 253.576 484.398 253.139C483.982 252.691 483.432 252.467 482.75 252.467C482.088 252.467 481.539 252.691 481.102 253.139C480.664 253.587 480.403 254.2 480.318 254.979H485.118ZM493.807 248.451C493.701 249.123 493.439 249.661 493.023 250.067C492.618 250.461 492.079 250.659 491.407 250.659C490.757 250.659 490.207 250.456 489.759 250.051C489.322 249.635 489.061 249.101 488.975 248.451H489.791C490.037 249.283 490.57 249.699 491.391 249.699C492.181 249.699 492.714 249.283 492.991 248.451H493.807ZM489.711 259.843H487.967V251.587H489.327V258.323H489.359L493.071 251.587H494.815V259.843H493.455V253.107H493.423L489.711 259.843ZM508.703 259.843H506.975L503.967 255.779L502.671 257.043V259.843H501.311V251.587H502.671V255.523L506.447 251.587H508.271L504.943 254.835L508.703 259.843ZM510.264 252.531C510.989 251.741 511.976 251.347 513.224 251.347C514.472 251.347 515.443 251.725 516.136 252.483C516.829 253.24 517.176 254.301 517.176 255.667C517.176 257.064 516.829 258.152 516.136 258.931C515.443 259.709 514.467 260.099 513.208 260.099C511.949 260.099 510.963 259.715 510.248 258.947C509.533 258.179 509.176 257.112 509.176 255.747C509.176 254.392 509.539 253.32 510.264 252.531ZM515.08 253.363C514.621 252.776 513.992 252.483 513.192 252.483C512.392 252.483 511.757 252.776 511.288 253.363C510.819 253.949 510.584 254.733 510.584 255.715C510.584 256.728 510.813 257.523 511.272 258.099C511.741 258.664 512.392 258.947 513.224 258.947C514.024 258.947 514.648 258.659 515.096 258.083C515.555 257.507 515.784 256.712 515.784 255.699C515.784 254.717 515.549 253.939 515.08 253.363ZM527.739 259.843H526.379V253.331H526.331L523.883 259.843H522.635L520.187 253.331H520.139V259.843H518.779V251.587H520.731L523.243 258.275H523.275L525.787 251.587H527.739V259.843ZM537.061 258.755V259.811C536.783 259.917 536.474 259.971 536.133 259.971C535.354 259.971 534.954 259.565 534.933 258.755C534.154 259.629 533.157 260.067 531.941 260.067C531.13 260.067 530.485 259.859 530.005 259.443C529.535 259.027 529.301 258.456 529.301 257.731C529.301 256.259 530.277 255.4 532.229 255.155C532.357 255.133 532.543 255.112 532.789 255.091C533.717 254.984 534.287 254.861 534.501 254.723C534.746 254.552 534.869 254.259 534.869 253.843C534.869 252.936 534.245 252.483 532.997 252.483C532.357 252.483 531.871 252.616 531.541 252.883C531.21 253.139 531.013 253.565 530.949 254.163H529.621C529.642 253.277 529.957 252.589 530.565 252.099C531.173 251.608 532.01 251.363 533.077 251.363C534.239 251.363 535.103 251.629 535.669 252.163C535.85 252.333 535.983 252.557 536.069 252.835C536.154 253.112 536.202 253.341 536.213 253.523C536.223 253.693 536.229 253.955 536.229 254.307C536.229 254.712 536.218 255.325 536.197 256.147C536.175 256.968 536.165 257.581 536.165 257.987C536.165 258.285 536.202 258.499 536.277 258.627C536.362 258.744 536.511 258.803 536.725 258.803C536.81 258.803 536.922 258.787 537.061 258.755ZM534.869 255.555C534.773 255.629 534.671 255.693 534.565 255.747C534.458 255.8 534.319 255.843 534.149 255.875C533.989 255.907 533.877 255.933 533.813 255.955C533.759 255.965 533.621 255.987 533.397 256.019C533.173 256.04 533.055 256.051 533.045 256.051C532.714 256.093 532.495 256.125 532.389 256.147C532.293 256.157 532.101 256.2 531.813 256.275C531.535 256.349 531.338 256.435 531.221 256.531C531.103 256.627 530.986 256.771 530.869 256.963C530.762 257.144 530.709 257.363 530.709 257.619C530.709 258.045 530.853 258.381 531.141 258.627C531.439 258.872 531.845 258.995 532.357 258.995C533.007 258.995 533.589 258.803 534.101 258.419C534.613 258.035 534.869 257.581 534.869 257.059V255.555ZM539.702 259.843H538.342V251.587H539.702V254.867H543.83V251.587H545.19V259.843H543.83V256.067H539.702V259.843ZM555.233 262.467H553.937V259.843H547.633V262.467H546.337V258.643H547.233C547.489 258.152 547.724 257.395 547.937 256.371C548.161 255.336 548.273 254.328 548.273 253.347V251.587H554.161V258.643H555.233V262.467ZM552.801 258.643V252.787H549.601V253.475C549.601 254.445 549.5 255.432 549.297 256.435C549.105 257.427 548.886 258.163 548.641 258.643H552.801ZM563.476 257.235C563.06 259.155 561.86 260.115 559.876 260.115C558.66 260.115 557.706 259.736 557.012 258.979C556.33 258.221 555.988 257.171 555.988 255.827C555.988 254.493 556.34 253.416 557.044 252.595C557.759 251.763 558.687 251.347 559.828 251.347C561.098 251.347 562.036 251.779 562.644 252.643C563.263 253.496 563.572 254.579 563.572 255.891V256.083H557.364L557.348 256.179C557.348 257.053 557.578 257.741 558.036 258.243C558.495 258.744 559.124 258.995 559.924 258.995C560.522 258.995 560.991 258.856 561.332 258.579C561.684 258.301 561.956 257.853 562.148 257.235H563.476ZM562.164 254.979C562.1 254.189 561.86 253.576 561.444 253.139C561.028 252.691 560.479 252.467 559.796 252.467C559.135 252.467 558.586 252.691 558.148 253.139C557.711 253.587 557.45 254.2 557.364 254.979H562.164ZM334.607 277.587V278.755C335.204 277.805 336.132 277.331 337.391 277.331C338.543 277.331 339.455 277.72 340.127 278.499C340.809 279.277 341.151 280.333 341.151 281.667C341.151 283 340.815 284.067 340.143 284.867C339.481 285.656 338.585 286.051 337.455 286.051C336.271 286.051 335.348 285.597 334.687 284.691V289.027H333.327V277.587H334.607ZM337.183 278.467C336.393 278.467 335.769 278.755 335.311 279.331C334.863 279.896 334.639 280.68 334.639 281.683C334.639 282.685 334.868 283.475 335.327 284.051C335.796 284.616 336.431 284.899 337.231 284.899C338.009 284.899 338.623 284.611 339.071 284.035C339.519 283.459 339.743 282.675 339.743 281.683C339.743 280.68 339.513 279.896 339.055 279.331C338.607 278.755 337.983 278.467 337.183 278.467ZM350.123 284.755V285.811C349.846 285.917 349.536 285.971 349.195 285.971C348.416 285.971 348.016 285.565 347.995 284.755C347.216 285.629 346.219 286.067 345.003 286.067C344.192 286.067 343.547 285.859 343.067 285.443C342.598 285.027 342.363 284.456 342.363 283.731C342.363 282.259 343.339 281.4 345.291 281.155C345.419 281.133 345.606 281.112 345.851 281.091C346.779 280.984 347.35 280.861 347.563 280.723C347.808 280.552 347.931 280.259 347.931 279.843C347.931 278.936 347.307 278.483 346.059 278.483C345.419 278.483 344.934 278.616 344.603 278.883C344.272 279.139 344.075 279.565 344.011 280.163H342.683C342.704 279.277 343.019 278.589 343.627 278.099C344.235 277.608 345.072 277.363 346.139 277.363C347.302 277.363 348.166 277.629 348.731 278.163C348.912 278.333 349.046 278.557 349.131 278.835C349.216 279.112 349.264 279.341 349.275 279.523C349.286 279.693 349.291 279.955 349.291 280.307C349.291 280.712 349.28 281.325 349.259 282.147C349.238 282.968 349.227 283.581 349.227 283.987C349.227 284.285 349.264 284.499 349.339 284.627C349.424 284.744 349.574 284.803 349.787 284.803C349.872 284.803 349.984 284.787 350.123 284.755ZM347.931 281.555C347.835 281.629 347.734 281.693 347.627 281.747C347.52 281.8 347.382 281.843 347.211 281.875C347.051 281.907 346.939 281.933 346.875 281.955C346.822 281.965 346.683 281.987 346.459 282.019C346.235 282.04 346.118 282.051 346.107 282.051C345.776 282.093 345.558 282.125 345.451 282.147C345.355 282.157 345.163 282.2 344.875 282.275C344.598 282.349 344.4 282.435 344.283 282.531C344.166 282.627 344.048 282.771 343.931 282.963C343.824 283.144 343.771 283.363 343.771 283.619C343.771 284.045 343.915 284.381 344.203 284.627C344.502 284.872 344.907 284.995 345.419 284.995C346.07 284.995 346.651 284.803 347.163 284.419C347.675 284.035 347.931 283.581 347.931 283.059V281.555ZM352.173 276.435C352.536 275.869 352.973 275.453 353.485 275.187C353.997 274.909 354.648 274.744 355.437 274.691C356.322 274.627 356.861 274.541 357.053 274.435C357.181 274.371 357.277 274.285 357.341 274.179H358.701C358.669 274.349 358.621 274.504 358.557 274.643C358.504 274.781 358.44 274.904 358.365 275.011C358.301 275.107 358.205 275.197 358.077 275.283C357.96 275.368 357.858 275.443 357.773 275.507C357.688 275.56 357.56 275.613 357.389 275.667C357.229 275.709 357.101 275.747 357.005 275.779C356.909 275.8 356.76 275.821 356.557 275.843C356.365 275.864 356.226 275.88 356.141 275.891C356.056 275.901 355.901 275.912 355.677 275.923C355.453 275.933 355.309 275.944 355.245 275.955C354.37 276.019 353.688 276.36 353.197 276.979C352.706 277.587 352.397 278.403 352.269 279.427H352.317C352.552 278.861 352.925 278.408 353.437 278.067C353.949 277.725 354.541 277.555 355.213 277.555C356.386 277.555 357.304 277.928 357.965 278.675C358.637 279.411 358.973 280.445 358.973 281.779C358.973 283.155 358.632 284.221 357.949 284.979C357.277 285.736 356.328 286.115 355.101 286.115C354.098 286.115 353.25 285.821 352.557 285.235C351.864 284.637 351.437 283.784 351.277 282.675C351.213 282.227 351.181 281.725 351.181 281.171C351.181 279.027 351.512 277.448 352.173 276.435ZM352.573 281.827C352.573 282.765 352.797 283.523 353.245 284.099C353.704 284.675 354.328 284.963 355.117 284.963C355.885 284.963 356.488 284.685 356.925 284.131C357.362 283.576 357.581 282.803 357.581 281.811C357.581 280.84 357.357 280.077 356.909 279.523C356.461 278.968 355.853 278.691 355.085 278.691C354.317 278.691 353.704 278.973 353.245 279.539C352.797 280.093 352.573 280.856 352.573 281.827ZM361.248 278.531C361.974 277.741 362.96 277.347 364.208 277.347C365.456 277.347 366.427 277.725 367.12 278.483C367.814 279.24 368.16 280.301 368.16 281.667C368.16 283.064 367.814 284.152 367.12 284.931C366.427 285.709 365.451 286.099 364.192 286.099C362.934 286.099 361.947 285.715 361.232 284.947C360.518 284.179 360.16 283.112 360.16 281.747C360.16 280.392 360.523 279.32 361.248 278.531ZM366.064 279.363C365.606 278.776 364.976 278.483 364.176 278.483C363.376 278.483 362.742 278.776 362.272 279.363C361.803 279.949 361.568 280.733 361.568 281.715C361.568 282.728 361.798 283.523 362.256 284.099C362.726 284.664 363.376 284.947 364.208 284.947C365.008 284.947 365.632 284.659 366.08 284.083C366.539 283.507 366.768 282.712 366.768 281.699C366.768 280.717 366.534 279.939 366.064 279.363ZM375.819 278.787H372.859V285.843H371.499V278.787H368.539V277.587H375.819V278.787ZM383.936 284.755V285.811C383.658 285.917 383.349 285.971 383.008 285.971C382.229 285.971 381.829 285.565 381.808 284.755C381.029 285.629 380.032 286.067 378.816 286.067C378.005 286.067 377.36 285.859 376.88 285.443C376.41 285.027 376.176 284.456 376.176 283.731C376.176 282.259 377.152 281.4 379.104 281.155C379.232 281.133 379.418 281.112 379.664 281.091C380.592 280.984 381.162 280.861 381.376 280.723C381.621 280.552 381.744 280.259 381.744 279.843C381.744 278.936 381.12 278.483 379.872 278.483C379.232 278.483 378.746 278.616 378.416 278.883C378.085 279.139 377.888 279.565 377.824 280.163H376.496C376.517 279.277 376.832 278.589 377.44 278.099C378.048 277.608 378.885 277.363 379.952 277.363C381.114 277.363 381.978 277.629 382.544 278.163C382.725 278.333 382.858 278.557 382.944 278.835C383.029 279.112 383.077 279.341 383.088 279.523C383.098 279.693 383.104 279.955 383.104 280.307C383.104 280.712 383.093 281.325 383.072 282.147C383.05 282.968 383.04 283.581 383.04 283.987C383.04 284.285 383.077 284.499 383.152 284.627C383.237 284.744 383.386 284.803 383.6 284.803C383.685 284.803 383.797 284.787 383.936 284.755ZM381.744 281.555C381.648 281.629 381.546 281.693 381.44 281.747C381.333 281.8 381.194 281.843 381.024 281.875C380.864 281.907 380.752 281.933 380.688 281.955C380.634 281.965 380.496 281.987 380.272 282.019C380.048 282.04 379.93 282.051 379.92 282.051C379.589 282.093 379.37 282.125 379.264 282.147C379.168 282.157 378.976 282.2 378.688 282.275C378.41 282.349 378.213 282.435 378.096 282.531C377.978 282.627 377.861 282.771 377.744 282.963C377.637 283.144 377.584 283.363 377.584 283.619C377.584 284.045 377.728 284.381 378.016 284.627C378.314 284.872 378.72 284.995 379.232 284.995C379.882 284.995 380.464 284.803 380.976 284.419C381.488 284.035 381.744 283.581 381.744 283.059V281.555ZM392.065 277.347C393.271 277.347 394.204 277.725 394.865 278.483C395.527 279.24 395.857 280.301 395.857 281.667C395.857 283.064 395.521 284.152 394.849 284.931C394.188 285.709 393.255 286.099 392.049 286.099C390.887 286.099 389.964 285.747 389.281 285.043C388.599 284.328 388.231 283.336 388.177 282.067H386.577V285.843H385.217V277.587H386.577V280.867H388.241C388.391 279.768 388.801 278.909 389.473 278.291C390.145 277.661 391.009 277.347 392.065 277.347ZM393.809 279.363C393.372 278.776 392.78 278.483 392.033 278.483C391.287 278.483 390.689 278.776 390.241 279.363C389.804 279.949 389.585 280.733 389.585 281.715C389.585 282.728 389.804 283.523 390.241 284.099C390.679 284.664 391.287 284.947 392.065 284.947C392.812 284.947 393.399 284.659 393.825 284.083C394.252 283.507 394.465 282.712 394.465 281.699C394.465 280.717 394.247 279.939 393.809 279.363ZM403.506 278.787H400.546V285.843H399.186V278.787H396.226V277.587H403.506V278.787ZM410.405 285.843H409.045V277.587H415.893V285.843H414.533V278.787H410.405V285.843ZM419.216 277.587V278.755C419.813 277.805 420.741 277.331 422 277.331C423.152 277.331 424.064 277.72 424.736 278.499C425.419 279.277 425.76 280.333 425.76 281.667C425.76 283 425.424 284.067 424.752 284.867C424.091 285.656 423.195 286.051 422.064 286.051C420.88 286.051 419.957 285.597 419.296 284.691V289.027H417.936V277.587H419.216ZM421.792 278.467C421.003 278.467 420.379 278.755 419.92 279.331C419.472 279.896 419.248 280.68 419.248 281.683C419.248 282.685 419.477 283.475 419.936 284.051C420.405 284.616 421.04 284.899 421.84 284.899C422.619 284.899 423.232 284.611 423.68 284.035C424.128 283.459 424.352 282.675 424.352 281.683C424.352 280.68 424.123 279.896 423.664 279.331C423.216 278.755 422.592 278.467 421.792 278.467ZM428.076 278.531C428.802 277.741 429.788 277.347 431.036 277.347C432.284 277.347 433.255 277.725 433.948 278.483C434.642 279.24 434.988 280.301 434.988 281.667C434.988 283.064 434.642 284.152 433.948 284.931C433.255 285.709 432.279 286.099 431.02 286.099C429.762 286.099 428.775 285.715 428.06 284.947C427.346 284.179 426.988 283.112 426.988 281.747C426.988 280.392 427.351 279.32 428.076 278.531ZM432.892 279.363C432.434 278.776 431.804 278.483 431.004 278.483C430.204 278.483 429.57 278.776 429.1 279.363C428.631 279.949 428.396 280.733 428.396 281.715C428.396 282.728 428.626 283.523 429.084 284.099C429.554 284.664 430.204 284.947 431.036 284.947C431.836 284.947 432.46 284.659 432.908 284.083C433.367 283.507 433.596 282.712 433.596 281.699C433.596 280.717 433.362 279.939 432.892 279.363ZM447.744 281.587C447.744 282.408 447.643 283.139 447.44 283.779C447.237 284.419 446.875 284.957 446.352 285.395C445.84 285.821 445.195 286.035 444.416 286.035C444.117 286.035 443.797 285.949 443.456 285.779C443.115 285.608 442.859 285.421 442.688 285.219H442.656V289.027H441.312V285.219H441.28C441.109 285.421 440.853 285.608 440.512 285.779C440.171 285.949 439.851 286.035 439.552 286.035C438.773 286.035 438.123 285.821 437.6 285.395C437.088 284.957 436.731 284.419 436.528 283.779C436.325 283.139 436.224 282.408 436.224 281.587C436.224 280.285 436.512 279.261 437.088 278.515C437.664 277.757 438.448 277.379 439.44 277.379C439.781 277.379 440.128 277.475 440.48 277.667C440.843 277.848 441.104 278.051 441.264 278.275H441.312V274.451H442.656V278.275H442.704C442.864 278.051 443.12 277.848 443.472 277.667C443.835 277.475 444.187 277.379 444.528 277.379C445.52 277.379 446.304 277.757 446.88 278.515C447.456 279.261 447.744 280.285 447.744 281.587ZM446.336 281.619C446.336 280.669 446.171 279.917 445.84 279.363C445.509 278.797 445.008 278.515 444.336 278.515C443.984 278.515 443.643 278.605 443.312 278.787C442.992 278.968 442.773 279.261 442.656 279.667V283.827C442.709 284.125 442.885 284.381 443.184 284.595C443.493 284.797 443.851 284.899 444.256 284.899C444.651 284.899 444.987 284.803 445.264 284.611C445.552 284.419 445.771 284.157 445.92 283.827C446.069 283.485 446.176 283.139 446.24 282.787C446.304 282.424 446.336 282.035 446.336 281.619ZM441.312 283.827V279.667C441.195 279.261 440.971 278.968 440.64 278.787C440.32 278.605 439.984 278.515 439.632 278.515C438.96 278.515 438.459 278.797 438.128 279.363C437.797 279.917 437.632 280.669 437.632 281.619C437.632 282.035 437.664 282.424 437.728 282.787C437.792 283.139 437.899 283.485 438.048 283.827C438.197 284.157 438.411 284.419 438.688 284.611C438.976 284.803 439.317 284.899 439.712 284.899C440.117 284.899 440.469 284.797 440.768 284.595C441.077 284.381 441.259 284.125 441.312 283.827ZM456.461 283.235C456.045 285.155 454.845 286.115 452.861 286.115C451.645 286.115 450.69 285.736 449.997 284.979C449.314 284.221 448.973 283.171 448.973 281.827C448.973 280.493 449.325 279.416 450.029 278.595C450.744 277.763 451.672 277.347 452.813 277.347C454.082 277.347 455.021 277.779 455.629 278.643C456.248 279.496 456.557 280.579 456.557 281.891V282.083H450.349L450.333 282.179C450.333 283.053 450.562 283.741 451.021 284.243C451.48 284.744 452.109 284.995 452.909 284.995C453.506 284.995 453.976 284.856 454.317 284.579C454.669 284.301 454.941 283.853 455.133 283.235H456.461ZM455.149 280.979C455.085 280.189 454.845 279.576 454.429 279.139C454.013 278.691 453.464 278.467 452.781 278.467C452.12 278.467 451.57 278.691 451.133 279.139C450.696 279.587 450.434 280.2 450.349 280.979H455.149ZM465.103 282.835C464.985 283.827 464.607 284.616 463.967 285.203C463.337 285.789 462.516 286.083 461.503 286.083C460.255 286.083 459.289 285.699 458.607 284.931C457.924 284.152 457.583 283.117 457.583 281.827C457.583 280.451 457.94 279.363 458.655 278.563C459.369 277.752 460.335 277.347 461.551 277.347C462.564 277.347 463.375 277.603 463.983 278.115C464.591 278.616 464.948 279.336 465.055 280.275H463.647C463.401 279.08 462.708 278.483 461.567 278.483C460.777 278.483 460.153 278.776 459.695 279.363C459.236 279.939 459.007 280.723 459.007 281.715C459.007 282.717 459.225 283.507 459.663 284.083C460.1 284.659 460.703 284.947 461.471 284.947C462.089 284.947 462.591 284.765 462.975 284.403C463.369 284.04 463.62 283.517 463.727 282.835H465.103ZM473.696 282.835C473.579 283.827 473.2 284.616 472.56 285.203C471.931 285.789 471.11 286.083 470.096 286.083C468.848 286.083 467.883 285.699 467.2 284.931C466.518 284.152 466.176 283.117 466.176 281.827C466.176 280.451 466.534 279.363 467.248 278.563C467.963 277.752 468.928 277.347 470.144 277.347C471.158 277.347 471.968 277.603 472.576 278.115C473.184 278.616 473.542 279.336 473.648 280.275H472.24C471.995 279.08 471.302 278.483 470.16 278.483C469.371 278.483 468.747 278.776 468.288 279.363C467.83 279.939 467.6 280.723 467.6 281.715C467.6 282.717 467.819 283.507 468.256 284.083C468.694 284.659 469.296 284.947 470.064 284.947C470.683 284.947 471.184 284.765 471.568 284.403C471.963 284.04 472.214 283.517 472.32 282.835H473.696ZM476.93 285.843H475.186V277.587H476.546V284.323H476.578L480.29 277.587H482.034V285.843H480.674V279.107H480.642L476.93 285.843ZM484.733 278.531C485.458 277.741 486.445 277.347 487.693 277.347C488.941 277.347 489.911 277.725 490.605 278.483C491.298 279.24 491.645 280.301 491.645 281.667C491.645 283.064 491.298 284.152 490.605 284.931C489.911 285.709 488.935 286.099 487.677 286.099C486.418 286.099 485.431 285.715 484.717 284.947C484.002 284.179 483.645 283.112 483.645 281.747C483.645 280.392 484.007 279.32 484.733 278.531ZM489.549 279.363C489.09 278.776 488.461 278.483 487.661 278.483C486.861 278.483 486.226 278.776 485.757 279.363C485.287 279.949 485.053 280.733 485.053 281.715C485.053 282.728 485.282 283.523 485.741 284.099C486.21 284.664 486.861 284.947 487.693 284.947C488.493 284.947 489.117 284.659 489.565 284.083C490.023 283.507 490.253 282.712 490.253 281.699C490.253 280.717 490.018 279.939 489.549 279.363ZM494.624 285.843H493.264V277.587H494.624V280.867H498.752V277.587H500.112V285.843H498.752V282.067H494.624V285.843ZM509.467 284.755V285.811C509.19 285.917 508.88 285.971 508.539 285.971C507.76 285.971 507.36 285.565 507.339 284.755C506.56 285.629 505.563 286.067 504.347 286.067C503.536 286.067 502.891 285.859 502.411 285.443C501.942 285.027 501.707 284.456 501.707 283.731C501.707 282.259 502.683 281.4 504.635 281.155C504.763 281.133 504.95 281.112 505.195 281.091C506.123 280.984 506.694 280.861 506.907 280.723C507.152 280.552 507.275 280.259 507.275 279.843C507.275 278.936 506.651 278.483 505.403 278.483C504.763 278.483 504.278 278.616 503.947 278.883C503.616 279.139 503.419 279.565 503.355 280.163H502.027C502.048 279.277 502.363 278.589 502.971 278.099C503.579 277.608 504.416 277.363 505.483 277.363C506.646 277.363 507.51 277.629 508.075 278.163C508.256 278.333 508.39 278.557 508.475 278.835C508.56 279.112 508.608 279.341 508.619 279.523C508.63 279.693 508.635 279.955 508.635 280.307C508.635 280.712 508.624 281.325 508.603 282.147C508.582 282.968 508.571 283.581 508.571 283.987C508.571 284.285 508.608 284.499 508.683 284.627C508.768 284.744 508.918 284.803 509.131 284.803C509.216 284.803 509.328 284.787 509.467 284.755ZM507.275 281.555C507.179 281.629 507.078 281.693 506.971 281.747C506.864 281.8 506.726 281.843 506.555 281.875C506.395 281.907 506.283 281.933 506.219 281.955C506.166 281.965 506.027 281.987 505.803 282.019C505.579 282.04 505.462 282.051 505.451 282.051C505.12 282.093 504.902 282.125 504.795 282.147C504.699 282.157 504.507 282.2 504.219 282.275C503.942 282.349 503.744 282.435 503.627 282.531C503.51 282.627 503.392 282.771 503.275 282.963C503.168 283.144 503.115 283.363 503.115 283.619C503.115 284.045 503.259 284.381 503.547 284.627C503.846 284.872 504.251 284.995 504.763 284.995C505.414 284.995 505.995 284.803 506.507 284.419C507.019 284.035 507.275 283.581 507.275 283.059V281.555ZM517.629 277.587V285.843H516.269V278.787H513.325L513.213 282.435C513.181 283.693 512.951 284.605 512.525 285.171C512.098 285.736 511.565 286.019 510.925 286.019C510.53 286.019 510.205 285.96 509.949 285.843V284.739C510.087 284.813 510.327 284.851 510.669 284.851C510.989 284.851 511.261 284.68 511.485 284.339C511.719 283.987 511.847 283.4 511.869 282.579L512.013 277.587H517.629ZM527.511 277.587H528.871V285.843H527.511V277.587ZM525.463 281.427C525.954 281.875 526.199 282.488 526.199 283.267C526.199 284.045 525.959 284.669 525.479 285.139C525.01 285.608 524.375 285.843 523.575 285.843H519.591V277.587H520.951V280.739H523.511C524.322 280.739 524.973 280.968 525.463 281.427ZM523.079 281.907H520.951V284.643H523.079C523.634 284.643 524.055 284.525 524.343 284.291C524.642 284.045 524.791 283.704 524.791 283.267C524.791 282.36 524.221 281.907 523.079 281.907ZM532.985 284.067V285.843H531.209V284.067H532.985Z" fill="#4B5D68"/>
<path d="M345.215 416.539C345.087 417.979 344.585 419.104 343.711 419.915C342.847 420.715 341.705 421.115 340.287 421.115C338.665 421.115 337.38 420.581 336.431 419.515C335.481 418.437 335.007 416.987 335.007 415.163C335.007 413.456 335.481 412.037 336.431 410.907C337.391 409.765 338.713 409.195 340.399 409.195C341.604 409.195 342.665 409.52 343.583 410.171C344.5 410.821 345.012 411.723 345.119 412.875H343.615C343.444 412.128 343.071 411.547 342.495 411.131C341.919 410.704 341.209 410.491 340.367 410.491C339.097 410.491 338.137 410.939 337.487 411.835C336.847 412.731 336.527 413.835 336.527 415.147C336.527 416.597 336.868 417.739 337.551 418.571C338.233 419.403 339.167 419.819 340.351 419.819C341.321 419.819 342.095 419.541 342.671 418.987C343.247 418.421 343.593 417.605 343.711 416.539H345.215ZM347.61 413.531C348.335 412.741 349.322 412.347 350.57 412.347C351.818 412.347 352.788 412.725 353.482 413.483C354.175 414.24 354.522 415.301 354.522 416.667C354.522 418.064 354.175 419.152 353.482 419.931C352.788 420.709 351.812 421.099 350.554 421.099C349.295 421.099 348.308 420.715 347.594 419.947C346.879 419.179 346.522 418.112 346.522 416.747C346.522 415.392 346.884 414.32 347.61 413.531ZM352.426 414.363C351.967 413.776 351.338 413.483 350.538 413.483C349.738 413.483 349.103 413.776 348.634 414.363C348.164 414.949 347.93 415.733 347.93 416.715C347.93 417.728 348.159 418.523 348.618 419.099C349.087 419.664 349.738 419.947 350.57 419.947C351.37 419.947 351.994 419.659 352.442 419.083C352.9 418.507 353.13 417.712 353.13 416.699C353.13 415.717 352.895 414.939 352.426 414.363ZM362.26 413.787H359.3V420.843H357.94V413.787H354.98V412.587H362.26V413.787ZM364.706 412.587V413.755C365.303 412.805 366.231 412.331 367.49 412.331C368.642 412.331 369.554 412.72 370.226 413.499C370.909 414.277 371.25 415.333 371.25 416.667C371.25 418 370.914 419.067 370.242 419.867C369.581 420.656 368.685 421.051 367.554 421.051C366.37 421.051 365.447 420.597 364.786 419.691V424.027H363.426V412.587H364.706ZM367.282 413.467C366.493 413.467 365.869 413.755 365.41 414.331C364.962 414.896 364.738 415.68 364.738 416.683C364.738 417.685 364.967 418.475 365.426 419.051C365.895 419.616 366.53 419.899 367.33 419.899C368.109 419.899 368.722 419.611 369.17 419.035C369.618 418.459 369.842 417.675 369.842 416.683C369.842 415.68 369.613 414.896 369.154 414.331C368.706 413.755 368.082 413.467 367.282 413.467ZM379.635 412.587L376.099 421.899C375.96 422.272 375.838 422.56 375.731 422.763C375.635 422.976 375.491 423.205 375.299 423.451C375.118 423.707 374.894 423.888 374.627 423.995C374.371 424.112 374.067 424.171 373.715 424.171C373.448 424.171 373.112 424.123 372.707 424.027V422.811C373.102 422.928 373.395 422.987 373.587 422.987C374.035 422.987 374.355 422.757 374.547 422.299L375.187 420.795L371.907 412.587H373.443L375.891 419.163L378.211 412.587H379.635ZM388.602 423.467H387.306V420.843H381.002V423.467H379.706V419.643H380.602C380.858 419.152 381.092 418.395 381.306 417.371C381.53 416.336 381.642 415.328 381.642 414.347V412.587H387.53V419.643H388.602V423.467ZM386.17 419.643V413.787H382.97V414.475C382.97 415.445 382.868 416.432 382.666 417.435C382.474 418.427 382.255 419.163 382.01 419.643H386.17ZM391.229 420.843H389.869V412.587H391.229V415.867H395.357V412.587H396.717V420.843H395.357V417.067H391.229V420.843ZM400.584 420.843H398.84V412.587H400.2V419.323H400.232L403.944 412.587H405.688V420.843H404.328V414.107H404.296L400.584 420.843ZM414.194 420.843H412.834V417.195C412.61 417.259 412.216 417.339 411.65 417.435C411.096 417.52 410.637 417.563 410.274 417.563C409.432 417.563 408.77 417.365 408.29 416.971C407.821 416.565 407.586 415.973 407.586 415.195V412.587H408.946V414.971C408.946 415.931 409.474 416.411 410.53 416.411C411.288 416.411 412.056 416.288 412.834 416.043V412.587H414.194V420.843ZM423.64 419.755V420.811C423.363 420.917 423.053 420.971 422.712 420.971C421.933 420.971 421.533 420.565 421.512 419.755C420.733 420.629 419.736 421.067 418.52 421.067C417.709 421.067 417.064 420.859 416.584 420.443C416.115 420.027 415.88 419.456 415.88 418.731C415.88 417.259 416.856 416.4 418.808 416.155C418.936 416.133 419.123 416.112 419.368 416.091C420.296 415.984 420.867 415.861 421.08 415.723C421.325 415.552 421.448 415.259 421.448 414.843C421.448 413.936 420.824 413.483 419.576 413.483C418.936 413.483 418.451 413.616 418.12 413.883C417.789 414.139 417.592 414.565 417.528 415.163H416.2C416.221 414.277 416.536 413.589 417.144 413.099C417.752 412.608 418.589 412.363 419.656 412.363C420.819 412.363 421.683 412.629 422.248 413.163C422.429 413.333 422.563 413.557 422.648 413.835C422.733 414.112 422.781 414.341 422.792 414.523C422.803 414.693 422.808 414.955 422.808 415.307C422.808 415.712 422.797 416.325 422.776 417.147C422.755 417.968 422.744 418.581 422.744 418.987C422.744 419.285 422.781 419.499 422.856 419.627C422.941 419.744 423.091 419.803 423.304 419.803C423.389 419.803 423.501 419.787 423.64 419.755ZM421.448 416.555C421.352 416.629 421.251 416.693 421.144 416.747C421.037 416.8 420.899 416.843 420.728 416.875C420.568 416.907 420.456 416.933 420.392 416.955C420.339 416.965 420.2 416.987 419.976 417.019C419.752 417.04 419.635 417.051 419.624 417.051C419.293 417.093 419.075 417.125 418.968 417.147C418.872 417.157 418.68 417.2 418.392 417.275C418.115 417.349 417.917 417.435 417.8 417.531C417.683 417.627 417.565 417.771 417.448 417.963C417.341 418.144 417.288 418.363 417.288 418.619C417.288 419.045 417.432 419.381 417.72 419.627C418.019 419.872 418.424 419.995 418.936 419.995C419.587 419.995 420.168 419.803 420.68 419.419C421.192 419.035 421.448 418.581 421.448 418.059V416.555ZM431.322 413.787H428.362V420.843H427.002V413.787H424.042V412.587H431.322V413.787ZM438.696 416.427C439.187 416.875 439.432 417.488 439.432 418.267C439.432 419.045 439.192 419.669 438.712 420.139C438.243 420.608 437.608 420.843 436.808 420.843H432.44V412.587H433.8V415.739H436.744C437.555 415.739 438.205 415.968 438.696 416.427ZM436.312 416.907H433.8V419.643H436.312C436.867 419.643 437.288 419.525 437.576 419.291C437.875 419.045 438.024 418.704 438.024 418.267C438.024 417.36 437.453 416.907 436.312 416.907Z" fill="#212353"/>
<path d="M486.03 425.378L493.554 417.14L486.03 408.903" stroke="#9C69E2" stroke-width="2" stroke-linecap="round" stroke-linejoin="round"/>
<path d="M493.553 417.14H468.475" stroke="#9C69E2" stroke-width="2" stroke-linecap="round" stroke-linejoin="round"/>
<path d="M335.935 86.7547H344.023C345.623 86.7547 346.927 87.1147 347.935 87.8347C348.959 88.5387 349.471 89.6107 349.471 91.0507C349.471 91.8507 349.263 92.5627 348.847 93.1867C348.431 93.7947 347.863 94.2587 347.143 94.5787C349.223 95.1707 350.263 96.5627 350.263 98.7547C350.263 100.371 349.719 101.627 348.631 102.523C347.543 103.403 346.159 103.843 344.479 103.843H335.935V86.7547ZM339.583 89.6587V93.6667H342.991C344.879 93.6667 345.823 93.0027 345.823 91.6747C345.823 90.8907 345.567 90.3627 345.055 90.0907C344.543 89.8027 343.855 89.6587 342.991 89.6587H339.583ZM339.583 96.2107V100.867H343.351C344.327 100.867 345.095 100.707 345.655 100.387C346.231 100.067 346.519 99.4507 346.519 98.5387C346.519 97.6107 346.215 96.9947 345.607 96.6907C345.015 96.3707 344.199 96.2107 343.159 96.2107H339.583ZM364.473 91.4587H367.857V103.843H364.473V91.4587ZM362.913 99.7627C362.913 101.091 362.481 102.107 361.617 102.811C360.769 103.499 359.641 103.843 358.233 103.843H352.329V91.4587H355.689V95.7067H358.377C359.689 95.7067 360.769 96.0587 361.617 96.7627C362.481 97.4667 362.913 98.4667 362.913 99.7627ZM355.689 98.0107V101.491H357.417C358.793 101.491 359.481 100.915 359.481 99.7627C359.481 99.1867 359.289 98.7547 358.905 98.4667C358.521 98.1627 358.017 98.0107 357.393 98.0107H355.689ZM391.654 103.843H388.438V94.4347H388.366L385.942 103.843H382.726L380.302 94.4347H380.23V103.843H377.014V91.4587H381.958L384.286 100.459H384.382L386.71 91.4587H391.654V103.843ZM406.718 97.6507C406.718 99.6347 406.134 101.227 404.966 102.427C403.814 103.627 402.27 104.227 400.334 104.227C398.398 104.227 396.846 103.627 395.678 102.427C394.51 101.227 393.926 99.6347 393.926 97.6507C393.926 95.6827 394.518 94.0987 395.702 92.8987C396.886 91.6987 398.446 91.0987 400.382 91.0987C402.286 91.0987 403.814 91.6987 404.966 92.8987C406.134 94.0987 406.718 95.6827 406.718 97.6507ZM403.31 97.6267C403.31 96.3947 403.038 95.4347 402.494 94.7467C401.966 94.0427 401.23 93.6907 400.286 93.6907C399.374 93.6907 398.654 94.0427 398.126 94.7467C397.598 95.4507 397.334 96.4187 397.334 97.6507C397.334 98.9147 397.598 99.8987 398.126 100.603C398.654 101.307 399.39 101.659 400.334 101.659C401.278 101.659 402.006 101.307 402.518 100.603C403.046 99.8827 403.31 98.8907 403.31 97.6267ZM414.176 98.6347L411.176 103.843H407.168L411.944 96.1627L407.72 91.4587H411.608L415.496 96.3787V91.4587H418.712V96.3787L422.6 91.4587H426.488L422.192 96.2347L427.04 103.843H423.032L420.032 98.6347L418.712 100.123V103.843H415.496V100.123L414.176 98.6347ZM439.489 100.003C439.105 101.331 438.393 102.363 437.353 103.099C436.329 103.835 435.105 104.203 433.681 104.203C431.777 104.203 430.241 103.611 429.073 102.427C427.921 101.243 427.345 99.6747 427.345 97.7227C427.345 95.8027 427.929 94.2187 429.097 92.9707C430.265 91.7227 431.753 91.0987 433.561 91.0987C435.433 91.0987 436.921 91.7387 438.025 93.0187C439.129 94.2827 439.681 96.0027 439.681 98.1787V98.5147H430.801C430.817 99.5867 431.073 100.403 431.569 100.963C432.081 101.523 432.793 101.803 433.705 101.803C434.905 101.803 435.745 101.203 436.225 100.003H439.489ZM436.225 96.3547C436.145 95.5387 435.881 94.8747 435.433 94.3627C434.985 93.8347 434.361 93.5707 433.561 93.5707C432.809 93.5707 432.185 93.8187 431.689 94.3147C431.193 94.8107 430.897 95.4907 430.801 96.3547H436.225ZM451.696 94.0747H447.616V103.843H444.232V94.0747H440.152V91.4587H451.696V94.0747ZM464.426 100.003C464.042 101.331 463.33 102.363 462.29 103.099C461.266 103.835 460.042 104.203 458.618 104.203C456.714 104.203 455.178 103.611 454.01 102.427C452.858 101.243 452.282 99.6747 452.282 97.7227C452.282 95.8027 452.866 94.2187 454.034 92.9707C455.202 91.7227 456.69 91.0987 458.498 91.0987C460.37 91.0987 461.858 91.7387 462.962 93.0187C464.066 94.2827 464.618 96.0027 464.618 98.1787V98.5147H455.738C455.754 99.5867 456.01 100.403 456.506 100.963C457.018 101.523 457.73 101.803 458.642 101.803C459.842 101.803 460.682 101.203 461.162 100.003H464.426ZM461.162 96.3547C461.082 95.5387 460.818 94.8747 460.37 94.3627C459.922 93.8347 459.298 93.5707 458.498 93.5707C457.746 93.5707 457.122 93.8187 456.626 94.3147C456.13 94.8107 455.834 95.4907 455.738 96.3547H461.162ZM476.463 91.4587V92.9947C477.359 91.7467 478.639 91.1227 480.303 91.1227C481.967 91.1227 483.303 91.7227 484.311 92.9227C485.319 94.1227 485.823 95.7227 485.823 97.7227C485.823 99.6587 485.327 101.219 484.335 102.403C483.359 103.571 482.063 104.155 480.447 104.155C478.783 104.155 477.511 103.539 476.631 102.307V108.235H473.247V91.4587H476.463ZM479.463 93.8587C478.535 93.8587 477.807 94.1947 477.279 94.8667C476.767 95.5387 476.511 96.4747 476.511 97.6747C476.511 98.8747 476.775 99.8107 477.303 100.483C477.831 101.155 478.559 101.491 479.487 101.491C480.399 101.491 481.111 101.155 481.623 100.483C482.151 99.8107 482.415 98.8907 482.415 97.7227C482.415 96.5227 482.151 95.5787 481.623 94.8907C481.095 94.2027 480.375 93.8587 479.463 93.8587ZM499.439 103.843H495.983C495.871 103.523 495.791 103.123 495.743 102.643C494.703 103.683 493.367 104.203 491.735 104.203C490.359 104.203 489.279 103.875 488.495 103.219C487.711 102.547 487.319 101.627 487.319 100.459C487.319 99.9307 487.383 99.4667 487.511 99.0667C487.655 98.6667 487.879 98.3307 488.183 98.0587C488.503 97.7867 488.799 97.5627 489.071 97.3867C489.359 97.2107 489.751 97.0667 490.247 96.9547C490.743 96.8427 491.143 96.7627 491.447 96.7147C491.751 96.6507 492.175 96.5867 492.719 96.5227C493.919 96.3627 494.719 96.1947 495.119 96.0187C495.535 95.8427 495.743 95.5147 495.743 95.0347C495.743 93.9307 494.999 93.3787 493.511 93.3787C492.727 93.3787 492.151 93.5227 491.783 93.8107C491.415 94.0827 491.175 94.5707 491.063 95.2747H487.871C488.063 92.4907 489.975 91.0987 493.607 91.0987C497.207 91.0987 499.007 92.4427 499.007 95.1307V100.483C499.007 102.051 499.151 103.171 499.439 103.843ZM495.719 97.8187C495.319 98.0587 494.519 98.2747 493.319 98.4667C492.311 98.6267 491.655 98.8267 491.351 99.0667C490.999 99.3707 490.823 99.7867 490.823 100.315C490.823 100.827 490.983 101.235 491.303 101.539C491.639 101.827 492.103 101.971 492.695 101.971C493.607 101.971 494.335 101.731 494.879 101.251C495.439 100.755 495.719 100.075 495.719 99.2107V97.8187ZM513.508 99.0667C513.3 100.667 512.668 101.915 511.612 102.811C510.572 103.707 509.228 104.155 507.58 104.155C505.676 104.155 504.148 103.571 502.996 102.403C501.844 101.235 501.268 99.6827 501.268 97.7467C501.268 95.7467 501.844 94.1387 502.996 92.9227C504.164 91.7067 505.708 91.0987 507.628 91.0987C509.276 91.0987 510.62 91.5227 511.66 92.3707C512.7 93.2027 513.292 94.3387 513.436 95.7787H510.1C509.844 94.3547 509.028 93.6427 507.652 93.6427C506.724 93.6427 505.996 94.0027 505.468 94.7227C504.956 95.4267 504.7 96.4107 504.7 97.6747C504.7 98.9067 504.948 99.8667 505.444 100.555C505.956 101.227 506.668 101.563 507.58 101.563C509.068 101.563 509.948 100.731 510.22 99.0667H513.508ZM527.29 99.0667C527.082 100.667 526.45 101.915 525.394 102.811C524.354 103.707 523.01 104.155 521.362 104.155C519.458 104.155 517.93 103.571 516.778 102.403C515.626 101.235 515.05 99.6827 515.05 97.7467C515.05 95.7467 515.626 94.1387 516.778 92.9227C517.946 91.7067 519.49 91.0987 521.41 91.0987C523.058 91.0987 524.402 91.5227 525.442 92.3707C526.482 93.2027 527.074 94.3387 527.218 95.7787H523.882C523.626 94.3547 522.81 93.6427 521.434 93.6427C520.506 93.6427 519.778 94.0027 519.25 94.7227C518.738 95.4267 518.482 96.4107 518.482 97.6747C518.482 98.9067 518.73 99.8667 519.226 100.555C519.738 101.227 520.45 101.563 521.362 101.563C522.85 101.563 523.73 100.731 524.002 99.0667H527.29ZM540.361 103.843H536.977V94.0747H533.713L533.569 98.4427C533.553 98.9227 533.537 99.3067 533.521 99.5947C533.505 99.8667 533.457 100.235 533.377 100.699C533.313 101.163 533.233 101.539 533.137 101.827C533.041 102.099 532.889 102.411 532.681 102.763C532.489 103.099 532.257 103.363 531.985 103.555C531.729 103.731 531.393 103.883 530.977 104.011C530.561 104.155 530.097 104.227 529.585 104.227C528.753 104.227 528.137 104.147 527.737 103.987V101.275C528.137 101.355 528.457 101.395 528.697 101.395C529.673 101.395 530.185 100.539 530.233 98.8267L530.425 91.4587H540.361V103.843ZM554.587 103.843H551.131C551.019 103.523 550.939 103.123 550.891 102.643C549.851 103.683 548.515 104.203 546.883 104.203C545.507 104.203 544.427 103.875 543.643 103.219C542.859 102.547 542.467 101.627 542.467 100.459C542.467 99.9307 542.531 99.4667 542.659 99.0667C542.803 98.6667 543.027 98.3307 543.331 98.0587C543.651 97.7867 543.947 97.5627 544.219 97.3867C544.507 97.2107 544.899 97.0667 545.395 96.9547C545.891 96.8427 546.291 96.7627 546.595 96.7147C546.899 96.6507 547.323 96.5867 547.867 96.5227C549.067 96.3627 549.867 96.1947 550.267 96.0187C550.683 95.8427 550.891 95.5147 550.891 95.0347C550.891 93.9307 550.147 93.3787 548.659 93.3787C547.875 93.3787 547.299 93.5227 546.931 93.8107C546.563 94.0827 546.323 94.5707 546.211 95.2747H543.019C543.211 92.4907 545.123 91.0987 548.755 91.0987C552.355 91.0987 554.155 92.4427 554.155 95.1307V100.483C554.155 102.051 554.299 103.171 554.587 103.843ZM550.867 97.8187C550.467 98.0587 549.667 98.2747 548.467 98.4667C547.459 98.6267 546.803 98.8267 546.499 99.0667C546.147 99.3707 545.971 99.7867 545.971 100.315C545.971 100.827 546.131 101.235 546.451 101.539C546.787 101.827 547.251 101.971 547.843 101.971C548.755 101.971 549.483 101.731 550.027 101.251C550.587 100.755 550.867 100.075 550.867 99.2107V97.8187ZM569.233 97.7947C569.233 99.7467 568.649 101.307 567.481 102.475C566.329 103.627 564.761 104.203 562.777 104.203C561.705 104.203 560.769 103.987 559.969 103.555C559.169 103.107 558.545 102.507 558.097 101.755C557.649 101.003 557.313 100.195 557.089 99.3307C556.881 98.4667 556.777 97.5547 556.777 96.5947C556.777 95.7307 556.801 94.9707 556.849 94.3147C556.913 93.6427 557.041 92.8987 557.233 92.0827C557.425 91.2507 557.689 90.5387 558.025 89.9467C558.377 89.3547 558.873 88.8027 559.513 88.2907C560.153 87.7787 560.905 87.4107 561.769 87.1867C562.105 87.0907 562.585 87.0107 563.209 86.9467C563.849 86.8827 564.353 86.8027 564.721 86.7067C565.105 86.5947 565.345 86.4347 565.441 86.2267H568.681C568.601 86.8347 568.433 87.3627 568.177 87.8107C567.921 88.2427 567.633 88.5867 567.313 88.8427C566.993 89.0827 566.569 89.2907 566.041 89.4667C565.513 89.6427 565.033 89.7627 564.601 89.8267C564.169 89.8907 563.609 89.9547 562.921 90.0187C560.361 90.2587 558.913 91.9067 558.577 94.9627H558.649C559.001 93.9867 559.577 93.1627 560.377 92.4907C561.193 91.8027 562.249 91.4587 563.545 91.4587C565.161 91.4587 566.513 92.0427 567.601 93.2107C568.689 94.3787 569.233 95.9067 569.233 97.7947ZM565.825 97.7707C565.825 96.5707 565.569 95.6427 565.057 94.9867C564.561 94.3147 563.865 93.9787 562.969 93.9787C562.121 93.9787 561.441 94.3147 560.929 94.9867C560.433 95.6587 560.185 96.5947 560.185 97.7947C560.185 99.0267 560.433 99.9787 560.929 100.651C561.441 101.307 562.137 101.635 563.017 101.635C563.897 101.635 564.585 101.299 565.081 100.627C565.577 99.9547 565.825 99.0027 565.825 97.7707ZM583.113 103.843H579.849V95.4667L575.433 103.843H571.569V91.4587H574.833V99.8347L579.249 91.4587H583.113V103.843ZM596.235 94.0747H592.155V103.843H588.771V94.0747H584.691V91.4587H596.235V94.0747ZM609.133 99.0667C608.925 100.667 608.293 101.915 607.237 102.811C606.197 103.707 604.853 104.155 603.205 104.155C601.301 104.155 599.773 103.571 598.621 102.403C597.469 101.235 596.893 99.6827 596.893 97.7467C596.893 95.7467 597.469 94.1387 598.621 92.9227C599.789 91.7067 601.333 91.0987 603.253 91.0987C604.901 91.0987 606.245 91.5227 607.285 92.3707C608.325 93.2027 608.917 94.3387 609.061 95.7787H605.725C605.469 94.3547 604.653 93.6427 603.277 93.6427C602.349 93.6427 601.621 94.0027 601.093 94.7227C600.581 95.4267 600.325 96.4107 600.325 97.6747C600.325 98.9067 600.573 99.8667 601.069 100.555C601.581 101.227 602.293 101.563 603.205 101.563C604.693 101.563 605.573 100.731 605.845 99.0667H609.133ZM622.219 103.843H618.835V99.2587H617.395L613.843 103.843H609.667L613.771 98.9707C612.859 98.8267 612.107 98.4187 611.515 97.7467C610.923 97.0587 610.627 96.2187 610.627 95.2267C610.627 94.1387 611.011 93.2427 611.779 92.5387C612.547 91.8187 613.531 91.4587 614.731 91.4587H622.219V103.843ZM618.835 96.8107V93.9067H616.123C615.371 93.9067 614.843 94.0267 614.539 94.2667C614.235 94.4907 614.083 94.8507 614.083 95.3467C614.083 95.8587 614.227 96.2347 614.515 96.4747C614.819 96.6987 615.355 96.8107 616.123 96.8107H618.835Z" fill="#212353"/>
</svg>
