<svg width="316" height="34" viewBox="0 0 316 34" fill="none" xmlns="http://www.w3.org/2000/svg">
<path d="M0.8 1.296H9.476C10.532 1.296 11.504 1.404 12.392 1.62C13.304 1.836 14.084 2.196 14.732 2.7C15.38 3.204 15.884 3.876 16.244 4.716C16.604 5.556 16.784 6.588 16.784 7.812C16.784 9.204 16.46 10.404 15.812 11.412C15.164 12.396 14.192 13.068 12.896 13.428V13.5C14.336 13.692 15.476 14.304 16.316 15.336C17.156 16.368 17.576 17.748 17.576 19.476C17.576 20.484 17.444 21.444 17.18 22.356C16.916 23.268 16.46 24.072 15.812 24.768C15.188 25.44 14.36 25.98 13.328 26.388C12.32 26.796 11.06 27 9.548 27H0.8V1.296ZM8 23.184C9.248 23.184 10.256 22.908 11.024 22.356C11.792 21.804 12.176 20.784 12.176 19.296C12.176 18.552 12.068 17.94 11.852 17.46C11.66 16.956 11.384 16.56 11.024 16.272C10.688 15.96 10.28 15.744 9.8 15.624C9.32 15.504 8.792 15.444 8.216 15.444H5.984V23.184H8ZM7.46 11.844C8.9 11.844 9.944 11.592 10.592 11.088C11.264 10.56 11.6 9.684 11.6 8.46C11.6 7.236 11.3 6.372 10.7 5.868C10.1 5.364 9.152 5.112 7.856 5.112H5.984V11.844H7.46ZM29.4439 27.396C27.9559 27.396 26.7199 27.192 25.7359 26.784C24.7519 26.376 23.9719 25.752 23.3959 24.912C22.8199 24.072 22.4119 23.028 22.1719 21.78C21.9319 20.508 21.8119 19.02 21.8119 17.316C21.8119 15.66 21.9439 14.196 22.2079 12.924C22.4719 11.652 22.9039 10.596 23.5039 9.756C24.1039 8.892 24.8839 8.244 25.8439 7.812C26.8279 7.356 28.0279 7.128 29.4439 7.128C30.9319 7.128 32.1679 7.344 33.1519 7.776C34.1359 8.208 34.9159 8.844 35.4919 9.684C36.0679 10.524 36.4759 11.592 36.7159 12.888C36.9559 14.16 37.0759 15.636 37.0759 17.316C37.0759 18.996 36.9439 20.472 36.6799 21.744C36.4159 22.992 35.9839 24.036 35.3839 24.876C34.7839 25.716 33.9919 26.352 33.0079 26.784C32.0479 27.192 30.8599 27.396 29.4439 27.396ZM29.4439 24.12C30.4519 24.12 31.1479 23.592 31.5319 22.536C31.9159 21.48 32.1079 19.74 32.1079 17.316C32.1079 14.892 31.9159 13.152 31.5319 12.096C31.1479 11.04 30.4519 10.512 29.4439 10.512C28.8199 10.512 28.3279 10.68 27.9679 11.016C27.6319 11.352 27.3679 11.82 27.1759 12.42C27.0079 13.02 26.8999 13.74 26.8519 14.58C26.8039 15.42 26.7799 16.332 26.7799 17.316C26.7799 18.3 26.8039 19.212 26.8519 20.052C26.8999 20.892 27.0079 21.612 27.1759 22.212C27.3679 22.812 27.6319 23.28 27.9679 23.616C28.3279 23.952 28.8199 24.12 29.4439 24.12ZM41.5568 7.632H46.2368V19.836L51.4928 7.632H56.7488V27H52.0328V14.868L46.7768 27H41.5568V7.632ZM48.9368 5.256C47.3768 5.256 46.1528 4.812 45.2648 3.924C44.4008 3.036 43.9448 1.8 43.8968 0.215999H46.2728C46.3688 0.935999 46.6568 1.5 47.1368 1.908C47.6168 2.316 48.2168 2.52 48.9368 2.52C49.6568 2.52 50.2568 2.316 50.7368 1.908C51.2168 1.5 51.5048 0.935999 51.6008 0.215999H53.9768C53.9288 1.8 53.4608 3.036 52.5728 3.924C51.7088 4.812 50.4968 5.256 48.9368 5.256ZM60.193 23.256H61.813C62.413 21.96 62.869 20.424 63.181 18.648C63.517 16.848 63.685 14.628 63.685 11.988V7.632H76.753V23.256H78.985V31.5H74.485V27H64.693V31.5H60.193V23.256ZM71.929 23.256V11.376H68.329V13.104C68.329 13.872 68.293 14.712 68.221 15.624C68.149 16.536 68.041 17.448 67.897 18.36C67.753 19.272 67.573 20.16 67.357 21.024C67.165 21.864 66.937 22.608 66.673 23.256H71.929ZM82.7037 7.632H87.3837V19.836L92.6397 7.632H97.8957V27H93.1797V14.868L87.9237 27H82.7037V7.632ZM122.3 19.62C122.036 19.668 121.616 19.74 121.04 19.836C120.464 19.932 119.792 19.98 119.024 19.98C116.96 19.98 115.436 19.524 114.452 18.612C113.468 17.7 112.976 16.308 112.976 14.436V7.632H117.908V14.292C117.908 15.18 118.112 15.756 118.52 16.02C118.928 16.26 119.444 16.38 120.068 16.38C120.548 16.38 120.992 16.344 121.4 16.272C121.808 16.2 122.108 16.14 122.3 16.092V7.632H127.268V27H122.3V19.62ZM139.204 27.396C137.404 27.396 136 27.096 134.992 26.496C133.984 25.872 133.24 25.08 132.76 24.12C132.28 23.136 131.98 22.032 131.86 20.808C131.764 19.584 131.716 18.36 131.716 17.136C131.716 15.84 131.8 14.592 131.968 13.392C132.16 12.192 132.52 11.124 133.048 10.188C133.6 9.252 134.38 8.508 135.388 7.956C136.396 7.404 137.74 7.128 139.42 7.128C140.86 7.128 142.036 7.368 142.948 7.848C143.884 8.304 144.616 8.964 145.144 9.828C145.672 10.668 146.032 11.7 146.224 12.924C146.416 14.124 146.512 15.468 146.512 16.956V18.072H136.684V19.62C136.684 20.196 136.72 20.76 136.792 21.312C136.888 21.84 137.032 22.32 137.224 22.752C137.416 23.16 137.668 23.496 137.98 23.76C138.292 24 138.676 24.12 139.132 24.12C139.972 24.12 140.584 23.82 140.968 23.22C141.352 22.62 141.616 21.708 141.76 20.484H146.224C146.128 22.74 145.528 24.456 144.424 25.632C143.344 26.808 141.604 27.396 139.204 27.396ZM141.76 15.12C141.736 14.376 141.688 13.728 141.616 13.176C141.544 12.6 141.412 12.12 141.22 11.736C141.052 11.328 140.8 11.028 140.464 10.836C140.152 10.62 139.744 10.512 139.24 10.512C138.736 10.512 138.316 10.632 137.98 10.872C137.668 11.088 137.416 11.388 137.224 11.772C137.032 12.132 136.888 12.54 136.792 12.996C136.72 13.452 136.684 13.908 136.684 14.364V15.12H141.76ZM150.9 7.632H155.652V9.684H155.724C156.276 8.772 156.888 8.124 157.56 7.74C158.256 7.332 159.108 7.128 160.116 7.128C162.156 7.128 163.656 7.932 164.616 9.54C165.576 11.124 166.056 13.716 166.056 17.316C166.056 20.916 165.576 23.496 164.616 25.056C163.656 26.616 162.156 27.396 160.116 27.396C159.18 27.396 158.376 27.228 157.704 26.892C157.056 26.532 156.468 25.968 155.94 25.2H155.868V33.228H150.9V7.632ZM158.496 23.688C159.576 23.688 160.272 23.16 160.584 22.104C160.92 21.024 161.088 19.428 161.088 17.316C161.088 15.204 160.92 13.62 160.584 12.564C160.272 11.484 159.576 10.944 158.496 10.944C157.392 10.944 156.672 11.484 156.336 12.564C156.024 13.62 155.868 15.204 155.868 17.316C155.868 19.428 156.024 21.024 156.336 22.104C156.672 23.16 157.392 23.688 158.496 23.688ZM177.468 27.396C175.668 27.396 174.264 27.096 173.256 26.496C172.248 25.872 171.504 25.08 171.024 24.12C170.544 23.136 170.244 22.032 170.124 20.808C170.028 19.584 169.98 18.36 169.98 17.136C169.98 15.84 170.064 14.592 170.232 13.392C170.424 12.192 170.784 11.124 171.312 10.188C171.864 9.252 172.644 8.508 173.652 7.956C174.66 7.404 176.004 7.128 177.684 7.128C179.124 7.128 180.3 7.368 181.212 7.848C182.148 8.304 182.88 8.964 183.408 9.828C183.936 10.668 184.296 11.7 184.488 12.924C184.68 14.124 184.776 15.468 184.776 16.956V18.072H174.948V19.62C174.948 20.196 174.984 20.76 175.056 21.312C175.152 21.84 175.296 22.32 175.488 22.752C175.68 23.16 175.932 23.496 176.244 23.76C176.556 24 176.94 24.12 177.396 24.12C178.236 24.12 178.848 23.82 179.232 23.22C179.616 22.62 179.88 21.708 180.024 20.484H184.488C184.392 22.74 183.792 24.456 182.688 25.632C181.608 26.808 179.868 27.396 177.468 27.396ZM180.024 15.12C180 14.376 179.952 13.728 179.88 13.176C179.808 12.6 179.676 12.12 179.484 11.736C179.316 11.328 179.064 11.028 178.728 10.836C178.416 10.62 178.008 10.512 177.504 10.512C177 10.512 176.58 10.632 176.244 10.872C175.932 11.088 175.68 11.388 175.488 11.772C175.296 12.132 175.152 12.54 175.056 12.996C174.984 13.452 174.948 13.908 174.948 14.364V15.12H180.024ZM195.464 27.396C193.208 27.396 191.468 26.904 190.244 25.92C189.044 24.912 188.444 23.256 188.444 20.952V20.592H192.872V20.844C192.872 21.9 193.064 22.716 193.448 23.292C193.832 23.844 194.504 24.12 195.464 24.12C196.184 24.12 196.76 23.88 197.192 23.4C197.624 22.896 197.84 22.224 197.84 21.384C197.84 20.376 197.648 19.68 197.264 19.296C196.88 18.888 196.268 18.684 195.428 18.684C195.308 18.684 195.056 18.684 194.672 18.684C194.312 18.684 194 18.696 193.736 18.72V15.264C193.928 15.288 194.204 15.3 194.564 15.3C194.924 15.3 195.152 15.3 195.248 15.3C195.872 15.3 196.4 15.108 196.832 14.724C197.288 14.316 197.516 13.62 197.516 12.636C197.516 11.892 197.324 11.34 196.94 10.98C196.556 10.596 196.052 10.404 195.428 10.404C194.588 10.404 194 10.644 193.664 11.124C193.328 11.604 193.16 12.252 193.16 13.068V13.32H188.768V12.996C188.768 11.916 188.936 11.004 189.272 10.26C189.608 9.516 190.076 8.916 190.676 8.46C191.3 7.98 192.032 7.644 192.872 7.452C193.736 7.236 194.672 7.128 195.68 7.128C197.936 7.128 199.604 7.596 200.684 8.532C201.764 9.444 202.304 10.728 202.304 12.384C202.304 12.864 202.244 13.344 202.124 13.824C202.004 14.28 201.824 14.712 201.584 15.12C201.344 15.504 201.044 15.84 200.684 16.128C200.324 16.416 199.904 16.632 199.424 16.776C200.504 16.992 201.332 17.484 201.908 18.252C202.508 18.996 202.808 20.016 202.808 21.312C202.808 22.344 202.628 23.244 202.268 24.012C201.932 24.78 201.44 25.416 200.792 25.92C200.144 26.424 199.364 26.796 198.452 27.036C197.564 27.276 196.568 27.396 195.464 27.396ZM217.936 7.632H232.624V27H227.656V11.376H222.904V27H217.936V7.632ZM244.72 27.396C243.232 27.396 241.996 27.192 241.012 26.784C240.028 26.376 239.248 25.752 238.672 24.912C238.096 24.072 237.688 23.028 237.448 21.78C237.208 20.508 237.088 19.02 237.088 17.316C237.088 15.66 237.22 14.196 237.484 12.924C237.748 11.652 238.18 10.596 238.78 9.756C239.38 8.892 240.16 8.244 241.12 7.812C242.104 7.356 243.304 7.128 244.72 7.128C246.208 7.128 247.444 7.344 248.428 7.776C249.412 8.208 250.192 8.844 250.768 9.684C251.344 10.524 251.752 11.592 251.992 12.888C252.232 14.16 252.352 15.636 252.352 17.316C252.352 18.996 252.22 20.472 251.956 21.744C251.692 22.992 251.26 24.036 250.66 24.876C250.06 25.716 249.268 26.352 248.284 26.784C247.324 27.192 246.136 27.396 244.72 27.396ZM244.72 24.12C245.728 24.12 246.424 23.592 246.808 22.536C247.192 21.48 247.384 19.74 247.384 17.316C247.384 14.892 247.192 13.152 246.808 12.096C246.424 11.04 245.728 10.512 244.72 10.512C244.096 10.512 243.604 10.68 243.244 11.016C242.908 11.352 242.644 11.82 242.452 12.42C242.284 13.02 242.176 13.74 242.128 14.58C242.08 15.42 242.056 16.332 242.056 17.316C242.056 18.3 242.08 19.212 242.128 20.052C242.176 20.892 242.284 21.612 242.452 22.212C242.644 22.812 242.908 23.28 243.244 23.616C243.604 23.952 244.096 24.12 244.72 24.12ZM265.689 19.62C265.425 19.668 265.005 19.74 264.429 19.836C263.853 19.932 263.181 19.98 262.413 19.98C260.349 19.98 258.825 19.524 257.841 18.612C256.857 17.7 256.365 16.308 256.365 14.436V7.632H261.297V14.292C261.297 15.18 261.501 15.756 261.909 16.02C262.317 16.26 262.833 16.38 263.457 16.38C263.937 16.38 264.381 16.344 264.789 16.272C265.197 16.2 265.497 16.14 265.689 16.092V7.632H270.657V27H265.689V19.62ZM279.244 11.376H274.312V7.632H289.108V11.376H284.176V27H279.244V11.376ZM292.706 33.228V29.52C293.138 29.592 293.57 29.628 294.002 29.628C294.914 29.628 295.562 29.388 295.946 28.908C296.354 28.428 296.594 27.792 296.666 27L291.23 7.632H296.414L299.294 21.024H299.366L301.886 7.632H306.854L302.174 25.704C301.742 27.336 301.322 28.644 300.914 29.628C300.53 30.612 300.062 31.368 299.51 31.896C298.982 32.424 298.334 32.772 297.566 32.94C296.822 33.132 295.874 33.228 294.722 33.228H292.706ZM310.79 8.244V13.86H315.542V8.244H310.79ZM310.79 21.384V27H315.542V21.384H310.79Z" fill="#A1A4B2"/>
</svg>
