<svg width="366" height="23" viewBox="0 0 366 23" fill="none" xmlns="http://www.w3.org/2000/svg">
<path d="M3.672 10.992C2.744 10.656 2.016 10.088 1.488 9.288C0.96 8.488 0.696 7.432 0.696 6.12C0.696 5.192 0.824 4.4 1.08 3.744C1.336 3.072 1.696 2.528 2.16 2.112C2.64 1.68 3.216 1.368 3.888 1.176C4.56 0.967999 5.304 0.863999 6.12 0.863999H11.76V18H8.328V11.4H7.08L3.816 18H0L3.672 10.992ZM8.352 8.856V3.408H6.984C6.024 3.408 5.32 3.616 4.872 4.032C4.44 4.432 4.224 5.128 4.224 6.12C4.224 7.16 4.44 7.88 4.872 8.28C5.304 8.664 5.976 8.856 6.888 8.856H8.352ZM26.6946 18.264C25.8626 18.264 25.1346 18.16 24.5106 17.952C23.9026 17.744 23.3906 17.384 22.9746 16.872C22.5746 16.36 22.2706 15.672 22.0626 14.808C21.8546 13.944 21.7506 12.856 21.7506 11.544C21.7506 10.216 21.8786 9.12 22.1346 8.256C22.3906 7.376 22.7506 6.68 23.2146 6.168C23.6786 5.64 24.2306 5.272 24.8706 5.064C25.5106 4.856 26.2146 4.752 26.9826 4.752C28.5186 4.752 29.6706 5.2 30.4386 6.096C31.2226 6.992 31.6146 8.208 31.6146 9.744H28.4466C28.4466 9.44 28.4226 9.136 28.3746 8.832C28.3426 8.512 28.2706 8.232 28.1586 7.992C28.0626 7.736 27.9106 7.536 27.7026 7.392C27.5106 7.232 27.2626 7.152 26.9586 7.152C26.5426 7.152 26.2066 7.248 25.9506 7.44C25.7106 7.616 25.5266 7.888 25.3986 8.256C25.2706 8.608 25.1826 9.064 25.1346 9.624C25.0866 10.184 25.0626 10.832 25.0626 11.568C25.0626 12.368 25.0866 13.056 25.1346 13.632C25.1826 14.192 25.2706 14.656 25.3986 15.024C25.5266 15.392 25.7026 15.664 25.9266 15.84C26.1666 16 26.4706 16.08 26.8386 16.08C27.3986 16.08 27.8066 15.84 28.0626 15.36C28.3186 14.88 28.4466 14.112 28.4466 13.056H31.6146C31.6146 14.752 31.2306 16.048 30.4626 16.944C29.7106 17.824 28.4546 18.264 26.6946 18.264ZM39.1959 18.264C38.2039 18.264 37.3799 18.128 36.7239 17.856C36.0679 17.584 35.5479 17.168 35.1639 16.608C34.7799 16.048 34.5079 15.352 34.3479 14.52C34.1879 13.672 34.1079 12.68 34.1079 11.544C34.1079 10.44 34.1959 9.464 34.3719 8.616C34.5479 7.768 34.8359 7.064 35.2359 6.504C35.6359 5.928 36.1559 5.496 36.7959 5.208C37.4519 4.904 38.2519 4.752 39.1959 4.752C40.1879 4.752 41.0119 4.896 41.6679 5.184C42.3239 5.472 42.8439 5.896 43.2279 6.456C43.6119 7.016 43.8839 7.728 44.0439 8.592C44.2039 9.44 44.2839 10.424 44.2839 11.544C44.2839 12.664 44.1959 13.648 44.0199 14.496C43.8439 15.328 43.5559 16.024 43.1559 16.584C42.7559 17.144 42.2279 17.568 41.5719 17.856C40.9319 18.128 40.1399 18.264 39.1959 18.264ZM39.1959 16.08C39.8679 16.08 40.3319 15.728 40.5879 15.024C40.8439 14.32 40.9719 13.16 40.9719 11.544C40.9719 9.928 40.8439 8.768 40.5879 8.064C40.3319 7.36 39.8679 7.008 39.1959 7.008C38.7799 7.008 38.4519 7.12 38.2119 7.344C37.9879 7.568 37.8119 7.88 37.6839 8.28C37.5719 8.68 37.4999 9.16 37.4679 9.72C37.4359 10.28 37.4199 10.888 37.4199 11.544C37.4199 12.2 37.4359 12.808 37.4679 13.368C37.4999 13.928 37.5719 14.408 37.6839 14.808C37.8119 15.208 37.9879 15.52 38.2119 15.744C38.4519 15.968 38.7799 16.08 39.1959 16.08ZM47.3432 5.088H55.2392V7.584H50.6552V18H47.3432V5.088ZM58.1873 18.192C57.9153 18.192 57.6193 18.168 57.2993 18.12C56.9793 18.088 56.7233 18.048 56.5312 18V15.528C56.6113 15.544 56.7073 15.56 56.8193 15.576C56.9473 15.576 57.0513 15.576 57.1313 15.576C57.3553 15.576 57.5553 15.552 57.7313 15.504C57.9233 15.44 58.0913 15.296 58.2353 15.072C58.3793 14.832 58.4993 14.488 58.5953 14.04C58.7073 13.592 58.7953 12.984 58.8593 12.216C58.9393 11.432 58.9953 10.464 59.0273 9.312C59.0593 8.144 59.0753 6.736 59.0753 5.088H68.0273V18H64.7153V7.584H62.2193C62.2193 9.936 62.1313 11.816 61.9553 13.224C61.7793 14.616 61.5233 15.68 61.1873 16.416C60.8513 17.152 60.4273 17.632 59.9153 17.856C59.4193 18.08 58.8433 18.192 58.1873 18.192ZM74.1326 18.264C73.5566 18.264 73.0686 18.16 72.6686 17.952C72.2686 17.744 71.9486 17.472 71.7086 17.136C71.4686 16.784 71.2926 16.392 71.1806 15.96C71.0686 15.528 71.0126 15.088 71.0126 14.64C71.0126 14.032 71.0766 13.512 71.2046 13.08C71.3326 12.632 71.5246 12.256 71.7806 11.952C72.0526 11.632 72.3886 11.368 72.7886 11.16C73.2046 10.952 73.7006 10.768 74.2766 10.608L76.1486 10.104C76.6446 9.976 76.9886 9.8 77.1806 9.576C77.3726 9.352 77.4686 9.024 77.4686 8.592C77.4686 8.096 77.3486 7.712 77.1086 7.44C76.8846 7.152 76.4926 7.008 75.9326 7.008C75.4206 7.008 75.0366 7.16 74.7806 7.464C74.5246 7.768 74.3966 8.176 74.3966 8.688V9.048H71.4206V8.736C71.4206 8 71.5406 7.376 71.7806 6.864C72.0206 6.352 72.3406 5.944 72.7406 5.64C73.1566 5.32 73.6366 5.096 74.1806 4.968C74.7406 4.824 75.3326 4.752 75.9566 4.752C76.9326 4.752 77.7246 4.848 78.3326 5.04C78.9566 5.232 79.4366 5.504 79.7726 5.856C80.1086 6.208 80.3326 6.632 80.4446 7.128C80.5726 7.608 80.6366 8.136 80.6366 8.712V15.504C80.6366 16.112 80.6606 16.584 80.7086 16.92C80.7726 17.256 80.8846 17.616 81.0446 18H77.8766C77.7646 17.792 77.6766 17.576 77.6126 17.352C77.5646 17.112 77.5166 16.88 77.4686 16.656H77.4206C77.0366 17.328 76.5886 17.768 76.0766 17.976C75.5806 18.168 74.9326 18.264 74.1326 18.264ZM75.4286 16.08C75.6526 16.08 75.8846 16.048 76.1246 15.984C76.3646 15.904 76.5806 15.784 76.7726 15.624C76.9806 15.464 77.1486 15.264 77.2766 15.024C77.4046 14.768 77.4686 14.456 77.4686 14.088V11.544C77.2446 11.72 77.0046 11.864 76.7486 11.976C76.4926 12.072 76.2606 12.144 76.0526 12.192C75.3806 12.336 74.9006 12.576 74.6126 12.912C74.3246 13.248 74.1806 13.704 74.1806 14.28C74.1806 14.776 74.2766 15.2 74.4686 15.552C74.6606 15.904 74.9806 16.08 75.4286 16.08ZM88.6633 18.264C87.8313 18.264 87.1033 18.16 86.4793 17.952C85.8713 17.744 85.3593 17.384 84.9433 16.872C84.5433 16.36 84.2393 15.672 84.0313 14.808C83.8233 13.944 83.7193 12.856 83.7193 11.544C83.7193 10.216 83.8473 9.12 84.1033 8.256C84.3593 7.376 84.7193 6.68 85.1833 6.168C85.6473 5.64 86.1993 5.272 86.8393 5.064C87.4793 4.856 88.1833 4.752 88.9513 4.752C90.4873 4.752 91.6393 5.2 92.4073 6.096C93.1913 6.992 93.5833 8.208 93.5833 9.744H90.4153C90.4153 9.44 90.3913 9.136 90.3433 8.832C90.3113 8.512 90.2393 8.232 90.1273 7.992C90.0313 7.736 89.8793 7.536 89.6713 7.392C89.4793 7.232 89.2313 7.152 88.9273 7.152C88.5113 7.152 88.1753 7.248 87.9193 7.44C87.6793 7.616 87.4953 7.888 87.3673 8.256C87.2393 8.608 87.1513 9.064 87.1033 9.624C87.0553 10.184 87.0313 10.832 87.0313 11.568C87.0313 12.368 87.0553 13.056 87.1033 13.632C87.1513 14.192 87.2393 14.656 87.3673 15.024C87.4953 15.392 87.6713 15.664 87.8953 15.84C88.1353 16 88.4393 16.08 88.8073 16.08C89.3673 16.08 89.7753 15.84 90.0313 15.36C90.2873 14.88 90.4153 14.112 90.4153 13.056H93.5833C93.5833 14.752 93.1993 16.048 92.4313 16.944C91.6793 17.824 90.4233 18.264 88.6633 18.264ZM101.021 18.264C99.8207 18.264 98.8847 18.064 98.2127 17.664C97.5407 17.248 97.0447 16.72 96.7247 16.08C96.4047 15.424 96.2047 14.688 96.1247 13.872C96.0607 13.056 96.0287 12.24 96.0287 11.424C96.0287 10.56 96.0847 9.728 96.1967 8.928C96.3247 8.128 96.5647 7.416 96.9167 6.792C97.2847 6.168 97.8047 5.672 98.4767 5.304C99.1487 4.936 100.045 4.752 101.165 4.752C102.125 4.752 102.909 4.912 103.517 5.232C104.141 5.536 104.629 5.976 104.981 6.552C105.333 7.112 105.573 7.8 105.701 8.616C105.829 9.416 105.893 10.312 105.893 11.304V12.048H99.3407V13.08C99.3407 13.464 99.3647 13.84 99.4127 14.208C99.4767 14.56 99.5727 14.88 99.7007 15.168C99.8287 15.44 99.9967 15.664 100.205 15.84C100.413 16 100.669 16.08 100.973 16.08C101.533 16.08 101.941 15.88 102.197 15.48C102.453 15.08 102.629 14.472 102.725 13.656H105.701C105.637 15.16 105.237 16.304 104.501 17.088C103.781 17.872 102.621 18.264 101.021 18.264ZM102.725 10.08C102.709 9.584 102.677 9.152 102.629 8.784C102.581 8.4 102.493 8.08 102.365 7.824C102.253 7.552 102.085 7.352 101.861 7.224C101.653 7.08 101.381 7.008 101.045 7.008C100.709 7.008 100.429 7.088 100.205 7.248C99.9967 7.392 99.8287 7.592 99.7007 7.848C99.5727 8.088 99.4767 8.36 99.4127 8.664C99.3647 8.968 99.3407 9.272 99.3407 9.576V10.08H102.725ZM108.818 5.088H112.13V9.864H115.298V5.088H118.61V18H115.298V12.504H112.13V18H108.818V5.088ZM133.448 18.264C132.616 18.264 131.888 18.16 131.264 17.952C130.656 17.744 130.144 17.384 129.728 16.872C129.328 16.36 129.024 15.672 128.816 14.808C128.608 13.944 128.504 12.856 128.504 11.544C128.504 10.216 128.632 9.12 128.888 8.256C129.144 7.376 129.504 6.68 129.968 6.168C130.432 5.64 130.984 5.272 131.624 5.064C132.264 4.856 132.968 4.752 133.736 4.752C135.272 4.752 136.424 5.2 137.192 6.096C137.976 6.992 138.368 8.208 138.368 9.744H135.2C135.2 9.44 135.176 9.136 135.128 8.832C135.096 8.512 135.024 8.232 134.912 7.992C134.816 7.736 134.664 7.536 134.456 7.392C134.264 7.232 134.016 7.152 133.712 7.152C133.296 7.152 132.96 7.248 132.704 7.44C132.464 7.616 132.28 7.888 132.152 8.256C132.024 8.608 131.936 9.064 131.888 9.624C131.84 10.184 131.816 10.832 131.816 11.568C131.816 12.368 131.84 13.056 131.888 13.632C131.936 14.192 132.024 14.656 132.152 15.024C132.28 15.392 132.456 15.664 132.68 15.84C132.92 16 133.224 16.08 133.592 16.08C134.152 16.08 134.56 15.84 134.816 15.36C135.072 14.88 135.2 14.112 135.2 13.056H138.368C138.368 14.752 137.984 16.048 137.216 16.944C136.464 17.824 135.208 18.264 133.448 18.264ZM148.259 5.088H153.707C154.267 5.088 154.787 5.144 155.267 5.256C155.747 5.368 156.155 5.56 156.491 5.832C156.843 6.088 157.115 6.424 157.307 6.84C157.499 7.256 157.595 7.76 157.595 8.352C157.595 9.056 157.427 9.664 157.091 10.176C156.771 10.672 156.275 11.008 155.603 11.184C157.187 11.52 157.979 12.568 157.979 14.328C157.979 15.048 157.867 15.648 157.643 16.128C157.435 16.592 157.131 16.968 156.731 17.256C156.347 17.528 155.883 17.72 155.339 17.832C154.811 17.944 154.235 18 153.611 18H148.259V5.088ZM152.819 15.696C153.427 15.696 153.891 15.592 154.211 15.384C154.531 15.16 154.691 14.712 154.691 14.04C154.691 13.384 154.539 12.944 154.235 12.72C153.947 12.496 153.475 12.384 152.819 12.384H151.523V15.696H152.819ZM152.339 10.224C152.643 10.224 152.923 10.216 153.179 10.2C153.435 10.168 153.651 10.104 153.827 10.008C154.003 9.912 154.139 9.776 154.235 9.6C154.331 9.408 154.379 9.144 154.379 8.808C154.379 8.488 154.331 8.24 154.235 8.064C154.139 7.872 154.003 7.728 153.827 7.632C153.651 7.536 153.435 7.48 153.179 7.464C152.923 7.432 152.635 7.416 152.315 7.416H151.523V10.224H152.339ZM163.795 18.264C163.219 18.264 162.731 18.16 162.331 17.952C161.931 17.744 161.611 17.472 161.371 17.136C161.131 16.784 160.955 16.392 160.843 15.96C160.731 15.528 160.675 15.088 160.675 14.64C160.675 14.032 160.739 13.512 160.867 13.08C160.995 12.632 161.187 12.256 161.443 11.952C161.715 11.632 162.051 11.368 162.451 11.16C162.867 10.952 163.363 10.768 163.939 10.608L165.811 10.104C166.307 9.976 166.651 9.8 166.843 9.576C167.035 9.352 167.131 9.024 167.131 8.592C167.131 8.096 167.011 7.712 166.771 7.44C166.547 7.152 166.155 7.008 165.595 7.008C165.083 7.008 164.699 7.16 164.443 7.464C164.187 7.768 164.059 8.176 164.059 8.688V9.048H161.083V8.736C161.083 8 161.203 7.376 161.443 6.864C161.683 6.352 162.003 5.944 162.403 5.64C162.819 5.32 163.299 5.096 163.843 4.968C164.403 4.824 164.995 4.752 165.619 4.752C166.595 4.752 167.387 4.848 167.995 5.04C168.619 5.232 169.099 5.504 169.435 5.856C169.771 6.208 169.995 6.632 170.107 7.128C170.235 7.608 170.299 8.136 170.299 8.712V15.504C170.299 16.112 170.323 16.584 170.371 16.92C170.435 17.256 170.547 17.616 170.707 18H167.539C167.427 17.792 167.339 17.576 167.275 17.352C167.227 17.112 167.179 16.88 167.131 16.656H167.083C166.699 17.328 166.251 17.768 165.739 17.976C165.243 18.168 164.595 18.264 163.795 18.264ZM165.091 16.08C165.315 16.08 165.547 16.048 165.787 15.984C166.027 15.904 166.243 15.784 166.435 15.624C166.643 15.464 166.811 15.264 166.939 15.024C167.067 14.768 167.131 14.456 167.131 14.088V11.544C166.907 11.72 166.667 11.864 166.411 11.976C166.155 12.072 165.923 12.144 165.715 12.192C165.043 12.336 164.563 12.576 164.275 12.912C163.987 13.248 163.843 13.704 163.843 14.28C163.843 14.776 163.939 15.2 164.131 15.552C164.323 15.904 164.643 16.08 165.091 16.08ZM173.862 5.088H178.59L180.606 13.728L182.622 5.088H187.35V18H184.254V8.832L181.974 18H179.238L176.958 8.832V18H173.862V5.088ZM190.765 5.088H193.885V13.224L197.389 5.088H200.893V18H197.749V9.912L194.245 18H190.765V5.088ZM362.444 5.496V9.24H365.612V5.496H362.444ZM362.444 14.256V18H365.612V14.256H362.444Z" fill="#A1A4B2"/>
<path d="M215.723 18.264C214.891 18.264 214.163 18.16 213.539 17.952C212.931 17.744 212.419 17.384 212.003 16.872C211.603 16.36 211.299 15.672 211.091 14.808C210.883 13.944 210.779 12.856 210.779 11.544C210.779 10.216 210.907 9.12 211.163 8.256C211.419 7.376 211.779 6.68 212.243 6.168C212.707 5.64 213.259 5.272 213.899 5.064C214.539 4.856 215.243 4.752 216.011 4.752C217.547 4.752 218.699 5.2 219.467 6.096C220.251 6.992 220.643 8.208 220.643 9.744H217.475C217.475 9.44 217.451 9.136 217.403 8.832C217.371 8.512 217.299 8.232 217.187 7.992C217.091 7.736 216.939 7.536 216.731 7.392C216.539 7.232 216.291 7.152 215.987 7.152C215.571 7.152 215.235 7.248 214.979 7.44C214.739 7.616 214.555 7.888 214.427 8.256C214.299 8.608 214.211 9.064 214.163 9.624C214.115 10.184 214.091 10.832 214.091 11.568C214.091 12.368 214.115 13.056 214.163 13.632C214.211 14.192 214.299 14.656 214.427 15.024C214.555 15.392 214.731 15.664 214.955 15.84C215.195 16 215.499 16.08 215.867 16.08C216.427 16.08 216.835 15.84 217.091 15.36C217.347 14.88 217.475 14.112 217.475 13.056H220.643C220.643 14.752 220.259 16.048 219.491 16.944C218.739 17.824 217.483 18.264 215.723 18.264ZM228.224 18.264C227.232 18.264 226.408 18.128 225.752 17.856C225.096 17.584 224.576 17.168 224.192 16.608C223.808 16.048 223.536 15.352 223.376 14.52C223.216 13.672 223.136 12.68 223.136 11.544C223.136 10.44 223.224 9.464 223.4 8.616C223.576 7.768 223.864 7.064 224.264 6.504C224.664 5.928 225.184 5.496 225.824 5.208C226.48 4.904 227.28 4.752 228.224 4.752C229.216 4.752 230.04 4.896 230.696 5.184C231.352 5.472 231.872 5.896 232.256 6.456C232.64 7.016 232.912 7.728 233.072 8.592C233.232 9.44 233.312 10.424 233.312 11.544C233.312 12.664 233.224 13.648 233.048 14.496C232.872 15.328 232.584 16.024 232.184 16.584C231.784 17.144 231.256 17.568 230.6 17.856C229.96 18.128 229.168 18.264 228.224 18.264ZM228.224 16.08C228.896 16.08 229.36 15.728 229.616 15.024C229.872 14.32 230 13.16 230 11.544C230 9.928 229.872 8.768 229.616 8.064C229.36 7.36 228.896 7.008 228.224 7.008C227.808 7.008 227.48 7.12 227.24 7.344C227.016 7.568 226.84 7.88 226.712 8.28C226.6 8.68 226.528 9.16 226.496 9.72C226.464 10.28 226.448 10.888 226.448 11.544C226.448 12.2 226.464 12.808 226.496 13.368C226.528 13.928 226.6 14.408 226.712 14.808C226.84 15.208 227.016 15.52 227.24 15.744C227.48 15.968 227.808 16.08 228.224 16.08ZM238.579 7.584H235.291V5.088H245.155V7.584H241.867V18H238.579V7.584ZM247.554 5.088H250.722V6.456H250.77C251.138 5.848 251.546 5.416 251.994 5.16C252.458 4.888 253.026 4.752 253.698 4.752C255.058 4.752 256.058 5.288 256.698 6.36C257.338 7.416 257.658 9.144 257.658 11.544C257.658 13.944 257.338 15.664 256.698 16.704C256.058 17.744 255.058 18.264 253.698 18.264C253.074 18.264 252.538 18.152 252.09 17.928C251.658 17.688 251.266 17.312 250.914 16.8H250.866V22.152H247.554V5.088ZM252.618 15.792C253.338 15.792 253.802 15.44 254.01 14.736C254.234 14.016 254.346 12.952 254.346 11.544C254.346 10.136 254.234 9.08 254.01 8.376C253.802 7.656 253.338 7.296 252.618 7.296C251.882 7.296 251.402 7.656 251.178 8.376C250.97 9.08 250.866 10.136 250.866 11.544C250.866 12.952 250.97 14.016 251.178 14.736C251.402 15.44 251.882 15.792 252.618 15.792ZM260.754 22.152V19.68C261.042 19.728 261.33 19.752 261.618 19.752C262.226 19.752 262.658 19.592 262.914 19.272C263.186 18.952 263.346 18.528 263.394 18L259.77 5.088H263.226L265.146 14.016H265.194L266.874 5.088H270.186L267.066 17.136C266.778 18.224 266.498 19.096 266.226 19.752C265.97 20.408 265.658 20.912 265.29 21.264C264.938 21.616 264.506 21.848 263.994 21.96C263.498 22.088 262.866 22.152 262.098 22.152H260.754ZM271.514 15.504H272.594C272.994 14.64 273.298 13.616 273.506 12.432C273.73 11.232 273.842 9.752 273.842 7.992V5.088H282.554V15.504H284.042V21H281.042V18H274.514V21H271.514V15.504ZM279.338 15.504V7.584H276.938V8.736C276.938 9.248 276.914 9.808 276.866 10.416C276.818 11.024 276.746 11.632 276.65 12.24C276.554 12.848 276.434 13.44 276.29 14.016C276.162 14.576 276.01 15.072 275.834 15.504H279.338ZM286.521 5.088H289.833V9.864H293.001V5.088H296.313V18H293.001V12.504H289.833V18H286.521V5.088ZM299.721 5.088H302.841V13.224L306.345 5.088H309.849V18H306.705V9.912L303.201 18H299.721V5.088ZM319.153 13.08C318.977 13.112 318.697 13.16 318.313 13.224C317.929 13.288 317.481 13.32 316.969 13.32C315.593 13.32 314.577 13.016 313.921 12.408C313.265 11.8 312.937 10.872 312.937 9.624V5.088H316.225V9.528C316.225 10.12 316.361 10.504 316.633 10.68C316.905 10.84 317.249 10.92 317.665 10.92C317.985 10.92 318.281 10.896 318.553 10.848C318.825 10.8 319.025 10.76 319.153 10.728V5.088H322.465V18H319.153V13.08ZM328.598 18.264C328.022 18.264 327.534 18.16 327.134 17.952C326.734 17.744 326.414 17.472 326.174 17.136C325.934 16.784 325.758 16.392 325.646 15.96C325.534 15.528 325.478 15.088 325.478 14.64C325.478 14.032 325.542 13.512 325.67 13.08C325.798 12.632 325.99 12.256 326.246 11.952C326.518 11.632 326.854 11.368 327.254 11.16C327.67 10.952 328.166 10.768 328.742 10.608L330.614 10.104C331.11 9.976 331.454 9.8 331.646 9.576C331.838 9.352 331.934 9.024 331.934 8.592C331.934 8.096 331.814 7.712 331.574 7.44C331.35 7.152 330.958 7.008 330.398 7.008C329.886 7.008 329.502 7.16 329.246 7.464C328.99 7.768 328.862 8.176 328.862 8.688V9.048H325.886V8.736C325.886 8 326.006 7.376 326.246 6.864C326.486 6.352 326.806 5.944 327.206 5.64C327.622 5.32 328.102 5.096 328.646 4.968C329.206 4.824 329.798 4.752 330.422 4.752C331.398 4.752 332.19 4.848 332.798 5.04C333.422 5.232 333.902 5.504 334.238 5.856C334.574 6.208 334.798 6.632 334.91 7.128C335.038 7.608 335.102 8.136 335.102 8.712V15.504C335.102 16.112 335.126 16.584 335.174 16.92C335.238 17.256 335.35 17.616 335.51 18H332.342C332.23 17.792 332.142 17.576 332.078 17.352C332.03 17.112 331.982 16.88 331.934 16.656H331.886C331.502 17.328 331.054 17.768 330.542 17.976C330.046 18.168 329.398 18.264 328.598 18.264ZM329.894 16.08C330.118 16.08 330.35 16.048 330.59 15.984C330.83 15.904 331.046 15.784 331.238 15.624C331.446 15.464 331.614 15.264 331.742 15.024C331.87 14.768 331.934 14.456 331.934 14.088V11.544C331.71 11.72 331.47 11.864 331.214 11.976C330.958 12.072 330.726 12.144 330.518 12.192C329.846 12.336 329.366 12.576 329.078 12.912C328.79 13.248 328.646 13.704 328.646 14.28C328.646 14.776 328.742 15.2 328.934 15.552C329.126 15.904 329.446 16.08 329.894 16.08ZM340.945 7.584H337.657V5.088H347.521V7.584H344.233V18H340.945V7.584ZM349.92 5.088H353.232V9.48H354.96C355.632 9.48 356.24 9.552 356.784 9.696C357.328 9.84 357.792 10.08 358.176 10.416C358.56 10.752 358.856 11.184 359.064 11.712C359.272 12.24 359.376 12.888 359.376 13.656C359.376 15.192 358.992 16.304 358.224 16.992C357.472 17.664 356.416 18 355.056 18H349.92V5.088ZM354.336 15.528C355.008 15.528 355.48 15.4 355.752 15.144C356.024 14.888 356.16 14.424 356.16 13.752C356.16 13.064 356.016 12.592 355.728 12.336C355.456 12.08 355.016 11.952 354.408 11.952H353.232V15.528H354.336Z" fill="#7B7F91"/>
</svg>
